%TF.GenerationSoftware,KiCad,Pcbnew,9.0.4*%
%TF.CreationDate,2025-12-01T13:25:47+09:00*%
%TF.ProjectId,Handy_LoRa,48616e64-795f-44c6-9f52-612e6b696361,rev?*%
%TF.SameCoordinates,Original*%
%TF.FileFunction,Legend,Top*%
%TF.FilePolarity,Positive*%
%FSLAX46Y46*%
G04 Gerber Fmt 4.6, Leading zero omitted, Abs format (unit mm)*
G04 Created by KiCad (PCBNEW 9.0.4) date 2025-12-01 13:25:47*
%MOMM*%
%LPD*%
G01*
G04 APERTURE LIST*
%ADD10C,0.100000*%
%ADD11C,0.150000*%
%ADD12C,0.120000*%
%ADD13C,0.127000*%
G04 APERTURE END LIST*
D10*
X61367693Y-40340038D02*
X61272455Y-40292419D01*
X61272455Y-40292419D02*
X61129598Y-40292419D01*
X61129598Y-40292419D02*
X60986741Y-40340038D01*
X60986741Y-40340038D02*
X60891503Y-40435276D01*
X60891503Y-40435276D02*
X60843884Y-40530514D01*
X60843884Y-40530514D02*
X60796265Y-40720990D01*
X60796265Y-40720990D02*
X60796265Y-40863847D01*
X60796265Y-40863847D02*
X60843884Y-41054323D01*
X60843884Y-41054323D02*
X60891503Y-41149561D01*
X60891503Y-41149561D02*
X60986741Y-41244800D01*
X60986741Y-41244800D02*
X61129598Y-41292419D01*
X61129598Y-41292419D02*
X61224836Y-41292419D01*
X61224836Y-41292419D02*
X61367693Y-41244800D01*
X61367693Y-41244800D02*
X61415312Y-41197180D01*
X61415312Y-41197180D02*
X61415312Y-40863847D01*
X61415312Y-40863847D02*
X61224836Y-40863847D01*
X61843884Y-41292419D02*
X61843884Y-40292419D01*
X61843884Y-40292419D02*
X62415312Y-41292419D01*
X62415312Y-41292419D02*
X62415312Y-40292419D01*
X62891503Y-41292419D02*
X62891503Y-40292419D01*
X62891503Y-40292419D02*
X63129598Y-40292419D01*
X63129598Y-40292419D02*
X63272455Y-40340038D01*
X63272455Y-40340038D02*
X63367693Y-40435276D01*
X63367693Y-40435276D02*
X63415312Y-40530514D01*
X63415312Y-40530514D02*
X63462931Y-40720990D01*
X63462931Y-40720990D02*
X63462931Y-40863847D01*
X63462931Y-40863847D02*
X63415312Y-41054323D01*
X63415312Y-41054323D02*
X63367693Y-41149561D01*
X63367693Y-41149561D02*
X63272455Y-41244800D01*
X63272455Y-41244800D02*
X63129598Y-41292419D01*
X63129598Y-41292419D02*
X62891503Y-41292419D01*
X60926265Y-44084800D02*
X61069122Y-44132419D01*
X61069122Y-44132419D02*
X61307217Y-44132419D01*
X61307217Y-44132419D02*
X61402455Y-44084800D01*
X61402455Y-44084800D02*
X61450074Y-44037180D01*
X61450074Y-44037180D02*
X61497693Y-43941942D01*
X61497693Y-43941942D02*
X61497693Y-43846704D01*
X61497693Y-43846704D02*
X61450074Y-43751466D01*
X61450074Y-43751466D02*
X61402455Y-43703847D01*
X61402455Y-43703847D02*
X61307217Y-43656228D01*
X61307217Y-43656228D02*
X61116741Y-43608609D01*
X61116741Y-43608609D02*
X61021503Y-43560990D01*
X61021503Y-43560990D02*
X60973884Y-43513371D01*
X60973884Y-43513371D02*
X60926265Y-43418133D01*
X60926265Y-43418133D02*
X60926265Y-43322895D01*
X60926265Y-43322895D02*
X60973884Y-43227657D01*
X60973884Y-43227657D02*
X61021503Y-43180038D01*
X61021503Y-43180038D02*
X61116741Y-43132419D01*
X61116741Y-43132419D02*
X61354836Y-43132419D01*
X61354836Y-43132419D02*
X61497693Y-43180038D01*
X62497693Y-44037180D02*
X62450074Y-44084800D01*
X62450074Y-44084800D02*
X62307217Y-44132419D01*
X62307217Y-44132419D02*
X62211979Y-44132419D01*
X62211979Y-44132419D02*
X62069122Y-44084800D01*
X62069122Y-44084800D02*
X61973884Y-43989561D01*
X61973884Y-43989561D02*
X61926265Y-43894323D01*
X61926265Y-43894323D02*
X61878646Y-43703847D01*
X61878646Y-43703847D02*
X61878646Y-43560990D01*
X61878646Y-43560990D02*
X61926265Y-43370514D01*
X61926265Y-43370514D02*
X61973884Y-43275276D01*
X61973884Y-43275276D02*
X62069122Y-43180038D01*
X62069122Y-43180038D02*
X62211979Y-43132419D01*
X62211979Y-43132419D02*
X62307217Y-43132419D01*
X62307217Y-43132419D02*
X62450074Y-43180038D01*
X62450074Y-43180038D02*
X62497693Y-43227657D01*
X62926265Y-44132419D02*
X62926265Y-43132419D01*
X63497693Y-44132419D02*
X63069122Y-43560990D01*
X63497693Y-43132419D02*
X62926265Y-43703847D01*
X60373884Y-46582419D02*
X60373884Y-45582419D01*
X60373884Y-45582419D02*
X60707217Y-46296704D01*
X60707217Y-46296704D02*
X61040550Y-45582419D01*
X61040550Y-45582419D02*
X61040550Y-46582419D01*
X61516741Y-46582419D02*
X61516741Y-45582419D01*
X61945312Y-46534800D02*
X62088169Y-46582419D01*
X62088169Y-46582419D02*
X62326264Y-46582419D01*
X62326264Y-46582419D02*
X62421502Y-46534800D01*
X62421502Y-46534800D02*
X62469121Y-46487180D01*
X62469121Y-46487180D02*
X62516740Y-46391942D01*
X62516740Y-46391942D02*
X62516740Y-46296704D01*
X62516740Y-46296704D02*
X62469121Y-46201466D01*
X62469121Y-46201466D02*
X62421502Y-46153847D01*
X62421502Y-46153847D02*
X62326264Y-46106228D01*
X62326264Y-46106228D02*
X62135788Y-46058609D01*
X62135788Y-46058609D02*
X62040550Y-46010990D01*
X62040550Y-46010990D02*
X61992931Y-45963371D01*
X61992931Y-45963371D02*
X61945312Y-45868133D01*
X61945312Y-45868133D02*
X61945312Y-45772895D01*
X61945312Y-45772895D02*
X61992931Y-45677657D01*
X61992931Y-45677657D02*
X62040550Y-45630038D01*
X62040550Y-45630038D02*
X62135788Y-45582419D01*
X62135788Y-45582419D02*
X62373883Y-45582419D01*
X62373883Y-45582419D02*
X62516740Y-45630038D01*
X63135788Y-45582419D02*
X63326264Y-45582419D01*
X63326264Y-45582419D02*
X63421502Y-45630038D01*
X63421502Y-45630038D02*
X63516740Y-45725276D01*
X63516740Y-45725276D02*
X63564359Y-45915752D01*
X63564359Y-45915752D02*
X63564359Y-46249085D01*
X63564359Y-46249085D02*
X63516740Y-46439561D01*
X63516740Y-46439561D02*
X63421502Y-46534800D01*
X63421502Y-46534800D02*
X63326264Y-46582419D01*
X63326264Y-46582419D02*
X63135788Y-46582419D01*
X63135788Y-46582419D02*
X63040550Y-46534800D01*
X63040550Y-46534800D02*
X62945312Y-46439561D01*
X62945312Y-46439561D02*
X62897693Y-46249085D01*
X62897693Y-46249085D02*
X62897693Y-45915752D01*
X62897693Y-45915752D02*
X62945312Y-45725276D01*
X62945312Y-45725276D02*
X63040550Y-45630038D01*
X63040550Y-45630038D02*
X63135788Y-45582419D01*
X60448884Y-49182419D02*
X60448884Y-48182419D01*
X60448884Y-48182419D02*
X60782217Y-48896704D01*
X60782217Y-48896704D02*
X61115550Y-48182419D01*
X61115550Y-48182419D02*
X61115550Y-49182419D01*
X61782217Y-48182419D02*
X61972693Y-48182419D01*
X61972693Y-48182419D02*
X62067931Y-48230038D01*
X62067931Y-48230038D02*
X62163169Y-48325276D01*
X62163169Y-48325276D02*
X62210788Y-48515752D01*
X62210788Y-48515752D02*
X62210788Y-48849085D01*
X62210788Y-48849085D02*
X62163169Y-49039561D01*
X62163169Y-49039561D02*
X62067931Y-49134800D01*
X62067931Y-49134800D02*
X61972693Y-49182419D01*
X61972693Y-49182419D02*
X61782217Y-49182419D01*
X61782217Y-49182419D02*
X61686979Y-49134800D01*
X61686979Y-49134800D02*
X61591741Y-49039561D01*
X61591741Y-49039561D02*
X61544122Y-48849085D01*
X61544122Y-48849085D02*
X61544122Y-48515752D01*
X61544122Y-48515752D02*
X61591741Y-48325276D01*
X61591741Y-48325276D02*
X61686979Y-48230038D01*
X61686979Y-48230038D02*
X61782217Y-48182419D01*
X62591741Y-49134800D02*
X62734598Y-49182419D01*
X62734598Y-49182419D02*
X62972693Y-49182419D01*
X62972693Y-49182419D02*
X63067931Y-49134800D01*
X63067931Y-49134800D02*
X63115550Y-49087180D01*
X63115550Y-49087180D02*
X63163169Y-48991942D01*
X63163169Y-48991942D02*
X63163169Y-48896704D01*
X63163169Y-48896704D02*
X63115550Y-48801466D01*
X63115550Y-48801466D02*
X63067931Y-48753847D01*
X63067931Y-48753847D02*
X62972693Y-48706228D01*
X62972693Y-48706228D02*
X62782217Y-48658609D01*
X62782217Y-48658609D02*
X62686979Y-48610990D01*
X62686979Y-48610990D02*
X62639360Y-48563371D01*
X62639360Y-48563371D02*
X62591741Y-48468133D01*
X62591741Y-48468133D02*
X62591741Y-48372895D01*
X62591741Y-48372895D02*
X62639360Y-48277657D01*
X62639360Y-48277657D02*
X62686979Y-48230038D01*
X62686979Y-48230038D02*
X62782217Y-48182419D01*
X62782217Y-48182419D02*
X63020312Y-48182419D01*
X63020312Y-48182419D02*
X63163169Y-48230038D01*
X63591741Y-49182419D02*
X63591741Y-48182419D01*
X58013884Y-38802419D02*
X58013884Y-37802419D01*
X58442455Y-37897657D02*
X58490074Y-37850038D01*
X58490074Y-37850038D02*
X58585312Y-37802419D01*
X58585312Y-37802419D02*
X58823407Y-37802419D01*
X58823407Y-37802419D02*
X58918645Y-37850038D01*
X58918645Y-37850038D02*
X58966264Y-37897657D01*
X58966264Y-37897657D02*
X59013883Y-37992895D01*
X59013883Y-37992895D02*
X59013883Y-38088133D01*
X59013883Y-38088133D02*
X58966264Y-38230990D01*
X58966264Y-38230990D02*
X58394836Y-38802419D01*
X58394836Y-38802419D02*
X59013883Y-38802419D01*
X60013883Y-38707180D02*
X59966264Y-38754800D01*
X59966264Y-38754800D02*
X59823407Y-38802419D01*
X59823407Y-38802419D02*
X59728169Y-38802419D01*
X59728169Y-38802419D02*
X59585312Y-38754800D01*
X59585312Y-38754800D02*
X59490074Y-38659561D01*
X59490074Y-38659561D02*
X59442455Y-38564323D01*
X59442455Y-38564323D02*
X59394836Y-38373847D01*
X59394836Y-38373847D02*
X59394836Y-38230990D01*
X59394836Y-38230990D02*
X59442455Y-38040514D01*
X59442455Y-38040514D02*
X59490074Y-37945276D01*
X59490074Y-37945276D02*
X59585312Y-37850038D01*
X59585312Y-37850038D02*
X59728169Y-37802419D01*
X59728169Y-37802419D02*
X59823407Y-37802419D01*
X59823407Y-37802419D02*
X59966264Y-37850038D01*
X59966264Y-37850038D02*
X60013883Y-37897657D01*
X61156741Y-38754800D02*
X61299598Y-38802419D01*
X61299598Y-38802419D02*
X61537693Y-38802419D01*
X61537693Y-38802419D02*
X61632931Y-38754800D01*
X61632931Y-38754800D02*
X61680550Y-38707180D01*
X61680550Y-38707180D02*
X61728169Y-38611942D01*
X61728169Y-38611942D02*
X61728169Y-38516704D01*
X61728169Y-38516704D02*
X61680550Y-38421466D01*
X61680550Y-38421466D02*
X61632931Y-38373847D01*
X61632931Y-38373847D02*
X61537693Y-38326228D01*
X61537693Y-38326228D02*
X61347217Y-38278609D01*
X61347217Y-38278609D02*
X61251979Y-38230990D01*
X61251979Y-38230990D02*
X61204360Y-38183371D01*
X61204360Y-38183371D02*
X61156741Y-38088133D01*
X61156741Y-38088133D02*
X61156741Y-37992895D01*
X61156741Y-37992895D02*
X61204360Y-37897657D01*
X61204360Y-37897657D02*
X61251979Y-37850038D01*
X61251979Y-37850038D02*
X61347217Y-37802419D01*
X61347217Y-37802419D02*
X61585312Y-37802419D01*
X61585312Y-37802419D02*
X61728169Y-37850038D01*
X62156741Y-38802419D02*
X62156741Y-37802419D01*
X62156741Y-37802419D02*
X62394836Y-37802419D01*
X62394836Y-37802419D02*
X62537693Y-37850038D01*
X62537693Y-37850038D02*
X62632931Y-37945276D01*
X62632931Y-37945276D02*
X62680550Y-38040514D01*
X62680550Y-38040514D02*
X62728169Y-38230990D01*
X62728169Y-38230990D02*
X62728169Y-38373847D01*
X62728169Y-38373847D02*
X62680550Y-38564323D01*
X62680550Y-38564323D02*
X62632931Y-38659561D01*
X62632931Y-38659561D02*
X62537693Y-38754800D01*
X62537693Y-38754800D02*
X62394836Y-38802419D01*
X62394836Y-38802419D02*
X62156741Y-38802419D01*
X63109122Y-38516704D02*
X63585312Y-38516704D01*
X63013884Y-38802419D02*
X63347217Y-37802419D01*
X63347217Y-37802419D02*
X63680550Y-38802419D01*
X57948884Y-33782419D02*
X57948884Y-32782419D01*
X58377455Y-32877657D02*
X58425074Y-32830038D01*
X58425074Y-32830038D02*
X58520312Y-32782419D01*
X58520312Y-32782419D02*
X58758407Y-32782419D01*
X58758407Y-32782419D02*
X58853645Y-32830038D01*
X58853645Y-32830038D02*
X58901264Y-32877657D01*
X58901264Y-32877657D02*
X58948883Y-32972895D01*
X58948883Y-32972895D02*
X58948883Y-33068133D01*
X58948883Y-33068133D02*
X58901264Y-33210990D01*
X58901264Y-33210990D02*
X58329836Y-33782419D01*
X58329836Y-33782419D02*
X58948883Y-33782419D01*
X59948883Y-33687180D02*
X59901264Y-33734800D01*
X59901264Y-33734800D02*
X59758407Y-33782419D01*
X59758407Y-33782419D02*
X59663169Y-33782419D01*
X59663169Y-33782419D02*
X59520312Y-33734800D01*
X59520312Y-33734800D02*
X59425074Y-33639561D01*
X59425074Y-33639561D02*
X59377455Y-33544323D01*
X59377455Y-33544323D02*
X59329836Y-33353847D01*
X59329836Y-33353847D02*
X59329836Y-33210990D01*
X59329836Y-33210990D02*
X59377455Y-33020514D01*
X59377455Y-33020514D02*
X59425074Y-32925276D01*
X59425074Y-32925276D02*
X59520312Y-32830038D01*
X59520312Y-32830038D02*
X59663169Y-32782419D01*
X59663169Y-32782419D02*
X59758407Y-32782419D01*
X59758407Y-32782419D02*
X59901264Y-32830038D01*
X59901264Y-32830038D02*
X59948883Y-32877657D01*
X61091741Y-33734800D02*
X61234598Y-33782419D01*
X61234598Y-33782419D02*
X61472693Y-33782419D01*
X61472693Y-33782419D02*
X61567931Y-33734800D01*
X61567931Y-33734800D02*
X61615550Y-33687180D01*
X61615550Y-33687180D02*
X61663169Y-33591942D01*
X61663169Y-33591942D02*
X61663169Y-33496704D01*
X61663169Y-33496704D02*
X61615550Y-33401466D01*
X61615550Y-33401466D02*
X61567931Y-33353847D01*
X61567931Y-33353847D02*
X61472693Y-33306228D01*
X61472693Y-33306228D02*
X61282217Y-33258609D01*
X61282217Y-33258609D02*
X61186979Y-33210990D01*
X61186979Y-33210990D02*
X61139360Y-33163371D01*
X61139360Y-33163371D02*
X61091741Y-33068133D01*
X61091741Y-33068133D02*
X61091741Y-32972895D01*
X61091741Y-32972895D02*
X61139360Y-32877657D01*
X61139360Y-32877657D02*
X61186979Y-32830038D01*
X61186979Y-32830038D02*
X61282217Y-32782419D01*
X61282217Y-32782419D02*
X61520312Y-32782419D01*
X61520312Y-32782419D02*
X61663169Y-32830038D01*
X62663169Y-33687180D02*
X62615550Y-33734800D01*
X62615550Y-33734800D02*
X62472693Y-33782419D01*
X62472693Y-33782419D02*
X62377455Y-33782419D01*
X62377455Y-33782419D02*
X62234598Y-33734800D01*
X62234598Y-33734800D02*
X62139360Y-33639561D01*
X62139360Y-33639561D02*
X62091741Y-33544323D01*
X62091741Y-33544323D02*
X62044122Y-33353847D01*
X62044122Y-33353847D02*
X62044122Y-33210990D01*
X62044122Y-33210990D02*
X62091741Y-33020514D01*
X62091741Y-33020514D02*
X62139360Y-32925276D01*
X62139360Y-32925276D02*
X62234598Y-32830038D01*
X62234598Y-32830038D02*
X62377455Y-32782419D01*
X62377455Y-32782419D02*
X62472693Y-32782419D01*
X62472693Y-32782419D02*
X62615550Y-32830038D01*
X62615550Y-32830038D02*
X62663169Y-32877657D01*
X63567931Y-33782419D02*
X63091741Y-33782419D01*
X63091741Y-33782419D02*
X63091741Y-32782419D01*
X64878307Y-80376285D02*
G75*
G02*
X65000000Y-80250000I3473293J-3225215D01*
G01*
X65076397Y-18424692D02*
G75*
G02*
X65000000Y-18350000I3277003J3428192D01*
G01*
X61003884Y-79172419D02*
X61003884Y-78172419D01*
X61003884Y-78172419D02*
X61241979Y-78172419D01*
X61241979Y-78172419D02*
X61384836Y-78220038D01*
X61384836Y-78220038D02*
X61480074Y-78315276D01*
X61480074Y-78315276D02*
X61527693Y-78410514D01*
X61527693Y-78410514D02*
X61575312Y-78600990D01*
X61575312Y-78600990D02*
X61575312Y-78743847D01*
X61575312Y-78743847D02*
X61527693Y-78934323D01*
X61527693Y-78934323D02*
X61480074Y-79029561D01*
X61480074Y-79029561D02*
X61384836Y-79124800D01*
X61384836Y-79124800D02*
X61241979Y-79172419D01*
X61241979Y-79172419D02*
X61003884Y-79172419D01*
X62194360Y-78172419D02*
X62384836Y-78172419D01*
X62384836Y-78172419D02*
X62480074Y-78220038D01*
X62480074Y-78220038D02*
X62575312Y-78315276D01*
X62575312Y-78315276D02*
X62622931Y-78505752D01*
X62622931Y-78505752D02*
X62622931Y-78839085D01*
X62622931Y-78839085D02*
X62575312Y-79029561D01*
X62575312Y-79029561D02*
X62480074Y-79124800D01*
X62480074Y-79124800D02*
X62384836Y-79172419D01*
X62384836Y-79172419D02*
X62194360Y-79172419D01*
X62194360Y-79172419D02*
X62099122Y-79124800D01*
X62099122Y-79124800D02*
X62003884Y-79029561D01*
X62003884Y-79029561D02*
X61956265Y-78839085D01*
X61956265Y-78839085D02*
X61956265Y-78505752D01*
X61956265Y-78505752D02*
X62003884Y-78315276D01*
X62003884Y-78315276D02*
X62099122Y-78220038D01*
X62099122Y-78220038D02*
X62194360Y-78172419D01*
X63241979Y-78172419D02*
X63337217Y-78172419D01*
X63337217Y-78172419D02*
X63432455Y-78220038D01*
X63432455Y-78220038D02*
X63480074Y-78267657D01*
X63480074Y-78267657D02*
X63527693Y-78362895D01*
X63527693Y-78362895D02*
X63575312Y-78553371D01*
X63575312Y-78553371D02*
X63575312Y-78791466D01*
X63575312Y-78791466D02*
X63527693Y-78981942D01*
X63527693Y-78981942D02*
X63480074Y-79077180D01*
X63480074Y-79077180D02*
X63432455Y-79124800D01*
X63432455Y-79124800D02*
X63337217Y-79172419D01*
X63337217Y-79172419D02*
X63241979Y-79172419D01*
X63241979Y-79172419D02*
X63146741Y-79124800D01*
X63146741Y-79124800D02*
X63099122Y-79077180D01*
X63099122Y-79077180D02*
X63051503Y-78981942D01*
X63051503Y-78981942D02*
X63003884Y-78791466D01*
X63003884Y-78791466D02*
X63003884Y-78553371D01*
X63003884Y-78553371D02*
X63051503Y-78362895D01*
X63051503Y-78362895D02*
X63099122Y-78267657D01*
X63099122Y-78267657D02*
X63146741Y-78220038D01*
X63146741Y-78220038D02*
X63241979Y-78172419D01*
X61153884Y-71622419D02*
X61153884Y-70622419D01*
X61153884Y-70622419D02*
X61391979Y-70622419D01*
X61391979Y-70622419D02*
X61534836Y-70670038D01*
X61534836Y-70670038D02*
X61630074Y-70765276D01*
X61630074Y-70765276D02*
X61677693Y-70860514D01*
X61677693Y-70860514D02*
X61725312Y-71050990D01*
X61725312Y-71050990D02*
X61725312Y-71193847D01*
X61725312Y-71193847D02*
X61677693Y-71384323D01*
X61677693Y-71384323D02*
X61630074Y-71479561D01*
X61630074Y-71479561D02*
X61534836Y-71574800D01*
X61534836Y-71574800D02*
X61391979Y-71622419D01*
X61391979Y-71622419D02*
X61153884Y-71622419D01*
X62344360Y-70622419D02*
X62534836Y-70622419D01*
X62534836Y-70622419D02*
X62630074Y-70670038D01*
X62630074Y-70670038D02*
X62725312Y-70765276D01*
X62725312Y-70765276D02*
X62772931Y-70955752D01*
X62772931Y-70955752D02*
X62772931Y-71289085D01*
X62772931Y-71289085D02*
X62725312Y-71479561D01*
X62725312Y-71479561D02*
X62630074Y-71574800D01*
X62630074Y-71574800D02*
X62534836Y-71622419D01*
X62534836Y-71622419D02*
X62344360Y-71622419D01*
X62344360Y-71622419D02*
X62249122Y-71574800D01*
X62249122Y-71574800D02*
X62153884Y-71479561D01*
X62153884Y-71479561D02*
X62106265Y-71289085D01*
X62106265Y-71289085D02*
X62106265Y-70955752D01*
X62106265Y-70955752D02*
X62153884Y-70765276D01*
X62153884Y-70765276D02*
X62249122Y-70670038D01*
X62249122Y-70670038D02*
X62344360Y-70622419D01*
X63106265Y-70622419D02*
X63725312Y-70622419D01*
X63725312Y-70622419D02*
X63391979Y-71003371D01*
X63391979Y-71003371D02*
X63534836Y-71003371D01*
X63534836Y-71003371D02*
X63630074Y-71050990D01*
X63630074Y-71050990D02*
X63677693Y-71098609D01*
X63677693Y-71098609D02*
X63725312Y-71193847D01*
X63725312Y-71193847D02*
X63725312Y-71431942D01*
X63725312Y-71431942D02*
X63677693Y-71527180D01*
X63677693Y-71527180D02*
X63630074Y-71574800D01*
X63630074Y-71574800D02*
X63534836Y-71622419D01*
X63534836Y-71622419D02*
X63249122Y-71622419D01*
X63249122Y-71622419D02*
X63153884Y-71574800D01*
X63153884Y-71574800D02*
X63106265Y-71527180D01*
X60583884Y-53072419D02*
X60583884Y-52072419D01*
X60583884Y-52072419D02*
X60964836Y-52072419D01*
X60964836Y-52072419D02*
X61060074Y-52120038D01*
X61060074Y-52120038D02*
X61107693Y-52167657D01*
X61107693Y-52167657D02*
X61155312Y-52262895D01*
X61155312Y-52262895D02*
X61155312Y-52405752D01*
X61155312Y-52405752D02*
X61107693Y-52500990D01*
X61107693Y-52500990D02*
X61060074Y-52548609D01*
X61060074Y-52548609D02*
X60964836Y-52596228D01*
X60964836Y-52596228D02*
X60583884Y-52596228D01*
X61488646Y-52072419D02*
X61726741Y-53072419D01*
X61726741Y-53072419D02*
X61917217Y-52358133D01*
X61917217Y-52358133D02*
X62107693Y-53072419D01*
X62107693Y-53072419D02*
X62345789Y-52072419D01*
X62726741Y-53072419D02*
X62726741Y-52072419D01*
X62726741Y-52072419D02*
X63060074Y-52786704D01*
X63060074Y-52786704D02*
X63393407Y-52072419D01*
X63393407Y-52072419D02*
X63393407Y-53072419D01*
X20111027Y-52647419D02*
X20444360Y-53647419D01*
X20444360Y-53647419D02*
X20777693Y-52647419D01*
X21253884Y-53647419D02*
X21158646Y-53599800D01*
X21158646Y-53599800D02*
X21111027Y-53552180D01*
X21111027Y-53552180D02*
X21063408Y-53456942D01*
X21063408Y-53456942D02*
X21063408Y-53171228D01*
X21063408Y-53171228D02*
X21111027Y-53075990D01*
X21111027Y-53075990D02*
X21158646Y-53028371D01*
X21158646Y-53028371D02*
X21253884Y-52980752D01*
X21253884Y-52980752D02*
X21396741Y-52980752D01*
X21396741Y-52980752D02*
X21491979Y-53028371D01*
X21491979Y-53028371D02*
X21539598Y-53075990D01*
X21539598Y-53075990D02*
X21587217Y-53171228D01*
X21587217Y-53171228D02*
X21587217Y-53456942D01*
X21587217Y-53456942D02*
X21539598Y-53552180D01*
X21539598Y-53552180D02*
X21491979Y-53599800D01*
X21491979Y-53599800D02*
X21396741Y-53647419D01*
X21396741Y-53647419D02*
X21253884Y-53647419D01*
X22444360Y-52980752D02*
X22444360Y-53647419D01*
X22015789Y-52980752D02*
X22015789Y-53504561D01*
X22015789Y-53504561D02*
X22063408Y-53599800D01*
X22063408Y-53599800D02*
X22158646Y-53647419D01*
X22158646Y-53647419D02*
X22301503Y-53647419D01*
X22301503Y-53647419D02*
X22396741Y-53599800D01*
X22396741Y-53599800D02*
X22444360Y-53552180D01*
X22777694Y-52980752D02*
X23158646Y-52980752D01*
X22920551Y-52647419D02*
X22920551Y-53504561D01*
X22920551Y-53504561D02*
X22968170Y-53599800D01*
X22968170Y-53599800D02*
X23063408Y-53647419D01*
X23063408Y-53647419D02*
X23158646Y-53647419D01*
X24730075Y-52647419D02*
X24253885Y-52647419D01*
X24253885Y-52647419D02*
X24206266Y-53123609D01*
X24206266Y-53123609D02*
X24253885Y-53075990D01*
X24253885Y-53075990D02*
X24349123Y-53028371D01*
X24349123Y-53028371D02*
X24587218Y-53028371D01*
X24587218Y-53028371D02*
X24682456Y-53075990D01*
X24682456Y-53075990D02*
X24730075Y-53123609D01*
X24730075Y-53123609D02*
X24777694Y-53218847D01*
X24777694Y-53218847D02*
X24777694Y-53456942D01*
X24777694Y-53456942D02*
X24730075Y-53552180D01*
X24730075Y-53552180D02*
X24682456Y-53599800D01*
X24682456Y-53599800D02*
X24587218Y-53647419D01*
X24587218Y-53647419D02*
X24349123Y-53647419D01*
X24349123Y-53647419D02*
X24253885Y-53599800D01*
X24253885Y-53599800D02*
X24206266Y-53552180D01*
X25063409Y-52647419D02*
X25396742Y-53647419D01*
X25396742Y-53647419D02*
X25730075Y-52647419D01*
X61003884Y-68922419D02*
X61003884Y-67922419D01*
X61003884Y-67922419D02*
X61241979Y-67922419D01*
X61241979Y-67922419D02*
X61384836Y-67970038D01*
X61384836Y-67970038D02*
X61480074Y-68065276D01*
X61480074Y-68065276D02*
X61527693Y-68160514D01*
X61527693Y-68160514D02*
X61575312Y-68350990D01*
X61575312Y-68350990D02*
X61575312Y-68493847D01*
X61575312Y-68493847D02*
X61527693Y-68684323D01*
X61527693Y-68684323D02*
X61480074Y-68779561D01*
X61480074Y-68779561D02*
X61384836Y-68874800D01*
X61384836Y-68874800D02*
X61241979Y-68922419D01*
X61241979Y-68922419D02*
X61003884Y-68922419D01*
X62194360Y-67922419D02*
X62384836Y-67922419D01*
X62384836Y-67922419D02*
X62480074Y-67970038D01*
X62480074Y-67970038D02*
X62575312Y-68065276D01*
X62575312Y-68065276D02*
X62622931Y-68255752D01*
X62622931Y-68255752D02*
X62622931Y-68589085D01*
X62622931Y-68589085D02*
X62575312Y-68779561D01*
X62575312Y-68779561D02*
X62480074Y-68874800D01*
X62480074Y-68874800D02*
X62384836Y-68922419D01*
X62384836Y-68922419D02*
X62194360Y-68922419D01*
X62194360Y-68922419D02*
X62099122Y-68874800D01*
X62099122Y-68874800D02*
X62003884Y-68779561D01*
X62003884Y-68779561D02*
X61956265Y-68589085D01*
X61956265Y-68589085D02*
X61956265Y-68255752D01*
X61956265Y-68255752D02*
X62003884Y-68065276D01*
X62003884Y-68065276D02*
X62099122Y-67970038D01*
X62099122Y-67970038D02*
X62194360Y-67922419D01*
X63480074Y-68255752D02*
X63480074Y-68922419D01*
X63241979Y-67874800D02*
X63003884Y-68589085D01*
X63003884Y-68589085D02*
X63622931Y-68589085D01*
X20702693Y-55245038D02*
X20607455Y-55197419D01*
X20607455Y-55197419D02*
X20464598Y-55197419D01*
X20464598Y-55197419D02*
X20321741Y-55245038D01*
X20321741Y-55245038D02*
X20226503Y-55340276D01*
X20226503Y-55340276D02*
X20178884Y-55435514D01*
X20178884Y-55435514D02*
X20131265Y-55625990D01*
X20131265Y-55625990D02*
X20131265Y-55768847D01*
X20131265Y-55768847D02*
X20178884Y-55959323D01*
X20178884Y-55959323D02*
X20226503Y-56054561D01*
X20226503Y-56054561D02*
X20321741Y-56149800D01*
X20321741Y-56149800D02*
X20464598Y-56197419D01*
X20464598Y-56197419D02*
X20559836Y-56197419D01*
X20559836Y-56197419D02*
X20702693Y-56149800D01*
X20702693Y-56149800D02*
X20750312Y-56102180D01*
X20750312Y-56102180D02*
X20750312Y-55768847D01*
X20750312Y-55768847D02*
X20559836Y-55768847D01*
X21178884Y-56197419D02*
X21178884Y-55197419D01*
X21178884Y-55197419D02*
X21750312Y-56197419D01*
X21750312Y-56197419D02*
X21750312Y-55197419D01*
X22226503Y-56197419D02*
X22226503Y-55197419D01*
X22226503Y-55197419D02*
X22464598Y-55197419D01*
X22464598Y-55197419D02*
X22607455Y-55245038D01*
X22607455Y-55245038D02*
X22702693Y-55340276D01*
X22702693Y-55340276D02*
X22750312Y-55435514D01*
X22750312Y-55435514D02*
X22797931Y-55625990D01*
X22797931Y-55625990D02*
X22797931Y-55768847D01*
X22797931Y-55768847D02*
X22750312Y-55959323D01*
X22750312Y-55959323D02*
X22702693Y-56054561D01*
X22702693Y-56054561D02*
X22607455Y-56149800D01*
X22607455Y-56149800D02*
X22464598Y-56197419D01*
X22464598Y-56197419D02*
X22226503Y-56197419D01*
X21015312Y-48542419D02*
X20681979Y-48066228D01*
X20443884Y-48542419D02*
X20443884Y-47542419D01*
X20443884Y-47542419D02*
X20824836Y-47542419D01*
X20824836Y-47542419D02*
X20920074Y-47590038D01*
X20920074Y-47590038D02*
X20967693Y-47637657D01*
X20967693Y-47637657D02*
X21015312Y-47732895D01*
X21015312Y-47732895D02*
X21015312Y-47875752D01*
X21015312Y-47875752D02*
X20967693Y-47970990D01*
X20967693Y-47970990D02*
X20920074Y-48018609D01*
X20920074Y-48018609D02*
X20824836Y-48066228D01*
X20824836Y-48066228D02*
X20443884Y-48066228D01*
X21443884Y-48018609D02*
X21777217Y-48018609D01*
X21920074Y-48542419D02*
X21443884Y-48542419D01*
X21443884Y-48542419D02*
X21443884Y-47542419D01*
X21443884Y-47542419D02*
X21920074Y-47542419D01*
X22301027Y-48494800D02*
X22443884Y-48542419D01*
X22443884Y-48542419D02*
X22681979Y-48542419D01*
X22681979Y-48542419D02*
X22777217Y-48494800D01*
X22777217Y-48494800D02*
X22824836Y-48447180D01*
X22824836Y-48447180D02*
X22872455Y-48351942D01*
X22872455Y-48351942D02*
X22872455Y-48256704D01*
X22872455Y-48256704D02*
X22824836Y-48161466D01*
X22824836Y-48161466D02*
X22777217Y-48113847D01*
X22777217Y-48113847D02*
X22681979Y-48066228D01*
X22681979Y-48066228D02*
X22491503Y-48018609D01*
X22491503Y-48018609D02*
X22396265Y-47970990D01*
X22396265Y-47970990D02*
X22348646Y-47923371D01*
X22348646Y-47923371D02*
X22301027Y-47828133D01*
X22301027Y-47828133D02*
X22301027Y-47732895D01*
X22301027Y-47732895D02*
X22348646Y-47637657D01*
X22348646Y-47637657D02*
X22396265Y-47590038D01*
X22396265Y-47590038D02*
X22491503Y-47542419D01*
X22491503Y-47542419D02*
X22729598Y-47542419D01*
X22729598Y-47542419D02*
X22872455Y-47590038D01*
X23301027Y-48018609D02*
X23634360Y-48018609D01*
X23777217Y-48542419D02*
X23301027Y-48542419D01*
X23301027Y-48542419D02*
X23301027Y-47542419D01*
X23301027Y-47542419D02*
X23777217Y-47542419D01*
X24062932Y-47542419D02*
X24634360Y-47542419D01*
X24348646Y-48542419D02*
X24348646Y-47542419D01*
X60853884Y-61122419D02*
X60853884Y-60122419D01*
X60853884Y-60122419D02*
X61091979Y-60122419D01*
X61091979Y-60122419D02*
X61234836Y-60170038D01*
X61234836Y-60170038D02*
X61330074Y-60265276D01*
X61330074Y-60265276D02*
X61377693Y-60360514D01*
X61377693Y-60360514D02*
X61425312Y-60550990D01*
X61425312Y-60550990D02*
X61425312Y-60693847D01*
X61425312Y-60693847D02*
X61377693Y-60884323D01*
X61377693Y-60884323D02*
X61330074Y-60979561D01*
X61330074Y-60979561D02*
X61234836Y-61074800D01*
X61234836Y-61074800D02*
X61091979Y-61122419D01*
X61091979Y-61122419D02*
X60853884Y-61122419D01*
X61853884Y-61122419D02*
X61853884Y-60122419D01*
X62520550Y-60122419D02*
X62711026Y-60122419D01*
X62711026Y-60122419D02*
X62806264Y-60170038D01*
X62806264Y-60170038D02*
X62901502Y-60265276D01*
X62901502Y-60265276D02*
X62949121Y-60455752D01*
X62949121Y-60455752D02*
X62949121Y-60789085D01*
X62949121Y-60789085D02*
X62901502Y-60979561D01*
X62901502Y-60979561D02*
X62806264Y-61074800D01*
X62806264Y-61074800D02*
X62711026Y-61122419D01*
X62711026Y-61122419D02*
X62520550Y-61122419D01*
X62520550Y-61122419D02*
X62425312Y-61074800D01*
X62425312Y-61074800D02*
X62330074Y-60979561D01*
X62330074Y-60979561D02*
X62282455Y-60789085D01*
X62282455Y-60789085D02*
X62282455Y-60455752D01*
X62282455Y-60455752D02*
X62330074Y-60265276D01*
X62330074Y-60265276D02*
X62425312Y-60170038D01*
X62425312Y-60170038D02*
X62520550Y-60122419D01*
X63853883Y-60122419D02*
X63377693Y-60122419D01*
X63377693Y-60122419D02*
X63330074Y-60598609D01*
X63330074Y-60598609D02*
X63377693Y-60550990D01*
X63377693Y-60550990D02*
X63472931Y-60503371D01*
X63472931Y-60503371D02*
X63711026Y-60503371D01*
X63711026Y-60503371D02*
X63806264Y-60550990D01*
X63806264Y-60550990D02*
X63853883Y-60598609D01*
X63853883Y-60598609D02*
X63901502Y-60693847D01*
X63901502Y-60693847D02*
X63901502Y-60931942D01*
X63901502Y-60931942D02*
X63853883Y-61027180D01*
X63853883Y-61027180D02*
X63806264Y-61074800D01*
X63806264Y-61074800D02*
X63711026Y-61122419D01*
X63711026Y-61122419D02*
X63472931Y-61122419D01*
X63472931Y-61122419D02*
X63377693Y-61074800D01*
X63377693Y-61074800D02*
X63330074Y-61027180D01*
X20900312Y-61397419D02*
X20566979Y-60921228D01*
X20328884Y-61397419D02*
X20328884Y-60397419D01*
X20328884Y-60397419D02*
X20709836Y-60397419D01*
X20709836Y-60397419D02*
X20805074Y-60445038D01*
X20805074Y-60445038D02*
X20852693Y-60492657D01*
X20852693Y-60492657D02*
X20900312Y-60587895D01*
X20900312Y-60587895D02*
X20900312Y-60730752D01*
X20900312Y-60730752D02*
X20852693Y-60825990D01*
X20852693Y-60825990D02*
X20805074Y-60873609D01*
X20805074Y-60873609D02*
X20709836Y-60921228D01*
X20709836Y-60921228D02*
X20328884Y-60921228D01*
X21328884Y-60873609D02*
X21662217Y-60873609D01*
X21805074Y-61397419D02*
X21328884Y-61397419D01*
X21328884Y-61397419D02*
X21328884Y-60397419D01*
X21328884Y-60397419D02*
X21805074Y-60397419D01*
X22186027Y-61349800D02*
X22328884Y-61397419D01*
X22328884Y-61397419D02*
X22566979Y-61397419D01*
X22566979Y-61397419D02*
X22662217Y-61349800D01*
X22662217Y-61349800D02*
X22709836Y-61302180D01*
X22709836Y-61302180D02*
X22757455Y-61206942D01*
X22757455Y-61206942D02*
X22757455Y-61111704D01*
X22757455Y-61111704D02*
X22709836Y-61016466D01*
X22709836Y-61016466D02*
X22662217Y-60968847D01*
X22662217Y-60968847D02*
X22566979Y-60921228D01*
X22566979Y-60921228D02*
X22376503Y-60873609D01*
X22376503Y-60873609D02*
X22281265Y-60825990D01*
X22281265Y-60825990D02*
X22233646Y-60778371D01*
X22233646Y-60778371D02*
X22186027Y-60683133D01*
X22186027Y-60683133D02*
X22186027Y-60587895D01*
X22186027Y-60587895D02*
X22233646Y-60492657D01*
X22233646Y-60492657D02*
X22281265Y-60445038D01*
X22281265Y-60445038D02*
X22376503Y-60397419D01*
X22376503Y-60397419D02*
X22614598Y-60397419D01*
X22614598Y-60397419D02*
X22757455Y-60445038D01*
X23186027Y-60873609D02*
X23519360Y-60873609D01*
X23662217Y-61397419D02*
X23186027Y-61397419D01*
X23186027Y-61397419D02*
X23186027Y-60397419D01*
X23186027Y-60397419D02*
X23662217Y-60397419D01*
X24662217Y-61397419D02*
X24328884Y-60921228D01*
X24090789Y-61397419D02*
X24090789Y-60397419D01*
X24090789Y-60397419D02*
X24471741Y-60397419D01*
X24471741Y-60397419D02*
X24566979Y-60445038D01*
X24566979Y-60445038D02*
X24614598Y-60492657D01*
X24614598Y-60492657D02*
X24662217Y-60587895D01*
X24662217Y-60587895D02*
X24662217Y-60730752D01*
X24662217Y-60730752D02*
X24614598Y-60825990D01*
X24614598Y-60825990D02*
X24566979Y-60873609D01*
X24566979Y-60873609D02*
X24471741Y-60921228D01*
X24471741Y-60921228D02*
X24090789Y-60921228D01*
X24947932Y-60397419D02*
X25281265Y-61397419D01*
X25281265Y-61397419D02*
X25614598Y-60397419D01*
X25947932Y-60873609D02*
X26281265Y-60873609D01*
X26424122Y-61397419D02*
X25947932Y-61397419D01*
X25947932Y-61397419D02*
X25947932Y-60397419D01*
X25947932Y-60397419D02*
X26424122Y-60397419D01*
X20158646Y-50047419D02*
X20777693Y-50047419D01*
X20777693Y-50047419D02*
X20444360Y-50428371D01*
X20444360Y-50428371D02*
X20587217Y-50428371D01*
X20587217Y-50428371D02*
X20682455Y-50475990D01*
X20682455Y-50475990D02*
X20730074Y-50523609D01*
X20730074Y-50523609D02*
X20777693Y-50618847D01*
X20777693Y-50618847D02*
X20777693Y-50856942D01*
X20777693Y-50856942D02*
X20730074Y-50952180D01*
X20730074Y-50952180D02*
X20682455Y-50999800D01*
X20682455Y-50999800D02*
X20587217Y-51047419D01*
X20587217Y-51047419D02*
X20301503Y-51047419D01*
X20301503Y-51047419D02*
X20206265Y-50999800D01*
X20206265Y-50999800D02*
X20158646Y-50952180D01*
X21206265Y-50952180D02*
X21253884Y-50999800D01*
X21253884Y-50999800D02*
X21206265Y-51047419D01*
X21206265Y-51047419D02*
X21158646Y-50999800D01*
X21158646Y-50999800D02*
X21206265Y-50952180D01*
X21206265Y-50952180D02*
X21206265Y-51047419D01*
X21587217Y-50047419D02*
X22206264Y-50047419D01*
X22206264Y-50047419D02*
X21872931Y-50428371D01*
X21872931Y-50428371D02*
X22015788Y-50428371D01*
X22015788Y-50428371D02*
X22111026Y-50475990D01*
X22111026Y-50475990D02*
X22158645Y-50523609D01*
X22158645Y-50523609D02*
X22206264Y-50618847D01*
X22206264Y-50618847D02*
X22206264Y-50856942D01*
X22206264Y-50856942D02*
X22158645Y-50952180D01*
X22158645Y-50952180D02*
X22111026Y-50999800D01*
X22111026Y-50999800D02*
X22015788Y-51047419D01*
X22015788Y-51047419D02*
X21730074Y-51047419D01*
X21730074Y-51047419D02*
X21634836Y-50999800D01*
X21634836Y-50999800D02*
X21587217Y-50952180D01*
X22491979Y-50047419D02*
X22825312Y-51047419D01*
X22825312Y-51047419D02*
X23158645Y-50047419D01*
X20985312Y-43162419D02*
X20651979Y-42686228D01*
X20413884Y-43162419D02*
X20413884Y-42162419D01*
X20413884Y-42162419D02*
X20794836Y-42162419D01*
X20794836Y-42162419D02*
X20890074Y-42210038D01*
X20890074Y-42210038D02*
X20937693Y-42257657D01*
X20937693Y-42257657D02*
X20985312Y-42352895D01*
X20985312Y-42352895D02*
X20985312Y-42495752D01*
X20985312Y-42495752D02*
X20937693Y-42590990D01*
X20937693Y-42590990D02*
X20890074Y-42638609D01*
X20890074Y-42638609D02*
X20794836Y-42686228D01*
X20794836Y-42686228D02*
X20413884Y-42686228D01*
X21413884Y-42638609D02*
X21747217Y-42638609D01*
X21890074Y-43162419D02*
X21413884Y-43162419D01*
X21413884Y-43162419D02*
X21413884Y-42162419D01*
X21413884Y-42162419D02*
X21890074Y-42162419D01*
X22271027Y-43114800D02*
X22413884Y-43162419D01*
X22413884Y-43162419D02*
X22651979Y-43162419D01*
X22651979Y-43162419D02*
X22747217Y-43114800D01*
X22747217Y-43114800D02*
X22794836Y-43067180D01*
X22794836Y-43067180D02*
X22842455Y-42971942D01*
X22842455Y-42971942D02*
X22842455Y-42876704D01*
X22842455Y-42876704D02*
X22794836Y-42781466D01*
X22794836Y-42781466D02*
X22747217Y-42733847D01*
X22747217Y-42733847D02*
X22651979Y-42686228D01*
X22651979Y-42686228D02*
X22461503Y-42638609D01*
X22461503Y-42638609D02*
X22366265Y-42590990D01*
X22366265Y-42590990D02*
X22318646Y-42543371D01*
X22318646Y-42543371D02*
X22271027Y-42448133D01*
X22271027Y-42448133D02*
X22271027Y-42352895D01*
X22271027Y-42352895D02*
X22318646Y-42257657D01*
X22318646Y-42257657D02*
X22366265Y-42210038D01*
X22366265Y-42210038D02*
X22461503Y-42162419D01*
X22461503Y-42162419D02*
X22699598Y-42162419D01*
X22699598Y-42162419D02*
X22842455Y-42210038D01*
X23271027Y-42638609D02*
X23604360Y-42638609D01*
X23747217Y-43162419D02*
X23271027Y-43162419D01*
X23271027Y-43162419D02*
X23271027Y-42162419D01*
X23271027Y-42162419D02*
X23747217Y-42162419D01*
X24747217Y-43162419D02*
X24413884Y-42686228D01*
X24175789Y-43162419D02*
X24175789Y-42162419D01*
X24175789Y-42162419D02*
X24556741Y-42162419D01*
X24556741Y-42162419D02*
X24651979Y-42210038D01*
X24651979Y-42210038D02*
X24699598Y-42257657D01*
X24699598Y-42257657D02*
X24747217Y-42352895D01*
X24747217Y-42352895D02*
X24747217Y-42495752D01*
X24747217Y-42495752D02*
X24699598Y-42590990D01*
X24699598Y-42590990D02*
X24651979Y-42638609D01*
X24651979Y-42638609D02*
X24556741Y-42686228D01*
X24556741Y-42686228D02*
X24175789Y-42686228D01*
X25032932Y-42162419D02*
X25366265Y-43162419D01*
X25366265Y-43162419D02*
X25699598Y-42162419D01*
X26032932Y-42638609D02*
X26366265Y-42638609D01*
X26509122Y-43162419D02*
X26032932Y-43162419D01*
X26032932Y-43162419D02*
X26032932Y-42162419D01*
X26032932Y-42162419D02*
X26509122Y-42162419D01*
X62350312Y-55502180D02*
X62302693Y-55549800D01*
X62302693Y-55549800D02*
X62159836Y-55597419D01*
X62159836Y-55597419D02*
X62064598Y-55597419D01*
X62064598Y-55597419D02*
X61921741Y-55549800D01*
X61921741Y-55549800D02*
X61826503Y-55454561D01*
X61826503Y-55454561D02*
X61778884Y-55359323D01*
X61778884Y-55359323D02*
X61731265Y-55168847D01*
X61731265Y-55168847D02*
X61731265Y-55025990D01*
X61731265Y-55025990D02*
X61778884Y-54835514D01*
X61778884Y-54835514D02*
X61826503Y-54740276D01*
X61826503Y-54740276D02*
X61921741Y-54645038D01*
X61921741Y-54645038D02*
X62064598Y-54597419D01*
X62064598Y-54597419D02*
X62159836Y-54597419D01*
X62159836Y-54597419D02*
X62302693Y-54645038D01*
X62302693Y-54645038D02*
X62350312Y-54692657D01*
X62731265Y-55549800D02*
X62874122Y-55597419D01*
X62874122Y-55597419D02*
X63112217Y-55597419D01*
X63112217Y-55597419D02*
X63207455Y-55549800D01*
X63207455Y-55549800D02*
X63255074Y-55502180D01*
X63255074Y-55502180D02*
X63302693Y-55406942D01*
X63302693Y-55406942D02*
X63302693Y-55311704D01*
X63302693Y-55311704D02*
X63255074Y-55216466D01*
X63255074Y-55216466D02*
X63207455Y-55168847D01*
X63207455Y-55168847D02*
X63112217Y-55121228D01*
X63112217Y-55121228D02*
X62921741Y-55073609D01*
X62921741Y-55073609D02*
X62826503Y-55025990D01*
X62826503Y-55025990D02*
X62778884Y-54978371D01*
X62778884Y-54978371D02*
X62731265Y-54883133D01*
X62731265Y-54883133D02*
X62731265Y-54787895D01*
X62731265Y-54787895D02*
X62778884Y-54692657D01*
X62778884Y-54692657D02*
X62826503Y-54645038D01*
X62826503Y-54645038D02*
X62921741Y-54597419D01*
X62921741Y-54597419D02*
X63159836Y-54597419D01*
X63159836Y-54597419D02*
X63302693Y-54645038D01*
X20633884Y-45992419D02*
X20633884Y-44992419D01*
X21300550Y-44992419D02*
X21491026Y-44992419D01*
X21491026Y-44992419D02*
X21586264Y-45040038D01*
X21586264Y-45040038D02*
X21681502Y-45135276D01*
X21681502Y-45135276D02*
X21729121Y-45325752D01*
X21729121Y-45325752D02*
X21729121Y-45659085D01*
X21729121Y-45659085D02*
X21681502Y-45849561D01*
X21681502Y-45849561D02*
X21586264Y-45944800D01*
X21586264Y-45944800D02*
X21491026Y-45992419D01*
X21491026Y-45992419D02*
X21300550Y-45992419D01*
X21300550Y-45992419D02*
X21205312Y-45944800D01*
X21205312Y-45944800D02*
X21110074Y-45849561D01*
X21110074Y-45849561D02*
X21062455Y-45659085D01*
X21062455Y-45659085D02*
X21062455Y-45325752D01*
X21062455Y-45325752D02*
X21110074Y-45135276D01*
X21110074Y-45135276D02*
X21205312Y-45040038D01*
X21205312Y-45040038D02*
X21300550Y-44992419D01*
X22729121Y-45992419D02*
X22395788Y-45516228D01*
X22157693Y-45992419D02*
X22157693Y-44992419D01*
X22157693Y-44992419D02*
X22538645Y-44992419D01*
X22538645Y-44992419D02*
X22633883Y-45040038D01*
X22633883Y-45040038D02*
X22681502Y-45087657D01*
X22681502Y-45087657D02*
X22729121Y-45182895D01*
X22729121Y-45182895D02*
X22729121Y-45325752D01*
X22729121Y-45325752D02*
X22681502Y-45420990D01*
X22681502Y-45420990D02*
X22633883Y-45468609D01*
X22633883Y-45468609D02*
X22538645Y-45516228D01*
X22538645Y-45516228D02*
X22157693Y-45516228D01*
X23157693Y-45468609D02*
X23491026Y-45468609D01*
X23633883Y-45992419D02*
X23157693Y-45992419D01*
X23157693Y-45992419D02*
X23157693Y-44992419D01*
X23157693Y-44992419D02*
X23633883Y-44992419D01*
X24395788Y-45468609D02*
X24062455Y-45468609D01*
X24062455Y-45992419D02*
X24062455Y-44992419D01*
X24062455Y-44992419D02*
X24538645Y-44992419D01*
X20281265Y-78936704D02*
X20757455Y-78936704D01*
X20186027Y-79222419D02*
X20519360Y-78222419D01*
X20519360Y-78222419D02*
X20852693Y-79222419D01*
X21662217Y-78222419D02*
X21186027Y-78222419D01*
X21186027Y-78222419D02*
X21138408Y-78698609D01*
X21138408Y-78698609D02*
X21186027Y-78650990D01*
X21186027Y-78650990D02*
X21281265Y-78603371D01*
X21281265Y-78603371D02*
X21519360Y-78603371D01*
X21519360Y-78603371D02*
X21614598Y-78650990D01*
X21614598Y-78650990D02*
X21662217Y-78698609D01*
X21662217Y-78698609D02*
X21709836Y-78793847D01*
X21709836Y-78793847D02*
X21709836Y-79031942D01*
X21709836Y-79031942D02*
X21662217Y-79127180D01*
X21662217Y-79127180D02*
X21614598Y-79174800D01*
X21614598Y-79174800D02*
X21519360Y-79222419D01*
X21519360Y-79222419D02*
X21281265Y-79222419D01*
X21281265Y-79222419D02*
X21186027Y-79174800D01*
X21186027Y-79174800D02*
X21138408Y-79127180D01*
X20306265Y-76086704D02*
X20782455Y-76086704D01*
X20211027Y-76372419D02*
X20544360Y-75372419D01*
X20544360Y-75372419D02*
X20877693Y-76372419D01*
X21639598Y-75705752D02*
X21639598Y-76372419D01*
X21401503Y-75324800D02*
X21163408Y-76039085D01*
X21163408Y-76039085D02*
X21782455Y-76039085D01*
X20256265Y-68586704D02*
X20732455Y-68586704D01*
X20161027Y-68872419D02*
X20494360Y-67872419D01*
X20494360Y-67872419D02*
X20827693Y-68872419D01*
X21684836Y-68872419D02*
X21113408Y-68872419D01*
X21399122Y-68872419D02*
X21399122Y-67872419D01*
X21399122Y-67872419D02*
X21303884Y-68015276D01*
X21303884Y-68015276D02*
X21208646Y-68110514D01*
X21208646Y-68110514D02*
X21113408Y-68158133D01*
X57823884Y-36357419D02*
X57823884Y-35357419D01*
X58252455Y-35452657D02*
X58300074Y-35405038D01*
X58300074Y-35405038D02*
X58395312Y-35357419D01*
X58395312Y-35357419D02*
X58633407Y-35357419D01*
X58633407Y-35357419D02*
X58728645Y-35405038D01*
X58728645Y-35405038D02*
X58776264Y-35452657D01*
X58776264Y-35452657D02*
X58823883Y-35547895D01*
X58823883Y-35547895D02*
X58823883Y-35643133D01*
X58823883Y-35643133D02*
X58776264Y-35785990D01*
X58776264Y-35785990D02*
X58204836Y-36357419D01*
X58204836Y-36357419D02*
X58823883Y-36357419D01*
X59823883Y-36262180D02*
X59776264Y-36309800D01*
X59776264Y-36309800D02*
X59633407Y-36357419D01*
X59633407Y-36357419D02*
X59538169Y-36357419D01*
X59538169Y-36357419D02*
X59395312Y-36309800D01*
X59395312Y-36309800D02*
X59300074Y-36214561D01*
X59300074Y-36214561D02*
X59252455Y-36119323D01*
X59252455Y-36119323D02*
X59204836Y-35928847D01*
X59204836Y-35928847D02*
X59204836Y-35785990D01*
X59204836Y-35785990D02*
X59252455Y-35595514D01*
X59252455Y-35595514D02*
X59300074Y-35500276D01*
X59300074Y-35500276D02*
X59395312Y-35405038D01*
X59395312Y-35405038D02*
X59538169Y-35357419D01*
X59538169Y-35357419D02*
X59633407Y-35357419D01*
X59633407Y-35357419D02*
X59776264Y-35405038D01*
X59776264Y-35405038D02*
X59823883Y-35452657D01*
X60966741Y-36309800D02*
X61109598Y-36357419D01*
X61109598Y-36357419D02*
X61347693Y-36357419D01*
X61347693Y-36357419D02*
X61442931Y-36309800D01*
X61442931Y-36309800D02*
X61490550Y-36262180D01*
X61490550Y-36262180D02*
X61538169Y-36166942D01*
X61538169Y-36166942D02*
X61538169Y-36071704D01*
X61538169Y-36071704D02*
X61490550Y-35976466D01*
X61490550Y-35976466D02*
X61442931Y-35928847D01*
X61442931Y-35928847D02*
X61347693Y-35881228D01*
X61347693Y-35881228D02*
X61157217Y-35833609D01*
X61157217Y-35833609D02*
X61061979Y-35785990D01*
X61061979Y-35785990D02*
X61014360Y-35738371D01*
X61014360Y-35738371D02*
X60966741Y-35643133D01*
X60966741Y-35643133D02*
X60966741Y-35547895D01*
X60966741Y-35547895D02*
X61014360Y-35452657D01*
X61014360Y-35452657D02*
X61061979Y-35405038D01*
X61061979Y-35405038D02*
X61157217Y-35357419D01*
X61157217Y-35357419D02*
X61395312Y-35357419D01*
X61395312Y-35357419D02*
X61538169Y-35405038D01*
X61966741Y-36357419D02*
X61966741Y-35357419D01*
X61966741Y-35357419D02*
X62204836Y-35357419D01*
X62204836Y-35357419D02*
X62347693Y-35405038D01*
X62347693Y-35405038D02*
X62442931Y-35500276D01*
X62442931Y-35500276D02*
X62490550Y-35595514D01*
X62490550Y-35595514D02*
X62538169Y-35785990D01*
X62538169Y-35785990D02*
X62538169Y-35928847D01*
X62538169Y-35928847D02*
X62490550Y-36119323D01*
X62490550Y-36119323D02*
X62442931Y-36214561D01*
X62442931Y-36214561D02*
X62347693Y-36309800D01*
X62347693Y-36309800D02*
X62204836Y-36357419D01*
X62204836Y-36357419D02*
X61966741Y-36357419D01*
X62919122Y-36071704D02*
X63395312Y-36071704D01*
X62823884Y-36357419D02*
X63157217Y-35357419D01*
X63157217Y-35357419D02*
X63490550Y-36357419D01*
X60978884Y-66447419D02*
X60978884Y-65447419D01*
X60978884Y-65447419D02*
X61216979Y-65447419D01*
X61216979Y-65447419D02*
X61359836Y-65495038D01*
X61359836Y-65495038D02*
X61455074Y-65590276D01*
X61455074Y-65590276D02*
X61502693Y-65685514D01*
X61502693Y-65685514D02*
X61550312Y-65875990D01*
X61550312Y-65875990D02*
X61550312Y-66018847D01*
X61550312Y-66018847D02*
X61502693Y-66209323D01*
X61502693Y-66209323D02*
X61455074Y-66304561D01*
X61455074Y-66304561D02*
X61359836Y-66399800D01*
X61359836Y-66399800D02*
X61216979Y-66447419D01*
X61216979Y-66447419D02*
X60978884Y-66447419D01*
X62169360Y-65447419D02*
X62359836Y-65447419D01*
X62359836Y-65447419D02*
X62455074Y-65495038D01*
X62455074Y-65495038D02*
X62550312Y-65590276D01*
X62550312Y-65590276D02*
X62597931Y-65780752D01*
X62597931Y-65780752D02*
X62597931Y-66114085D01*
X62597931Y-66114085D02*
X62550312Y-66304561D01*
X62550312Y-66304561D02*
X62455074Y-66399800D01*
X62455074Y-66399800D02*
X62359836Y-66447419D01*
X62359836Y-66447419D02*
X62169360Y-66447419D01*
X62169360Y-66447419D02*
X62074122Y-66399800D01*
X62074122Y-66399800D02*
X61978884Y-66304561D01*
X61978884Y-66304561D02*
X61931265Y-66114085D01*
X61931265Y-66114085D02*
X61931265Y-65780752D01*
X61931265Y-65780752D02*
X61978884Y-65590276D01*
X61978884Y-65590276D02*
X62074122Y-65495038D01*
X62074122Y-65495038D02*
X62169360Y-65447419D01*
X63502693Y-65447419D02*
X63026503Y-65447419D01*
X63026503Y-65447419D02*
X62978884Y-65923609D01*
X62978884Y-65923609D02*
X63026503Y-65875990D01*
X63026503Y-65875990D02*
X63121741Y-65828371D01*
X63121741Y-65828371D02*
X63359836Y-65828371D01*
X63359836Y-65828371D02*
X63455074Y-65875990D01*
X63455074Y-65875990D02*
X63502693Y-65923609D01*
X63502693Y-65923609D02*
X63550312Y-66018847D01*
X63550312Y-66018847D02*
X63550312Y-66256942D01*
X63550312Y-66256942D02*
X63502693Y-66352180D01*
X63502693Y-66352180D02*
X63455074Y-66399800D01*
X63455074Y-66399800D02*
X63359836Y-66447419D01*
X63359836Y-66447419D02*
X63121741Y-66447419D01*
X63121741Y-66447419D02*
X63026503Y-66399800D01*
X63026503Y-66399800D02*
X62978884Y-66352180D01*
X61003884Y-76597419D02*
X61003884Y-75597419D01*
X61003884Y-75597419D02*
X61241979Y-75597419D01*
X61241979Y-75597419D02*
X61384836Y-75645038D01*
X61384836Y-75645038D02*
X61480074Y-75740276D01*
X61480074Y-75740276D02*
X61527693Y-75835514D01*
X61527693Y-75835514D02*
X61575312Y-76025990D01*
X61575312Y-76025990D02*
X61575312Y-76168847D01*
X61575312Y-76168847D02*
X61527693Y-76359323D01*
X61527693Y-76359323D02*
X61480074Y-76454561D01*
X61480074Y-76454561D02*
X61384836Y-76549800D01*
X61384836Y-76549800D02*
X61241979Y-76597419D01*
X61241979Y-76597419D02*
X61003884Y-76597419D01*
X62194360Y-75597419D02*
X62384836Y-75597419D01*
X62384836Y-75597419D02*
X62480074Y-75645038D01*
X62480074Y-75645038D02*
X62575312Y-75740276D01*
X62575312Y-75740276D02*
X62622931Y-75930752D01*
X62622931Y-75930752D02*
X62622931Y-76264085D01*
X62622931Y-76264085D02*
X62575312Y-76454561D01*
X62575312Y-76454561D02*
X62480074Y-76549800D01*
X62480074Y-76549800D02*
X62384836Y-76597419D01*
X62384836Y-76597419D02*
X62194360Y-76597419D01*
X62194360Y-76597419D02*
X62099122Y-76549800D01*
X62099122Y-76549800D02*
X62003884Y-76454561D01*
X62003884Y-76454561D02*
X61956265Y-76264085D01*
X61956265Y-76264085D02*
X61956265Y-75930752D01*
X61956265Y-75930752D02*
X62003884Y-75740276D01*
X62003884Y-75740276D02*
X62099122Y-75645038D01*
X62099122Y-75645038D02*
X62194360Y-75597419D01*
X63575312Y-76597419D02*
X63003884Y-76597419D01*
X63289598Y-76597419D02*
X63289598Y-75597419D01*
X63289598Y-75597419D02*
X63194360Y-75740276D01*
X63194360Y-75740276D02*
X63099122Y-75835514D01*
X63099122Y-75835514D02*
X63003884Y-75883133D01*
X20281265Y-73961704D02*
X20757455Y-73961704D01*
X20186027Y-74247419D02*
X20519360Y-73247419D01*
X20519360Y-73247419D02*
X20852693Y-74247419D01*
X21090789Y-73247419D02*
X21709836Y-73247419D01*
X21709836Y-73247419D02*
X21376503Y-73628371D01*
X21376503Y-73628371D02*
X21519360Y-73628371D01*
X21519360Y-73628371D02*
X21614598Y-73675990D01*
X21614598Y-73675990D02*
X21662217Y-73723609D01*
X21662217Y-73723609D02*
X21709836Y-73818847D01*
X21709836Y-73818847D02*
X21709836Y-74056942D01*
X21709836Y-74056942D02*
X21662217Y-74152180D01*
X21662217Y-74152180D02*
X21614598Y-74199800D01*
X21614598Y-74199800D02*
X21519360Y-74247419D01*
X21519360Y-74247419D02*
X21233646Y-74247419D01*
X21233646Y-74247419D02*
X21138408Y-74199800D01*
X21138408Y-74199800D02*
X21090789Y-74152180D01*
X61028884Y-63972419D02*
X61028884Y-62972419D01*
X61028884Y-62972419D02*
X61266979Y-62972419D01*
X61266979Y-62972419D02*
X61409836Y-63020038D01*
X61409836Y-63020038D02*
X61505074Y-63115276D01*
X61505074Y-63115276D02*
X61552693Y-63210514D01*
X61552693Y-63210514D02*
X61600312Y-63400990D01*
X61600312Y-63400990D02*
X61600312Y-63543847D01*
X61600312Y-63543847D02*
X61552693Y-63734323D01*
X61552693Y-63734323D02*
X61505074Y-63829561D01*
X61505074Y-63829561D02*
X61409836Y-63924800D01*
X61409836Y-63924800D02*
X61266979Y-63972419D01*
X61266979Y-63972419D02*
X61028884Y-63972419D01*
X62219360Y-62972419D02*
X62409836Y-62972419D01*
X62409836Y-62972419D02*
X62505074Y-63020038D01*
X62505074Y-63020038D02*
X62600312Y-63115276D01*
X62600312Y-63115276D02*
X62647931Y-63305752D01*
X62647931Y-63305752D02*
X62647931Y-63639085D01*
X62647931Y-63639085D02*
X62600312Y-63829561D01*
X62600312Y-63829561D02*
X62505074Y-63924800D01*
X62505074Y-63924800D02*
X62409836Y-63972419D01*
X62409836Y-63972419D02*
X62219360Y-63972419D01*
X62219360Y-63972419D02*
X62124122Y-63924800D01*
X62124122Y-63924800D02*
X62028884Y-63829561D01*
X62028884Y-63829561D02*
X61981265Y-63639085D01*
X61981265Y-63639085D02*
X61981265Y-63305752D01*
X61981265Y-63305752D02*
X62028884Y-63115276D01*
X62028884Y-63115276D02*
X62124122Y-63020038D01*
X62124122Y-63020038D02*
X62219360Y-62972419D01*
X63505074Y-62972419D02*
X63314598Y-62972419D01*
X63314598Y-62972419D02*
X63219360Y-63020038D01*
X63219360Y-63020038D02*
X63171741Y-63067657D01*
X63171741Y-63067657D02*
X63076503Y-63210514D01*
X63076503Y-63210514D02*
X63028884Y-63400990D01*
X63028884Y-63400990D02*
X63028884Y-63781942D01*
X63028884Y-63781942D02*
X63076503Y-63877180D01*
X63076503Y-63877180D02*
X63124122Y-63924800D01*
X63124122Y-63924800D02*
X63219360Y-63972419D01*
X63219360Y-63972419D02*
X63409836Y-63972419D01*
X63409836Y-63972419D02*
X63505074Y-63924800D01*
X63505074Y-63924800D02*
X63552693Y-63877180D01*
X63552693Y-63877180D02*
X63600312Y-63781942D01*
X63600312Y-63781942D02*
X63600312Y-63543847D01*
X63600312Y-63543847D02*
X63552693Y-63448609D01*
X63552693Y-63448609D02*
X63505074Y-63400990D01*
X63505074Y-63400990D02*
X63409836Y-63353371D01*
X63409836Y-63353371D02*
X63219360Y-63353371D01*
X63219360Y-63353371D02*
X63124122Y-63400990D01*
X63124122Y-63400990D02*
X63076503Y-63448609D01*
X63076503Y-63448609D02*
X63028884Y-63543847D01*
X20231265Y-71086704D02*
X20707455Y-71086704D01*
X20136027Y-71372419D02*
X20469360Y-70372419D01*
X20469360Y-70372419D02*
X20802693Y-71372419D01*
X21088408Y-70467657D02*
X21136027Y-70420038D01*
X21136027Y-70420038D02*
X21231265Y-70372419D01*
X21231265Y-70372419D02*
X21469360Y-70372419D01*
X21469360Y-70372419D02*
X21564598Y-70420038D01*
X21564598Y-70420038D02*
X21612217Y-70467657D01*
X21612217Y-70467657D02*
X21659836Y-70562895D01*
X21659836Y-70562895D02*
X21659836Y-70658133D01*
X21659836Y-70658133D02*
X21612217Y-70800990D01*
X21612217Y-70800990D02*
X21040789Y-71372419D01*
X21040789Y-71372419D02*
X21659836Y-71372419D01*
X20727693Y-57745038D02*
X20632455Y-57697419D01*
X20632455Y-57697419D02*
X20489598Y-57697419D01*
X20489598Y-57697419D02*
X20346741Y-57745038D01*
X20346741Y-57745038D02*
X20251503Y-57840276D01*
X20251503Y-57840276D02*
X20203884Y-57935514D01*
X20203884Y-57935514D02*
X20156265Y-58125990D01*
X20156265Y-58125990D02*
X20156265Y-58268847D01*
X20156265Y-58268847D02*
X20203884Y-58459323D01*
X20203884Y-58459323D02*
X20251503Y-58554561D01*
X20251503Y-58554561D02*
X20346741Y-58649800D01*
X20346741Y-58649800D02*
X20489598Y-58697419D01*
X20489598Y-58697419D02*
X20584836Y-58697419D01*
X20584836Y-58697419D02*
X20727693Y-58649800D01*
X20727693Y-58649800D02*
X20775312Y-58602180D01*
X20775312Y-58602180D02*
X20775312Y-58268847D01*
X20775312Y-58268847D02*
X20584836Y-58268847D01*
X21203884Y-58697419D02*
X21203884Y-57697419D01*
X21203884Y-57697419D02*
X21775312Y-58697419D01*
X21775312Y-58697419D02*
X21775312Y-57697419D01*
X22251503Y-58697419D02*
X22251503Y-57697419D01*
X22251503Y-57697419D02*
X22489598Y-57697419D01*
X22489598Y-57697419D02*
X22632455Y-57745038D01*
X22632455Y-57745038D02*
X22727693Y-57840276D01*
X22727693Y-57840276D02*
X22775312Y-57935514D01*
X22775312Y-57935514D02*
X22822931Y-58125990D01*
X22822931Y-58125990D02*
X22822931Y-58268847D01*
X22822931Y-58268847D02*
X22775312Y-58459323D01*
X22775312Y-58459323D02*
X22727693Y-58554561D01*
X22727693Y-58554561D02*
X22632455Y-58649800D01*
X22632455Y-58649800D02*
X22489598Y-58697419D01*
X22489598Y-58697419D02*
X22251503Y-58697419D01*
X20231265Y-66361704D02*
X20707455Y-66361704D01*
X20136027Y-66647419D02*
X20469360Y-65647419D01*
X20469360Y-65647419D02*
X20802693Y-66647419D01*
X21326503Y-65647419D02*
X21421741Y-65647419D01*
X21421741Y-65647419D02*
X21516979Y-65695038D01*
X21516979Y-65695038D02*
X21564598Y-65742657D01*
X21564598Y-65742657D02*
X21612217Y-65837895D01*
X21612217Y-65837895D02*
X21659836Y-66028371D01*
X21659836Y-66028371D02*
X21659836Y-66266466D01*
X21659836Y-66266466D02*
X21612217Y-66456942D01*
X21612217Y-66456942D02*
X21564598Y-66552180D01*
X21564598Y-66552180D02*
X21516979Y-66599800D01*
X21516979Y-66599800D02*
X21421741Y-66647419D01*
X21421741Y-66647419D02*
X21326503Y-66647419D01*
X21326503Y-66647419D02*
X21231265Y-66599800D01*
X21231265Y-66599800D02*
X21183646Y-66552180D01*
X21183646Y-66552180D02*
X21136027Y-66456942D01*
X21136027Y-66456942D02*
X21088408Y-66266466D01*
X21088408Y-66266466D02*
X21088408Y-66028371D01*
X21088408Y-66028371D02*
X21136027Y-65837895D01*
X21136027Y-65837895D02*
X21183646Y-65742657D01*
X21183646Y-65742657D02*
X21231265Y-65695038D01*
X21231265Y-65695038D02*
X21326503Y-65647419D01*
X61028884Y-73872419D02*
X61028884Y-72872419D01*
X61028884Y-72872419D02*
X61266979Y-72872419D01*
X61266979Y-72872419D02*
X61409836Y-72920038D01*
X61409836Y-72920038D02*
X61505074Y-73015276D01*
X61505074Y-73015276D02*
X61552693Y-73110514D01*
X61552693Y-73110514D02*
X61600312Y-73300990D01*
X61600312Y-73300990D02*
X61600312Y-73443847D01*
X61600312Y-73443847D02*
X61552693Y-73634323D01*
X61552693Y-73634323D02*
X61505074Y-73729561D01*
X61505074Y-73729561D02*
X61409836Y-73824800D01*
X61409836Y-73824800D02*
X61266979Y-73872419D01*
X61266979Y-73872419D02*
X61028884Y-73872419D01*
X62219360Y-72872419D02*
X62409836Y-72872419D01*
X62409836Y-72872419D02*
X62505074Y-72920038D01*
X62505074Y-72920038D02*
X62600312Y-73015276D01*
X62600312Y-73015276D02*
X62647931Y-73205752D01*
X62647931Y-73205752D02*
X62647931Y-73539085D01*
X62647931Y-73539085D02*
X62600312Y-73729561D01*
X62600312Y-73729561D02*
X62505074Y-73824800D01*
X62505074Y-73824800D02*
X62409836Y-73872419D01*
X62409836Y-73872419D02*
X62219360Y-73872419D01*
X62219360Y-73872419D02*
X62124122Y-73824800D01*
X62124122Y-73824800D02*
X62028884Y-73729561D01*
X62028884Y-73729561D02*
X61981265Y-73539085D01*
X61981265Y-73539085D02*
X61981265Y-73205752D01*
X61981265Y-73205752D02*
X62028884Y-73015276D01*
X62028884Y-73015276D02*
X62124122Y-72920038D01*
X62124122Y-72920038D02*
X62219360Y-72872419D01*
X63028884Y-72967657D02*
X63076503Y-72920038D01*
X63076503Y-72920038D02*
X63171741Y-72872419D01*
X63171741Y-72872419D02*
X63409836Y-72872419D01*
X63409836Y-72872419D02*
X63505074Y-72920038D01*
X63505074Y-72920038D02*
X63552693Y-72967657D01*
X63552693Y-72967657D02*
X63600312Y-73062895D01*
X63600312Y-73062895D02*
X63600312Y-73158133D01*
X63600312Y-73158133D02*
X63552693Y-73300990D01*
X63552693Y-73300990D02*
X62981265Y-73872419D01*
X62981265Y-73872419D02*
X63600312Y-73872419D01*
D11*
X38333333Y-29454819D02*
X37857143Y-29454819D01*
X37857143Y-29454819D02*
X37857143Y-28454819D01*
X39190476Y-29454819D02*
X38619048Y-29454819D01*
X38904762Y-29454819D02*
X38904762Y-28454819D01*
X38904762Y-28454819D02*
X38809524Y-28597676D01*
X38809524Y-28597676D02*
X38714286Y-28692914D01*
X38714286Y-28692914D02*
X38619048Y-28740533D01*
X37833333Y-23359580D02*
X37785714Y-23407200D01*
X37785714Y-23407200D02*
X37642857Y-23454819D01*
X37642857Y-23454819D02*
X37547619Y-23454819D01*
X37547619Y-23454819D02*
X37404762Y-23407200D01*
X37404762Y-23407200D02*
X37309524Y-23311961D01*
X37309524Y-23311961D02*
X37261905Y-23216723D01*
X37261905Y-23216723D02*
X37214286Y-23026247D01*
X37214286Y-23026247D02*
X37214286Y-22883390D01*
X37214286Y-22883390D02*
X37261905Y-22692914D01*
X37261905Y-22692914D02*
X37309524Y-22597676D01*
X37309524Y-22597676D02*
X37404762Y-22502438D01*
X37404762Y-22502438D02*
X37547619Y-22454819D01*
X37547619Y-22454819D02*
X37642857Y-22454819D01*
X37642857Y-22454819D02*
X37785714Y-22502438D01*
X37785714Y-22502438D02*
X37833333Y-22550057D01*
X38785714Y-23454819D02*
X38214286Y-23454819D01*
X38500000Y-23454819D02*
X38500000Y-22454819D01*
X38500000Y-22454819D02*
X38404762Y-22597676D01*
X38404762Y-22597676D02*
X38309524Y-22692914D01*
X38309524Y-22692914D02*
X38214286Y-22740533D01*
X41008333Y-23479580D02*
X40960714Y-23527200D01*
X40960714Y-23527200D02*
X40817857Y-23574819D01*
X40817857Y-23574819D02*
X40722619Y-23574819D01*
X40722619Y-23574819D02*
X40579762Y-23527200D01*
X40579762Y-23527200D02*
X40484524Y-23431961D01*
X40484524Y-23431961D02*
X40436905Y-23336723D01*
X40436905Y-23336723D02*
X40389286Y-23146247D01*
X40389286Y-23146247D02*
X40389286Y-23003390D01*
X40389286Y-23003390D02*
X40436905Y-22812914D01*
X40436905Y-22812914D02*
X40484524Y-22717676D01*
X40484524Y-22717676D02*
X40579762Y-22622438D01*
X40579762Y-22622438D02*
X40722619Y-22574819D01*
X40722619Y-22574819D02*
X40817857Y-22574819D01*
X40817857Y-22574819D02*
X40960714Y-22622438D01*
X40960714Y-22622438D02*
X41008333Y-22670057D01*
X41389286Y-22670057D02*
X41436905Y-22622438D01*
X41436905Y-22622438D02*
X41532143Y-22574819D01*
X41532143Y-22574819D02*
X41770238Y-22574819D01*
X41770238Y-22574819D02*
X41865476Y-22622438D01*
X41865476Y-22622438D02*
X41913095Y-22670057D01*
X41913095Y-22670057D02*
X41960714Y-22765295D01*
X41960714Y-22765295D02*
X41960714Y-22860533D01*
X41960714Y-22860533D02*
X41913095Y-23003390D01*
X41913095Y-23003390D02*
X41341667Y-23574819D01*
X41341667Y-23574819D02*
X41960714Y-23574819D01*
D12*
%TO.C,J4*%
X64420000Y-32416000D02*
X65800000Y-32416000D01*
X64420000Y-33796000D02*
X64420000Y-32416000D01*
X64420000Y-35066000D02*
X64420000Y-58036000D01*
X64420000Y-35066000D02*
X67180000Y-35066000D01*
X64420000Y-58036000D02*
X67180000Y-58036000D01*
X67180000Y-35066000D02*
X67180000Y-58036000D01*
%TO.C,L1*%
X36249721Y-26715000D02*
X36575279Y-26715000D01*
X36249721Y-27735000D02*
X36575279Y-27735000D01*
%TO.C,C1*%
X36615580Y-24040000D02*
X36334420Y-24040000D01*
X36615580Y-25060000D02*
X36334420Y-25060000D01*
%TO.C,J2*%
X16160000Y-59450000D02*
X16160000Y-41560000D01*
X18920000Y-41560000D02*
X16160000Y-41560000D01*
X18920000Y-59450000D02*
X16160000Y-59450000D01*
X18920000Y-59450000D02*
X18920000Y-41560000D01*
X18920000Y-60720000D02*
X18920000Y-62100000D01*
X18920000Y-62100000D02*
X17540000Y-62100000D01*
%TO.C,J3*%
X64420000Y-59340000D02*
X65800000Y-59340000D01*
X64420000Y-60720000D02*
X64420000Y-59340000D01*
X64420000Y-61990000D02*
X64420000Y-79880000D01*
X64420000Y-61990000D02*
X67180000Y-61990000D01*
X64420000Y-79880000D02*
X67180000Y-79880000D01*
X67180000Y-61990000D02*
X67180000Y-79880000D01*
%TO.C,C2*%
X41034420Y-24040000D02*
X41315580Y-24040000D01*
X41034420Y-25060000D02*
X41315580Y-25060000D01*
D13*
%TO.C,MOD1*%
X33575000Y-49675000D02*
X34575000Y-49675000D01*
X34575000Y-48675000D02*
X33575000Y-49675000D01*
X34575000Y-49675000D02*
X34575000Y-48675000D01*
X35575000Y-49175000D02*
X51575000Y-49175000D01*
X35575000Y-49675000D02*
X35575000Y-49175000D01*
X35575000Y-65675000D02*
X35575000Y-66175000D01*
X35575000Y-66175000D02*
X51575000Y-66175000D01*
X51575000Y-49175000D02*
X51575000Y-49775000D01*
X51575000Y-66175000D02*
X51575000Y-65775000D01*
D12*
%TO.C,J5*%
X35350000Y-22202500D02*
X35850000Y-22202500D01*
X35600000Y-21702500D02*
X35350000Y-22202500D01*
X35850000Y-22202500D02*
X35600000Y-21702500D01*
%TO.C,J1*%
X16160000Y-64420000D02*
X17540000Y-64420000D01*
X16160000Y-65800000D02*
X16160000Y-64420000D01*
X16160000Y-67070000D02*
X16160000Y-79880000D01*
X16160000Y-67070000D02*
X18920000Y-67070000D01*
X16160000Y-79880000D02*
X18920000Y-79880000D01*
X18920000Y-67070000D02*
X18920000Y-79880000D01*
%TD*%
M02*
