M48
; DRILL file {KiCad 9.0.4} date 2025-12-01T13:26:06+0900
; FORMAT={-:-/ absolute / inch / decimal}
; #@! TF.CreationDate,2025-12-01T13:26:06+09:00
; #@! TF.GenerationSoftware,Kicad,Pcbnew,9.0.4
; #@! TF.FileFunction,Plated,1,4,PTH
FMAT,2
INCH
; #@! TA.AperFunction,Plated,PTH,ViaDrill
T1C0.0118
; #@! TA.AperFunction,Plated,PTH,ComponentDrill
T2C0.0394
%
G90
G05
T1
X0.6299Y-0.7087
X0.6299Y-0.748
X0.6299Y-0.7874
X0.6299Y-0.8268
X0.6299Y-0.8661
X0.6299Y-0.9055
X0.6299Y-0.9449
X0.6299Y-0.9843
X0.6299Y-1.0236
X0.6299Y-1.063
X0.6299Y-1.1024
X0.6299Y-1.1417
X0.6299Y-1.1811
X0.6299Y-1.2205
X0.6299Y-1.2598
X0.6299Y-1.2992
X0.6299Y-1.3386
X0.6299Y-1.378
X0.6299Y-1.4173
X0.6299Y-1.4567
X0.6299Y-1.4961
X0.6299Y-1.5354
X0.6299Y-1.5748
X0.6299Y-1.6142
X0.6299Y-1.6535
X0.6299Y-1.6929
X0.6299Y-1.7323
X0.6299Y-1.7717
X0.6299Y-1.811
X0.6299Y-1.8504
X0.6299Y-1.8898
X0.6299Y-1.9291
X0.6299Y-1.9685
X0.6299Y-2.0079
X0.6299Y-2.0472
X0.6299Y-2.0866
X0.6299Y-2.126
X0.6299Y-2.1654
X0.6299Y-2.2047
X0.6299Y-2.2441
X0.6299Y-2.2835
X0.6299Y-2.3228
X0.6299Y-2.3622
X0.6299Y-2.4016
X0.6299Y-2.4409
X0.6299Y-2.4803
X0.6299Y-2.5197
X0.6299Y-2.5591
X0.6299Y-2.5984
X0.6299Y-2.6378
X0.6299Y-2.6772
X0.6299Y-2.7165
X0.6299Y-2.7559
X0.6299Y-2.7953
X0.6299Y-2.8346
X0.6299Y-2.874
X0.6299Y-2.9134
X0.6299Y-2.9528
X0.6299Y-2.9921
X0.6299Y-3.0315
X0.6299Y-3.0709
X0.6299Y-3.1102
X0.6299Y-3.1496
X0.6299Y-3.189
X0.6693Y-0.6693
X0.6693Y-0.7087
X0.6693Y-0.748
X0.6693Y-0.7874
X0.6693Y-0.8268
X0.6693Y-0.8661
X0.6693Y-0.9055
X0.6693Y-0.9449
X0.6693Y-0.9843
X0.6693Y-1.0236
X0.6693Y-1.063
X0.6693Y-1.1024
X0.6693Y-1.1417
X0.6693Y-1.1811
X0.6693Y-1.2205
X0.6693Y-1.2598
X0.6693Y-1.2992
X0.6693Y-1.3386
X0.6693Y-1.378
X0.6693Y-1.4173
X0.6693Y-1.4567
X0.6693Y-1.4961
X0.6693Y-1.5354
X0.6693Y-1.5748
X0.6693Y-2.4803
X0.6693Y-2.5197
X0.6693Y-3.1496
X0.6693Y-3.189
X0.6693Y-3.2283
X0.7087Y-0.6299
X0.7087Y-0.6693
X0.7087Y-0.7087
X0.7087Y-0.748
X0.7087Y-0.7874
X0.7087Y-0.8268
X0.7087Y-0.8661
X0.7087Y-0.9055
X0.7087Y-0.9449
X0.7087Y-0.9843
X0.7087Y-1.0236
X0.7087Y-1.063
X0.7087Y-1.1024
X0.7087Y-1.1417
X0.7087Y-1.1811
X0.7087Y-1.2205
X0.7087Y-1.2598
X0.7087Y-1.2992
X0.7087Y-1.3386
X0.7087Y-1.378
X0.7087Y-1.4173
X0.7087Y-1.4567
X0.7087Y-1.4961
X0.7087Y-1.5354
X0.7087Y-1.5748
X0.7087Y-2.4803
X0.7087Y-2.5197
X0.7087Y-3.1496
X0.7087Y-3.189
X0.7087Y-3.2283
X0.748Y-0.6299
X0.748Y-0.6693
X0.748Y-0.7087
X0.748Y-0.748
X0.748Y-0.7874
X0.748Y-0.8268
X0.748Y-0.8661
X0.748Y-0.9055
X0.748Y-0.9449
X0.748Y-0.9843
X0.748Y-1.0236
X0.748Y-1.063
X0.748Y-1.1024
X0.748Y-1.1417
X0.748Y-1.1811
X0.748Y-1.2205
X0.748Y-1.2598
X0.748Y-1.2992
X0.748Y-1.3386
X0.748Y-1.378
X0.748Y-1.4173
X0.748Y-1.4567
X0.748Y-1.4961
X0.748Y-1.5354
X0.748Y-1.5748
X0.748Y-2.0472
X0.748Y-2.0866
X0.748Y-2.126
X0.748Y-2.1654
X0.748Y-2.2047
X0.748Y-2.2835
X0.748Y-2.3228
X0.748Y-2.3622
X0.748Y-2.4016
X0.748Y-2.4409
X0.748Y-2.4803
X0.748Y-2.5197
X0.748Y-3.0315
X0.748Y-3.0709
X0.748Y-3.1102
X0.748Y-3.1496
X0.748Y-3.189
X0.748Y-3.2283
X0.7874Y-0.6299
X0.7874Y-0.6693
X0.7874Y-0.7087
X0.7874Y-0.748
X0.7874Y-0.7874
X0.7874Y-0.8268
X0.7874Y-0.8661
X0.7874Y-0.9055
X0.7874Y-0.9449
X0.7874Y-0.9843
X0.7874Y-1.0236
X0.7874Y-1.063
X0.7874Y-1.1024
X0.7874Y-1.1417
X0.7874Y-1.1811
X0.7874Y-1.2205
X0.7874Y-1.2598
X0.7874Y-1.2992
X0.7874Y-1.3386
X0.7874Y-1.378
X0.7874Y-1.4173
X0.7874Y-1.4567
X0.7874Y-1.4961
X0.7874Y-1.5354
X0.7874Y-1.5748
X0.7874Y-1.6142
X0.7874Y-1.6535
X0.7874Y-1.6929
X0.7874Y-1.7323
X0.7874Y-1.7717
X0.7874Y-1.811
X0.7874Y-1.8504
X0.7874Y-1.8898
X0.7874Y-1.9291
X0.7874Y-2.0472
X0.7874Y-2.126
X0.7874Y-2.1654
X0.7874Y-2.2047
X0.7874Y-2.2441
X0.7874Y-2.2835
X0.7874Y-2.3228
X0.7874Y-2.3622
X0.7874Y-2.4016
X0.7874Y-2.4409
X0.7874Y-2.4803
X0.7874Y-2.5197
X0.7874Y-2.5591
X0.7874Y-2.5984
X0.7874Y-2.6378
X0.7874Y-2.6772
X0.7874Y-2.7165
X0.7874Y-2.7559
X0.7874Y-2.7953
X0.7874Y-2.8346
X0.7874Y-2.874
X0.7874Y-2.9134
X0.7874Y-2.9528
X0.7874Y-2.9921
X0.7874Y-3.0315
X0.7874Y-3.0709
X0.7874Y-3.1496
X0.7874Y-3.189
X0.7874Y-3.2283
X0.8268Y-0.6299
X0.8268Y-0.6693
X0.8268Y-0.7087
X0.8268Y-0.748
X0.8268Y-0.7874
X0.8268Y-0.8268
X0.8268Y-0.8661
X0.8268Y-0.9055
X0.8268Y-0.9449
X0.8268Y-0.9843
X0.8268Y-1.0236
X0.8268Y-1.063
X0.8268Y-1.1024
X0.8268Y-1.1417
X0.8268Y-1.1811
X0.8268Y-1.2205
X0.8268Y-1.2598
X0.8268Y-1.2992
X0.8268Y-1.3386
X0.8268Y-1.378
X0.8268Y-1.4173
X0.8268Y-1.4567
X0.8268Y-1.4961
X0.8268Y-1.5354
X0.8268Y-1.5748
X0.8268Y-1.6142
X0.8268Y-1.7323
X0.8268Y-1.8504
X0.8268Y-1.9291
X0.8268Y-2.126
X0.8268Y-2.1654
X0.8268Y-2.2441
X0.8268Y-2.3228
X0.8268Y-2.3622
X0.8268Y-2.4409
X0.8268Y-2.4803
X0.8268Y-2.5197
X0.8268Y-2.5591
X0.8268Y-2.6378
X0.8268Y-2.7165
X0.8268Y-2.7559
X0.8268Y-2.8346
X0.8268Y-2.874
X0.8268Y-2.9528
X0.8268Y-3.0315
X0.8268Y-3.0709
X0.8268Y-3.1496
X0.8268Y-3.189
X0.8268Y-3.2283
X0.8661Y-0.6299
X0.8661Y-0.6693
X0.8661Y-0.8268
X0.8661Y-0.8661
X0.8661Y-0.9055
X0.8661Y-0.9449
X0.8661Y-0.9843
X0.8661Y-1.0236
X0.8661Y-1.063
X0.8661Y-1.1024
X0.8661Y-1.1417
X0.8661Y-1.1811
X0.8661Y-1.2205
X0.8661Y-1.2598
X0.8661Y-1.2992
X0.8661Y-1.3386
X0.8661Y-1.378
X0.8661Y-1.4173
X0.8661Y-1.4567
X0.8661Y-1.4961
X0.8661Y-1.5354
X0.8661Y-1.5748
X0.8661Y-1.6142
X0.8661Y-1.7323
X0.8661Y-1.8504
X0.8661Y-1.9291
X0.8661Y-2.126
X0.8661Y-2.1654
X0.8661Y-2.2441
X0.8661Y-2.3228
X0.8661Y-2.3622
X0.8661Y-2.4409
X0.8661Y-2.4803
X0.8661Y-2.5197
X0.8661Y-2.5591
X0.8661Y-2.5984
X0.8661Y-2.6378
X0.8661Y-2.6772
X0.8661Y-2.7165
X0.8661Y-2.7559
X0.8661Y-2.8346
X0.8661Y-2.874
X0.8661Y-2.9528
X0.8661Y-3.0315
X0.8661Y-3.0709
X0.8661Y-3.2283
X0.9055Y-0.6299
X0.9055Y-0.8661
X0.9055Y-0.9055
X0.9055Y-0.9449
X0.9055Y-0.9843
X0.9055Y-1.0236
X0.9055Y-1.063
X0.9055Y-1.1024
X0.9055Y-1.1417
X0.9055Y-1.1811
X0.9055Y-1.2205
X0.9055Y-1.2598
X0.9055Y-1.2992
X0.9055Y-1.3386
X0.9055Y-1.378
X0.9055Y-1.4173
X0.9055Y-1.4567
X0.9055Y-1.4961
X0.9055Y-1.5354
X0.9055Y-1.5748
X0.9055Y-1.6142
X0.9055Y-1.7323
X0.9055Y-1.8504
X0.9055Y-1.9291
X0.9055Y-2.0472
X0.9055Y-2.1654
X0.9055Y-2.2047
X0.9055Y-2.2441
X0.9055Y-2.2835
X0.9055Y-2.3228
X0.9055Y-2.3622
X0.9055Y-2.4409
X0.9055Y-2.4803
X0.9055Y-2.5197
X0.9055Y-2.5591
X0.9055Y-2.5984
X0.9055Y-2.6378
X0.9055Y-2.6772
X0.9055Y-2.7165
X0.9055Y-2.7559
X0.9055Y-2.7953
X0.9055Y-2.8346
X0.9055Y-2.874
X0.9055Y-2.9134
X0.9055Y-2.9528
X0.9055Y-2.9921
X0.9055Y-3.0315
X0.9449Y-0.6299
X0.9449Y-0.8661
X0.9449Y-0.9055
X0.9449Y-0.9449
X0.9449Y-0.9843
X0.9449Y-1.0236
X0.9449Y-1.063
X0.9449Y-1.1024
X0.9449Y-1.1417
X0.9449Y-1.1811
X0.9449Y-1.2205
X0.9449Y-1.2598
X0.9449Y-1.2992
X0.9449Y-1.3386
X0.9449Y-1.378
X0.9449Y-1.4173
X0.9449Y-1.4567
X0.9449Y-1.4961
X0.9449Y-1.5354
X0.9449Y-1.5748
X0.9449Y-1.6142
X0.9449Y-1.7323
X0.9449Y-1.8504
X0.9449Y-1.9291
X0.9449Y-2.0472
X0.9449Y-2.0866
X0.9449Y-2.2047
X0.9449Y-2.2441
X0.9449Y-2.2835
X0.9449Y-2.3228
X0.9449Y-2.3622
X0.9449Y-2.4409
X0.9449Y-2.4803
X0.9449Y-2.5197
X0.9449Y-2.5591
X0.9449Y-2.5984
X0.9449Y-2.6378
X0.9449Y-2.6772
X0.9449Y-2.7165
X0.9449Y-2.7559
X0.9449Y-2.7953
X0.9449Y-2.8346
X0.9449Y-2.874
X0.9449Y-2.9134
X0.9449Y-2.9528
X0.9449Y-2.9921
X0.9449Y-3.0315
X0.9843Y-0.6299
X0.9843Y-0.8661
X0.9843Y-0.9055
X0.9843Y-0.9449
X0.9843Y-0.9843
X0.9843Y-1.0236
X0.9843Y-1.063
X0.9843Y-1.1024
X0.9843Y-1.1417
X0.9843Y-1.1811
X0.9843Y-1.2205
X0.9843Y-1.2598
X0.9843Y-1.2992
X0.9843Y-1.3386
X0.9843Y-1.378
X0.9843Y-1.4173
X0.9843Y-1.4567
X0.9843Y-1.4961
X0.9843Y-1.5354
X0.9843Y-1.5748
X0.9843Y-1.6142
X0.9843Y-1.7323
X0.9843Y-1.7717
X0.9843Y-1.811
X0.9843Y-1.8504
X0.9843Y-1.8898
X0.9843Y-1.9291
X0.9843Y-2.0472
X0.9843Y-2.126
X0.9843Y-2.2441
X0.9843Y-2.2835
X0.9843Y-2.3228
X0.9843Y-2.3622
X0.9843Y-2.4409
X0.9843Y-2.4803
X0.9843Y-2.5197
X0.9843Y-2.5591
X0.9843Y-2.5984
X0.9843Y-2.6378
X0.9843Y-2.6772
X0.9843Y-2.7165
X0.9843Y-2.7559
X0.9843Y-2.7953
X0.9843Y-2.8346
X0.9843Y-2.874
X0.9843Y-2.9134
X0.9843Y-2.9528
X0.9843Y-2.9921
X0.9843Y-3.0315
X1.0236Y-0.6299
X1.0236Y-0.6693
X1.0236Y-0.8268
X1.0236Y-0.8661
X1.0236Y-0.9055
X1.0236Y-0.9449
X1.0236Y-0.9843
X1.0236Y-1.0236
X1.0236Y-1.063
X1.0236Y-1.1024
X1.0236Y-1.1417
X1.0236Y-1.1811
X1.0236Y-1.2205
X1.0236Y-1.2598
X1.0236Y-1.2992
X1.0236Y-1.3386
X1.0236Y-1.378
X1.0236Y-1.4173
X1.0236Y-1.4567
X1.0236Y-1.4961
X1.0236Y-1.5354
X1.0236Y-1.5748
X1.0236Y-1.6142
X1.0236Y-1.7323
X1.0236Y-1.7717
X1.0236Y-1.811
X1.0236Y-1.8504
X1.0236Y-1.8898
X1.0236Y-1.9291
X1.0236Y-2.0866
X1.0236Y-2.126
X1.0236Y-2.1654
X1.0236Y-2.2835
X1.0236Y-2.3228
X1.0236Y-2.3622
X1.0236Y-2.4409
X1.0236Y-2.4803
X1.0236Y-2.5197
X1.0236Y-2.5591
X1.0236Y-2.5984
X1.0236Y-2.6378
X1.0236Y-2.6772
X1.0236Y-2.7165
X1.0236Y-2.7559
X1.0236Y-2.7953
X1.0236Y-2.8346
X1.0236Y-2.874
X1.0236Y-2.9134
X1.0236Y-2.9528
X1.0236Y-2.9921
X1.0236Y-3.0315
X1.0236Y-3.0709
X1.0236Y-3.2283
X1.063Y-0.6299
X1.063Y-0.6693
X1.063Y-0.7087
X1.063Y-0.748
X1.063Y-0.7874
X1.063Y-0.8268
X1.063Y-0.8661
X1.063Y-0.9055
X1.063Y-0.9449
X1.063Y-0.9843
X1.063Y-1.0236
X1.063Y-1.063
X1.063Y-1.1024
X1.063Y-1.1417
X1.063Y-1.1811
X1.063Y-1.2205
X1.063Y-1.2598
X1.063Y-1.2992
X1.063Y-1.3386
X1.063Y-1.378
X1.063Y-1.4173
X1.063Y-1.4567
X1.063Y-1.4961
X1.063Y-1.5354
X1.063Y-1.5748
X1.063Y-1.6142
X1.063Y-1.6535
X1.063Y-1.6929
X1.063Y-1.7323
X1.063Y-1.7717
X1.063Y-1.811
X1.063Y-1.8504
X1.063Y-1.8898
X1.063Y-1.9291
X1.063Y-1.9685
X1.063Y-2.126
X1.063Y-2.1654
X1.063Y-2.2835
X1.063Y-2.3228
X1.063Y-2.3622
X1.063Y-2.4016
X1.063Y-2.4409
X1.063Y-2.4803
X1.063Y-2.5197
X1.063Y-2.5591
X1.063Y-2.5984
X1.063Y-2.6378
X1.063Y-2.6772
X1.063Y-2.7165
X1.063Y-2.7559
X1.063Y-2.7953
X1.063Y-2.8346
X1.063Y-2.874
X1.063Y-2.9134
X1.063Y-2.9528
X1.063Y-2.9921
X1.063Y-3.0315
X1.063Y-3.0709
X1.063Y-3.1102
X1.063Y-3.1496
X1.063Y-3.189
X1.063Y-3.2283
X1.1024Y-0.6299
X1.1024Y-0.6693
X1.1024Y-0.7087
X1.1024Y-0.748
X1.1024Y-0.7874
X1.1024Y-0.8268
X1.1024Y-0.8661
X1.1024Y-0.9055
X1.1024Y-0.9449
X1.1024Y-0.9843
X1.1024Y-1.0236
X1.1024Y-1.063
X1.1024Y-1.1024
X1.1024Y-1.1417
X1.1024Y-1.1811
X1.1024Y-1.2205
X1.1024Y-1.2598
X1.1024Y-1.2992
X1.1024Y-1.3386
X1.1024Y-1.378
X1.1024Y-1.4173
X1.1024Y-1.4567
X1.1024Y-1.4961
X1.1024Y-1.5354
X1.1024Y-1.5748
X1.1024Y-1.6142
X1.1024Y-1.6535
X1.1024Y-1.6929
X1.1024Y-1.7323
X1.1024Y-1.7717
X1.1024Y-1.811
X1.1024Y-1.8504
X1.1024Y-1.8898
X1.1024Y-1.9291
X1.1024Y-1.9685
X1.1024Y-2.0079
X1.1024Y-2.1654
X1.1024Y-2.2835
X1.1024Y-2.3228
X1.1024Y-2.3622
X1.1024Y-2.4016
X1.1024Y-2.4409
X1.1024Y-2.4803
X1.1024Y-2.5197
X1.1024Y-2.5591
X1.1024Y-2.5984
X1.1024Y-2.6378
X1.1024Y-2.6772
X1.1024Y-2.7165
X1.1024Y-2.7559
X1.1024Y-2.7953
X1.1024Y-2.8346
X1.1024Y-2.874
X1.1024Y-2.9134
X1.1024Y-2.9528
X1.1024Y-2.9921
X1.1024Y-3.0315
X1.1024Y-3.0709
X1.1024Y-3.1102
X1.1024Y-3.1496
X1.1024Y-3.189
X1.1024Y-3.2283
X1.122Y-2.185
X1.1417Y-0.6299
X1.1417Y-0.6693
X1.1417Y-0.7087
X1.1417Y-0.748
X1.1417Y-0.7874
X1.1417Y-0.8268
X1.1417Y-0.8661
X1.1417Y-0.9055
X1.1417Y-0.9449
X1.1417Y-0.9843
X1.1417Y-1.0236
X1.1417Y-1.063
X1.1417Y-1.1024
X1.1417Y-1.1417
X1.1417Y-1.1811
X1.1417Y-1.2205
X1.1417Y-1.2598
X1.1417Y-1.2992
X1.1417Y-1.3386
X1.1417Y-1.378
X1.1417Y-1.4173
X1.1417Y-1.4567
X1.1417Y-1.4961
X1.1417Y-1.5354
X1.1417Y-1.5748
X1.1417Y-1.6142
X1.1417Y-1.6535
X1.1417Y-1.6929
X1.1417Y-1.7323
X1.1417Y-1.7717
X1.1417Y-1.811
X1.1417Y-1.8504
X1.1417Y-1.8898
X1.1417Y-1.9291
X1.1417Y-1.9685
X1.1417Y-2.0079
X1.1417Y-2.0472
X1.1417Y-2.2835
X1.1417Y-2.3228
X1.1417Y-2.3622
X1.1417Y-2.4016
X1.1417Y-2.7165
X1.1417Y-2.7559
X1.1417Y-2.7953
X1.1417Y-2.8346
X1.1417Y-2.874
X1.1417Y-2.9134
X1.1417Y-2.9528
X1.1417Y-2.9921
X1.1417Y-3.0315
X1.1417Y-3.0709
X1.1417Y-3.1102
X1.1417Y-3.1496
X1.1417Y-3.189
X1.1417Y-3.2283
X1.1811Y-0.8661
X1.1811Y-0.9055
X1.1811Y-0.9449
X1.1811Y-0.9843
X1.1811Y-1.0236
X1.1811Y-1.063
X1.1811Y-1.1024
X1.1811Y-1.1417
X1.1811Y-1.1811
X1.1811Y-1.2205
X1.1811Y-1.2598
X1.1811Y-1.2992
X1.1811Y-1.3386
X1.1811Y-1.378
X1.1811Y-1.4173
X1.1811Y-1.4567
X1.1811Y-1.4961
X1.1811Y-1.5354
X1.1811Y-1.5748
X1.1811Y-1.6142
X1.1811Y-1.6535
X1.1811Y-1.6929
X1.1811Y-1.7323
X1.1811Y-1.7717
X1.1811Y-1.811
X1.1811Y-1.8504
X1.1811Y-1.8898
X1.1811Y-1.9291
X1.1811Y-1.9685
X1.1811Y-2.0079
X1.1811Y-2.0472
X1.1811Y-2.0866
X1.1811Y-2.2835
X1.1811Y-2.3228
X1.1811Y-2.3622
X1.1811Y-2.7559
X1.1811Y-2.7953
X1.1811Y-2.8346
X1.1811Y-2.874
X1.1811Y-2.9134
X1.1811Y-2.9528
X1.1811Y-2.9921
X1.1811Y-3.0315
X1.1811Y-3.0709
X1.1811Y-3.1102
X1.1811Y-3.1496
X1.1811Y-3.189
X1.1811Y-3.2283
X1.2205Y-0.8661
X1.2205Y-0.9055
X1.2205Y-0.9449
X1.2205Y-0.9843
X1.2205Y-1.0236
X1.2205Y-1.063
X1.2205Y-1.1024
X1.2205Y-1.1417
X1.2205Y-1.1811
X1.2205Y-1.2205
X1.2205Y-1.2598
X1.2205Y-1.2992
X1.2205Y-1.3386
X1.2205Y-1.378
X1.2205Y-1.4173
X1.2205Y-1.4567
X1.2205Y-1.4961
X1.2205Y-1.5354
X1.2205Y-1.5748
X1.2205Y-1.6142
X1.2205Y-1.6535
X1.2205Y-1.6929
X1.2205Y-1.7323
X1.2205Y-1.7717
X1.2205Y-1.811
X1.2205Y-1.8504
X1.2205Y-1.8898
X1.2205Y-1.9291
X1.2205Y-1.9685
X1.2205Y-2.0079
X1.2205Y-2.0472
X1.2205Y-2.0866
X1.2205Y-2.2835
X1.2205Y-2.3228
X1.2205Y-2.7953
X1.2205Y-2.8346
X1.2205Y-2.874
X1.2205Y-2.9134
X1.2205Y-2.9528
X1.2205Y-2.9921
X1.2205Y-3.0315
X1.2205Y-3.0709
X1.2205Y-3.1102
X1.2205Y-3.1496
X1.2205Y-3.189
X1.2205Y-3.2283
X1.2598Y-0.8661
X1.2598Y-0.9055
X1.2598Y-0.9449
X1.2598Y-0.9843
X1.2598Y-1.0236
X1.2598Y-1.063
X1.2598Y-1.1024
X1.2598Y-1.1417
X1.2598Y-1.1811
X1.2598Y-1.2205
X1.2598Y-1.2598
X1.2598Y-1.2992
X1.2598Y-1.3386
X1.2598Y-1.378
X1.2598Y-1.4173
X1.2598Y-1.4567
X1.2598Y-1.4961
X1.2598Y-1.5354
X1.2598Y-1.5748
X1.2598Y-1.6142
X1.2598Y-1.6535
X1.2598Y-1.6929
X1.2598Y-1.7323
X1.2598Y-1.7717
X1.2598Y-1.811
X1.2598Y-1.8504
X1.2598Y-1.8898
X1.2598Y-1.9291
X1.2598Y-1.9685
X1.2598Y-2.0079
X1.2598Y-2.0472
X1.2598Y-2.0866
X1.2598Y-2.2835
X1.2598Y-2.8346
X1.2598Y-2.874
X1.2598Y-2.9134
X1.2598Y-2.9528
X1.2598Y-2.9921
X1.2598Y-3.0315
X1.2598Y-3.0709
X1.2598Y-3.1102
X1.2598Y-3.1496
X1.2598Y-3.189
X1.2598Y-3.2283
X1.2913Y-2.2313
X1.2992Y-0.6299
X1.2992Y-0.6693
X1.2992Y-0.7087
X1.2992Y-0.748
X1.2992Y-0.7874
X1.2992Y-0.8268
X1.2992Y-0.8661
X1.2992Y-0.9055
X1.2992Y-0.9449
X1.2992Y-0.9843
X1.2992Y-1.0236
X1.2992Y-1.063
X1.2992Y-1.1024
X1.2992Y-1.1417
X1.2992Y-1.1811
X1.2992Y-1.2205
X1.2992Y-1.2598
X1.2992Y-1.2992
X1.2992Y-1.3386
X1.2992Y-1.378
X1.2992Y-1.4173
X1.2992Y-1.4567
X1.2992Y-1.4961
X1.2992Y-1.5354
X1.2992Y-1.5748
X1.2992Y-1.6142
X1.2992Y-1.6535
X1.2992Y-1.6929
X1.2992Y-1.7323
X1.2992Y-1.7717
X1.2992Y-1.811
X1.2992Y-1.8504
X1.2992Y-1.8898
X1.2992Y-1.9291
X1.2992Y-1.9685
X1.2992Y-2.0079
X1.2992Y-2.0472
X1.2992Y-2.0866
X1.2992Y-2.874
X1.2992Y-2.9134
X1.2992Y-2.9528
X1.2992Y-2.9921
X1.2992Y-3.0315
X1.2992Y-3.0709
X1.2992Y-3.1102
X1.2992Y-3.1496
X1.2992Y-3.189
X1.2992Y-3.2283
X1.3386Y-0.6299
X1.3386Y-0.6693
X1.3386Y-0.7087
X1.3386Y-0.748
X1.3386Y-0.7874
X1.3386Y-0.8268
X1.3386Y-0.8661
X1.3386Y-0.9055
X1.3386Y-0.9449
X1.3386Y-0.9843
X1.3386Y-1.0236
X1.3386Y-1.063
X1.3386Y-1.1024
X1.3386Y-1.1417
X1.3386Y-1.1811
X1.3386Y-1.2205
X1.3386Y-1.2598
X1.3386Y-1.2992
X1.3386Y-1.3386
X1.3386Y-1.378
X1.3386Y-1.4173
X1.3386Y-1.4567
X1.3386Y-1.4961
X1.3386Y-1.5354
X1.3386Y-1.5748
X1.3386Y-1.6142
X1.3386Y-1.6535
X1.3386Y-1.6929
X1.3386Y-1.7323
X1.3386Y-1.7717
X1.3386Y-1.811
X1.3386Y-1.8504
X1.3386Y-1.8898
X1.3386Y-1.9291
X1.3386Y-1.9685
X1.3386Y-2.0079
X1.3386Y-2.0472
X1.3386Y-2.0866
X1.3386Y-2.9134
X1.3386Y-2.9528
X1.3386Y-2.9921
X1.3386Y-3.0315
X1.3386Y-3.0709
X1.3386Y-3.1102
X1.3386Y-3.1496
X1.3386Y-3.189
X1.3386Y-3.2283
X1.378Y-2.9528
X1.378Y-2.9921
X1.378Y-3.0315
X1.378Y-3.0709
X1.378Y-3.1102
X1.378Y-3.1496
X1.378Y-3.189
X1.378Y-3.2283
X1.4173Y-2.9528
X1.4173Y-2.9921
X1.4173Y-3.0315
X1.4173Y-3.0709
X1.4173Y-3.1102
X1.4173Y-3.1496
X1.4173Y-3.189
X1.4173Y-3.2283
X1.4567Y-0.8268
X1.4567Y-0.8661
X1.4567Y-0.9055
X1.4567Y-1.0236
X1.4567Y-1.1417
X1.4567Y-1.1811
X1.4567Y-1.2205
X1.4567Y-1.2598
X1.4567Y-1.2992
X1.4567Y-1.3386
X1.4567Y-1.378
X1.4567Y-1.4173
X1.4567Y-1.4567
X1.4567Y-1.4961
X1.4567Y-1.5354
X1.4567Y-1.5748
X1.4567Y-1.6142
X1.4567Y-1.6535
X1.4567Y-1.6929
X1.4567Y-1.7323
X1.4567Y-1.7717
X1.4567Y-1.811
X1.4567Y-1.8504
X1.4567Y-1.8898
X1.4567Y-1.9291
X1.4567Y-1.9685
X1.4567Y-2.0472
X1.4567Y-2.126
X1.4567Y-2.1654
X1.4567Y-2.2047
X1.4567Y-2.2441
X1.4567Y-2.2835
X1.4567Y-2.3228
X1.4567Y-2.3622
X1.4567Y-2.4016
X1.4567Y-2.4409
X1.4567Y-2.4803
X1.4567Y-2.5197
X1.4567Y-2.9528
X1.4567Y-2.9921
X1.4567Y-3.0315
X1.4567Y-3.0709
X1.4567Y-3.1102
X1.4567Y-3.1496
X1.4567Y-3.189
X1.4567Y-3.2283
X1.4961Y-0.6299
X1.4961Y-0.6693
X1.4961Y-0.7087
X1.4961Y-0.748
X1.4961Y-0.7874
X1.4961Y-0.8268
X1.4961Y-0.8661
X1.4961Y-0.9055
X1.4961Y-1.0236
X1.4961Y-1.1024
X1.4961Y-1.1417
X1.4961Y-1.1811
X1.4961Y-1.2205
X1.4961Y-1.2598
X1.4961Y-1.2992
X1.4961Y-1.3386
X1.4961Y-1.378
X1.4961Y-1.4173
X1.4961Y-1.4567
X1.4961Y-1.4961
X1.4961Y-1.5354
X1.4961Y-1.5748
X1.4961Y-1.6142
X1.4961Y-1.6535
X1.4961Y-1.6929
X1.4961Y-1.7323
X1.4961Y-1.7717
X1.4961Y-1.811
X1.4961Y-1.8504
X1.4961Y-1.8898
X1.4961Y-1.9291
X1.4961Y-1.9685
X1.4961Y-2.0079
X1.4961Y-2.0472
X1.4961Y-2.0866
X1.4961Y-2.126
X1.4961Y-2.1654
X1.4961Y-2.2047
X1.4961Y-2.2441
X1.4961Y-2.2835
X1.4961Y-2.3228
X1.4961Y-2.3622
X1.4961Y-2.4016
X1.4961Y-2.4409
X1.4961Y-2.4803
X1.4961Y-2.5197
X1.4961Y-2.9528
X1.4961Y-2.9921
X1.4961Y-3.0315
X1.4961Y-3.0709
X1.4961Y-3.1102
X1.4961Y-3.1496
X1.4961Y-3.189
X1.4961Y-3.2283
X1.5354Y-0.8661
X1.5354Y-0.9055
X1.5354Y-1.0236
X1.5354Y-1.063
X1.5354Y-1.1024
X1.5354Y-1.1417
X1.5354Y-1.1811
X1.5354Y-1.2205
X1.5354Y-1.2598
X1.5354Y-1.2992
X1.5354Y-1.3386
X1.5354Y-1.378
X1.5354Y-1.4173
X1.5354Y-1.4567
X1.5354Y-1.4961
X1.5354Y-1.5354
X1.5354Y-1.5748
X1.5354Y-1.6142
X1.5354Y-1.6535
X1.5354Y-1.6929
X1.5354Y-1.7323
X1.5354Y-1.7717
X1.5354Y-1.811
X1.5354Y-1.8504
X1.5354Y-1.8898
X1.5354Y-1.9291
X1.5354Y-1.9685
X1.5354Y-2.0079
X1.5354Y-2.0472
X1.5354Y-2.0866
X1.5354Y-2.126
X1.5354Y-2.1654
X1.5354Y-2.2047
X1.5354Y-2.2441
X1.5354Y-2.2835
X1.5354Y-2.3228
X1.5354Y-2.3622
X1.5354Y-2.4016
X1.5354Y-2.4409
X1.5354Y-2.4803
X1.5354Y-2.5197
X1.5354Y-2.9528
X1.5354Y-2.9921
X1.5354Y-3.0315
X1.5354Y-3.0709
X1.5354Y-3.1102
X1.5354Y-3.1496
X1.5354Y-3.189
X1.5354Y-3.2283
X1.5748Y-0.8661
X1.5748Y-0.9055
X1.5748Y-1.0236
X1.5748Y-1.063
X1.5748Y-1.1024
X1.5748Y-1.1417
X1.5748Y-1.1811
X1.5748Y-1.2205
X1.5748Y-1.2598
X1.5748Y-1.2992
X1.5748Y-1.3386
X1.5748Y-1.378
X1.5748Y-1.4173
X1.5748Y-1.4567
X1.5748Y-1.4961
X1.5748Y-1.5354
X1.5748Y-1.5748
X1.5748Y-1.6142
X1.5748Y-1.6535
X1.5748Y-1.6929
X1.5748Y-1.7323
X1.5748Y-1.7717
X1.5748Y-1.811
X1.5748Y-1.8504
X1.5748Y-1.8898
X1.5748Y-1.9291
X1.5748Y-1.9685
X1.5748Y-2.0079
X1.5748Y-2.0472
X1.5748Y-2.0866
X1.5748Y-2.126
X1.5748Y-2.1654
X1.5748Y-2.2047
X1.5748Y-2.2441
X1.5748Y-2.2835
X1.5748Y-2.3228
X1.5748Y-2.3622
X1.5748Y-2.4016
X1.5748Y-2.4409
X1.5748Y-2.4803
X1.5748Y-2.5197
X1.5748Y-2.9528
X1.5748Y-2.9921
X1.5748Y-3.0315
X1.5748Y-3.0709
X1.5748Y-3.1102
X1.5748Y-3.1496
X1.5748Y-3.189
X1.5748Y-3.2283
X1.6142Y-0.8268
X1.6142Y-0.8661
X1.6142Y-0.9055
X1.6142Y-1.0236
X1.6142Y-1.063
X1.6142Y-1.1024
X1.6142Y-1.1417
X1.6142Y-1.1811
X1.6142Y-1.2205
X1.6142Y-1.2598
X1.6142Y-1.2992
X1.6142Y-1.3386
X1.6142Y-1.378
X1.6142Y-1.4173
X1.6142Y-1.4567
X1.6142Y-1.4961
X1.6142Y-1.5354
X1.6142Y-1.5748
X1.6142Y-1.6142
X1.6142Y-1.6535
X1.6142Y-1.6929
X1.6142Y-1.7323
X1.6142Y-1.7717
X1.6142Y-1.811
X1.6142Y-1.8504
X1.6142Y-1.8898
X1.6142Y-1.9291
X1.6142Y-1.9685
X1.6142Y-2.0079
X1.6142Y-2.0472
X1.6142Y-2.0866
X1.6142Y-2.126
X1.6142Y-2.1654
X1.6142Y-2.2047
X1.6142Y-2.2441
X1.6142Y-2.2835
X1.6142Y-2.3228
X1.6142Y-2.3622
X1.6142Y-2.4016
X1.6142Y-2.4409
X1.6142Y-2.4803
X1.6142Y-2.5197
X1.6142Y-2.9528
X1.6142Y-2.9921
X1.6142Y-3.0315
X1.6142Y-3.0709
X1.6142Y-3.1102
X1.6142Y-3.1496
X1.6142Y-3.189
X1.6142Y-3.2283
X1.6535Y-0.6299
X1.6535Y-0.6693
X1.6535Y-0.7087
X1.6535Y-0.748
X1.6535Y-0.7874
X1.6535Y-0.8268
X1.6535Y-0.8661
X1.6535Y-0.9055
X1.6535Y-1.0236
X1.6535Y-1.063
X1.6535Y-1.1024
X1.6535Y-1.1417
X1.6535Y-1.1811
X1.6535Y-1.2205
X1.6535Y-1.2598
X1.6535Y-1.2992
X1.6535Y-1.3386
X1.6535Y-1.378
X1.6535Y-1.4173
X1.6535Y-1.4567
X1.6535Y-1.4961
X1.6535Y-1.5354
X1.6535Y-1.5748
X1.6535Y-1.6142
X1.6535Y-1.6535
X1.6535Y-1.6929
X1.6535Y-1.7323
X1.6535Y-1.7717
X1.6535Y-1.811
X1.6535Y-1.8504
X1.6535Y-1.8898
X1.6535Y-1.9291
X1.6535Y-1.9685
X1.6535Y-2.0079
X1.6535Y-2.0472
X1.6535Y-2.0866
X1.6535Y-2.126
X1.6535Y-2.1654
X1.6535Y-2.2047
X1.6535Y-2.2441
X1.6535Y-2.2835
X1.6535Y-2.3228
X1.6535Y-2.3622
X1.6535Y-2.4016
X1.6535Y-2.4409
X1.6535Y-2.4803
X1.6535Y-2.5197
X1.6535Y-2.9528
X1.6535Y-2.9921
X1.6535Y-3.0315
X1.6535Y-3.0709
X1.6535Y-3.1102
X1.6535Y-3.1496
X1.6535Y-3.189
X1.6535Y-3.2283
X1.6929Y-0.6299
X1.6929Y-0.6693
X1.6929Y-0.7087
X1.6929Y-0.748
X1.6929Y-0.7874
X1.6929Y-0.8268
X1.6929Y-0.8661
X1.6929Y-0.9055
X1.6929Y-0.9449
X1.6929Y-0.9843
X1.6929Y-1.0236
X1.6929Y-1.063
X1.6929Y-1.1024
X1.6929Y-1.1417
X1.6929Y-1.1811
X1.6929Y-1.2205
X1.6929Y-1.2598
X1.6929Y-1.2992
X1.6929Y-1.3386
X1.6929Y-1.378
X1.6929Y-1.4173
X1.6929Y-1.4567
X1.6929Y-1.4961
X1.6929Y-1.5354
X1.6929Y-1.5748
X1.6929Y-1.6142
X1.6929Y-1.6535
X1.6929Y-1.6929
X1.6929Y-1.7323
X1.6929Y-1.7717
X1.6929Y-1.811
X1.6929Y-1.8504
X1.6929Y-1.8898
X1.6929Y-1.9291
X1.6929Y-1.9685
X1.6929Y-2.0079
X1.6929Y-2.0472
X1.6929Y-2.0866
X1.6929Y-2.126
X1.6929Y-2.1654
X1.6929Y-2.2047
X1.6929Y-2.2441
X1.6929Y-2.2835
X1.6929Y-2.3228
X1.6929Y-2.3622
X1.6929Y-2.4016
X1.6929Y-2.4409
X1.6929Y-2.4803
X1.6929Y-2.5197
X1.6929Y-2.9528
X1.6929Y-2.9921
X1.6929Y-3.0315
X1.6929Y-3.0709
X1.6929Y-3.1102
X1.6929Y-3.1496
X1.6929Y-3.189
X1.6929Y-3.2283
X1.7323Y-0.6299
X1.7323Y-0.6693
X1.7323Y-0.7087
X1.7323Y-0.748
X1.7323Y-0.7874
X1.7323Y-0.8268
X1.7323Y-0.8661
X1.7323Y-0.9055
X1.7323Y-0.9449
X1.7323Y-0.9843
X1.7323Y-1.0236
X1.7323Y-1.063
X1.7323Y-1.1024
X1.7323Y-1.1417
X1.7323Y-1.1811
X1.7323Y-1.2205
X1.7323Y-1.2598
X1.7323Y-1.2992
X1.7323Y-1.3386
X1.7323Y-1.378
X1.7323Y-1.4173
X1.7323Y-1.4567
X1.7323Y-1.4961
X1.7323Y-1.5354
X1.7323Y-1.5748
X1.7323Y-1.6142
X1.7323Y-1.6535
X1.7323Y-1.6929
X1.7323Y-1.7323
X1.7323Y-1.7717
X1.7323Y-1.811
X1.7323Y-2.2441
X1.7323Y-2.2835
X1.7323Y-2.3228
X1.7323Y-2.3622
X1.7323Y-2.4016
X1.7323Y-2.4409
X1.7323Y-2.4803
X1.7323Y-2.5197
X1.7323Y-2.9528
X1.7323Y-2.9921
X1.7323Y-3.0315
X1.7323Y-3.0709
X1.7323Y-3.1102
X1.7323Y-3.1496
X1.7323Y-3.189
X1.7323Y-3.2283
X1.7717Y-0.6299
X1.7717Y-0.6693
X1.7717Y-0.7087
X1.7717Y-0.748
X1.7717Y-0.7874
X1.7717Y-0.8268
X1.7717Y-0.8661
X1.7717Y-0.9055
X1.7717Y-0.9449
X1.7717Y-0.9843
X1.7717Y-1.0236
X1.7717Y-1.063
X1.7717Y-1.1024
X1.7717Y-1.1417
X1.7717Y-1.1811
X1.7717Y-1.2205
X1.7717Y-1.2598
X1.7717Y-1.2992
X1.7717Y-1.3386
X1.7717Y-1.378
X1.7717Y-1.4173
X1.7717Y-1.4567
X1.7717Y-1.4961
X1.7717Y-1.5354
X1.7717Y-1.5748
X1.7717Y-1.6142
X1.7717Y-1.6535
X1.7717Y-1.6929
X1.7717Y-1.7323
X1.7717Y-1.7717
X1.7717Y-2.2835
X1.7717Y-2.3228
X1.7717Y-2.3622
X1.7717Y-2.4016
X1.7717Y-2.4409
X1.7717Y-2.4803
X1.7717Y-2.5197
X1.7717Y-2.9528
X1.7717Y-2.9921
X1.7717Y-3.0315
X1.7717Y-3.0709
X1.7717Y-3.1102
X1.7717Y-3.1496
X1.7717Y-3.189
X1.7717Y-3.2283
X1.811Y-0.6299
X1.811Y-0.6693
X1.811Y-0.7087
X1.811Y-0.748
X1.811Y-0.7874
X1.811Y-0.8268
X1.811Y-0.8661
X1.811Y-0.9055
X1.811Y-0.9449
X1.811Y-0.9843
X1.811Y-1.0236
X1.811Y-1.063
X1.811Y-1.1024
X1.811Y-1.1417
X1.811Y-1.1811
X1.811Y-1.2205
X1.811Y-1.2598
X1.811Y-1.2992
X1.811Y-1.3386
X1.811Y-1.378
X1.811Y-1.4173
X1.811Y-1.4567
X1.811Y-1.4961
X1.811Y-1.5354
X1.811Y-1.5748
X1.811Y-1.6142
X1.811Y-1.6535
X1.811Y-1.6929
X1.811Y-1.7323
X1.811Y-2.3228
X1.811Y-2.3622
X1.811Y-2.4016
X1.811Y-2.4409
X1.811Y-2.4803
X1.811Y-2.5197
X1.811Y-2.9528
X1.811Y-2.9921
X1.811Y-3.0315
X1.811Y-3.0709
X1.811Y-3.1102
X1.811Y-3.1496
X1.811Y-3.189
X1.811Y-3.2283
X1.8504Y-0.6299
X1.8504Y-0.6693
X1.8504Y-0.7087
X1.8504Y-0.748
X1.8504Y-0.7874
X1.8504Y-0.8268
X1.8504Y-0.8661
X1.8504Y-0.9055
X1.8504Y-0.9449
X1.8504Y-0.9843
X1.8504Y-1.0236
X1.8504Y-1.063
X1.8504Y-1.1024
X1.8504Y-1.1417
X1.8504Y-1.1811
X1.8504Y-1.2205
X1.8504Y-1.2598
X1.8504Y-1.2992
X1.8504Y-1.3386
X1.8504Y-1.378
X1.8504Y-1.4173
X1.8504Y-1.4567
X1.8504Y-1.4961
X1.8504Y-1.5354
X1.8504Y-1.5748
X1.8504Y-1.6142
X1.8504Y-1.6535
X1.8504Y-1.6929
X1.8504Y-2.3622
X1.8504Y-2.4016
X1.8504Y-2.4409
X1.8504Y-2.4803
X1.8504Y-2.5197
X1.8504Y-2.9528
X1.8504Y-2.9921
X1.8504Y-3.0315
X1.8504Y-3.0709
X1.8504Y-3.1102
X1.8504Y-3.1496
X1.8504Y-3.189
X1.8504Y-3.2283
X1.8898Y-0.6299
X1.8898Y-0.6693
X1.8898Y-0.7087
X1.8898Y-0.748
X1.8898Y-0.7874
X1.8898Y-0.8268
X1.8898Y-0.8661
X1.8898Y-0.9055
X1.8898Y-0.9449
X1.8898Y-0.9843
X1.8898Y-1.0236
X1.8898Y-1.063
X1.8898Y-1.1024
X1.8898Y-1.1417
X1.8898Y-1.1811
X1.8898Y-1.2205
X1.8898Y-1.2598
X1.8898Y-1.2992
X1.8898Y-1.3386
X1.8898Y-1.378
X1.8898Y-1.4173
X1.8898Y-1.4567
X1.8898Y-1.4961
X1.8898Y-1.5354
X1.8898Y-1.5748
X1.8898Y-1.6142
X1.8898Y-1.6535
X1.8898Y-1.6929
X1.8898Y-2.3622
X1.8898Y-2.4016
X1.8898Y-2.4409
X1.8898Y-2.4803
X1.8898Y-2.5197
X1.8898Y-2.9528
X1.8898Y-2.9921
X1.8898Y-3.0315
X1.8898Y-3.0709
X1.8898Y-3.1102
X1.8898Y-3.1496
X1.8898Y-3.189
X1.8898Y-3.2283
X1.9291Y-0.6299
X1.9291Y-0.6693
X1.9291Y-0.7087
X1.9291Y-0.748
X1.9291Y-0.7874
X1.9291Y-0.8268
X1.9291Y-0.8661
X1.9291Y-0.9055
X1.9291Y-0.9449
X1.9291Y-0.9843
X1.9291Y-1.0236
X1.9291Y-1.063
X1.9291Y-1.1024
X1.9291Y-1.1417
X1.9291Y-1.1811
X1.9291Y-1.2205
X1.9291Y-1.2598
X1.9291Y-1.2992
X1.9291Y-1.3386
X1.9291Y-1.378
X1.9291Y-1.4173
X1.9291Y-1.4567
X1.9291Y-1.4961
X1.9291Y-1.5354
X1.9291Y-1.5748
X1.9291Y-1.6142
X1.9291Y-1.6535
X1.9291Y-1.6929
X1.9291Y-2.0079
X1.9291Y-2.0472
X1.9291Y-2.0866
X1.9291Y-2.3622
X1.9291Y-2.4016
X1.9291Y-2.4409
X1.9291Y-2.4803
X1.9291Y-2.5197
X1.9291Y-2.9528
X1.9291Y-2.9921
X1.9291Y-3.0315
X1.9291Y-3.0709
X1.9291Y-3.1102
X1.9291Y-3.1496
X1.9291Y-3.189
X1.9291Y-3.2283
X1.9614Y-2.5201
X1.963Y-2.4807
X1.9634Y-2.4461
X1.9642Y-2.3614
X1.965Y-2.4031
X1.9685Y-0.6299
X1.9685Y-0.6693
X1.9685Y-0.7087
X1.9685Y-0.748
X1.9685Y-0.7874
X1.9685Y-0.8268
X1.9685Y-0.8661
X1.9685Y-0.9055
X1.9685Y-0.9449
X1.9685Y-0.9843
X1.9685Y-1.0236
X1.9685Y-1.063
X1.9685Y-1.1024
X1.9685Y-1.1417
X1.9685Y-1.1811
X1.9685Y-1.2205
X1.9685Y-1.2598
X1.9685Y-1.2992
X1.9685Y-1.3386
X1.9685Y-1.378
X1.9685Y-1.4173
X1.9685Y-1.4567
X1.9685Y-1.4961
X1.9685Y-1.5354
X1.9685Y-1.5748
X1.9685Y-1.6142
X1.9685Y-1.6535
X1.9685Y-1.6929
X1.9685Y-1.9685
X1.9685Y-2.0079
X1.9685Y-2.0472
X1.9685Y-2.0866
X1.9685Y-2.9528
X1.9685Y-2.9921
X1.9685Y-3.0315
X1.9685Y-3.0709
X1.9685Y-3.1102
X1.9685Y-3.1496
X1.9685Y-3.189
X1.9685Y-3.2283
X2.0079Y-0.6299
X2.0079Y-0.6693
X2.0079Y-0.7087
X2.0079Y-0.748
X2.0079Y-0.7874
X2.0079Y-0.8268
X2.0079Y-0.8661
X2.0079Y-0.9055
X2.0079Y-0.9449
X2.0079Y-0.9843
X2.0079Y-1.0236
X2.0079Y-1.063
X2.0079Y-1.1024
X2.0079Y-1.1417
X2.0079Y-1.1811
X2.0079Y-1.2205
X2.0079Y-1.2598
X2.0079Y-1.2992
X2.0079Y-1.3386
X2.0079Y-1.378
X2.0079Y-1.4173
X2.0079Y-1.4567
X2.0079Y-1.4961
X2.0079Y-1.5354
X2.0079Y-1.5748
X2.0079Y-1.6142
X2.0079Y-1.6535
X2.0079Y-1.6929
X2.0079Y-2.9528
X2.0079Y-2.9921
X2.0079Y-3.0315
X2.0079Y-3.0709
X2.0079Y-3.1102
X2.0079Y-3.1496
X2.0079Y-3.189
X2.0079Y-3.2283
X2.0472Y-0.6299
X2.0472Y-0.6693
X2.0472Y-0.7087
X2.0472Y-0.748
X2.0472Y-0.7874
X2.0472Y-0.8268
X2.0472Y-0.8661
X2.0472Y-0.9055
X2.0472Y-0.9449
X2.0472Y-0.9843
X2.0472Y-1.0236
X2.0472Y-1.063
X2.0472Y-1.1024
X2.0472Y-1.1417
X2.0472Y-1.1811
X2.0472Y-1.2205
X2.0472Y-1.2598
X2.0472Y-1.2992
X2.0472Y-1.3386
X2.0472Y-1.378
X2.0472Y-1.4173
X2.0472Y-1.4567
X2.0472Y-1.4961
X2.0472Y-1.5354
X2.0472Y-1.5748
X2.0472Y-1.6142
X2.0472Y-1.6535
X2.0472Y-1.6929
X2.0472Y-2.9528
X2.0472Y-2.9921
X2.0472Y-3.0315
X2.0472Y-3.0709
X2.0472Y-3.1102
X2.0472Y-3.1496
X2.0472Y-3.189
X2.0472Y-3.2283
X2.0866Y-0.6299
X2.0866Y-0.6693
X2.0866Y-0.7087
X2.0866Y-0.748
X2.0866Y-0.7874
X2.0866Y-0.8268
X2.0866Y-0.8661
X2.0866Y-0.9055
X2.0866Y-0.9449
X2.0866Y-0.9843
X2.0866Y-1.0236
X2.0866Y-1.063
X2.0866Y-1.1024
X2.0866Y-1.1417
X2.0866Y-1.1811
X2.0866Y-1.2205
X2.0866Y-1.2598
X2.0866Y-1.2992
X2.0866Y-1.3386
X2.0866Y-1.378
X2.0866Y-1.4173
X2.0866Y-1.4567
X2.0866Y-1.4961
X2.0866Y-1.5354
X2.0866Y-1.5748
X2.0866Y-1.6142
X2.0866Y-1.6535
X2.0866Y-1.6929
X2.0866Y-1.9685
X2.0866Y-2.0079
X2.0866Y-2.9528
X2.0866Y-2.9921
X2.0866Y-3.0315
X2.0866Y-3.0709
X2.0866Y-3.1102
X2.0866Y-3.1496
X2.0866Y-3.189
X2.0866Y-3.2283
X2.1063Y-2.5394
X2.126Y-0.6299
X2.126Y-0.6693
X2.126Y-0.7087
X2.126Y-0.748
X2.126Y-0.7874
X2.126Y-0.8268
X2.126Y-0.8661
X2.126Y-0.9055
X2.126Y-0.9449
X2.126Y-0.9843
X2.126Y-1.0236
X2.126Y-1.063
X2.126Y-1.1024
X2.126Y-1.1417
X2.126Y-1.1811
X2.126Y-1.2205
X2.126Y-1.2598
X2.126Y-1.2992
X2.126Y-1.3386
X2.126Y-1.378
X2.126Y-1.4173
X2.126Y-1.4567
X2.126Y-1.4961
X2.126Y-1.5354
X2.126Y-1.5748
X2.126Y-1.6142
X2.126Y-1.6535
X2.126Y-1.6929
X2.126Y-1.9685
X2.126Y-2.0079
X2.126Y-2.126
X2.126Y-2.1654
X2.126Y-2.2047
X2.126Y-2.2441
X2.126Y-2.2835
X2.126Y-2.3228
X2.126Y-2.9528
X2.126Y-2.9921
X2.126Y-3.0315
X2.126Y-3.0709
X2.126Y-3.1102
X2.126Y-3.1496
X2.126Y-3.189
X2.126Y-3.2283
X2.1457Y-2.5394
X2.1654Y-0.6299
X2.1654Y-0.6693
X2.1654Y-0.8268
X2.1654Y-0.8661
X2.1654Y-0.9055
X2.1654Y-0.9449
X2.1654Y-0.9843
X2.1654Y-1.0236
X2.1654Y-1.063
X2.1654Y-1.1024
X2.1654Y-1.1417
X2.1654Y-1.1811
X2.1654Y-1.2205
X2.1654Y-1.2598
X2.1654Y-1.2992
X2.1654Y-1.3386
X2.1654Y-1.378
X2.1654Y-1.4173
X2.1654Y-1.4567
X2.1654Y-1.4961
X2.1654Y-1.5354
X2.1654Y-1.5748
X2.1654Y-1.6142
X2.1654Y-1.6535
X2.1654Y-1.6929
X2.1654Y-1.9685
X2.1654Y-2.0079
X2.1654Y-2.1654
X2.1654Y-2.2047
X2.1654Y-2.2441
X2.1654Y-2.2835
X2.1654Y-2.3228
X2.1654Y-2.9528
X2.1654Y-2.9921
X2.1654Y-3.0315
X2.1654Y-3.0709
X2.1654Y-3.2283
X2.185Y-2.5394
X2.2047Y-0.6299
X2.2047Y-0.8661
X2.2047Y-0.9055
X2.2047Y-0.9449
X2.2047Y-0.9843
X2.2047Y-1.0236
X2.2047Y-1.063
X2.2047Y-1.1024
X2.2047Y-1.1417
X2.2047Y-1.1811
X2.2047Y-1.2205
X2.2047Y-1.2598
X2.2047Y-1.2992
X2.2047Y-1.3386
X2.2047Y-1.378
X2.2047Y-1.4173
X2.2047Y-1.4567
X2.2047Y-1.4961
X2.2047Y-1.5354
X2.2047Y-1.5748
X2.2047Y-1.6142
X2.2047Y-1.6535
X2.2047Y-1.6929
X2.2047Y-1.9685
X2.2047Y-2.0079
X2.2047Y-2.0472
X2.2047Y-2.2047
X2.2047Y-2.2441
X2.2047Y-2.2835
X2.2047Y-2.3228
X2.2047Y-2.9528
X2.2047Y-2.9921
X2.2047Y-3.0315
X2.2244Y-2.5394
X2.2441Y-0.6299
X2.2441Y-0.8661
X2.2441Y-0.9055
X2.2441Y-0.9449
X2.2441Y-0.9843
X2.2441Y-1.0236
X2.2441Y-1.063
X2.2441Y-1.1024
X2.2441Y-1.1417
X2.2441Y-1.1811
X2.2441Y-1.2205
X2.2441Y-1.2598
X2.2441Y-1.2992
X2.2441Y-1.3386
X2.2441Y-1.378
X2.2441Y-1.4173
X2.2441Y-1.4567
X2.2441Y-1.4961
X2.2441Y-1.5354
X2.2441Y-1.5748
X2.2441Y-1.6142
X2.2441Y-1.6535
X2.2441Y-1.6929
X2.2441Y-1.9685
X2.2441Y-2.0079
X2.2441Y-2.0472
X2.2441Y-2.0866
X2.2441Y-2.2835
X2.2441Y-2.3228
X2.2441Y-2.9528
X2.2441Y-2.9921
X2.2441Y-3.0315
X2.2638Y-2.5394
X2.2835Y-0.6299
X2.2835Y-0.8661
X2.2835Y-0.9055
X2.2835Y-0.9449
X2.2835Y-0.9843
X2.2835Y-1.0236
X2.2835Y-1.063
X2.2835Y-1.1024
X2.2835Y-1.1417
X2.2835Y-1.1811
X2.2835Y-1.2205
X2.2835Y-1.2598
X2.2835Y-1.6929
X2.2835Y-1.9685
X2.2835Y-2.0079
X2.2835Y-2.0472
X2.2835Y-2.0866
X2.2835Y-2.126
X2.2835Y-2.2835
X2.2835Y-2.3228
X2.2835Y-2.9528
X2.2835Y-2.9921
X2.2835Y-3.0315
X2.2882Y-1.3764
X2.2882Y-1.4551
X2.2882Y-1.5732
X2.2882Y-1.6126
X2.2882Y-1.652
X2.3031Y-2.5394
X2.3228Y-0.6299
X2.3228Y-0.6693
X2.3228Y-0.8268
X2.3228Y-0.8661
X2.3228Y-0.9055
X2.3228Y-0.9449
X2.3228Y-0.9843
X2.3228Y-1.0236
X2.3228Y-1.063
X2.3228Y-1.1024
X2.3228Y-1.1417
X2.3228Y-1.1811
X2.3228Y-1.2205
X2.3228Y-1.2598
X2.3228Y-1.6929
X2.3228Y-1.9685
X2.3228Y-2.0079
X2.3228Y-2.0472
X2.3228Y-2.0866
X2.3228Y-2.126
X2.3228Y-2.1654
X2.3228Y-2.2835
X2.3228Y-2.3228
X2.3228Y-2.9528
X2.3228Y-2.9921
X2.3228Y-3.0315
X2.3228Y-3.0709
X2.3228Y-3.2283
X2.3276Y-1.3764
X2.3276Y-1.4551
X2.3276Y-1.5732
X2.3276Y-1.6126
X2.3276Y-1.652
X2.3425Y-2.5394
X2.3622Y-0.6299
X2.3622Y-0.6693
X2.3622Y-0.7087
X2.3622Y-0.748
X2.3622Y-0.7874
X2.3622Y-0.8268
X2.3622Y-0.8661
X2.3622Y-0.9055
X2.3622Y-0.9449
X2.3622Y-0.9843
X2.3622Y-1.0236
X2.3622Y-1.063
X2.3622Y-1.1024
X2.3622Y-1.1417
X2.3622Y-1.1811
X2.3622Y-1.2205
X2.3622Y-1.2598
X2.3622Y-1.6929
X2.3622Y-1.9685
X2.3622Y-2.0079
X2.3622Y-2.0472
X2.3622Y-2.0866
X2.3622Y-2.126
X2.3622Y-2.1654
X2.3622Y-2.2835
X2.3622Y-2.3228
X2.3622Y-2.9528
X2.3622Y-2.9921
X2.3622Y-3.0315
X2.3622Y-3.0709
X2.3622Y-3.1102
X2.3622Y-3.1496
X2.3622Y-3.189
X2.3622Y-3.2283
X2.3669Y-1.3764
X2.3669Y-1.4551
X2.3669Y-1.5732
X2.3669Y-1.6126
X2.3669Y-1.652
X2.3819Y-2.5394
X2.4016Y-0.6299
X2.4016Y-0.6693
X2.4016Y-0.7087
X2.4016Y-0.748
X2.4016Y-0.7874
X2.4016Y-0.8268
X2.4016Y-0.8661
X2.4016Y-0.9055
X2.4016Y-0.9449
X2.4016Y-0.9843
X2.4016Y-1.0236
X2.4016Y-1.063
X2.4016Y-1.1024
X2.4016Y-1.1417
X2.4016Y-1.1811
X2.4016Y-1.2205
X2.4016Y-1.2598
X2.4016Y-1.6535
X2.4016Y-1.9685
X2.4016Y-2.0079
X2.4016Y-2.126
X2.4016Y-2.1654
X2.4016Y-2.2835
X2.4016Y-2.3228
X2.4016Y-2.9528
X2.4016Y-3.0315
X2.4016Y-3.1496
X2.4016Y-3.189
X2.4016Y-3.2283
X2.4063Y-1.3764
X2.4063Y-1.4551
X2.4213Y-2.5394
X2.4409Y-0.6299
X2.4409Y-0.6693
X2.4409Y-0.7087
X2.4409Y-0.748
X2.4409Y-0.7874
X2.4409Y-0.8268
X2.4409Y-0.8661
X2.4409Y-0.9055
X2.4409Y-0.9449
X2.4409Y-0.9843
X2.4409Y-1.0236
X2.4409Y-1.063
X2.4409Y-1.1024
X2.4409Y-1.1417
X2.4409Y-1.1811
X2.4409Y-1.2205
X2.4409Y-1.2598
X2.4409Y-1.6535
X2.4409Y-1.9685
X2.4409Y-2.0079
X2.4409Y-2.126
X2.4409Y-2.2835
X2.4409Y-2.3228
X2.4409Y-2.9528
X2.4409Y-3.0315
X2.4409Y-3.1496
X2.4409Y-3.189
X2.4409Y-3.2283
X2.4457Y-1.3764
X2.4457Y-1.4551
X2.4606Y-2.5394
X2.4803Y-0.6299
X2.4803Y-0.6693
X2.4803Y-0.7087
X2.4803Y-0.748
X2.4803Y-0.7874
X2.4803Y-0.8268
X2.4803Y-0.8661
X2.4803Y-0.9055
X2.4803Y-0.9449
X2.4803Y-0.9843
X2.4803Y-1.0236
X2.4803Y-1.063
X2.4803Y-1.1024
X2.4803Y-1.1417
X2.4803Y-1.1811
X2.4803Y-1.2205
X2.4803Y-1.2598
X2.4803Y-1.6535
X2.4803Y-1.9685
X2.4803Y-2.0079
X2.4803Y-2.126
X2.4803Y-2.2835
X2.4803Y-2.3228
X2.4803Y-2.9528
X2.4803Y-3.0315
X2.4803Y-3.1496
X2.4803Y-3.189
X2.4803Y-3.2283
X2.485Y-1.3764
X2.485Y-1.4551
X2.5Y-2.5394
X2.5197Y-0.6299
X2.5197Y-0.6693
X2.5197Y-0.7087
X2.5197Y-0.748
X2.5197Y-0.7874
X2.5197Y-0.8268
X2.5197Y-0.8661
X2.5197Y-0.9055
X2.5197Y-0.9449
X2.5197Y-0.9843
X2.5197Y-1.0236
X2.5197Y-1.063
X2.5197Y-1.1024
X2.5197Y-1.1417
X2.5197Y-1.1811
X2.5197Y-1.2205
X2.5197Y-1.2598
X2.5197Y-1.2992
X2.5197Y-1.3386
X2.5197Y-1.378
X2.5197Y-1.4173
X2.5197Y-1.4567
X2.5197Y-1.4961
X2.5197Y-1.5354
X2.5197Y-1.5748
X2.5197Y-1.6142
X2.5197Y-1.6535
X2.5197Y-1.6929
X2.5197Y-1.9685
X2.5197Y-2.0079
X2.5197Y-2.0472
X2.5197Y-2.0866
X2.5197Y-2.126
X2.5197Y-2.1654
X2.5197Y-2.2835
X2.5197Y-2.3228
X2.5197Y-2.9528
X2.5197Y-2.9921
X2.5197Y-3.0315
X2.5197Y-3.0709
X2.5197Y-3.1102
X2.5197Y-3.1496
X2.5197Y-3.189
X2.5197Y-3.2283
X2.5394Y-2.5394
X2.5591Y-0.6299
X2.5591Y-0.6693
X2.5591Y-0.7087
X2.5591Y-0.748
X2.5591Y-0.7874
X2.5591Y-0.8268
X2.5591Y-0.8661
X2.5591Y-0.9055
X2.5591Y-0.9449
X2.5591Y-0.9843
X2.5591Y-1.0236
X2.5591Y-1.063
X2.5591Y-1.1024
X2.5591Y-1.1417
X2.5591Y-1.1811
X2.5591Y-1.2205
X2.5591Y-1.2598
X2.5591Y-2.3228
X2.5591Y-3.1496
X2.5591Y-3.189
X2.5591Y-3.2283
X2.5984Y-0.6693
X2.5984Y-0.7087
X2.5984Y-0.748
X2.5984Y-0.7874
X2.5984Y-0.8268
X2.5984Y-0.8661
X2.5984Y-0.9055
X2.5984Y-0.9449
X2.5984Y-0.9843
X2.5984Y-1.0236
X2.5984Y-1.063
X2.5984Y-1.1024
X2.5984Y-1.1417
X2.5984Y-1.1811
X2.5984Y-1.2205
X2.5984Y-1.2598
X2.5984Y-2.3228
X2.5984Y-3.1496
X2.5984Y-3.189
X2.5984Y-3.2283
X2.6378Y-0.7087
X2.6378Y-0.748
X2.6378Y-0.7874
X2.6378Y-0.8268
X2.6378Y-0.8661
X2.6378Y-0.9055
X2.6378Y-0.9449
X2.6378Y-0.9843
X2.6378Y-1.0236
X2.6378Y-1.063
X2.6378Y-1.1024
X2.6378Y-1.1417
X2.6378Y-1.1811
X2.6378Y-2.3228
X2.6378Y-2.5394
X2.6378Y-2.6378
X2.6378Y-2.7165
X2.6378Y-2.8346
X2.6378Y-2.9528
X2.6378Y-3.0315
X2.6378Y-3.1496
X2.6378Y-3.189
X2.6575Y-1.2205
X2.6575Y-1.2598
X2.6575Y-1.2992
X2.6575Y-1.3386
X2.6575Y-1.378
X2.6575Y-1.437
X2.6575Y-1.4764
X2.6575Y-1.5354
T2
X0.6906Y-1.6906
X0.6906Y-1.7906
X0.6906Y-1.8906
X0.6906Y-1.9906
X0.6906Y-2.0906
X0.6906Y-2.1906
X0.6906Y-2.2906
X0.6906Y-2.3906
X0.6906Y-2.5906
X0.6906Y-2.6906
X0.6906Y-2.7906
X0.6906Y-2.8906
X0.6906Y-2.9906
X0.6906Y-3.0906
X2.5906Y-1.3306
X2.5906Y-1.4306
X2.5906Y-1.5306
X2.5906Y-1.6306
X2.5906Y-1.7306
X2.5906Y-1.8306
X2.5906Y-1.9306
X2.5906Y-2.0306
X2.5906Y-2.1306
X2.5906Y-2.2306
X2.5906Y-2.3906
X2.5906Y-2.4906
X2.5906Y-2.5906
X2.5906Y-2.6906
X2.5906Y-2.7906
X2.5906Y-2.8906
X2.5906Y-2.9906
X2.5906Y-3.0906
M30
