%TF.GenerationSoftware,KiCad,Pcbnew,9.0.4*%
%TF.CreationDate,2025-12-01T13:25:47+09:00*%
%TF.ProjectId,Handy_LoRa,48616e64-795f-44c6-9f52-612e6b696361,rev?*%
%TF.SameCoordinates,Original*%
%TF.FileFunction,Copper,L4,Bot*%
%TF.FilePolarity,Positive*%
%FSLAX46Y46*%
G04 Gerber Fmt 4.6, Leading zero omitted, Abs format (unit mm)*
G04 Created by KiCad (PCBNEW 9.0.4) date 2025-12-01 13:25:47*
%MOMM*%
%LPD*%
G01*
G04 APERTURE LIST*
%TA.AperFunction,ComponentPad*%
%ADD10R,1.700000X1.700000*%
%TD*%
%TA.AperFunction,ComponentPad*%
%ADD11C,1.700000*%
%TD*%
%TA.AperFunction,SMDPad,CuDef*%
%ADD12R,1.500000X5.080000*%
%TD*%
%TA.AperFunction,ViaPad*%
%ADD13C,0.600000*%
%TD*%
%TA.AperFunction,Conductor*%
%ADD14C,0.200000*%
%TD*%
G04 APERTURE END LIST*
D10*
%TO.P,J4,1,Pin_1*%
%TO.N,unconnected-(J4-Pin_1-Pad1)*%
X65800000Y-33796000D03*
D11*
%TO.P,J4,2,Pin_2*%
%TO.N,unconnected-(J4-Pin_2-Pad2)*%
X65800000Y-36336000D03*
%TO.P,J4,3,Pin_3*%
%TO.N,unconnected-(J4-Pin_3-Pad3)*%
X65800000Y-38876000D03*
%TO.P,J4,4,Pin_4*%
%TO.N,GND*%
X65800000Y-41416000D03*
%TO.P,J4,5,Pin_5*%
%TO.N,Net-(J4-Pin_5)*%
X65800000Y-43956000D03*
%TO.P,J4,6,Pin_6*%
%TO.N,Net-(J4-Pin_6)*%
X65800000Y-46496000D03*
%TO.P,J4,7,Pin_7*%
%TO.N,Net-(J4-Pin_7)*%
X65800000Y-49036000D03*
%TO.P,J4,8,Pin_8*%
%TO.N,unconnected-(J4-Pin_8-Pad8)*%
X65800000Y-51576000D03*
%TO.P,J4,9,Pin_9*%
%TO.N,unconnected-(J4-Pin_9-Pad9)*%
X65800000Y-54116000D03*
%TO.P,J4,10,Pin_10*%
%TO.N,Net-(J4-Pin_10)*%
X65800000Y-56656000D03*
%TD*%
D10*
%TO.P,J2,1,Pin_1*%
%TO.N,unconnected-(J2-Pin_1-Pad1)*%
X17540000Y-60720000D03*
D11*
%TO.P,J2,2,Pin_2*%
%TO.N,GND*%
X17540000Y-58180000D03*
%TO.P,J2,3,Pin_3*%
X17540000Y-55640000D03*
%TO.P,J2,4,Pin_4*%
%TO.N,unconnected-(J2-Pin_4-Pad4)*%
X17540000Y-53100000D03*
%TO.P,J2,5,Pin_5*%
%TO.N,Net-(J2-Pin_5)*%
X17540000Y-50560000D03*
%TO.P,J2,6,Pin_6*%
%TO.N,Net-(J2-Pin_6)*%
X17540000Y-48020000D03*
%TO.P,J2,7,Pin_7*%
%TO.N,unconnected-(J2-Pin_7-Pad7)*%
X17540000Y-45480000D03*
%TO.P,J2,8,Pin_8*%
%TO.N,unconnected-(J2-Pin_8-Pad8)*%
X17540000Y-42940000D03*
%TD*%
D10*
%TO.P,J3,1,Pin_1*%
%TO.N,Net-(J3-Pin_1)*%
X65800000Y-60720000D03*
D11*
%TO.P,J3,2,Pin_2*%
%TO.N,Net-(J3-Pin_2)*%
X65800000Y-63260000D03*
%TO.P,J3,3,Pin_3*%
%TO.N,Net-(J3-Pin_3)*%
X65800000Y-65800000D03*
%TO.P,J3,4,Pin_4*%
%TO.N,Net-(J3-Pin_4)*%
X65800000Y-68340000D03*
%TO.P,J3,5,Pin_5*%
%TO.N,Net-(J3-Pin_5)*%
X65800000Y-70880000D03*
%TO.P,J3,6,Pin_6*%
%TO.N,Net-(J3-Pin_6)*%
X65800000Y-73420000D03*
%TO.P,J3,7,Pin_7*%
%TO.N,unconnected-(J3-Pin_7-Pad7)*%
X65800000Y-75960000D03*
%TO.P,J3,8,Pin_8*%
%TO.N,unconnected-(J3-Pin_8-Pad8)*%
X65800000Y-78500000D03*
%TD*%
D12*
%TO.P,J5,2,Ext*%
%TO.N,GND*%
X31350000Y-18492500D03*
X39850000Y-18492500D03*
%TD*%
D10*
%TO.P,J1,1,Pin_1*%
%TO.N,unconnected-(J1-Pin_1-Pad1)*%
X17540000Y-65800000D03*
D11*
%TO.P,J1,2,Pin_2*%
%TO.N,unconnected-(J1-Pin_2-Pad2)*%
X17540000Y-68340000D03*
%TO.P,J1,3,Pin_3*%
%TO.N,unconnected-(J1-Pin_3-Pad3)*%
X17540000Y-70880000D03*
%TO.P,J1,4,Pin_4*%
%TO.N,unconnected-(J1-Pin_4-Pad4)*%
X17540000Y-73420000D03*
%TO.P,J1,5,Pin_5*%
%TO.N,unconnected-(J1-Pin_5-Pad5)*%
X17540000Y-75960000D03*
%TO.P,J1,6,Pin_6*%
%TO.N,unconnected-(J1-Pin_6-Pad6)*%
X17540000Y-78500000D03*
%TD*%
D13*
%TO.N,GND*%
X66000000Y-32000000D03*
X65000000Y-32000000D03*
X66000000Y-31000000D03*
X65000000Y-31000000D03*
X63000000Y-32000000D03*
X62000000Y-32000000D03*
X61000000Y-32000000D03*
X60000000Y-32000000D03*
X59000000Y-32000000D03*
X58000000Y-32000000D03*
X63000000Y-59000000D03*
X62000000Y-59000000D03*
X61000000Y-59000000D03*
X61000000Y-58000000D03*
X62000000Y-58000000D03*
X63000000Y-58000000D03*
X64000000Y-58000000D03*
X64000000Y-55000000D03*
X64000000Y-52000000D03*
X64000000Y-53000000D03*
X64000000Y-54000000D03*
X63000000Y-54000000D03*
X62000000Y-54000000D03*
X61000000Y-54000000D03*
X61000000Y-55000000D03*
X60000000Y-55000000D03*
X59000000Y-55000000D03*
X60000000Y-54000000D03*
X60000000Y-53000000D03*
X60000000Y-52000000D03*
X64000000Y-51000000D03*
X60000000Y-51000000D03*
X61000000Y-51000000D03*
X62000000Y-51000000D03*
X63000000Y-51000000D03*
X64000000Y-50000000D03*
X63000000Y-50000000D03*
X62000000Y-50000000D03*
X61000000Y-50000000D03*
X60000000Y-50000000D03*
X60000000Y-43000000D03*
X59000000Y-43000000D03*
X58000000Y-43000000D03*
X57000000Y-43000000D03*
X56000000Y-43000000D03*
X55000000Y-43000000D03*
X53000000Y-43000000D03*
X54000000Y-43000000D03*
X52000000Y-43000000D03*
X51000000Y-43000000D03*
X49000000Y-43000000D03*
X50000000Y-43000000D03*
X48000000Y-43000000D03*
X57000000Y-42000000D03*
X56000000Y-42000000D03*
X55000000Y-42000000D03*
X54000000Y-42000000D03*
X53000000Y-42000000D03*
X52000000Y-42000000D03*
X51000000Y-42000000D03*
X50000000Y-42000000D03*
X49000000Y-42000000D03*
X64000000Y-43000000D03*
X64000000Y-42000000D03*
X63000000Y-42000000D03*
X62000000Y-42000000D03*
X61000000Y-42000000D03*
X59120000Y-41960000D03*
X60120000Y-36960000D03*
X58120000Y-39960000D03*
X61120000Y-34960000D03*
X61120000Y-36960000D03*
X58120000Y-40960000D03*
X59120000Y-40960000D03*
X63120000Y-34960000D03*
X58120000Y-36960000D03*
X59120000Y-34960000D03*
X60120000Y-40960000D03*
X60120000Y-34960000D03*
X62120000Y-34960000D03*
X58120000Y-34960000D03*
X59120000Y-36960000D03*
X60120000Y-41960000D03*
X58120000Y-41960000D03*
X63120000Y-36960000D03*
X62120000Y-36960000D03*
X59120000Y-39960000D03*
X60120000Y-39960000D03*
X39000000Y-54000000D03*
X36000000Y-75000000D03*
X41000000Y-64000000D03*
X29000000Y-59000000D03*
X32000000Y-77000000D03*
X64000000Y-18000000D03*
X43000000Y-19000000D03*
X38000000Y-46000000D03*
X46000000Y-80000000D03*
X43000000Y-77000000D03*
X24000000Y-36000000D03*
X55000000Y-23000000D03*
X54000000Y-24000000D03*
X37000000Y-82000000D03*
X67000000Y-28000000D03*
X25000000Y-16000000D03*
X57000000Y-59000000D03*
X22000000Y-22000000D03*
X34000000Y-41000000D03*
X52000000Y-76000000D03*
X43000000Y-24000000D03*
X27000000Y-21000000D03*
X50000000Y-23000000D03*
X38000000Y-31000000D03*
X44000000Y-34000000D03*
X25000000Y-46000000D03*
X53000000Y-21000000D03*
X43000000Y-46000000D03*
X49860000Y-63010000D03*
X28000000Y-50000000D03*
X38000000Y-50000000D03*
X64000000Y-77000000D03*
X41000000Y-37000000D03*
X27000000Y-48000000D03*
X16000000Y-27000000D03*
X32000000Y-73000000D03*
X22000000Y-77000000D03*
X63000000Y-17000000D03*
X49000000Y-36000000D03*
X16000000Y-56000000D03*
X51000000Y-20000000D03*
X27000000Y-19000000D03*
X28000000Y-20000000D03*
X40000000Y-60000000D03*
X34000000Y-28000000D03*
X28000000Y-75000000D03*
X54000000Y-80000000D03*
X16000000Y-51000000D03*
X16000000Y-41000000D03*
X28000000Y-67000000D03*
X41000000Y-51000000D03*
X19000000Y-79000000D03*
X58000000Y-25000000D03*
X63000000Y-19000000D03*
X56000000Y-24000000D03*
X22000000Y-17000000D03*
X39000000Y-79000000D03*
X21000000Y-78000000D03*
X54000000Y-32000000D03*
X64000000Y-41000000D03*
X56000000Y-50000000D03*
X62000000Y-30000000D03*
X18000000Y-30000000D03*
X44000000Y-58000000D03*
X54000000Y-39000000D03*
X42000000Y-39000000D03*
X21000000Y-26000000D03*
X37000000Y-50000000D03*
X43000000Y-21000000D03*
X45000000Y-60000000D03*
X26000000Y-49000000D03*
X41000000Y-34000000D03*
X41000000Y-59000000D03*
X55000000Y-26000000D03*
X44000000Y-44000000D03*
X25000000Y-23000000D03*
X16000000Y-32000000D03*
X38000000Y-21000000D03*
X23000000Y-37000000D03*
X59000000Y-53000000D03*
X27000000Y-42000000D03*
X43000000Y-60000000D03*
X40000000Y-62000000D03*
X28000000Y-24000000D03*
X61000000Y-29000000D03*
X41000000Y-54000000D03*
X17000000Y-64000000D03*
X59000000Y-22000000D03*
X66000000Y-23000000D03*
X48000000Y-62000000D03*
X29000000Y-29000000D03*
X40000000Y-79000000D03*
X45000000Y-16000000D03*
X31000000Y-33000000D03*
X26000000Y-58000000D03*
X17000000Y-30000000D03*
X23000000Y-29000000D03*
X17000000Y-29000000D03*
X21000000Y-62000000D03*
X47000000Y-34000000D03*
X21000000Y-32000000D03*
X53000000Y-30000000D03*
X30000000Y-46000000D03*
X22000000Y-65000000D03*
X24000000Y-67000000D03*
X23000000Y-65000000D03*
X16000000Y-31000000D03*
X28000000Y-66000000D03*
X61000000Y-80000000D03*
X19000000Y-80000000D03*
X56000000Y-28000000D03*
X27000000Y-79000000D03*
X40000000Y-39000000D03*
X29000000Y-37000000D03*
X65000000Y-16000000D03*
X34000000Y-42000000D03*
X45000000Y-40000000D03*
X57000000Y-28000000D03*
X27000000Y-63000000D03*
X16000000Y-49000000D03*
X40000000Y-29000000D03*
X39000000Y-34000000D03*
X42000000Y-34000000D03*
X42000000Y-49000000D03*
X22000000Y-33000000D03*
X29000000Y-51000000D03*
X20000000Y-46000000D03*
X18000000Y-22000000D03*
X17000000Y-38000000D03*
X52000000Y-36000000D03*
X40000000Y-63000000D03*
X25000000Y-67000000D03*
X55000000Y-32000000D03*
X53000000Y-36000000D03*
X51000000Y-26000000D03*
X39000000Y-31000000D03*
X29000000Y-35000000D03*
X53000000Y-16000000D03*
X31000000Y-71000000D03*
X21000000Y-27000000D03*
X58000000Y-58000000D03*
X41000000Y-63000000D03*
X37000000Y-30000000D03*
X29000000Y-28000000D03*
X42000000Y-79000000D03*
X46000000Y-63000000D03*
X58000000Y-29000000D03*
X45000000Y-41000000D03*
X27000000Y-49000000D03*
X66000000Y-27000000D03*
X57000000Y-32000000D03*
X21000000Y-77000000D03*
X26000000Y-31000000D03*
X43000000Y-16000000D03*
X34000000Y-31000000D03*
X42000000Y-26000000D03*
X16000000Y-65000000D03*
X41000000Y-62000000D03*
X18000000Y-82000000D03*
X55000000Y-29000000D03*
X51000000Y-81000000D03*
X24000000Y-35000000D03*
X46000000Y-77000000D03*
X29000000Y-44000000D03*
X26000000Y-73000000D03*
X34000000Y-24000000D03*
X67000000Y-81000000D03*
X52000000Y-41000000D03*
X55000000Y-24000000D03*
X44000000Y-78000000D03*
X30000000Y-24000000D03*
X31000000Y-40000000D03*
X30000000Y-36000000D03*
X59000000Y-29000000D03*
X27000000Y-22000000D03*
X16000000Y-67000000D03*
X56000000Y-38000000D03*
X32000000Y-30000000D03*
X54000000Y-76000000D03*
X32000000Y-37000000D03*
X45000000Y-36000000D03*
X40000000Y-43000000D03*
X46000000Y-43000000D03*
X20000000Y-78000000D03*
X27000000Y-34000000D03*
X52000000Y-80000000D03*
X50000000Y-17000000D03*
X37000000Y-52000000D03*
X37000000Y-75000000D03*
X42000000Y-42000000D03*
X23000000Y-22000000D03*
X44000000Y-27000000D03*
X32000000Y-50000000D03*
X38000000Y-58000000D03*
X32000000Y-38000000D03*
X59000000Y-24000000D03*
X32000000Y-76000000D03*
X30000000Y-44000000D03*
X24000000Y-72000000D03*
X65000000Y-20000000D03*
X21000000Y-21000000D03*
X67000000Y-67000000D03*
X31000000Y-41000000D03*
X56000000Y-35000000D03*
X38000000Y-49000000D03*
X66000000Y-81000000D03*
X30000000Y-30000000D03*
X27000000Y-25000000D03*
X34000000Y-77000000D03*
X44000000Y-61000000D03*
X29000000Y-81000000D03*
X48000000Y-18000000D03*
X67000000Y-59000000D03*
X34000000Y-80000000D03*
X54000000Y-40000000D03*
X56000000Y-36000000D03*
X48000000Y-61000000D03*
X31000000Y-26000000D03*
X45000000Y-33000000D03*
X60000000Y-23000000D03*
X60000000Y-19000000D03*
X29000000Y-30000000D03*
X29000000Y-19000000D03*
X50000000Y-21000000D03*
X25000000Y-64000000D03*
X39000000Y-41000000D03*
X44000000Y-43000000D03*
X57000000Y-75000000D03*
X53000000Y-35000000D03*
X43000000Y-44000000D03*
X31000000Y-77000000D03*
X42000000Y-62000000D03*
X16000000Y-78000000D03*
X56000000Y-75000000D03*
X38000000Y-28000000D03*
X44000000Y-63000000D03*
X45000000Y-58000000D03*
X42000000Y-41000000D03*
X29000000Y-58000000D03*
X31000000Y-23000000D03*
X33000000Y-37000000D03*
X38000000Y-17000000D03*
X23000000Y-59000000D03*
X25000000Y-28000000D03*
X33000000Y-34000000D03*
X42000000Y-46000000D03*
X50000000Y-76000000D03*
X62000000Y-80000000D03*
X19000000Y-33000000D03*
X53000000Y-19000000D03*
X31000000Y-36000000D03*
X20000000Y-39000000D03*
X40000000Y-47000000D03*
X23000000Y-63000000D03*
X19000000Y-34000000D03*
X46000000Y-40000000D03*
X31000000Y-32000000D03*
X43000000Y-26000000D03*
X34000000Y-34000000D03*
X29000000Y-75000000D03*
X64000000Y-22000000D03*
X56000000Y-33000000D03*
X50000000Y-38000000D03*
X27000000Y-39000000D03*
X37000000Y-39000000D03*
X32000000Y-23000000D03*
X22000000Y-78000000D03*
X17000000Y-21000000D03*
X25000000Y-31000000D03*
X16000000Y-62000000D03*
X41000000Y-75000000D03*
X55000000Y-76000000D03*
X46000000Y-36000000D03*
X39000000Y-22000000D03*
X25000000Y-22000000D03*
X23000000Y-67000000D03*
X51000000Y-80000000D03*
X28000000Y-31000000D03*
X56000000Y-23000000D03*
X39000000Y-27000000D03*
X61000000Y-16000000D03*
X24000000Y-71000000D03*
X27000000Y-16000000D03*
X55000000Y-30000000D03*
X22000000Y-29000000D03*
X28000000Y-41000000D03*
X22000000Y-69000000D03*
X55000000Y-78000000D03*
X30000000Y-81000000D03*
X45000000Y-22000000D03*
X55000000Y-82000000D03*
X30000000Y-28000000D03*
X22000000Y-35000000D03*
X47000000Y-21000000D03*
X26000000Y-46000000D03*
X58000000Y-26000000D03*
X47000000Y-25000000D03*
X30000000Y-39000000D03*
X45000000Y-21000000D03*
X27000000Y-33000000D03*
X58000000Y-50000000D03*
X41000000Y-58000000D03*
X50000000Y-41000000D03*
X24000000Y-33000000D03*
X47000000Y-60000000D03*
X26000000Y-78000000D03*
X29000000Y-42000000D03*
X22000000Y-31000000D03*
X28000000Y-63000000D03*
X30000000Y-45000000D03*
X39000000Y-47000000D03*
X49000000Y-25000000D03*
X39000000Y-29000000D03*
X20000000Y-22000000D03*
X35000000Y-80000000D03*
X50000000Y-35000000D03*
X67000000Y-26000000D03*
X28000000Y-82000000D03*
X28000000Y-27000000D03*
X42000000Y-57000000D03*
X26000000Y-38000000D03*
X19000000Y-63000000D03*
X41000000Y-80000000D03*
X39000000Y-35000000D03*
X57500000Y-64500000D03*
X42000000Y-50000000D03*
X17000000Y-33000000D03*
X32000000Y-49000000D03*
X25000000Y-45000000D03*
X41000000Y-82000000D03*
X28000000Y-74000000D03*
X16000000Y-44000000D03*
X24000000Y-66000000D03*
X20000000Y-36000000D03*
X55000000Y-41000000D03*
X16000000Y-50000000D03*
X28000000Y-28000000D03*
X57000000Y-31000000D03*
X24000000Y-70000000D03*
X32000000Y-40000000D03*
X41000000Y-45000000D03*
X53000000Y-23000000D03*
X22000000Y-16000000D03*
X24000000Y-24000000D03*
X56000000Y-30000000D03*
X37000000Y-37000000D03*
X46000000Y-61000000D03*
X59000000Y-31000000D03*
X57000000Y-38000000D03*
X52000000Y-32000000D03*
X61000000Y-24000000D03*
X17000000Y-35000000D03*
X33000000Y-19000000D03*
X58000000Y-75000000D03*
X51000000Y-30000000D03*
X61000000Y-23000000D03*
X45000000Y-42000000D03*
X33000000Y-25000000D03*
X50000000Y-82000000D03*
X36000000Y-82000000D03*
X21000000Y-73000000D03*
X46000000Y-64000000D03*
X46000000Y-23000000D03*
X24000000Y-30000000D03*
X33000000Y-74000000D03*
X67000000Y-19000000D03*
X49000000Y-39000000D03*
X18000000Y-16000000D03*
X16000000Y-80000000D03*
X31000000Y-43000000D03*
X51000000Y-41000000D03*
X42000000Y-52000000D03*
X31000000Y-81000000D03*
X51000000Y-76000000D03*
X24000000Y-58000000D03*
X27000000Y-82000000D03*
X27000000Y-50000000D03*
X58000000Y-28000000D03*
X37000000Y-31000000D03*
X50000000Y-81000000D03*
X45000000Y-27000000D03*
X53000000Y-40000000D03*
X40000000Y-36000000D03*
X21000000Y-67000000D03*
X26000000Y-64000000D03*
X45000000Y-24000000D03*
X45000000Y-45000000D03*
X34000000Y-51000000D03*
X55000000Y-77000000D03*
X39000000Y-61000000D03*
X47000000Y-61000000D03*
X16000000Y-66000000D03*
X37000000Y-62000000D03*
X30000000Y-37000000D03*
X42000000Y-63000000D03*
X33000000Y-52000000D03*
X62000000Y-82000000D03*
X43000000Y-23000000D03*
X38000000Y-45000000D03*
X46000000Y-17000000D03*
X27000000Y-81000000D03*
X48000000Y-40000000D03*
X27000000Y-80000000D03*
X49000000Y-22000000D03*
X37000000Y-35000000D03*
X16000000Y-64000000D03*
X57000000Y-51000000D03*
X42000000Y-33000000D03*
X17000000Y-34000000D03*
X47000000Y-27000000D03*
X36000000Y-81000000D03*
X29000000Y-36000000D03*
X16000000Y-57000000D03*
X22000000Y-72000000D03*
X56000000Y-51000000D03*
X23000000Y-74000000D03*
X49000000Y-40000000D03*
X60000000Y-16000000D03*
X37000000Y-44000000D03*
X66000000Y-26000000D03*
X40000000Y-58000000D03*
X41000000Y-27000000D03*
X39000000Y-58000000D03*
X48000000Y-75000000D03*
X39000000Y-53000000D03*
X42000000Y-59000000D03*
X31000000Y-22000000D03*
X39000000Y-42000000D03*
X36000000Y-76000000D03*
X51000000Y-78000000D03*
X23000000Y-41000000D03*
X51000000Y-18000000D03*
X45000000Y-82000000D03*
X32000000Y-58000000D03*
X66000000Y-82000000D03*
X42000000Y-51000000D03*
X62000000Y-20000000D03*
X24000000Y-69000000D03*
X42000000Y-81000000D03*
X49000000Y-61000000D03*
X58000000Y-31000000D03*
X34000000Y-33000000D03*
X47000000Y-82000000D03*
X20000000Y-55000000D03*
X22000000Y-39000000D03*
X39000000Y-45000000D03*
X67000000Y-23000000D03*
X63000000Y-25000000D03*
X44000000Y-76000000D03*
X39000000Y-82000000D03*
X49000000Y-51000000D03*
X48000000Y-24000000D03*
X47000000Y-18000000D03*
X33000000Y-79000000D03*
X37000000Y-23000000D03*
X54000000Y-78000000D03*
X35000000Y-81000000D03*
X27000000Y-68000000D03*
X44000000Y-32000000D03*
X22000000Y-63000000D03*
X22000000Y-70000000D03*
X54000000Y-81000000D03*
X38000000Y-20000000D03*
X31000000Y-25000000D03*
X51000000Y-24000000D03*
X65000000Y-22000000D03*
X23000000Y-71000000D03*
X33000000Y-35000000D03*
X59000000Y-23000000D03*
X17000000Y-26000000D03*
X42000000Y-16000000D03*
X23000000Y-44000000D03*
X58000000Y-76000000D03*
X59000000Y-50000000D03*
X25000000Y-37000000D03*
X37000000Y-47000000D03*
X36000000Y-78000000D03*
X49000000Y-32000000D03*
X25000000Y-32000000D03*
X57000000Y-34000000D03*
X26000000Y-40000000D03*
X20000000Y-21000000D03*
X22000000Y-21000000D03*
X24000000Y-75000000D03*
X59000000Y-58000000D03*
X53000000Y-82000000D03*
X50000000Y-50000000D03*
X45000000Y-35000000D03*
X28000000Y-62000000D03*
X21000000Y-17000000D03*
X57000000Y-76000000D03*
X52000000Y-22000000D03*
X18000000Y-24000000D03*
X18000000Y-17000000D03*
X19000000Y-62000000D03*
X46000000Y-16000000D03*
X63000000Y-18000000D03*
X41000000Y-81000000D03*
X41000000Y-44000000D03*
X30000000Y-79000000D03*
X48000000Y-21000000D03*
X26000000Y-37000000D03*
X40000000Y-37000000D03*
X43000000Y-50000000D03*
X42000000Y-30000000D03*
X28000000Y-58000000D03*
X50000000Y-24000000D03*
X28000000Y-29000000D03*
X50000000Y-22000000D03*
X37000000Y-59000000D03*
X31000000Y-78000000D03*
X16000000Y-21000000D03*
X26000000Y-72000000D03*
X64000000Y-32000000D03*
X23000000Y-23000000D03*
X39000000Y-76000000D03*
X27000000Y-76000000D03*
X38000000Y-30000000D03*
X32000000Y-53000000D03*
X32000000Y-41000000D03*
X31000000Y-59000000D03*
X55500000Y-64500000D03*
X55000000Y-58000000D03*
X40000000Y-81000000D03*
X20000000Y-69000000D03*
X47000000Y-43000000D03*
X62000000Y-29000000D03*
X28000000Y-19000000D03*
X20000000Y-72000000D03*
X44000000Y-16000000D03*
X27000000Y-58000000D03*
X26000000Y-27000000D03*
X29000000Y-23000000D03*
X29000000Y-48000000D03*
X42000000Y-77000000D03*
X37000000Y-26000000D03*
X41000000Y-36000000D03*
X27000000Y-59000000D03*
X16000000Y-74000000D03*
X18000000Y-26000000D03*
X53000000Y-29000000D03*
X18000000Y-25000000D03*
X25000000Y-26000000D03*
X47000000Y-78000000D03*
X17000000Y-17000000D03*
X25000000Y-54000000D03*
X51000000Y-25000000D03*
X31000000Y-76000000D03*
X44000000Y-23000000D03*
X30000000Y-82000000D03*
X55000000Y-37000000D03*
X25000000Y-70000000D03*
X26000000Y-66000000D03*
X33000000Y-22000000D03*
X17000000Y-82000000D03*
X42000000Y-61000000D03*
X20000000Y-16000000D03*
X26000000Y-34000000D03*
X66000000Y-19000000D03*
X49000000Y-37000000D03*
X44000000Y-33000000D03*
X46000000Y-29000000D03*
X52000000Y-37000000D03*
X18000000Y-36000000D03*
X58000000Y-77000000D03*
X48000000Y-64000000D03*
X50000000Y-19000000D03*
X27000000Y-23000000D03*
X17000000Y-24000000D03*
X24000000Y-44000000D03*
X23000000Y-57000000D03*
X18000000Y-63000000D03*
X24000000Y-47000000D03*
X22000000Y-38000000D03*
X53000000Y-51000000D03*
X24000000Y-68000000D03*
X51000000Y-28000000D03*
X30000000Y-53000000D03*
X52000000Y-79000000D03*
X26000000Y-55000000D03*
X66000000Y-20000000D03*
X48000000Y-17000000D03*
X53000000Y-81000000D03*
X20000000Y-43000000D03*
X22000000Y-30000000D03*
X60000000Y-75000000D03*
X63000000Y-80000000D03*
X43000000Y-80000000D03*
X19000000Y-23000000D03*
X28000000Y-35000000D03*
X29000000Y-24000000D03*
X38000000Y-16000000D03*
X19000000Y-58000000D03*
X24000000Y-34000000D03*
X38000000Y-60000000D03*
X60000000Y-80000000D03*
X52000000Y-28000000D03*
X40000000Y-35000000D03*
X33000000Y-78000000D03*
X65000000Y-29000000D03*
X16000000Y-53000000D03*
X34000000Y-53000000D03*
X26000000Y-74000000D03*
X39000000Y-40000000D03*
X52000000Y-19000000D03*
X32000000Y-42000000D03*
X44000000Y-22000000D03*
X44000000Y-24000000D03*
X44000000Y-75000000D03*
X32000000Y-81000000D03*
X40000000Y-56000000D03*
X21000000Y-36000000D03*
X57000000Y-27000000D03*
X34000000Y-27000000D03*
X39000000Y-64000000D03*
X48000000Y-81000000D03*
X34000000Y-40000000D03*
X49000000Y-52000000D03*
X60000000Y-24000000D03*
X54000000Y-54000000D03*
X57000000Y-24000000D03*
X37000000Y-55000000D03*
X39000000Y-52000000D03*
X27000000Y-71000000D03*
X43000000Y-54000000D03*
X31000000Y-52000000D03*
X21000000Y-57000000D03*
X21000000Y-37000000D03*
X17000000Y-20000000D03*
X47000000Y-22000000D03*
X39000000Y-81000000D03*
X27000000Y-66000000D03*
X66000000Y-28000000D03*
X55000000Y-34000000D03*
X64000000Y-82000000D03*
X17000000Y-19000000D03*
X43000000Y-78000000D03*
X18000000Y-33000000D03*
X20000000Y-25000000D03*
X44000000Y-41000000D03*
X25000000Y-75000000D03*
X47000000Y-77000000D03*
X20000000Y-34000000D03*
X20000000Y-70000000D03*
X66000000Y-18000000D03*
X46000000Y-81000000D03*
X60000000Y-58000000D03*
X30000000Y-31000000D03*
X60000000Y-28000000D03*
X32000000Y-36000000D03*
X42000000Y-36000000D03*
X66000000Y-59000000D03*
X54000000Y-22000000D03*
X40000000Y-76000000D03*
X46000000Y-35000000D03*
X47000000Y-42000000D03*
X33000000Y-33000000D03*
X55000000Y-16000000D03*
X23000000Y-33000000D03*
X65000000Y-24000000D03*
X42000000Y-43000000D03*
X42000000Y-44000000D03*
X22000000Y-25000000D03*
X41000000Y-48000000D03*
X41000000Y-33000000D03*
X22000000Y-62000000D03*
X56000000Y-34000000D03*
X66000000Y-24000000D03*
X31000000Y-47000000D03*
X45000000Y-37000000D03*
X29000000Y-27000000D03*
X29000000Y-33000000D03*
X29000000Y-76000000D03*
X21000000Y-38000000D03*
X20000000Y-71000000D03*
X43000000Y-79000000D03*
X46000000Y-37000000D03*
X28000000Y-16000000D03*
X16000000Y-25000000D03*
X27000000Y-46000000D03*
X54000000Y-58000000D03*
X61000000Y-21000000D03*
X49000000Y-23000000D03*
X24000000Y-63000000D03*
X45000000Y-76000000D03*
X26000000Y-59000000D03*
X25000000Y-68000000D03*
X27000000Y-74000000D03*
X16000000Y-58000000D03*
X24000000Y-39000000D03*
X53000000Y-24000000D03*
X63000000Y-28000000D03*
X18000000Y-38000000D03*
X48000000Y-80000000D03*
X59000000Y-25000000D03*
X53000000Y-31000000D03*
X43000000Y-58000000D03*
X20000000Y-29000000D03*
X56000000Y-59000000D03*
X48000000Y-28000000D03*
X26000000Y-25000000D03*
X59000000Y-21000000D03*
X57000000Y-77000000D03*
X61000000Y-18000000D03*
X56000000Y-76000000D03*
X49870000Y-62130000D03*
X28000000Y-60000000D03*
X47000000Y-79000000D03*
X40000000Y-26000000D03*
X29000000Y-20000000D03*
X44000000Y-77000000D03*
X45000000Y-43000000D03*
X41000000Y-43000000D03*
X33000000Y-76000000D03*
X38000000Y-29000000D03*
X19000000Y-61000000D03*
X67000000Y-69000000D03*
X53000000Y-27000000D03*
X20000000Y-47000000D03*
X22000000Y-68000000D03*
X34000000Y-76000000D03*
X20000000Y-28000000D03*
X28000000Y-70000000D03*
X50000000Y-78000000D03*
X43000000Y-41000000D03*
X17000000Y-23000000D03*
X53000000Y-22000000D03*
X31000000Y-80000000D03*
X42000000Y-54000000D03*
X29000000Y-80000000D03*
X33000000Y-39000000D03*
X52000000Y-17000000D03*
X21000000Y-82000000D03*
X31000000Y-29000000D03*
X66000000Y-29000000D03*
X54000000Y-37000000D03*
X25000000Y-49000000D03*
X25000000Y-38000000D03*
X34000000Y-48000000D03*
X20000000Y-44000000D03*
X42000000Y-56000000D03*
X27000000Y-75000000D03*
X33000000Y-38000000D03*
X38000000Y-39000000D03*
X28000000Y-81000000D03*
X55000000Y-21000000D03*
X29000000Y-25000000D03*
X29000000Y-74000000D03*
X46000000Y-20000000D03*
X23000000Y-39000000D03*
X19000000Y-36000000D03*
X34000000Y-35000000D03*
X65000000Y-21000000D03*
X43000000Y-47000000D03*
X33000000Y-21000000D03*
X57000000Y-16000000D03*
X42000000Y-37000000D03*
X37000000Y-64000000D03*
X33000000Y-42000000D03*
X66000000Y-80000000D03*
X21000000Y-22000000D03*
X67500000Y-37500000D03*
X67500000Y-35000000D03*
X19000000Y-64000000D03*
X16000000Y-26000000D03*
X43000000Y-40000000D03*
X21000000Y-59000000D03*
X60000000Y-22000000D03*
X64000000Y-26000000D03*
X54000000Y-77000000D03*
X40000000Y-78000000D03*
X19000000Y-27000000D03*
X34000000Y-36000000D03*
X26000000Y-23000000D03*
X52000000Y-30000000D03*
X46000000Y-75000000D03*
X55000000Y-40000000D03*
X63000000Y-16000000D03*
X65000000Y-28000000D03*
X38000000Y-43000000D03*
X28000000Y-17000000D03*
X57000000Y-26000000D03*
X49000000Y-60000000D03*
X32000000Y-80000000D03*
X23000000Y-70000000D03*
X23000000Y-76000000D03*
X58500000Y-64500000D03*
X18000000Y-19000000D03*
X25000000Y-73000000D03*
X43000000Y-64000000D03*
X45000000Y-17000000D03*
X33000000Y-82000000D03*
X37000000Y-29000000D03*
X59000000Y-52000000D03*
X42000000Y-22000000D03*
X48000000Y-29000000D03*
X19000000Y-77000000D03*
X39000000Y-80000000D03*
X44000000Y-42000000D03*
X64000000Y-21000000D03*
X46000000Y-42000000D03*
X38000000Y-22000000D03*
X30000000Y-58000000D03*
X54000000Y-79000000D03*
X47000000Y-62000000D03*
X33000000Y-80000000D03*
X30000000Y-27000000D03*
X29000000Y-39000000D03*
X29000000Y-73000000D03*
X64000000Y-40000000D03*
X64000000Y-19000000D03*
X61000000Y-27000000D03*
X16000000Y-39000000D03*
X43000000Y-17000000D03*
X67000000Y-30000000D03*
X50000000Y-52000000D03*
X38000000Y-33000000D03*
X37000000Y-76000000D03*
X51000000Y-21000000D03*
X64000000Y-23000000D03*
X43000000Y-62000000D03*
X54000000Y-21000000D03*
X50000000Y-29000000D03*
X32000000Y-27000000D03*
X43000000Y-45000000D03*
X30000000Y-77000000D03*
X51000000Y-40000000D03*
X20000000Y-57000000D03*
X43000000Y-34000000D03*
X67000000Y-22000000D03*
X55000000Y-28000000D03*
X27000000Y-69000000D03*
X57000000Y-23000000D03*
X20000000Y-60000000D03*
X43000000Y-76000000D03*
X34000000Y-38000000D03*
X57000000Y-37000000D03*
X20000000Y-66000000D03*
X25000000Y-33000000D03*
X45000000Y-81000000D03*
X56000000Y-77000000D03*
X49000000Y-17000000D03*
X21000000Y-75000000D03*
X61000000Y-17000000D03*
X57000000Y-53000000D03*
X22000000Y-27000000D03*
X23000000Y-62000000D03*
X42000000Y-58000000D03*
X47000000Y-81000000D03*
X55000000Y-56000000D03*
X25000000Y-44000000D03*
X28000000Y-34000000D03*
X19000000Y-29000000D03*
X28000000Y-18000000D03*
X33000000Y-73000000D03*
X28000000Y-55000000D03*
X34000000Y-47000000D03*
X47000000Y-20000000D03*
X30000000Y-47000000D03*
X49000000Y-79000000D03*
X57000000Y-33000000D03*
X52000000Y-81000000D03*
X54000000Y-38000000D03*
X26000000Y-21000000D03*
X17000000Y-81000000D03*
X62000000Y-25000000D03*
X55000000Y-51000000D03*
X28000000Y-26000000D03*
X28000000Y-78000000D03*
X17000000Y-80000000D03*
X41000000Y-47000000D03*
X46000000Y-60000000D03*
X24000000Y-62000000D03*
X27000000Y-78000000D03*
X56000000Y-27000000D03*
X40000000Y-22000000D03*
X53000000Y-39000000D03*
X37000000Y-45000000D03*
X24000000Y-65000000D03*
X55000000Y-25000000D03*
X26000000Y-33000000D03*
X65000000Y-30000000D03*
X60000000Y-25000000D03*
X50000000Y-37000000D03*
X63000000Y-26000000D03*
X38000000Y-26000000D03*
X44000000Y-57000000D03*
X46000000Y-38000000D03*
X18000000Y-29000000D03*
X33000000Y-20000000D03*
X43000000Y-57000000D03*
X38000000Y-63000000D03*
X38000000Y-77000000D03*
X65000000Y-80000000D03*
X48000000Y-42000000D03*
X59000000Y-77000000D03*
X44000000Y-25000000D03*
X35000000Y-78000000D03*
X29000000Y-22000000D03*
X31000000Y-34000000D03*
X53000000Y-50000000D03*
X40000000Y-46000000D03*
X27000000Y-60000000D03*
X29000000Y-52000000D03*
X39000000Y-77000000D03*
X67000000Y-72000000D03*
X33000000Y-45000000D03*
X42000000Y-32000000D03*
X41000000Y-26000000D03*
X26000000Y-41000000D03*
X56000000Y-32000000D03*
X28000000Y-30000000D03*
X21000000Y-29000000D03*
X44000000Y-64000000D03*
X42000000Y-20000000D03*
X38000000Y-47000000D03*
X40000000Y-42000000D03*
X52000000Y-82000000D03*
X54000000Y-25000000D03*
X24000000Y-56000000D03*
X37000000Y-60000000D03*
X47000000Y-23000000D03*
X52000000Y-38000000D03*
X43000000Y-31000000D03*
X19000000Y-82000000D03*
X43000000Y-56000000D03*
X20000000Y-38000000D03*
X37000000Y-41000000D03*
X57000000Y-22000000D03*
X28000000Y-69000000D03*
X55000000Y-57000000D03*
X33000000Y-47000000D03*
X58000000Y-16000000D03*
X53000000Y-28000000D03*
X46000000Y-39000000D03*
X41000000Y-53000000D03*
X64000000Y-33000000D03*
X52000000Y-39000000D03*
X50000000Y-77000000D03*
X20000000Y-32000000D03*
X41000000Y-23000000D03*
X39000000Y-46000000D03*
X44000000Y-17000000D03*
X67500000Y-31000000D03*
X20000000Y-30000000D03*
X18000000Y-37000000D03*
X30000000Y-26000000D03*
X60000000Y-77000000D03*
X49000000Y-75000000D03*
X46000000Y-25000000D03*
X48000000Y-32000000D03*
X42000000Y-78000000D03*
X43000000Y-38000000D03*
X23000000Y-58000000D03*
X58000000Y-30000000D03*
X45000000Y-62000000D03*
X48000000Y-34000000D03*
X48000000Y-30000000D03*
X57000000Y-29000000D03*
X48000000Y-22000000D03*
X53000000Y-76000000D03*
X67000000Y-18000000D03*
X27000000Y-61000000D03*
X63000000Y-27000000D03*
X25000000Y-47000000D03*
X46000000Y-21000000D03*
X38000000Y-48000000D03*
X51000000Y-79000000D03*
X25000000Y-72000000D03*
X47000000Y-33000000D03*
X41000000Y-39000000D03*
X23000000Y-66000000D03*
X51000000Y-36000000D03*
X60000000Y-59000000D03*
X26000000Y-44000000D03*
X34000000Y-46000000D03*
X67000000Y-27000000D03*
X40000000Y-82000000D03*
X59000000Y-76000000D03*
X46000000Y-41000000D03*
X39000000Y-33000000D03*
X28000000Y-65000000D03*
X49000000Y-24000000D03*
X43000000Y-39000000D03*
X20000000Y-77000000D03*
X51000000Y-37000000D03*
X29000000Y-32000000D03*
X30000000Y-75000000D03*
X45000000Y-77000000D03*
X22000000Y-73000000D03*
X31000000Y-37000000D03*
X45000000Y-34000000D03*
X48000000Y-26000000D03*
X37000000Y-46000000D03*
X34000000Y-23000000D03*
X16000000Y-40000000D03*
X42000000Y-23000000D03*
X34000000Y-17000000D03*
X44000000Y-26000000D03*
X28000000Y-80000000D03*
X18000000Y-32000000D03*
X39000000Y-56000000D03*
X53000000Y-20000000D03*
X37000000Y-48000000D03*
X28000000Y-76000000D03*
X23000000Y-77000000D03*
X40000000Y-34000000D03*
X31000000Y-49000000D03*
X20000000Y-62000000D03*
X67000000Y-20000000D03*
X64000000Y-16000000D03*
X47000000Y-30000000D03*
X24000000Y-77000000D03*
X20000000Y-76000000D03*
X28000000Y-38000000D03*
X63000000Y-24000000D03*
X51000000Y-34000000D03*
X45000000Y-44000000D03*
X35000000Y-75000000D03*
X20000000Y-19000000D03*
X22000000Y-59000000D03*
X38000000Y-32000000D03*
X45000000Y-19000000D03*
X32000000Y-47000000D03*
X48000000Y-25000000D03*
X37000000Y-22000000D03*
X57000000Y-52000000D03*
X33000000Y-51000000D03*
X18000000Y-40000000D03*
X17000000Y-25000000D03*
X64000000Y-20000000D03*
X21000000Y-19000000D03*
X16000000Y-36000000D03*
X16000000Y-18000000D03*
X27000000Y-36000000D03*
X49000000Y-53000000D03*
X42000000Y-47000000D03*
X53000000Y-75000000D03*
X42000000Y-55000000D03*
X17000000Y-63000000D03*
X59000000Y-78000000D03*
X17000000Y-31000000D03*
X66000000Y-30000000D03*
X63000000Y-22000000D03*
X44000000Y-80000000D03*
X16000000Y-45000000D03*
X26000000Y-16000000D03*
X64000000Y-35000000D03*
X38000000Y-75000000D03*
X51000000Y-82000000D03*
X44000000Y-59000000D03*
X40000000Y-61000000D03*
X60000000Y-76000000D03*
X54000000Y-28000000D03*
X52000000Y-75000000D03*
X20000000Y-37000000D03*
X22000000Y-44000000D03*
X60000000Y-82000000D03*
X44000000Y-37000000D03*
X67000000Y-77000000D03*
X34000000Y-26000000D03*
X34000000Y-44000000D03*
X35000000Y-76000000D03*
X40000000Y-77000000D03*
X64000000Y-29000000D03*
X23000000Y-52000000D03*
X50000000Y-27000000D03*
X48000000Y-63000000D03*
X62000000Y-16000000D03*
X24000000Y-31000000D03*
X16000000Y-42000000D03*
X46000000Y-76000000D03*
X22000000Y-57000000D03*
X31000000Y-79000000D03*
X58000000Y-23000000D03*
X54000000Y-23000000D03*
X55000000Y-27000000D03*
X43000000Y-42000000D03*
X48000000Y-23000000D03*
X38000000Y-35000000D03*
X40000000Y-59000000D03*
X24000000Y-59000000D03*
X31000000Y-42000000D03*
X32000000Y-51000000D03*
X38000000Y-53000000D03*
X62000000Y-81000000D03*
X47000000Y-38000000D03*
X62000000Y-23000000D03*
X29000000Y-41000000D03*
X32000000Y-44000000D03*
X19000000Y-30000000D03*
X26000000Y-32000000D03*
X21000000Y-81000000D03*
X30000000Y-32000000D03*
X38000000Y-19000000D03*
X63000000Y-31000000D03*
X30000000Y-76000000D03*
X41000000Y-30000000D03*
X30000000Y-22000000D03*
X26000000Y-76000000D03*
X38000000Y-81000000D03*
X19000000Y-78000000D03*
X29000000Y-31000000D03*
X28000000Y-49000000D03*
X53000000Y-80000000D03*
X32000000Y-52000000D03*
X21000000Y-69000000D03*
X16000000Y-73000000D03*
X43000000Y-33000000D03*
X50000000Y-28000000D03*
X39000000Y-62000000D03*
X56000000Y-31000000D03*
X43000000Y-27000000D03*
X59000000Y-54000000D03*
X31000000Y-58000000D03*
X28000000Y-45000000D03*
X48000000Y-77000000D03*
X21000000Y-72000000D03*
X44000000Y-19000000D03*
X60000000Y-21000000D03*
X48000000Y-31000000D03*
X28000000Y-64000000D03*
X59000000Y-16000000D03*
X63000000Y-20000000D03*
X30000000Y-40000000D03*
X56000000Y-25000000D03*
X37000000Y-38000000D03*
X56000000Y-41000000D03*
X35000000Y-77000000D03*
X56000000Y-58000000D03*
X29000000Y-21000000D03*
X61000000Y-20000000D03*
X32000000Y-28000000D03*
X53000000Y-41000000D03*
X48000000Y-38000000D03*
X16000000Y-77000000D03*
X40000000Y-50000000D03*
X39000000Y-28000000D03*
X25000000Y-62000000D03*
X19000000Y-17000000D03*
X16000000Y-69000000D03*
X46000000Y-79000000D03*
X24000000Y-32000000D03*
X37000000Y-79000000D03*
X21000000Y-80000000D03*
X43000000Y-59000000D03*
X34000000Y-25000000D03*
X48000000Y-60000000D03*
X52000000Y-35000000D03*
X20000000Y-35000000D03*
X58000000Y-52000000D03*
X39000000Y-37000000D03*
X58000000Y-59000000D03*
X55000000Y-50000000D03*
X26000000Y-26000000D03*
X20000000Y-61000000D03*
X67000000Y-21000000D03*
X48000000Y-79000000D03*
X23000000Y-26000000D03*
X29000000Y-16000000D03*
X24000000Y-73000000D03*
X30000000Y-71000000D03*
X49000000Y-20000000D03*
X54000000Y-51000000D03*
X29000000Y-46000000D03*
X16000000Y-22000000D03*
X41000000Y-79000000D03*
X40000000Y-80000000D03*
X34000000Y-16000000D03*
X30000000Y-73000000D03*
X16000000Y-34000000D03*
X27000000Y-37000000D03*
X37000000Y-32000000D03*
X64000000Y-31000000D03*
X56000000Y-26000000D03*
X67000000Y-24000000D03*
X16000000Y-29000000D03*
X41000000Y-78000000D03*
X48000000Y-35000000D03*
X61000000Y-25000000D03*
X50000000Y-30000000D03*
X21000000Y-41000000D03*
X34000000Y-32000000D03*
X45000000Y-26000000D03*
X46000000Y-19000000D03*
X51000000Y-23000000D03*
X16000000Y-60000000D03*
X22000000Y-28000000D03*
X37000000Y-21000000D03*
X46000000Y-18000000D03*
X40000000Y-55000000D03*
X45000000Y-28000000D03*
X37000000Y-56000000D03*
X48000000Y-82000000D03*
X24000000Y-29000000D03*
X18000000Y-20000000D03*
X22000000Y-64000000D03*
X51000000Y-29000000D03*
X59000000Y-59000000D03*
X40000000Y-57000000D03*
X20000000Y-74000000D03*
X16000000Y-33000000D03*
X32000000Y-33000000D03*
X37000000Y-77000000D03*
X66000000Y-17000000D03*
X54000000Y-59000000D03*
X44000000Y-39000000D03*
X34000000Y-43000000D03*
X55000000Y-22000000D03*
X33000000Y-81000000D03*
X28000000Y-23000000D03*
X64000000Y-59000000D03*
X30000000Y-51000000D03*
X39000000Y-26000000D03*
X24000000Y-74000000D03*
X24000000Y-64000000D03*
X26000000Y-71000000D03*
X45000000Y-32000000D03*
X19000000Y-28000000D03*
X20000000Y-52000000D03*
X44000000Y-29000000D03*
X30000000Y-34000000D03*
X16000000Y-43000000D03*
X33000000Y-75000000D03*
X43000000Y-22000000D03*
X16000000Y-61000000D03*
X65000000Y-26000000D03*
X57000000Y-25000000D03*
X51000000Y-22000000D03*
X41000000Y-60000000D03*
X26000000Y-63000000D03*
X39000000Y-44000000D03*
X33000000Y-27000000D03*
X23000000Y-73000000D03*
X19000000Y-56000000D03*
X44000000Y-60000000D03*
X52000000Y-31000000D03*
X43000000Y-53000000D03*
X63000000Y-29000000D03*
X38000000Y-54000000D03*
X32000000Y-32000000D03*
X59000000Y-26000000D03*
X56500000Y-64500000D03*
X51000000Y-16000000D03*
X33000000Y-41000000D03*
X54000000Y-31000000D03*
X39000000Y-39000000D03*
X16000000Y-19000000D03*
X16000000Y-68000000D03*
X33000000Y-44000000D03*
X34000000Y-37000000D03*
X43000000Y-20000000D03*
X46000000Y-62000000D03*
X34000000Y-29000000D03*
X20000000Y-45000000D03*
X24000000Y-52000000D03*
X64000000Y-38000000D03*
X43000000Y-81000000D03*
X33000000Y-29000000D03*
X40000000Y-30000000D03*
X30000000Y-48000000D03*
X51000000Y-33000000D03*
X58000000Y-22000000D03*
X32000000Y-39000000D03*
X39000000Y-48000000D03*
X40000000Y-44000000D03*
X29000000Y-43000000D03*
X28000000Y-21000000D03*
X50000000Y-36000000D03*
X54500000Y-64500000D03*
X20000000Y-75000000D03*
X28000000Y-25000000D03*
X28000000Y-40000000D03*
X32000000Y-48000000D03*
X40000000Y-64000000D03*
X16000000Y-71000000D03*
X18000000Y-31000000D03*
X64000000Y-75000000D03*
X20000000Y-68000000D03*
X16000000Y-76000000D03*
X18000000Y-23000000D03*
X31000000Y-44000000D03*
X62000000Y-28000000D03*
X63000000Y-23000000D03*
X57000000Y-58000000D03*
X27000000Y-65000000D03*
X20000000Y-59000000D03*
X62000000Y-77000000D03*
X38000000Y-64000000D03*
X19000000Y-21000000D03*
X27000000Y-73000000D03*
X26000000Y-53000000D03*
X54000000Y-16000000D03*
X44000000Y-46000000D03*
X16000000Y-54000000D03*
X64000000Y-36000000D03*
X23000000Y-30000000D03*
X27000000Y-62000000D03*
X60500000Y-64500000D03*
X62000000Y-22000000D03*
X37000000Y-58000000D03*
X54000000Y-19000000D03*
X17000000Y-39000000D03*
X30000000Y-41000000D03*
X62000000Y-19000000D03*
X38000000Y-82000000D03*
X31000000Y-73000000D03*
X48000000Y-41000000D03*
X50000000Y-51000000D03*
X60000000Y-27000000D03*
X54000000Y-34000000D03*
X18000000Y-34000000D03*
X37000000Y-42000000D03*
X33000000Y-26000000D03*
X33000000Y-49000000D03*
X25000000Y-57000000D03*
X65000000Y-23000000D03*
X39000000Y-78000000D03*
X67500000Y-32000000D03*
X23000000Y-34000000D03*
X45000000Y-20000000D03*
X46000000Y-26000000D03*
X44000000Y-30000000D03*
X16000000Y-38000000D03*
X31000000Y-82000000D03*
X34000000Y-30000000D03*
X49000000Y-38000000D03*
X55000000Y-31000000D03*
X26000000Y-39000000D03*
X31000000Y-74000000D03*
X64000000Y-28000000D03*
X44000000Y-20000000D03*
X31000000Y-24000000D03*
X23000000Y-60000000D03*
X16000000Y-63000000D03*
X65000000Y-17000000D03*
X23000000Y-24000000D03*
X23000000Y-75000000D03*
X25000000Y-52000000D03*
X40000000Y-75000000D03*
X23000000Y-38000000D03*
X57000000Y-36000000D03*
X17000000Y-37000000D03*
X48000000Y-76000000D03*
X63500000Y-64500000D03*
X61000000Y-75000000D03*
X56000000Y-57000000D03*
X21000000Y-64000000D03*
X27000000Y-18000000D03*
X19000000Y-16000000D03*
X54000000Y-57000000D03*
X21000000Y-28000000D03*
X54000000Y-30000000D03*
X42000000Y-19000000D03*
X33000000Y-30000000D03*
X22000000Y-75000000D03*
X64000000Y-17000000D03*
X41000000Y-21000000D03*
X43000000Y-28000000D03*
X31000000Y-38000000D03*
X41000000Y-42000000D03*
X54000000Y-33000000D03*
X31000000Y-31000000D03*
X64000000Y-27000000D03*
X25000000Y-71000000D03*
X45000000Y-80000000D03*
X47000000Y-26000000D03*
X38000000Y-41000000D03*
X55000000Y-55000000D03*
X54000000Y-20000000D03*
X54000000Y-27000000D03*
X26000000Y-70000000D03*
X39000000Y-30000000D03*
X56000000Y-22000000D03*
X21000000Y-23000000D03*
X20000000Y-40000000D03*
X17000000Y-32000000D03*
X27000000Y-31000000D03*
X28000000Y-51000000D03*
X49000000Y-41000000D03*
X52000000Y-77000000D03*
X45000000Y-31000000D03*
X25000000Y-41000000D03*
X24000000Y-26000000D03*
X21000000Y-16000000D03*
X47000000Y-36000000D03*
X21000000Y-55000000D03*
X53000000Y-38000000D03*
X19000000Y-55000000D03*
X52000000Y-23000000D03*
X27000000Y-70000000D03*
X49000000Y-21000000D03*
X52000000Y-26000000D03*
X18000000Y-35000000D03*
X26000000Y-65000000D03*
X40000000Y-28000000D03*
X59000000Y-51000000D03*
X19000000Y-52000000D03*
X42000000Y-75000000D03*
X31000000Y-46000000D03*
X53000000Y-17000000D03*
X46000000Y-32000000D03*
X26000000Y-17000000D03*
X42000000Y-35000000D03*
X25000000Y-69000000D03*
X23000000Y-27000000D03*
X22000000Y-82000000D03*
X43000000Y-43000000D03*
X28000000Y-48000000D03*
X25000000Y-36000000D03*
X20000000Y-17000000D03*
X48000000Y-37000000D03*
X22000000Y-24000000D03*
X41000000Y-41000000D03*
X59000000Y-75000000D03*
X66000000Y-22000000D03*
X61000000Y-22000000D03*
X24000000Y-23000000D03*
X49000000Y-63000000D03*
X51000000Y-38000000D03*
X41000000Y-31000000D03*
X18000000Y-28000000D03*
X19000000Y-53000000D03*
X42000000Y-21000000D03*
X20000000Y-33000000D03*
X49000000Y-18000000D03*
X23000000Y-72000000D03*
X53500000Y-64500000D03*
X44000000Y-18000000D03*
X44000000Y-45000000D03*
X33000000Y-48000000D03*
X60000000Y-20000000D03*
X58000000Y-24000000D03*
X26000000Y-82000000D03*
X28000000Y-73000000D03*
X38000000Y-56000000D03*
X24000000Y-40000000D03*
X65000000Y-59000000D03*
X33000000Y-50000000D03*
X23000000Y-49000000D03*
X43000000Y-51000000D03*
X21000000Y-65000000D03*
X27000000Y-55000000D03*
X22000000Y-34000000D03*
X32000000Y-46000000D03*
X52000000Y-34000000D03*
X20000000Y-67000000D03*
X28000000Y-72000000D03*
X29000000Y-26000000D03*
X42000000Y-48000000D03*
X29000000Y-45000000D03*
X27000000Y-28000000D03*
X26000000Y-47000000D03*
X31000000Y-39000000D03*
X26000000Y-60000000D03*
X62000000Y-21000000D03*
X30000000Y-42000000D03*
X59000000Y-30000000D03*
X42000000Y-80000000D03*
X57000000Y-39000000D03*
X44000000Y-40000000D03*
X25000000Y-63000000D03*
X17000000Y-40000000D03*
X39000000Y-32000000D03*
X24000000Y-28000000D03*
X20000000Y-73000000D03*
X40000000Y-48000000D03*
X20000000Y-24000000D03*
X27000000Y-26000000D03*
X53000000Y-77000000D03*
X39000000Y-51000000D03*
X49000000Y-30000000D03*
X34000000Y-22000000D03*
X29000000Y-18000000D03*
X52000000Y-78000000D03*
X49000000Y-64000000D03*
X56000000Y-52000000D03*
X49000000Y-16000000D03*
X56000000Y-29000000D03*
X29000000Y-82000000D03*
X41000000Y-28000000D03*
X26000000Y-29000000D03*
X38000000Y-40000000D03*
X47000000Y-17000000D03*
X42000000Y-18000000D03*
X64000000Y-80000000D03*
X28000000Y-32000000D03*
X24000000Y-22000000D03*
X54000000Y-18000000D03*
X48000000Y-39000000D03*
X23000000Y-25000000D03*
X53000000Y-25000000D03*
X49000000Y-80000000D03*
X39000000Y-23000000D03*
X19000000Y-25000000D03*
X61000000Y-81000000D03*
X33000000Y-32000000D03*
X19000000Y-26000000D03*
X29000000Y-72000000D03*
X39000000Y-60000000D03*
X25000000Y-30000000D03*
X53000000Y-34000000D03*
X37000000Y-33000000D03*
X21000000Y-39000000D03*
X26000000Y-30000000D03*
X31000000Y-53000000D03*
X32000000Y-78000000D03*
X53000000Y-33000000D03*
X67000000Y-75000000D03*
X25000000Y-74000000D03*
X16000000Y-70000000D03*
X20000000Y-64000000D03*
X41000000Y-22000000D03*
X31000000Y-28000000D03*
X50000000Y-40000000D03*
X41000000Y-76000000D03*
X62500000Y-64500000D03*
X47000000Y-76000000D03*
X50000000Y-18000000D03*
X40000000Y-53000000D03*
X25000000Y-35000000D03*
X20000000Y-56000000D03*
X64000000Y-24000000D03*
X25000000Y-27000000D03*
X30000000Y-35000000D03*
X32000000Y-79000000D03*
X37000000Y-54000000D03*
X46000000Y-27000000D03*
X56000000Y-40000000D03*
X41000000Y-46000000D03*
X16000000Y-47000000D03*
X37000000Y-63000000D03*
X19000000Y-37000000D03*
X64000000Y-76000000D03*
X32000000Y-82000000D03*
X25000000Y-66000000D03*
X37000000Y-34000000D03*
X41000000Y-29000000D03*
X26000000Y-48000000D03*
X41000000Y-56000000D03*
X34000000Y-74000000D03*
X26000000Y-22000000D03*
X55000000Y-35000000D03*
X49000000Y-81000000D03*
X18000000Y-18000000D03*
X29000000Y-47000000D03*
X37000000Y-80000000D03*
X51000000Y-32000000D03*
X44000000Y-82000000D03*
X25000000Y-77000000D03*
X28000000Y-44000000D03*
X47000000Y-19000000D03*
X22000000Y-55000000D03*
X21000000Y-60000000D03*
X18000000Y-21000000D03*
X38000000Y-44000000D03*
X42000000Y-45000000D03*
X29000000Y-38000000D03*
X24000000Y-37000000D03*
X32000000Y-26000000D03*
X53000000Y-37000000D03*
X56000000Y-39000000D03*
X33000000Y-28000000D03*
X21000000Y-35000000D03*
X16000000Y-55000000D03*
X25000000Y-59000000D03*
X29000000Y-40000000D03*
X56000000Y-37000000D03*
X16000000Y-35000000D03*
X27000000Y-43000000D03*
X59500000Y-64500000D03*
X18000000Y-80000000D03*
X20000000Y-54000000D03*
X42000000Y-60000000D03*
X67000000Y-25000000D03*
X60000000Y-81000000D03*
X19000000Y-18000000D03*
X23000000Y-31000000D03*
X22000000Y-23000000D03*
X17000000Y-27000000D03*
X43000000Y-25000000D03*
X60000000Y-79000000D03*
X34000000Y-19000000D03*
X61000000Y-82000000D03*
X60000000Y-78000000D03*
X48000000Y-16000000D03*
X34000000Y-21000000D03*
X46000000Y-24000000D03*
X45000000Y-38000000D03*
X18000000Y-81000000D03*
X23000000Y-56000000D03*
X52000000Y-29000000D03*
X49000000Y-35000000D03*
X51000000Y-35000000D03*
X32000000Y-75000000D03*
X29000000Y-60000000D03*
X32000000Y-34000000D03*
X50000000Y-80000000D03*
X33000000Y-16000000D03*
X38000000Y-55000000D03*
X26000000Y-67000000D03*
X42000000Y-29000000D03*
X17000000Y-28000000D03*
X25000000Y-25000000D03*
X34000000Y-20000000D03*
X50000000Y-31000000D03*
X47000000Y-16000000D03*
X30000000Y-25000000D03*
X31000000Y-35000000D03*
X46000000Y-59000000D03*
X60000000Y-17000000D03*
X55000000Y-59000000D03*
X16000000Y-59000000D03*
X21000000Y-40000000D03*
X64000000Y-37000000D03*
X41000000Y-50000000D03*
X38000000Y-18000000D03*
X23000000Y-35000000D03*
X20000000Y-31000000D03*
X61000000Y-28000000D03*
X53000000Y-32000000D03*
X48000000Y-27000000D03*
X50000000Y-79000000D03*
X62000000Y-26000000D03*
X55000000Y-36000000D03*
X27000000Y-44000000D03*
X18000000Y-27000000D03*
X24000000Y-16000000D03*
X33000000Y-24000000D03*
X37000000Y-36000000D03*
X44000000Y-36000000D03*
X33000000Y-36000000D03*
X63000000Y-82000000D03*
X33000000Y-31000000D03*
X45000000Y-39000000D03*
X22000000Y-41000000D03*
X49000000Y-27000000D03*
X28000000Y-39000000D03*
X67000000Y-80000000D03*
X38000000Y-34000000D03*
X42000000Y-64000000D03*
X43000000Y-36000000D03*
X16000000Y-75000000D03*
X45000000Y-78000000D03*
X20000000Y-27000000D03*
X18000000Y-39000000D03*
X33000000Y-43000000D03*
X32000000Y-31000000D03*
X40000000Y-33000000D03*
X20000000Y-49000000D03*
X38000000Y-62000000D03*
X60000000Y-18000000D03*
X51000000Y-31000000D03*
X21000000Y-70000000D03*
X34000000Y-49000000D03*
X38000000Y-23000000D03*
X67000000Y-29000000D03*
X47000000Y-80000000D03*
X37000000Y-78000000D03*
X66000000Y-25000000D03*
X38000000Y-38000000D03*
X20000000Y-42000000D03*
X27000000Y-45000000D03*
X20000000Y-48000000D03*
X54000000Y-75000000D03*
X33000000Y-53000000D03*
X39000000Y-63000000D03*
X28000000Y-43000000D03*
X33000000Y-18000000D03*
X21000000Y-34000000D03*
X55000000Y-38000000D03*
X40000000Y-52000000D03*
X49910000Y-61040000D03*
X66000000Y-21000000D03*
X29000000Y-70000000D03*
X63000000Y-77000000D03*
X50000000Y-34000000D03*
X22000000Y-60000000D03*
X38000000Y-61000000D03*
X37000000Y-81000000D03*
X29000000Y-34000000D03*
X28000000Y-37000000D03*
X27000000Y-72000000D03*
X32000000Y-24000000D03*
X55000000Y-17000000D03*
X48000000Y-78000000D03*
X55000000Y-39000000D03*
X47000000Y-37000000D03*
X64000000Y-34000000D03*
X19000000Y-32000000D03*
X20000000Y-81000000D03*
X49000000Y-77000000D03*
X22000000Y-66000000D03*
X30000000Y-80000000D03*
X62000000Y-75000000D03*
X19000000Y-81000000D03*
X30000000Y-38000000D03*
X57000000Y-35000000D03*
X48000000Y-19000000D03*
X23000000Y-36000000D03*
X28000000Y-46000000D03*
X62000000Y-24000000D03*
X26000000Y-54000000D03*
X19000000Y-54000000D03*
X64000000Y-78000000D03*
X29000000Y-79000000D03*
X16000000Y-30000000D03*
X30000000Y-50000000D03*
X29000000Y-50000000D03*
X27000000Y-38000000D03*
X52000000Y-20000000D03*
X25000000Y-34000000D03*
X67500000Y-39000000D03*
X20000000Y-63000000D03*
X50000000Y-25000000D03*
X45000000Y-18000000D03*
X25000000Y-39000000D03*
X38000000Y-37000000D03*
X28000000Y-68000000D03*
X32000000Y-35000000D03*
X58000000Y-53000000D03*
X22000000Y-32000000D03*
X38000000Y-36000000D03*
X22000000Y-47000000D03*
X27000000Y-77000000D03*
X38000000Y-51000000D03*
X60000000Y-29000000D03*
X25000000Y-58000000D03*
X34000000Y-45000000D03*
X43000000Y-82000000D03*
X34000000Y-39000000D03*
X40000000Y-45000000D03*
X52000000Y-33000000D03*
X20000000Y-26000000D03*
X44000000Y-79000000D03*
X65000000Y-18000000D03*
X32000000Y-43000000D03*
X49000000Y-34000000D03*
X36000000Y-77000000D03*
X31000000Y-72000000D03*
X33000000Y-40000000D03*
X49000000Y-31000000D03*
X48000000Y-20000000D03*
X46000000Y-33000000D03*
X28000000Y-71000000D03*
X54000000Y-50000000D03*
X40000000Y-32000000D03*
X51000000Y-77000000D03*
X30000000Y-60000000D03*
X21000000Y-18000000D03*
X38000000Y-79000000D03*
X58000000Y-51000000D03*
X25000000Y-60000000D03*
X61000000Y-26000000D03*
X31000000Y-75000000D03*
X54000000Y-82000000D03*
X21000000Y-20000000D03*
X19000000Y-39000000D03*
X52000000Y-25000000D03*
X65000000Y-19000000D03*
X20000000Y-65000000D03*
X41000000Y-61000000D03*
X23000000Y-68000000D03*
X64000000Y-39000000D03*
X61500000Y-64500000D03*
X55000000Y-75000000D03*
X32000000Y-22000000D03*
X62000000Y-27000000D03*
X30000000Y-74000000D03*
X41000000Y-52000000D03*
X52000000Y-21000000D03*
X42000000Y-53000000D03*
X30000000Y-70000000D03*
X58000000Y-54000000D03*
X44000000Y-62000000D03*
X26000000Y-75000000D03*
X36000000Y-79000000D03*
X60000000Y-26000000D03*
X24000000Y-27000000D03*
X28000000Y-77000000D03*
X33000000Y-23000000D03*
X20000000Y-41000000D03*
X19000000Y-31000000D03*
X26000000Y-24000000D03*
X35000000Y-79000000D03*
X52000000Y-24000000D03*
X30000000Y-43000000D03*
X29000000Y-69000000D03*
X24000000Y-49000000D03*
X43000000Y-49000000D03*
X41000000Y-40000000D03*
X57000000Y-50000000D03*
X24000000Y-53000000D03*
X29000000Y-78000000D03*
X31000000Y-51000000D03*
X38000000Y-52000000D03*
X16000000Y-79000000D03*
X45000000Y-61000000D03*
X47000000Y-24000000D03*
X47000000Y-35000000D03*
X45000000Y-30000000D03*
X28000000Y-42000000D03*
X17000000Y-22000000D03*
X32000000Y-72000000D03*
X63000000Y-21000000D03*
X21000000Y-44000000D03*
X47000000Y-64000000D03*
X39000000Y-38000000D03*
X43000000Y-63000000D03*
X59000000Y-17000000D03*
X51000000Y-39000000D03*
X23000000Y-16000000D03*
X26000000Y-77000000D03*
X38000000Y-80000000D03*
X28000000Y-33000000D03*
X50000000Y-32000000D03*
X16000000Y-23000000D03*
X30000000Y-59000000D03*
X49000000Y-62000000D03*
X44000000Y-31000000D03*
X56000000Y-56000000D03*
X16000000Y-46000000D03*
X32000000Y-74000000D03*
X37000000Y-40000000D03*
X23000000Y-47000000D03*
X16000000Y-52000000D03*
X29000000Y-61000000D03*
X45000000Y-79000000D03*
X50000000Y-16000000D03*
X64500000Y-64500000D03*
X61000000Y-19000000D03*
X28500000Y-55500000D03*
X19000000Y-59000000D03*
X44000000Y-38000000D03*
X24000000Y-25000000D03*
X16000000Y-28000000D03*
X21000000Y-31000000D03*
X43000000Y-75000000D03*
X45000000Y-63000000D03*
X49820000Y-64010000D03*
X51000000Y-17000000D03*
X27000000Y-40000000D03*
X57000000Y-41000000D03*
X43000000Y-55000000D03*
X44000000Y-81000000D03*
X27000000Y-32000000D03*
X45000000Y-59000000D03*
X27000000Y-17000000D03*
X42000000Y-27000000D03*
X23000000Y-64000000D03*
X23000000Y-40000000D03*
X31000000Y-30000000D03*
X24000000Y-60000000D03*
X16000000Y-81000000D03*
X42000000Y-76000000D03*
X62000000Y-31000000D03*
X45000000Y-64000000D03*
X23000000Y-69000000D03*
X25000000Y-24000000D03*
X40000000Y-38000000D03*
X41000000Y-32000000D03*
X32000000Y-25000000D03*
X26000000Y-35000000D03*
X30000000Y-52000000D03*
X26000000Y-28000000D03*
X26000000Y-36000000D03*
X43000000Y-30000000D03*
X27000000Y-41000000D03*
X47000000Y-40000000D03*
X53000000Y-26000000D03*
X43000000Y-32000000D03*
X59000000Y-82000000D03*
X64000000Y-30000000D03*
X21000000Y-33000000D03*
X40000000Y-49000000D03*
X25000000Y-40000000D03*
X20000000Y-82000000D03*
X47000000Y-32000000D03*
X46000000Y-31000000D03*
X45000000Y-29000000D03*
X16000000Y-48000000D03*
X30000000Y-23000000D03*
X29000000Y-71000000D03*
X52000000Y-27000000D03*
X39000000Y-55000000D03*
X22000000Y-26000000D03*
X38000000Y-57000000D03*
X19000000Y-19000000D03*
X47000000Y-29000000D03*
X16000000Y-72000000D03*
X49000000Y-78000000D03*
X61000000Y-77000000D03*
X43000000Y-29000000D03*
X63000000Y-75000000D03*
X46000000Y-30000000D03*
X38000000Y-42000000D03*
X50000000Y-75000000D03*
X41000000Y-35000000D03*
X45000000Y-25000000D03*
X20000000Y-80000000D03*
X26000000Y-62000000D03*
X40000000Y-31000000D03*
X22000000Y-40000000D03*
X67500000Y-34000000D03*
X54000000Y-41000000D03*
X27000000Y-64000000D03*
X43000000Y-37000000D03*
X20000000Y-20000000D03*
X21000000Y-30000000D03*
X36000000Y-80000000D03*
X55000000Y-33000000D03*
X31000000Y-27000000D03*
X41000000Y-77000000D03*
X60000000Y-30000000D03*
X24000000Y-76000000D03*
X44000000Y-21000000D03*
X19000000Y-20000000D03*
X28000000Y-22000000D03*
X51000000Y-27000000D03*
X54000000Y-35000000D03*
X23000000Y-32000000D03*
X23000000Y-55000000D03*
X40000000Y-40000000D03*
X37000000Y-57000000D03*
X62000000Y-18000000D03*
X34000000Y-78000000D03*
X28000000Y-36000000D03*
X39000000Y-50000000D03*
X37000000Y-49000000D03*
X29000000Y-17000000D03*
X43000000Y-48000000D03*
X25000000Y-48000000D03*
X43000000Y-61000000D03*
X53000000Y-78000000D03*
X21000000Y-49000000D03*
X17000000Y-18000000D03*
X16000000Y-20000000D03*
X27000000Y-29000000D03*
X46000000Y-82000000D03*
X67500000Y-33000000D03*
X28000000Y-61000000D03*
X46000000Y-78000000D03*
X19000000Y-24000000D03*
X45000000Y-75000000D03*
X25000000Y-29000000D03*
X42000000Y-82000000D03*
X50000000Y-39000000D03*
X49000000Y-33000000D03*
X49000000Y-76000000D03*
X58000000Y-27000000D03*
X19000000Y-40000000D03*
X67000000Y-64500000D03*
X21000000Y-54000000D03*
X53000000Y-79000000D03*
X29000000Y-49000000D03*
X54000000Y-17000000D03*
X54000000Y-55000000D03*
X63000000Y-30000000D03*
X31000000Y-48000000D03*
X46000000Y-22000000D03*
X39000000Y-59000000D03*
X65000000Y-27000000D03*
X39000000Y-49000000D03*
X19000000Y-22000000D03*
X19000000Y-38000000D03*
X30000000Y-72000000D03*
X32000000Y-29000000D03*
X67500000Y-36500000D03*
X34000000Y-82000000D03*
X48000000Y-33000000D03*
X52000000Y-18000000D03*
X21000000Y-24000000D03*
X42000000Y-40000000D03*
X51000000Y-75000000D03*
X40000000Y-27000000D03*
X57000000Y-30000000D03*
X21000000Y-47000000D03*
X22000000Y-54000000D03*
X65000000Y-82000000D03*
X16000000Y-24000000D03*
X54000000Y-56000000D03*
X44000000Y-28000000D03*
X43000000Y-18000000D03*
X28000000Y-79000000D03*
X54000000Y-36000000D03*
X39000000Y-43000000D03*
X19000000Y-60000000D03*
X41000000Y-49000000D03*
X41000000Y-57000000D03*
X42000000Y-38000000D03*
X41000000Y-38000000D03*
X22000000Y-67000000D03*
X61000000Y-31000000D03*
X54000000Y-26000000D03*
X25000000Y-76000000D03*
X28000000Y-47000000D03*
X38000000Y-78000000D03*
X54000000Y-29000000D03*
X52000000Y-16000000D03*
X56000000Y-16000000D03*
X46000000Y-28000000D03*
X23000000Y-28000000D03*
X42000000Y-31000000D03*
X59000000Y-27000000D03*
X47000000Y-31000000D03*
X47000000Y-63000000D03*
X40000000Y-41000000D03*
X34000000Y-52000000D03*
X34000000Y-75000000D03*
X26000000Y-69000000D03*
X29000000Y-77000000D03*
X48000000Y-36000000D03*
X30000000Y-33000000D03*
X52000000Y-40000000D03*
X37000000Y-43000000D03*
X46000000Y-44000000D03*
X27000000Y-35000000D03*
X47000000Y-28000000D03*
X31000000Y-50000000D03*
X17000000Y-36000000D03*
X63000000Y-81000000D03*
X33000000Y-77000000D03*
X65000000Y-81000000D03*
X47000000Y-41000000D03*
X38000000Y-76000000D03*
X62000000Y-17000000D03*
X34000000Y-81000000D03*
X40000000Y-54000000D03*
X30000000Y-49000000D03*
X50000000Y-20000000D03*
X21000000Y-25000000D03*
X42000000Y-17000000D03*
X18000000Y-64000000D03*
X40000000Y-51000000D03*
X39000000Y-57000000D03*
X24000000Y-38000000D03*
X26000000Y-45000000D03*
X20000000Y-18000000D03*
X51000000Y-19000000D03*
X42000000Y-28000000D03*
X22000000Y-36000000D03*
X43000000Y-52000000D03*
X57000000Y-40000000D03*
X47000000Y-39000000D03*
X49000000Y-19000000D03*
X49000000Y-28000000D03*
X24000000Y-41000000D03*
X37000000Y-61000000D03*
X41000000Y-55000000D03*
X31000000Y-45000000D03*
X27000000Y-47000000D03*
X30000000Y-78000000D03*
X21000000Y-63000000D03*
X50000000Y-53000000D03*
X28000000Y-59000000D03*
X60000000Y-31000000D03*
X32000000Y-45000000D03*
X22000000Y-49000000D03*
X44000000Y-35000000D03*
X27000000Y-30000000D03*
X47000000Y-75000000D03*
X39000000Y-75000000D03*
X49000000Y-29000000D03*
X33000000Y-46000000D03*
X49890000Y-59980000D03*
X49000000Y-82000000D03*
X19000000Y-35000000D03*
X30000000Y-29000000D03*
X45000000Y-23000000D03*
X39000000Y-36000000D03*
X34000000Y-79000000D03*
X43000000Y-35000000D03*
X27000000Y-20000000D03*
X49000000Y-26000000D03*
X27000000Y-67000000D03*
X59000000Y-28000000D03*
X50000000Y-26000000D03*
X46000000Y-34000000D03*
X24000000Y-57000000D03*
X26000000Y-68000000D03*
X22000000Y-37000000D03*
X16000000Y-37000000D03*
X25000000Y-65000000D03*
X20000000Y-58000000D03*
X38000000Y-59000000D03*
X35000000Y-82000000D03*
X27000000Y-27000000D03*
X40000000Y-23000000D03*
X61000000Y-30000000D03*
X50000000Y-33000000D03*
X27000000Y-24000000D03*
X64000000Y-79000000D03*
X65000000Y-25000000D03*
X53000000Y-18000000D03*
X27000000Y-54000000D03*
X20000000Y-23000000D03*
X64000000Y-25000000D03*
X33000000Y-17000000D03*
X34000000Y-50000000D03*
X64000000Y-81000000D03*
X34000000Y-18000000D03*
%TO.N,Net-(J2-Pin_6)*%
X32800000Y-56675000D03*
%TD*%
D14*
%TO.N,Net-(J2-Pin_6)*%
X26195000Y-56675000D02*
X17540000Y-48020000D01*
X32800000Y-56675000D02*
X26195000Y-56675000D01*
%TD*%
%TA.AperFunction,Conductor*%
%TO.N,GND*%
G36*
X30133103Y-15520185D02*
G01*
X30178858Y-15572989D01*
X30188802Y-15642147D01*
X30165330Y-15698812D01*
X30156647Y-15710410D01*
X30156645Y-15710413D01*
X30106403Y-15845120D01*
X30106401Y-15845127D01*
X30100000Y-15904655D01*
X30100000Y-18242500D01*
X32600000Y-18242500D01*
X32600000Y-15904672D01*
X32599999Y-15904655D01*
X32593598Y-15845127D01*
X32593596Y-15845120D01*
X32543354Y-15710413D01*
X32543352Y-15710410D01*
X32534670Y-15698812D01*
X32510252Y-15633348D01*
X32525103Y-15565074D01*
X32574508Y-15515669D01*
X32633936Y-15500500D01*
X38566064Y-15500500D01*
X38633103Y-15520185D01*
X38678858Y-15572989D01*
X38688802Y-15642147D01*
X38665330Y-15698812D01*
X38656647Y-15710410D01*
X38656645Y-15710413D01*
X38606403Y-15845120D01*
X38606401Y-15845127D01*
X38600000Y-15904655D01*
X38600000Y-18242500D01*
X41100000Y-18242500D01*
X41100000Y-15904672D01*
X41099999Y-15904655D01*
X41093598Y-15845127D01*
X41093596Y-15845120D01*
X41043354Y-15710413D01*
X41043352Y-15710410D01*
X41034670Y-15698812D01*
X41010252Y-15633348D01*
X41025103Y-15565074D01*
X41074508Y-15515669D01*
X41133936Y-15500500D01*
X64484108Y-15500500D01*
X64934108Y-15500500D01*
X64996519Y-15500500D01*
X65003471Y-15500695D01*
X65045000Y-15503027D01*
X65312097Y-15518026D01*
X65325900Y-15519582D01*
X65627214Y-15570777D01*
X65640757Y-15573868D01*
X65904000Y-15649707D01*
X65934438Y-15658476D01*
X65947563Y-15663068D01*
X66229924Y-15780026D01*
X66242438Y-15786052D01*
X66349325Y-15845127D01*
X66509929Y-15933890D01*
X66521703Y-15941288D01*
X66770953Y-16118140D01*
X66781825Y-16126810D01*
X66974443Y-16298944D01*
X67009708Y-16330458D01*
X67019541Y-16340291D01*
X67223189Y-16568174D01*
X67231859Y-16579046D01*
X67408711Y-16828296D01*
X67416109Y-16840070D01*
X67563943Y-17107554D01*
X67569976Y-17120082D01*
X67686930Y-17402435D01*
X67691523Y-17415561D01*
X67776129Y-17709236D01*
X67779223Y-17722792D01*
X67830416Y-18024091D01*
X67831973Y-18037909D01*
X67849305Y-18346527D01*
X67849500Y-18353480D01*
X67849500Y-80246519D01*
X67849305Y-80253472D01*
X67831973Y-80562090D01*
X67830416Y-80575908D01*
X67779223Y-80877207D01*
X67776129Y-80890763D01*
X67691523Y-81184438D01*
X67686930Y-81197564D01*
X67569976Y-81479917D01*
X67563943Y-81492445D01*
X67416109Y-81759929D01*
X67408711Y-81771703D01*
X67231859Y-82020953D01*
X67223189Y-82031825D01*
X67019541Y-82259708D01*
X67009708Y-82269541D01*
X66781825Y-82473189D01*
X66770953Y-82481859D01*
X66521703Y-82658711D01*
X66509929Y-82666109D01*
X66242445Y-82813943D01*
X66229917Y-82819976D01*
X65947564Y-82936930D01*
X65934438Y-82941523D01*
X65640763Y-83026129D01*
X65627207Y-83029223D01*
X65325908Y-83080416D01*
X65312090Y-83081973D01*
X65003472Y-83099305D01*
X64996519Y-83099500D01*
X18153481Y-83099500D01*
X18146528Y-83099305D01*
X17860301Y-83083231D01*
X17846483Y-83081674D01*
X17567298Y-83034238D01*
X17553741Y-83031144D01*
X17281614Y-82952745D01*
X17268490Y-82948152D01*
X17006860Y-82839782D01*
X16994331Y-82833749D01*
X16746476Y-82696764D01*
X16734702Y-82689366D01*
X16503738Y-82525489D01*
X16492866Y-82516818D01*
X16474606Y-82500500D01*
X16439419Y-82469054D01*
X16281713Y-82328118D01*
X16271881Y-82318286D01*
X16083181Y-82107133D01*
X16074510Y-82096261D01*
X16028790Y-82031825D01*
X15934040Y-81898286D01*
X15910633Y-81865297D01*
X15903235Y-81853523D01*
X15858015Y-81771703D01*
X15766246Y-81605661D01*
X15760217Y-81593139D01*
X15651847Y-81331509D01*
X15647254Y-81318385D01*
X15568855Y-81046258D01*
X15565761Y-81032701D01*
X15555761Y-80973847D01*
X15518323Y-80753505D01*
X15516769Y-80739706D01*
X15500695Y-80453471D01*
X15500500Y-80446519D01*
X15500500Y-79859568D01*
X21499500Y-79859568D01*
X21499500Y-80140431D01*
X21530942Y-80419494D01*
X21530945Y-80419512D01*
X21593439Y-80693317D01*
X21593443Y-80693329D01*
X21686200Y-80958411D01*
X21808053Y-81211442D01*
X21808055Y-81211445D01*
X21957477Y-81449248D01*
X22132584Y-81668825D01*
X22331175Y-81867416D01*
X22550752Y-82042523D01*
X22788555Y-82191945D01*
X23041592Y-82313801D01*
X23240680Y-82383465D01*
X23306670Y-82406556D01*
X23306682Y-82406560D01*
X23580491Y-82469055D01*
X23580497Y-82469055D01*
X23580505Y-82469057D01*
X23766547Y-82490018D01*
X23859569Y-82500499D01*
X23859572Y-82500500D01*
X23859575Y-82500500D01*
X24140428Y-82500500D01*
X24140429Y-82500499D01*
X24305870Y-82481859D01*
X24419494Y-82469057D01*
X24419499Y-82469056D01*
X24419509Y-82469055D01*
X24693318Y-82406560D01*
X24958408Y-82313801D01*
X25211445Y-82191945D01*
X25449248Y-82042523D01*
X25668825Y-81867416D01*
X25867416Y-81668825D01*
X26042523Y-81449248D01*
X26191945Y-81211445D01*
X26313801Y-80958408D01*
X26406560Y-80693318D01*
X26469055Y-80419509D01*
X26500500Y-80140425D01*
X26500500Y-79859575D01*
X26500499Y-79859568D01*
X54499500Y-79859568D01*
X54499500Y-80140431D01*
X54530942Y-80419494D01*
X54530945Y-80419512D01*
X54593439Y-80693317D01*
X54593443Y-80693329D01*
X54686200Y-80958411D01*
X54808053Y-81211442D01*
X54808055Y-81211445D01*
X54957477Y-81449248D01*
X55132584Y-81668825D01*
X55331175Y-81867416D01*
X55550752Y-82042523D01*
X55788555Y-82191945D01*
X56041592Y-82313801D01*
X56240680Y-82383465D01*
X56306670Y-82406556D01*
X56306682Y-82406560D01*
X56580491Y-82469055D01*
X56580497Y-82469055D01*
X56580505Y-82469057D01*
X56766547Y-82490018D01*
X56859569Y-82500499D01*
X56859572Y-82500500D01*
X56859575Y-82500500D01*
X57140428Y-82500500D01*
X57140429Y-82500499D01*
X57305870Y-82481859D01*
X57419494Y-82469057D01*
X57419499Y-82469056D01*
X57419509Y-82469055D01*
X57693318Y-82406560D01*
X57958408Y-82313801D01*
X58211445Y-82191945D01*
X58449248Y-82042523D01*
X58668825Y-81867416D01*
X58867416Y-81668825D01*
X59042523Y-81449248D01*
X59191945Y-81211445D01*
X59313801Y-80958408D01*
X59406560Y-80693318D01*
X59469055Y-80419509D01*
X59500500Y-80140425D01*
X59500500Y-79859575D01*
X59477456Y-79655051D01*
X59469057Y-79580505D01*
X59469054Y-79580487D01*
X59457554Y-79530104D01*
X59406560Y-79306682D01*
X59313801Y-79041592D01*
X59191945Y-78788555D01*
X59042523Y-78550752D01*
X58867416Y-78331175D01*
X58668825Y-78132584D01*
X58449248Y-77957477D01*
X58211445Y-77808055D01*
X58211442Y-77808053D01*
X57958411Y-77686200D01*
X57693329Y-77593443D01*
X57693317Y-77593439D01*
X57419512Y-77530945D01*
X57419494Y-77530942D01*
X57140431Y-77499500D01*
X57140425Y-77499500D01*
X56859575Y-77499500D01*
X56859568Y-77499500D01*
X56580505Y-77530942D01*
X56580487Y-77530945D01*
X56306682Y-77593439D01*
X56306670Y-77593443D01*
X56041588Y-77686200D01*
X55788557Y-77808053D01*
X55550753Y-77957476D01*
X55331175Y-78132583D01*
X55132583Y-78331175D01*
X54957476Y-78550753D01*
X54808053Y-78788557D01*
X54686200Y-79041588D01*
X54593443Y-79306670D01*
X54593439Y-79306682D01*
X54530945Y-79580487D01*
X54530942Y-79580505D01*
X54499500Y-79859568D01*
X26500499Y-79859568D01*
X26477456Y-79655051D01*
X26469057Y-79580505D01*
X26469054Y-79580487D01*
X26457554Y-79530104D01*
X26406560Y-79306682D01*
X26313801Y-79041592D01*
X26191945Y-78788555D01*
X26042523Y-78550752D01*
X25867416Y-78331175D01*
X25668825Y-78132584D01*
X25449248Y-77957477D01*
X25211445Y-77808055D01*
X25211442Y-77808053D01*
X24958411Y-77686200D01*
X24693329Y-77593443D01*
X24693317Y-77593439D01*
X24419512Y-77530945D01*
X24419494Y-77530942D01*
X24140431Y-77499500D01*
X24140425Y-77499500D01*
X23859575Y-77499500D01*
X23859568Y-77499500D01*
X23580505Y-77530942D01*
X23580487Y-77530945D01*
X23306682Y-77593439D01*
X23306670Y-77593443D01*
X23041588Y-77686200D01*
X22788557Y-77808053D01*
X22550753Y-77957476D01*
X22331175Y-78132583D01*
X22132583Y-78331175D01*
X21957476Y-78550753D01*
X21808053Y-78788557D01*
X21686200Y-79041588D01*
X21593443Y-79306670D01*
X21593439Y-79306682D01*
X21530945Y-79580487D01*
X21530942Y-79580505D01*
X21499500Y-79859568D01*
X15500500Y-79859568D01*
X15500500Y-64902135D01*
X16189500Y-64902135D01*
X16189500Y-66697870D01*
X16189501Y-66697876D01*
X16195908Y-66757483D01*
X16246202Y-66892328D01*
X16246206Y-66892335D01*
X16332452Y-67007544D01*
X16332455Y-67007547D01*
X16447664Y-67093793D01*
X16447671Y-67093797D01*
X16579082Y-67142810D01*
X16635016Y-67184681D01*
X16659433Y-67250145D01*
X16644582Y-67318418D01*
X16623431Y-67346673D01*
X16509889Y-67460215D01*
X16384951Y-67632179D01*
X16288444Y-67821585D01*
X16222753Y-68023760D01*
X16189500Y-68233713D01*
X16189500Y-68446286D01*
X16222753Y-68656239D01*
X16288444Y-68858414D01*
X16384951Y-69047820D01*
X16509890Y-69219786D01*
X16660213Y-69370109D01*
X16832182Y-69495050D01*
X16840946Y-69499516D01*
X16891742Y-69547491D01*
X16908536Y-69615312D01*
X16885998Y-69681447D01*
X16840946Y-69720484D01*
X16832182Y-69724949D01*
X16660213Y-69849890D01*
X16509890Y-70000213D01*
X16384951Y-70172179D01*
X16288444Y-70361585D01*
X16222753Y-70563760D01*
X16189500Y-70773713D01*
X16189500Y-70986286D01*
X16222753Y-71196239D01*
X16288444Y-71398414D01*
X16384951Y-71587820D01*
X16509890Y-71759786D01*
X16660213Y-71910109D01*
X16832182Y-72035050D01*
X16840946Y-72039516D01*
X16891742Y-72087491D01*
X16908536Y-72155312D01*
X16885998Y-72221447D01*
X16840946Y-72260484D01*
X16832182Y-72264949D01*
X16660213Y-72389890D01*
X16509890Y-72540213D01*
X16384951Y-72712179D01*
X16288444Y-72901585D01*
X16222753Y-73103760D01*
X16189500Y-73313713D01*
X16189500Y-73526286D01*
X16222753Y-73736239D01*
X16288444Y-73938414D01*
X16384951Y-74127820D01*
X16509890Y-74299786D01*
X16660213Y-74450109D01*
X16832182Y-74575050D01*
X16840946Y-74579516D01*
X16891742Y-74627491D01*
X16908536Y-74695312D01*
X16885998Y-74761447D01*
X16840946Y-74800484D01*
X16832182Y-74804949D01*
X16660213Y-74929890D01*
X16509890Y-75080213D01*
X16384951Y-75252179D01*
X16288444Y-75441585D01*
X16222753Y-75643760D01*
X16189500Y-75853713D01*
X16189500Y-76066286D01*
X16222753Y-76276239D01*
X16288444Y-76478414D01*
X16384951Y-76667820D01*
X16509890Y-76839786D01*
X16660213Y-76990109D01*
X16832182Y-77115050D01*
X16840946Y-77119516D01*
X16891742Y-77167491D01*
X16908536Y-77235312D01*
X16885998Y-77301447D01*
X16840946Y-77340484D01*
X16832182Y-77344949D01*
X16660213Y-77469890D01*
X16509890Y-77620213D01*
X16384951Y-77792179D01*
X16288444Y-77981585D01*
X16222753Y-78183760D01*
X16199405Y-78331175D01*
X16189500Y-78393713D01*
X16189500Y-78606287D01*
X16199534Y-78669644D01*
X16222753Y-78816239D01*
X16288444Y-79018414D01*
X16384951Y-79207820D01*
X16509890Y-79379786D01*
X16660213Y-79530109D01*
X16832179Y-79655048D01*
X16832181Y-79655049D01*
X16832184Y-79655051D01*
X17021588Y-79751557D01*
X17223757Y-79817246D01*
X17433713Y-79850500D01*
X17433714Y-79850500D01*
X17646286Y-79850500D01*
X17646287Y-79850500D01*
X17856243Y-79817246D01*
X18058412Y-79751557D01*
X18247816Y-79655051D01*
X18269789Y-79639086D01*
X18419786Y-79530109D01*
X18419788Y-79530106D01*
X18419792Y-79530104D01*
X18570104Y-79379792D01*
X18570106Y-79379788D01*
X18570109Y-79379786D01*
X18695048Y-79207820D01*
X18695047Y-79207820D01*
X18695051Y-79207816D01*
X18791557Y-79018412D01*
X18857246Y-78816243D01*
X18890500Y-78606287D01*
X18890500Y-78393713D01*
X18857246Y-78183757D01*
X18791557Y-77981588D01*
X18695051Y-77792184D01*
X18695049Y-77792181D01*
X18695048Y-77792179D01*
X18570109Y-77620213D01*
X18419786Y-77469890D01*
X18247820Y-77344951D01*
X18247115Y-77344591D01*
X18239054Y-77340485D01*
X18188259Y-77292512D01*
X18171463Y-77224692D01*
X18193999Y-77158556D01*
X18239054Y-77119515D01*
X18247816Y-77115051D01*
X18269789Y-77099086D01*
X18419786Y-76990109D01*
X18419788Y-76990106D01*
X18419792Y-76990104D01*
X18570104Y-76839792D01*
X18570106Y-76839788D01*
X18570109Y-76839786D01*
X18695048Y-76667820D01*
X18695047Y-76667820D01*
X18695051Y-76667816D01*
X18791557Y-76478412D01*
X18857246Y-76276243D01*
X18890500Y-76066287D01*
X18890500Y-75853713D01*
X18857246Y-75643757D01*
X18791557Y-75441588D01*
X18695051Y-75252184D01*
X18695049Y-75252181D01*
X18695048Y-75252179D01*
X18570109Y-75080213D01*
X18419786Y-74929890D01*
X18247820Y-74804951D01*
X18247115Y-74804591D01*
X18239054Y-74800485D01*
X18188259Y-74752512D01*
X18171463Y-74684692D01*
X18193999Y-74618556D01*
X18239054Y-74579515D01*
X18247816Y-74575051D01*
X18269789Y-74559086D01*
X18419786Y-74450109D01*
X18419788Y-74450106D01*
X18419792Y-74450104D01*
X18570104Y-74299792D01*
X18570106Y-74299788D01*
X18570109Y-74299786D01*
X18695048Y-74127820D01*
X18695047Y-74127820D01*
X18695051Y-74127816D01*
X18791557Y-73938412D01*
X18857246Y-73736243D01*
X18890500Y-73526287D01*
X18890500Y-73313713D01*
X18857246Y-73103757D01*
X18791557Y-72901588D01*
X18695051Y-72712184D01*
X18695049Y-72712181D01*
X18695048Y-72712179D01*
X18570109Y-72540213D01*
X18419786Y-72389890D01*
X18247820Y-72264951D01*
X18247115Y-72264591D01*
X18239054Y-72260485D01*
X18188259Y-72212512D01*
X18171463Y-72144692D01*
X18193999Y-72078556D01*
X18239054Y-72039515D01*
X18247816Y-72035051D01*
X18269789Y-72019086D01*
X18419786Y-71910109D01*
X18419788Y-71910106D01*
X18419792Y-71910104D01*
X18570104Y-71759792D01*
X18570106Y-71759788D01*
X18570109Y-71759786D01*
X18695048Y-71587820D01*
X18695047Y-71587820D01*
X18695051Y-71587816D01*
X18791557Y-71398412D01*
X18857246Y-71196243D01*
X18890500Y-70986287D01*
X18890500Y-70773713D01*
X18857246Y-70563757D01*
X18791557Y-70361588D01*
X18695051Y-70172184D01*
X18695049Y-70172181D01*
X18695048Y-70172179D01*
X18570109Y-70000213D01*
X18419786Y-69849890D01*
X18247820Y-69724951D01*
X18247115Y-69724591D01*
X18239054Y-69720485D01*
X18188259Y-69672512D01*
X18171463Y-69604692D01*
X18193999Y-69538556D01*
X18239054Y-69499515D01*
X18247816Y-69495051D01*
X18269789Y-69479086D01*
X18419786Y-69370109D01*
X18419788Y-69370106D01*
X18419792Y-69370104D01*
X18570104Y-69219792D01*
X18570106Y-69219788D01*
X18570109Y-69219786D01*
X18695048Y-69047820D01*
X18695047Y-69047820D01*
X18695051Y-69047816D01*
X18791557Y-68858412D01*
X18857246Y-68656243D01*
X18890500Y-68446287D01*
X18890500Y-68233713D01*
X18857246Y-68023757D01*
X18791557Y-67821588D01*
X18695051Y-67632184D01*
X18695049Y-67632181D01*
X18695048Y-67632179D01*
X18570109Y-67460213D01*
X18456569Y-67346673D01*
X18423084Y-67285350D01*
X18428068Y-67215658D01*
X18469940Y-67159725D01*
X18500915Y-67142810D01*
X18632331Y-67093796D01*
X18747546Y-67007546D01*
X18833796Y-66892331D01*
X18884091Y-66757483D01*
X18890500Y-66697873D01*
X18890499Y-64902128D01*
X18884091Y-64842517D01*
X18833796Y-64707669D01*
X18833795Y-64707668D01*
X18833793Y-64707664D01*
X18747547Y-64592455D01*
X18747544Y-64592452D01*
X18632335Y-64506206D01*
X18632328Y-64506202D01*
X18497482Y-64455908D01*
X18497483Y-64455908D01*
X18437883Y-64449501D01*
X18437881Y-64449500D01*
X18437873Y-64449500D01*
X18437864Y-64449500D01*
X16642129Y-64449500D01*
X16642123Y-64449501D01*
X16582516Y-64455908D01*
X16447671Y-64506202D01*
X16447664Y-64506206D01*
X16332455Y-64592452D01*
X16332452Y-64592455D01*
X16246206Y-64707664D01*
X16246202Y-64707671D01*
X16195908Y-64842517D01*
X16189501Y-64902116D01*
X16189501Y-64902123D01*
X16189500Y-64902135D01*
X15500500Y-64902135D01*
X15500500Y-42833713D01*
X16189500Y-42833713D01*
X16189500Y-43046286D01*
X16222753Y-43256239D01*
X16288444Y-43458414D01*
X16384951Y-43647820D01*
X16509890Y-43819786D01*
X16660213Y-43970109D01*
X16832182Y-44095050D01*
X16840946Y-44099516D01*
X16891742Y-44147491D01*
X16908536Y-44215312D01*
X16885998Y-44281447D01*
X16840946Y-44320484D01*
X16832182Y-44324949D01*
X16660213Y-44449890D01*
X16509890Y-44600213D01*
X16384951Y-44772179D01*
X16288444Y-44961585D01*
X16222753Y-45163760D01*
X16189500Y-45373713D01*
X16189500Y-45586286D01*
X16222753Y-45796239D01*
X16288444Y-45998414D01*
X16384951Y-46187820D01*
X16509890Y-46359786D01*
X16660213Y-46510109D01*
X16832182Y-46635050D01*
X16840946Y-46639516D01*
X16891742Y-46687491D01*
X16908536Y-46755312D01*
X16885998Y-46821447D01*
X16840946Y-46860484D01*
X16832182Y-46864949D01*
X16660213Y-46989890D01*
X16509890Y-47140213D01*
X16384951Y-47312179D01*
X16288444Y-47501585D01*
X16222753Y-47703760D01*
X16189500Y-47913713D01*
X16189500Y-48126286D01*
X16222753Y-48336239D01*
X16222753Y-48336241D01*
X16222754Y-48336243D01*
X16277431Y-48504522D01*
X16288444Y-48538414D01*
X16384951Y-48727820D01*
X16509890Y-48899786D01*
X16660213Y-49050109D01*
X16832182Y-49175050D01*
X16840946Y-49179516D01*
X16891742Y-49227491D01*
X16908536Y-49295312D01*
X16885998Y-49361447D01*
X16840946Y-49400484D01*
X16832182Y-49404949D01*
X16660213Y-49529890D01*
X16509890Y-49680213D01*
X16384951Y-49852179D01*
X16288444Y-50041585D01*
X16222753Y-50243760D01*
X16189500Y-50453713D01*
X16189500Y-50666286D01*
X16222753Y-50876239D01*
X16288444Y-51078414D01*
X16384951Y-51267820D01*
X16509890Y-51439786D01*
X16660213Y-51590109D01*
X16832182Y-51715050D01*
X16840946Y-51719516D01*
X16891742Y-51767491D01*
X16908536Y-51835312D01*
X16885998Y-51901447D01*
X16840946Y-51940484D01*
X16832182Y-51944949D01*
X16660213Y-52069890D01*
X16509890Y-52220213D01*
X16384951Y-52392179D01*
X16288444Y-52581585D01*
X16222753Y-52783760D01*
X16189500Y-52993713D01*
X16189500Y-53206286D01*
X16222753Y-53416239D01*
X16288444Y-53618414D01*
X16384951Y-53807820D01*
X16509890Y-53979786D01*
X16660213Y-54130109D01*
X16832179Y-54255048D01*
X16832181Y-54255049D01*
X16832184Y-54255051D01*
X16841493Y-54259794D01*
X16892290Y-54307766D01*
X16909087Y-54375587D01*
X16886552Y-54441722D01*
X16841505Y-54480760D01*
X16832446Y-54485376D01*
X16832440Y-54485380D01*
X16778282Y-54524727D01*
X16778282Y-54524728D01*
X17410591Y-55157037D01*
X17347007Y-55174075D01*
X17232993Y-55239901D01*
X17139901Y-55332993D01*
X17074075Y-55447007D01*
X17057037Y-55510591D01*
X16424728Y-54878282D01*
X16424727Y-54878282D01*
X16385380Y-54932439D01*
X16288904Y-55121782D01*
X16223242Y-55323869D01*
X16223242Y-55323872D01*
X16190000Y-55533753D01*
X16190000Y-55746246D01*
X16223242Y-55956127D01*
X16223242Y-55956130D01*
X16288904Y-56158217D01*
X16385375Y-56347550D01*
X16424728Y-56401716D01*
X17057037Y-55769408D01*
X17074075Y-55832993D01*
X17139901Y-55947007D01*
X17232993Y-56040099D01*
X17347007Y-56105925D01*
X17410591Y-56122962D01*
X16809971Y-56723581D01*
X16888711Y-56840895D01*
X16889920Y-56844729D01*
X16892844Y-56847491D01*
X16900343Y-56877778D01*
X16909727Y-56907529D01*
X16908671Y-56911408D01*
X16909638Y-56915312D01*
X16899573Y-56944844D01*
X16891383Y-56974947D01*
X16888397Y-56977640D01*
X16887100Y-56981447D01*
X16842051Y-57020483D01*
X16832440Y-57025380D01*
X16778282Y-57064727D01*
X16778282Y-57064728D01*
X17410591Y-57697037D01*
X17347007Y-57714075D01*
X17232993Y-57779901D01*
X17139901Y-57872993D01*
X17074075Y-57987007D01*
X17057037Y-58050591D01*
X16424728Y-57418282D01*
X16424727Y-57418282D01*
X16385380Y-57472439D01*
X16288904Y-57661782D01*
X16223242Y-57863869D01*
X16223242Y-57863872D01*
X16190000Y-58073753D01*
X16190000Y-58286246D01*
X16223242Y-58496127D01*
X16223242Y-58496130D01*
X16288904Y-58698217D01*
X16385375Y-58887550D01*
X16424728Y-58941716D01*
X17057037Y-58309408D01*
X17074075Y-58372993D01*
X17139901Y-58487007D01*
X17232993Y-58580099D01*
X17347007Y-58645925D01*
X17410590Y-58662962D01*
X16740370Y-59333181D01*
X16679047Y-59366666D01*
X16652698Y-59369500D01*
X16642134Y-59369500D01*
X16642123Y-59369501D01*
X16582516Y-59375908D01*
X16447671Y-59426202D01*
X16447664Y-59426206D01*
X16332455Y-59512452D01*
X16332452Y-59512455D01*
X16246206Y-59627664D01*
X16246202Y-59627671D01*
X16195908Y-59762517D01*
X16189501Y-59822116D01*
X16189501Y-59822123D01*
X16189500Y-59822135D01*
X16189500Y-61617870D01*
X16189501Y-61617876D01*
X16195908Y-61677483D01*
X16246202Y-61812328D01*
X16246206Y-61812335D01*
X16332452Y-61927544D01*
X16332455Y-61927547D01*
X16447664Y-62013793D01*
X16447671Y-62013797D01*
X16582517Y-62064091D01*
X16582516Y-62064091D01*
X16589444Y-62064835D01*
X16642127Y-62070500D01*
X18437872Y-62070499D01*
X18497483Y-62064091D01*
X18632331Y-62013796D01*
X18747546Y-61927546D01*
X18833796Y-61812331D01*
X18884091Y-61677483D01*
X18890500Y-61617873D01*
X18890499Y-59822135D01*
X64449500Y-59822135D01*
X64449500Y-61617870D01*
X64449501Y-61617876D01*
X64455908Y-61677483D01*
X64506202Y-61812328D01*
X64506206Y-61812335D01*
X64592452Y-61927544D01*
X64592455Y-61927547D01*
X64707664Y-62013793D01*
X64707671Y-62013797D01*
X64839082Y-62062810D01*
X64895016Y-62104681D01*
X64919433Y-62170145D01*
X64904582Y-62238418D01*
X64883431Y-62266673D01*
X64769889Y-62380215D01*
X64644951Y-62552179D01*
X64548444Y-62741585D01*
X64482753Y-62943760D01*
X64449500Y-63153713D01*
X64449500Y-63366286D01*
X64482753Y-63576239D01*
X64548444Y-63778414D01*
X64644951Y-63967820D01*
X64769890Y-64139786D01*
X64920213Y-64290109D01*
X65092182Y-64415050D01*
X65100946Y-64419516D01*
X65151742Y-64467491D01*
X65168536Y-64535312D01*
X65145998Y-64601447D01*
X65100946Y-64640484D01*
X65092182Y-64644949D01*
X64920213Y-64769890D01*
X64769890Y-64920213D01*
X64644951Y-65092179D01*
X64548444Y-65281585D01*
X64482753Y-65483760D01*
X64449500Y-65693713D01*
X64449500Y-65906286D01*
X64482753Y-66116239D01*
X64548444Y-66318414D01*
X64644951Y-66507820D01*
X64769890Y-66679786D01*
X64920213Y-66830109D01*
X65092182Y-66955050D01*
X65100946Y-66959516D01*
X65151742Y-67007491D01*
X65168536Y-67075312D01*
X65145998Y-67141447D01*
X65100946Y-67180484D01*
X65092182Y-67184949D01*
X64920213Y-67309890D01*
X64769890Y-67460213D01*
X64644951Y-67632179D01*
X64548444Y-67821585D01*
X64482753Y-68023760D01*
X64449500Y-68233713D01*
X64449500Y-68446286D01*
X64482753Y-68656239D01*
X64548444Y-68858414D01*
X64644951Y-69047820D01*
X64769890Y-69219786D01*
X64920213Y-69370109D01*
X65092182Y-69495050D01*
X65100946Y-69499516D01*
X65151742Y-69547491D01*
X65168536Y-69615312D01*
X65145998Y-69681447D01*
X65100946Y-69720484D01*
X65092182Y-69724949D01*
X64920213Y-69849890D01*
X64769890Y-70000213D01*
X64644951Y-70172179D01*
X64548444Y-70361585D01*
X64482753Y-70563760D01*
X64449500Y-70773713D01*
X64449500Y-70986286D01*
X64482753Y-71196239D01*
X64548444Y-71398414D01*
X64644951Y-71587820D01*
X64769890Y-71759786D01*
X64920213Y-71910109D01*
X65092182Y-72035050D01*
X65100946Y-72039516D01*
X65151742Y-72087491D01*
X65168536Y-72155312D01*
X65145998Y-72221447D01*
X65100946Y-72260484D01*
X65092182Y-72264949D01*
X64920213Y-72389890D01*
X64769890Y-72540213D01*
X64644951Y-72712179D01*
X64548444Y-72901585D01*
X64482753Y-73103760D01*
X64449500Y-73313713D01*
X64449500Y-73526286D01*
X64482753Y-73736239D01*
X64548444Y-73938414D01*
X64644951Y-74127820D01*
X64769890Y-74299786D01*
X64920213Y-74450109D01*
X65092182Y-74575050D01*
X65100946Y-74579516D01*
X65151742Y-74627491D01*
X65168536Y-74695312D01*
X65145998Y-74761447D01*
X65100946Y-74800484D01*
X65092182Y-74804949D01*
X64920213Y-74929890D01*
X64769890Y-75080213D01*
X64644951Y-75252179D01*
X64548444Y-75441585D01*
X64482753Y-75643760D01*
X64449500Y-75853713D01*
X64449500Y-76066286D01*
X64482753Y-76276239D01*
X64548444Y-76478414D01*
X64644951Y-76667820D01*
X64769890Y-76839786D01*
X64920213Y-76990109D01*
X65092182Y-77115050D01*
X65100946Y-77119516D01*
X65151742Y-77167491D01*
X65168536Y-77235312D01*
X65145998Y-77301447D01*
X65100946Y-77340484D01*
X65092182Y-77344949D01*
X64920213Y-77469890D01*
X64769890Y-77620213D01*
X64644951Y-77792179D01*
X64548444Y-77981585D01*
X64482753Y-78183760D01*
X64459405Y-78331175D01*
X64449500Y-78393713D01*
X64449500Y-78606287D01*
X64459534Y-78669644D01*
X64482753Y-78816239D01*
X64548444Y-79018414D01*
X64644951Y-79207820D01*
X64769890Y-79379786D01*
X64920213Y-79530109D01*
X65092179Y-79655048D01*
X65092181Y-79655049D01*
X65092184Y-79655051D01*
X65281588Y-79751557D01*
X65483757Y-79817246D01*
X65693713Y-79850500D01*
X65693714Y-79850500D01*
X65906286Y-79850500D01*
X65906287Y-79850500D01*
X66116243Y-79817246D01*
X66318412Y-79751557D01*
X66507816Y-79655051D01*
X66529789Y-79639086D01*
X66679786Y-79530109D01*
X66679788Y-79530106D01*
X66679792Y-79530104D01*
X66830104Y-79379792D01*
X66830106Y-79379788D01*
X66830109Y-79379786D01*
X66955048Y-79207820D01*
X66955047Y-79207820D01*
X66955051Y-79207816D01*
X67051557Y-79018412D01*
X67117246Y-78816243D01*
X67150500Y-78606287D01*
X67150500Y-78393713D01*
X67117246Y-78183757D01*
X67051557Y-77981588D01*
X66955051Y-77792184D01*
X66955049Y-77792181D01*
X66955048Y-77792179D01*
X66830109Y-77620213D01*
X66679786Y-77469890D01*
X66507820Y-77344951D01*
X66507115Y-77344591D01*
X66499054Y-77340485D01*
X66448259Y-77292512D01*
X66431463Y-77224692D01*
X66453999Y-77158556D01*
X66499054Y-77119515D01*
X66507816Y-77115051D01*
X66529789Y-77099086D01*
X66679786Y-76990109D01*
X66679788Y-76990106D01*
X66679792Y-76990104D01*
X66830104Y-76839792D01*
X66830106Y-76839788D01*
X66830109Y-76839786D01*
X66955048Y-76667820D01*
X66955047Y-76667820D01*
X66955051Y-76667816D01*
X67051557Y-76478412D01*
X67117246Y-76276243D01*
X67150500Y-76066287D01*
X67150500Y-75853713D01*
X67117246Y-75643757D01*
X67051557Y-75441588D01*
X66955051Y-75252184D01*
X66955049Y-75252181D01*
X66955048Y-75252179D01*
X66830109Y-75080213D01*
X66679786Y-74929890D01*
X66507820Y-74804951D01*
X66507115Y-74804591D01*
X66499054Y-74800485D01*
X66448259Y-74752512D01*
X66431463Y-74684692D01*
X66453999Y-74618556D01*
X66499054Y-74579515D01*
X66507816Y-74575051D01*
X66529789Y-74559086D01*
X66679786Y-74450109D01*
X66679788Y-74450106D01*
X66679792Y-74450104D01*
X66830104Y-74299792D01*
X66830106Y-74299788D01*
X66830109Y-74299786D01*
X66955048Y-74127820D01*
X66955047Y-74127820D01*
X66955051Y-74127816D01*
X67051557Y-73938412D01*
X67117246Y-73736243D01*
X67150500Y-73526287D01*
X67150500Y-73313713D01*
X67117246Y-73103757D01*
X67051557Y-72901588D01*
X66955051Y-72712184D01*
X66955049Y-72712181D01*
X66955048Y-72712179D01*
X66830109Y-72540213D01*
X66679786Y-72389890D01*
X66507820Y-72264951D01*
X66507115Y-72264591D01*
X66499054Y-72260485D01*
X66448259Y-72212512D01*
X66431463Y-72144692D01*
X66453999Y-72078556D01*
X66499054Y-72039515D01*
X66507816Y-72035051D01*
X66529789Y-72019086D01*
X66679786Y-71910109D01*
X66679788Y-71910106D01*
X66679792Y-71910104D01*
X66830104Y-71759792D01*
X66830106Y-71759788D01*
X66830109Y-71759786D01*
X66955048Y-71587820D01*
X66955047Y-71587820D01*
X66955051Y-71587816D01*
X67051557Y-71398412D01*
X67117246Y-71196243D01*
X67150500Y-70986287D01*
X67150500Y-70773713D01*
X67117246Y-70563757D01*
X67051557Y-70361588D01*
X66955051Y-70172184D01*
X66955049Y-70172181D01*
X66955048Y-70172179D01*
X66830109Y-70000213D01*
X66679786Y-69849890D01*
X66507820Y-69724951D01*
X66507115Y-69724591D01*
X66499054Y-69720485D01*
X66448259Y-69672512D01*
X66431463Y-69604692D01*
X66453999Y-69538556D01*
X66499054Y-69499515D01*
X66507816Y-69495051D01*
X66529789Y-69479086D01*
X66679786Y-69370109D01*
X66679788Y-69370106D01*
X66679792Y-69370104D01*
X66830104Y-69219792D01*
X66830106Y-69219788D01*
X66830109Y-69219786D01*
X66955048Y-69047820D01*
X66955047Y-69047820D01*
X66955051Y-69047816D01*
X67051557Y-68858412D01*
X67117246Y-68656243D01*
X67150500Y-68446287D01*
X67150500Y-68233713D01*
X67117246Y-68023757D01*
X67051557Y-67821588D01*
X66955051Y-67632184D01*
X66955049Y-67632181D01*
X66955048Y-67632179D01*
X66830109Y-67460213D01*
X66679786Y-67309890D01*
X66507820Y-67184951D01*
X66507115Y-67184591D01*
X66499054Y-67180485D01*
X66448259Y-67132512D01*
X66431463Y-67064692D01*
X66453999Y-66998556D01*
X66499054Y-66959515D01*
X66507816Y-66955051D01*
X66594138Y-66892335D01*
X66679786Y-66830109D01*
X66679788Y-66830106D01*
X66679792Y-66830104D01*
X66830104Y-66679792D01*
X66830106Y-66679788D01*
X66830109Y-66679786D01*
X66955048Y-66507820D01*
X66955047Y-66507820D01*
X66955051Y-66507816D01*
X67051557Y-66318412D01*
X67117246Y-66116243D01*
X67150500Y-65906287D01*
X67150500Y-65693713D01*
X67117246Y-65483757D01*
X67051557Y-65281588D01*
X66955051Y-65092184D01*
X66955049Y-65092181D01*
X66955048Y-65092179D01*
X66830109Y-64920213D01*
X66679786Y-64769890D01*
X66507820Y-64644951D01*
X66507115Y-64644591D01*
X66499054Y-64640485D01*
X66448259Y-64592512D01*
X66431463Y-64524692D01*
X66453999Y-64458556D01*
X66499054Y-64419515D01*
X66507816Y-64415051D01*
X66529789Y-64399086D01*
X66679786Y-64290109D01*
X66679788Y-64290106D01*
X66679792Y-64290104D01*
X66830104Y-64139792D01*
X66830106Y-64139788D01*
X66830109Y-64139786D01*
X66955048Y-63967820D01*
X66955047Y-63967820D01*
X66955051Y-63967816D01*
X67051557Y-63778412D01*
X67117246Y-63576243D01*
X67150500Y-63366287D01*
X67150500Y-63153713D01*
X67117246Y-62943757D01*
X67051557Y-62741588D01*
X66955051Y-62552184D01*
X66955049Y-62552181D01*
X66955048Y-62552179D01*
X66830109Y-62380213D01*
X66716569Y-62266673D01*
X66683084Y-62205350D01*
X66688068Y-62135658D01*
X66729940Y-62079725D01*
X66760915Y-62062810D01*
X66892331Y-62013796D01*
X67007546Y-61927546D01*
X67093796Y-61812331D01*
X67144091Y-61677483D01*
X67150500Y-61617873D01*
X67150499Y-59822128D01*
X67144091Y-59762517D01*
X67093796Y-59627669D01*
X67093795Y-59627668D01*
X67093793Y-59627664D01*
X67007547Y-59512455D01*
X67007544Y-59512452D01*
X66892335Y-59426206D01*
X66892328Y-59426202D01*
X66757482Y-59375908D01*
X66757483Y-59375908D01*
X66697883Y-59369501D01*
X66697881Y-59369500D01*
X66697873Y-59369500D01*
X66697864Y-59369500D01*
X64902129Y-59369500D01*
X64902123Y-59369501D01*
X64842516Y-59375908D01*
X64707671Y-59426202D01*
X64707664Y-59426206D01*
X64592455Y-59512452D01*
X64592452Y-59512455D01*
X64506206Y-59627664D01*
X64506202Y-59627671D01*
X64455908Y-59762517D01*
X64449501Y-59822116D01*
X64449501Y-59822123D01*
X64449500Y-59822135D01*
X18890499Y-59822135D01*
X18890499Y-59822128D01*
X18884091Y-59762517D01*
X18833796Y-59627669D01*
X18833795Y-59627668D01*
X18833793Y-59627664D01*
X18747547Y-59512455D01*
X18747544Y-59512452D01*
X18632335Y-59426206D01*
X18632328Y-59426202D01*
X18497482Y-59375908D01*
X18497483Y-59375908D01*
X18437883Y-59369501D01*
X18437881Y-59369500D01*
X18437873Y-59369500D01*
X18437865Y-59369500D01*
X18427309Y-59369500D01*
X18360270Y-59349815D01*
X18339628Y-59333181D01*
X17669408Y-58662962D01*
X17732993Y-58645925D01*
X17847007Y-58580099D01*
X17940099Y-58487007D01*
X18005925Y-58372993D01*
X18022962Y-58309408D01*
X18655270Y-58941717D01*
X18655270Y-58941716D01*
X18694622Y-58887554D01*
X18791095Y-58698217D01*
X18856757Y-58496130D01*
X18856757Y-58496127D01*
X18890000Y-58286246D01*
X18890000Y-58073753D01*
X18856757Y-57863872D01*
X18856757Y-57863869D01*
X18791095Y-57661782D01*
X18694624Y-57472449D01*
X18655270Y-57418282D01*
X18655269Y-57418282D01*
X18022962Y-58050590D01*
X18005925Y-57987007D01*
X17940099Y-57872993D01*
X17847007Y-57779901D01*
X17732993Y-57714075D01*
X17669409Y-57697037D01*
X18301716Y-57064728D01*
X18247550Y-57025375D01*
X18237954Y-57020486D01*
X18187157Y-56972512D01*
X18170361Y-56904692D01*
X18192897Y-56838556D01*
X18237954Y-56799514D01*
X18247554Y-56794622D01*
X18301716Y-56755270D01*
X18301717Y-56755270D01*
X17669408Y-56122962D01*
X17732993Y-56105925D01*
X17847007Y-56040099D01*
X17940099Y-55947007D01*
X18005925Y-55832993D01*
X18022962Y-55769408D01*
X18655270Y-56401717D01*
X18655270Y-56401716D01*
X18694622Y-56347554D01*
X18791095Y-56158217D01*
X18856757Y-55956130D01*
X18856757Y-55956127D01*
X18890000Y-55746246D01*
X18890000Y-55533753D01*
X18856757Y-55323872D01*
X18856757Y-55323869D01*
X18791095Y-55121782D01*
X18694624Y-54932449D01*
X18655270Y-54878282D01*
X18655269Y-54878282D01*
X18022962Y-55510590D01*
X18005925Y-55447007D01*
X17940099Y-55332993D01*
X17847007Y-55239901D01*
X17732993Y-55174075D01*
X17669409Y-55157037D01*
X18301716Y-54524728D01*
X18247547Y-54485373D01*
X18247547Y-54485372D01*
X18238500Y-54480763D01*
X18187706Y-54432788D01*
X18170912Y-54364966D01*
X18193451Y-54298832D01*
X18238508Y-54259793D01*
X18247816Y-54255051D01*
X18327007Y-54197515D01*
X18419786Y-54130109D01*
X18419788Y-54130106D01*
X18419792Y-54130104D01*
X18570104Y-53979792D01*
X18570106Y-53979788D01*
X18570109Y-53979786D01*
X18695048Y-53807820D01*
X18695047Y-53807820D01*
X18695051Y-53807816D01*
X18791557Y-53618412D01*
X18857246Y-53416243D01*
X18890500Y-53206287D01*
X18890500Y-52993713D01*
X18857246Y-52783757D01*
X18791557Y-52581588D01*
X18695051Y-52392184D01*
X18695049Y-52392181D01*
X18695048Y-52392179D01*
X18570109Y-52220213D01*
X18419786Y-52069890D01*
X18247820Y-51944951D01*
X18247115Y-51944591D01*
X18239054Y-51940485D01*
X18188259Y-51892512D01*
X18171463Y-51824692D01*
X18193999Y-51758556D01*
X18239054Y-51719515D01*
X18247816Y-51715051D01*
X18292912Y-51682287D01*
X18419786Y-51590109D01*
X18419788Y-51590106D01*
X18419792Y-51590104D01*
X18570104Y-51439792D01*
X18570106Y-51439788D01*
X18570109Y-51439786D01*
X18695048Y-51267820D01*
X18695047Y-51267820D01*
X18695051Y-51267816D01*
X18791557Y-51078412D01*
X18857246Y-50876243D01*
X18890500Y-50666287D01*
X18890500Y-50519097D01*
X18910185Y-50452058D01*
X18962989Y-50406303D01*
X19032147Y-50396359D01*
X19095703Y-50425384D01*
X19102181Y-50431416D01*
X25710139Y-57039374D01*
X25710149Y-57039385D01*
X25714479Y-57043715D01*
X25714480Y-57043716D01*
X25826284Y-57155520D01*
X25826286Y-57155521D01*
X25826290Y-57155524D01*
X25963209Y-57234573D01*
X25963216Y-57234577D01*
X26075019Y-57264534D01*
X26115942Y-57275500D01*
X26115943Y-57275500D01*
X32220234Y-57275500D01*
X32287273Y-57295185D01*
X32289125Y-57296398D01*
X32420814Y-57384390D01*
X32420827Y-57384397D01*
X32502634Y-57418282D01*
X32566503Y-57444737D01*
X32705820Y-57472449D01*
X32721153Y-57475499D01*
X32721156Y-57475500D01*
X32721158Y-57475500D01*
X32878844Y-57475500D01*
X32878845Y-57475499D01*
X33033497Y-57444737D01*
X33179179Y-57384394D01*
X33310289Y-57296789D01*
X33421789Y-57185289D01*
X33509394Y-57054179D01*
X33569737Y-56908497D01*
X33600500Y-56753842D01*
X33600500Y-56596158D01*
X33600500Y-56596155D01*
X33600499Y-56596153D01*
X33569738Y-56441510D01*
X33569737Y-56441503D01*
X33553257Y-56401716D01*
X33509397Y-56295827D01*
X33509390Y-56295814D01*
X33421789Y-56164711D01*
X33421786Y-56164707D01*
X33310292Y-56053213D01*
X33310288Y-56053210D01*
X33179185Y-55965609D01*
X33179172Y-55965602D01*
X33033501Y-55905264D01*
X33033489Y-55905261D01*
X32878845Y-55874500D01*
X32878842Y-55874500D01*
X32721158Y-55874500D01*
X32721155Y-55874500D01*
X32566510Y-55905261D01*
X32566498Y-55905264D01*
X32420827Y-55965602D01*
X32420814Y-55965609D01*
X32289125Y-56053602D01*
X32222447Y-56074480D01*
X32220234Y-56074500D01*
X26495097Y-56074500D01*
X26428058Y-56054815D01*
X26407416Y-56038181D01*
X18873757Y-48504522D01*
X18840272Y-48443199D01*
X18843507Y-48378523D01*
X18857246Y-48336243D01*
X18890500Y-48126287D01*
X18890500Y-47913713D01*
X18857246Y-47703757D01*
X18791557Y-47501588D01*
X18695051Y-47312184D01*
X18695049Y-47312181D01*
X18695048Y-47312179D01*
X18570109Y-47140213D01*
X18419786Y-46989890D01*
X18247820Y-46864951D01*
X18247115Y-46864591D01*
X18239054Y-46860485D01*
X18188259Y-46812512D01*
X18171463Y-46744692D01*
X18193999Y-46678556D01*
X18239054Y-46639515D01*
X18247816Y-46635051D01*
X18292912Y-46602287D01*
X18419786Y-46510109D01*
X18419788Y-46510106D01*
X18419792Y-46510104D01*
X18570104Y-46359792D01*
X18570106Y-46359788D01*
X18570109Y-46359786D01*
X18695048Y-46187820D01*
X18695047Y-46187820D01*
X18695051Y-46187816D01*
X18791557Y-45998412D01*
X18857246Y-45796243D01*
X18890500Y-45586287D01*
X18890500Y-45373713D01*
X18857246Y-45163757D01*
X18791557Y-44961588D01*
X18695051Y-44772184D01*
X18695049Y-44772181D01*
X18695048Y-44772179D01*
X18570109Y-44600213D01*
X18419786Y-44449890D01*
X18247820Y-44324951D01*
X18247115Y-44324591D01*
X18239054Y-44320485D01*
X18188259Y-44272512D01*
X18171463Y-44204692D01*
X18193999Y-44138556D01*
X18239054Y-44099515D01*
X18247816Y-44095051D01*
X18292912Y-44062287D01*
X18419786Y-43970109D01*
X18419788Y-43970106D01*
X18419792Y-43970104D01*
X18570104Y-43819792D01*
X18574906Y-43813181D01*
X18604857Y-43771959D01*
X18604859Y-43771956D01*
X18634507Y-43731147D01*
X18695051Y-43647816D01*
X18791557Y-43458412D01*
X18857246Y-43256243D01*
X18890500Y-43046287D01*
X18890500Y-42833713D01*
X18857246Y-42623757D01*
X18791557Y-42421588D01*
X18695051Y-42232184D01*
X18695049Y-42232181D01*
X18695048Y-42232179D01*
X18570109Y-42060213D01*
X18419786Y-41909890D01*
X18247820Y-41784951D01*
X18058414Y-41688444D01*
X18058413Y-41688443D01*
X18058412Y-41688443D01*
X17856243Y-41622754D01*
X17856241Y-41622753D01*
X17856240Y-41622753D01*
X17694957Y-41597208D01*
X17646287Y-41589500D01*
X17433713Y-41589500D01*
X17385042Y-41597208D01*
X17223760Y-41622753D01*
X17021585Y-41688444D01*
X16832179Y-41784951D01*
X16660213Y-41909890D01*
X16509890Y-42060213D01*
X16384951Y-42232179D01*
X16288444Y-42421585D01*
X16222753Y-42623760D01*
X16189500Y-42833713D01*
X15500500Y-42833713D01*
X15500500Y-32898135D01*
X64449500Y-32898135D01*
X64449500Y-34693870D01*
X64449501Y-34693876D01*
X64455908Y-34753483D01*
X64506202Y-34888328D01*
X64506206Y-34888335D01*
X64592452Y-35003544D01*
X64592455Y-35003547D01*
X64707664Y-35089793D01*
X64707671Y-35089797D01*
X64839082Y-35138810D01*
X64895016Y-35180681D01*
X64919433Y-35246145D01*
X64904582Y-35314418D01*
X64883431Y-35342673D01*
X64769889Y-35456215D01*
X64644951Y-35628179D01*
X64548444Y-35817585D01*
X64482753Y-36019760D01*
X64449500Y-36229713D01*
X64449500Y-36442286D01*
X64482753Y-36652239D01*
X64548444Y-36854414D01*
X64644951Y-37043820D01*
X64769890Y-37215786D01*
X64920213Y-37366109D01*
X65092182Y-37491050D01*
X65100946Y-37495516D01*
X65151742Y-37543491D01*
X65168536Y-37611312D01*
X65145998Y-37677447D01*
X65100946Y-37716484D01*
X65092182Y-37720949D01*
X64920213Y-37845890D01*
X64769890Y-37996213D01*
X64644951Y-38168179D01*
X64548444Y-38357585D01*
X64482753Y-38559760D01*
X64449500Y-38769713D01*
X64449500Y-38982286D01*
X64482753Y-39192239D01*
X64548444Y-39394414D01*
X64644951Y-39583820D01*
X64769890Y-39755786D01*
X64920213Y-39906109D01*
X65092179Y-40031048D01*
X65092181Y-40031049D01*
X65092184Y-40031051D01*
X65101493Y-40035794D01*
X65152290Y-40083766D01*
X65169087Y-40151587D01*
X65146552Y-40217722D01*
X65101505Y-40256760D01*
X65092446Y-40261376D01*
X65092440Y-40261380D01*
X65038282Y-40300727D01*
X65038282Y-40300728D01*
X65670591Y-40933037D01*
X65607007Y-40950075D01*
X65492993Y-41015901D01*
X65399901Y-41108993D01*
X65334075Y-41223007D01*
X65317037Y-41286591D01*
X64684728Y-40654282D01*
X64684727Y-40654282D01*
X64645380Y-40708439D01*
X64548904Y-40897782D01*
X64483242Y-41099869D01*
X64483242Y-41099872D01*
X64450000Y-41309753D01*
X64450000Y-41522246D01*
X64483242Y-41732127D01*
X64483242Y-41732130D01*
X64548904Y-41934217D01*
X64645375Y-42123550D01*
X64684728Y-42177716D01*
X65317037Y-41545408D01*
X65334075Y-41608993D01*
X65399901Y-41723007D01*
X65492993Y-41816099D01*
X65607007Y-41881925D01*
X65670590Y-41898962D01*
X65038282Y-42531269D01*
X65038282Y-42531270D01*
X65092452Y-42570626D01*
X65092451Y-42570626D01*
X65101495Y-42575234D01*
X65152292Y-42623208D01*
X65169087Y-42691029D01*
X65146550Y-42757164D01*
X65101499Y-42796202D01*
X65092182Y-42800949D01*
X64920213Y-42925890D01*
X64769890Y-43076213D01*
X64644951Y-43248179D01*
X64548444Y-43437585D01*
X64482753Y-43639760D01*
X64449500Y-43849713D01*
X64449500Y-44062286D01*
X64475816Y-44228443D01*
X64482754Y-44272243D01*
X64540477Y-44449896D01*
X64548444Y-44474414D01*
X64644951Y-44663820D01*
X64769890Y-44835786D01*
X64920213Y-44986109D01*
X65092182Y-45111050D01*
X65100946Y-45115516D01*
X65151742Y-45163491D01*
X65168536Y-45231312D01*
X65145998Y-45297447D01*
X65100946Y-45336484D01*
X65092182Y-45340949D01*
X64920213Y-45465890D01*
X64769890Y-45616213D01*
X64644951Y-45788179D01*
X64548444Y-45977585D01*
X64482753Y-46179760D01*
X64449500Y-46389713D01*
X64449500Y-46602286D01*
X64475816Y-46768443D01*
X64482754Y-46812243D01*
X64540477Y-46989896D01*
X64548444Y-47014414D01*
X64644951Y-47203820D01*
X64769890Y-47375786D01*
X64920213Y-47526109D01*
X65092182Y-47651050D01*
X65100946Y-47655516D01*
X65151742Y-47703491D01*
X65168536Y-47771312D01*
X65145998Y-47837447D01*
X65100946Y-47876484D01*
X65092182Y-47880949D01*
X64920213Y-48005890D01*
X64769890Y-48156213D01*
X64644951Y-48328179D01*
X64548444Y-48517585D01*
X64482753Y-48719760D01*
X64449500Y-48929713D01*
X64449500Y-49142286D01*
X64475816Y-49308443D01*
X64482754Y-49352243D01*
X64540477Y-49529896D01*
X64548444Y-49554414D01*
X64644951Y-49743820D01*
X64769890Y-49915786D01*
X64920213Y-50066109D01*
X65092182Y-50191050D01*
X65100946Y-50195516D01*
X65151742Y-50243491D01*
X65168536Y-50311312D01*
X65145998Y-50377447D01*
X65100946Y-50416484D01*
X65092182Y-50420949D01*
X64920213Y-50545890D01*
X64769890Y-50696213D01*
X64644951Y-50868179D01*
X64548444Y-51057585D01*
X64482753Y-51259760D01*
X64449500Y-51469713D01*
X64449500Y-51682286D01*
X64475816Y-51848443D01*
X64482754Y-51892243D01*
X64540477Y-52069896D01*
X64548444Y-52094414D01*
X64644951Y-52283820D01*
X64769890Y-52455786D01*
X64920213Y-52606109D01*
X65092182Y-52731050D01*
X65100946Y-52735516D01*
X65151742Y-52783491D01*
X65168536Y-52851312D01*
X65145998Y-52917447D01*
X65100946Y-52956484D01*
X65092182Y-52960949D01*
X64920213Y-53085890D01*
X64769890Y-53236213D01*
X64644951Y-53408179D01*
X64548444Y-53597585D01*
X64482753Y-53799760D01*
X64449500Y-54009713D01*
X64449500Y-54222286D01*
X64480378Y-54417246D01*
X64482754Y-54432243D01*
X64512804Y-54524728D01*
X64548444Y-54634414D01*
X64644951Y-54823820D01*
X64769890Y-54995786D01*
X64920213Y-55146109D01*
X65092182Y-55271050D01*
X65100946Y-55275516D01*
X65151742Y-55323491D01*
X65168536Y-55391312D01*
X65145998Y-55457447D01*
X65100946Y-55496484D01*
X65092182Y-55500949D01*
X64920213Y-55625890D01*
X64769890Y-55776213D01*
X64644951Y-55948179D01*
X64548444Y-56137585D01*
X64482753Y-56339760D01*
X64449500Y-56549713D01*
X64449500Y-56762286D01*
X64473118Y-56911408D01*
X64482754Y-56972243D01*
X64512804Y-57064728D01*
X64548444Y-57174414D01*
X64644951Y-57363820D01*
X64769890Y-57535786D01*
X64920213Y-57686109D01*
X65092179Y-57811048D01*
X65092181Y-57811049D01*
X65092184Y-57811051D01*
X65281588Y-57907557D01*
X65483757Y-57973246D01*
X65693713Y-58006500D01*
X65693714Y-58006500D01*
X65906286Y-58006500D01*
X65906287Y-58006500D01*
X66116243Y-57973246D01*
X66318412Y-57907557D01*
X66507816Y-57811051D01*
X66550691Y-57779901D01*
X66679786Y-57686109D01*
X66679788Y-57686106D01*
X66679792Y-57686104D01*
X66830104Y-57535792D01*
X66830106Y-57535788D01*
X66830109Y-57535786D01*
X66955048Y-57363820D01*
X66955047Y-57363820D01*
X66955051Y-57363816D01*
X67051557Y-57174412D01*
X67117246Y-56972243D01*
X67150500Y-56762287D01*
X67150500Y-56549713D01*
X67117246Y-56339757D01*
X67051557Y-56137588D01*
X66955051Y-55948184D01*
X66955049Y-55948181D01*
X66955048Y-55948179D01*
X66830109Y-55776213D01*
X66679786Y-55625890D01*
X66507820Y-55500951D01*
X66507115Y-55500591D01*
X66499054Y-55496485D01*
X66448259Y-55448512D01*
X66431463Y-55380692D01*
X66453999Y-55314556D01*
X66499054Y-55275515D01*
X66507816Y-55271051D01*
X66550691Y-55239901D01*
X66679786Y-55146109D01*
X66679788Y-55146106D01*
X66679792Y-55146104D01*
X66830104Y-54995792D01*
X66830106Y-54995788D01*
X66830109Y-54995786D01*
X66955048Y-54823820D01*
X66955047Y-54823820D01*
X66955051Y-54823816D01*
X67051557Y-54634412D01*
X67117246Y-54432243D01*
X67150500Y-54222287D01*
X67150500Y-54009713D01*
X67117246Y-53799757D01*
X67051557Y-53597588D01*
X66955051Y-53408184D01*
X66955049Y-53408181D01*
X66955048Y-53408179D01*
X66830109Y-53236213D01*
X66679786Y-53085890D01*
X66507820Y-52960951D01*
X66507115Y-52960591D01*
X66499054Y-52956485D01*
X66448259Y-52908512D01*
X66431463Y-52840692D01*
X66453999Y-52774556D01*
X66499054Y-52735515D01*
X66507816Y-52731051D01*
X66529789Y-52715086D01*
X66679786Y-52606109D01*
X66679788Y-52606106D01*
X66679792Y-52606104D01*
X66830104Y-52455792D01*
X66830106Y-52455788D01*
X66830109Y-52455786D01*
X66955048Y-52283820D01*
X66955047Y-52283820D01*
X66955051Y-52283816D01*
X67051557Y-52094412D01*
X67117246Y-51892243D01*
X67150500Y-51682287D01*
X67150500Y-51469713D01*
X67117246Y-51259757D01*
X67051557Y-51057588D01*
X66955051Y-50868184D01*
X66955049Y-50868181D01*
X66955048Y-50868179D01*
X66830109Y-50696213D01*
X66679786Y-50545890D01*
X66507820Y-50420951D01*
X66507115Y-50420591D01*
X66499054Y-50416485D01*
X66448259Y-50368512D01*
X66431463Y-50300692D01*
X66453999Y-50234556D01*
X66499054Y-50195515D01*
X66507816Y-50191051D01*
X66529789Y-50175086D01*
X66679786Y-50066109D01*
X66679788Y-50066106D01*
X66679792Y-50066104D01*
X66830104Y-49915792D01*
X66830106Y-49915788D01*
X66830109Y-49915786D01*
X66955048Y-49743820D01*
X66955047Y-49743820D01*
X66955051Y-49743816D01*
X67051557Y-49554412D01*
X67117246Y-49352243D01*
X67150500Y-49142287D01*
X67150500Y-48929713D01*
X67117246Y-48719757D01*
X67051557Y-48517588D01*
X66955051Y-48328184D01*
X66955049Y-48328181D01*
X66955048Y-48328179D01*
X66830109Y-48156213D01*
X66679786Y-48005890D01*
X66507820Y-47880951D01*
X66507115Y-47880591D01*
X66499054Y-47876485D01*
X66448259Y-47828512D01*
X66431463Y-47760692D01*
X66453999Y-47694556D01*
X66499054Y-47655515D01*
X66507816Y-47651051D01*
X66529789Y-47635086D01*
X66679786Y-47526109D01*
X66679788Y-47526106D01*
X66679792Y-47526104D01*
X66830104Y-47375792D01*
X66830106Y-47375788D01*
X66830109Y-47375786D01*
X66955048Y-47203820D01*
X66955047Y-47203820D01*
X66955051Y-47203816D01*
X67051557Y-47014412D01*
X67117246Y-46812243D01*
X67150500Y-46602287D01*
X67150500Y-46389713D01*
X67117246Y-46179757D01*
X67051557Y-45977588D01*
X66955051Y-45788184D01*
X66955049Y-45788181D01*
X66955048Y-45788179D01*
X66830109Y-45616213D01*
X66679786Y-45465890D01*
X66507820Y-45340951D01*
X66507115Y-45340591D01*
X66499054Y-45336485D01*
X66448259Y-45288512D01*
X66431463Y-45220692D01*
X66453999Y-45154556D01*
X66499054Y-45115515D01*
X66507816Y-45111051D01*
X66529789Y-45095086D01*
X66679786Y-44986109D01*
X66679788Y-44986106D01*
X66679792Y-44986104D01*
X66830104Y-44835792D01*
X66830106Y-44835788D01*
X66830109Y-44835786D01*
X66955048Y-44663820D01*
X66955047Y-44663820D01*
X66955051Y-44663816D01*
X67051557Y-44474412D01*
X67117246Y-44272243D01*
X67150500Y-44062287D01*
X67150500Y-43849713D01*
X67117246Y-43639757D01*
X67051557Y-43437588D01*
X66955051Y-43248184D01*
X66955049Y-43248181D01*
X66955048Y-43248179D01*
X66830109Y-43076213D01*
X66679786Y-42925890D01*
X66507817Y-42800949D01*
X66498504Y-42796204D01*
X66447707Y-42748230D01*
X66430912Y-42680409D01*
X66453449Y-42614274D01*
X66498507Y-42575232D01*
X66507555Y-42570622D01*
X66561716Y-42531270D01*
X66561717Y-42531270D01*
X65929408Y-41898962D01*
X65992993Y-41881925D01*
X66107007Y-41816099D01*
X66200099Y-41723007D01*
X66265925Y-41608993D01*
X66282962Y-41545408D01*
X66915270Y-42177717D01*
X66915270Y-42177716D01*
X66954622Y-42123554D01*
X67051095Y-41934217D01*
X67116757Y-41732130D01*
X67116757Y-41732127D01*
X67150000Y-41522246D01*
X67150000Y-41309753D01*
X67116757Y-41099872D01*
X67116757Y-41099869D01*
X67051095Y-40897782D01*
X66954624Y-40708449D01*
X66915270Y-40654282D01*
X66915269Y-40654282D01*
X66282962Y-41286590D01*
X66265925Y-41223007D01*
X66200099Y-41108993D01*
X66107007Y-41015901D01*
X65992993Y-40950075D01*
X65929409Y-40933037D01*
X66561716Y-40300728D01*
X66507547Y-40261373D01*
X66507547Y-40261372D01*
X66498500Y-40256763D01*
X66447706Y-40208788D01*
X66430912Y-40140966D01*
X66453451Y-40074832D01*
X66498508Y-40035793D01*
X66507816Y-40031051D01*
X66587007Y-39973515D01*
X66679786Y-39906109D01*
X66679788Y-39906106D01*
X66679792Y-39906104D01*
X66830104Y-39755792D01*
X66830106Y-39755788D01*
X66830109Y-39755786D01*
X66955048Y-39583820D01*
X66955047Y-39583820D01*
X66955051Y-39583816D01*
X67051557Y-39394412D01*
X67117246Y-39192243D01*
X67150500Y-38982287D01*
X67150500Y-38769713D01*
X67117246Y-38559757D01*
X67051557Y-38357588D01*
X66955051Y-38168184D01*
X66955049Y-38168181D01*
X66955048Y-38168179D01*
X66830109Y-37996213D01*
X66679786Y-37845890D01*
X66507820Y-37720951D01*
X66507115Y-37720591D01*
X66499054Y-37716485D01*
X66448259Y-37668512D01*
X66431463Y-37600692D01*
X66453999Y-37534556D01*
X66499054Y-37495515D01*
X66507816Y-37491051D01*
X66529789Y-37475086D01*
X66679786Y-37366109D01*
X66679788Y-37366106D01*
X66679792Y-37366104D01*
X66830104Y-37215792D01*
X66830106Y-37215788D01*
X66830109Y-37215786D01*
X66955048Y-37043820D01*
X66955047Y-37043820D01*
X66955051Y-37043816D01*
X67051557Y-36854412D01*
X67117246Y-36652243D01*
X67150500Y-36442287D01*
X67150500Y-36229713D01*
X67117246Y-36019757D01*
X67051557Y-35817588D01*
X66955051Y-35628184D01*
X66955049Y-35628181D01*
X66955048Y-35628179D01*
X66830109Y-35456213D01*
X66716569Y-35342673D01*
X66683084Y-35281350D01*
X66688068Y-35211658D01*
X66729940Y-35155725D01*
X66760915Y-35138810D01*
X66892331Y-35089796D01*
X67007546Y-35003546D01*
X67093796Y-34888331D01*
X67144091Y-34753483D01*
X67150500Y-34693873D01*
X67150499Y-32898128D01*
X67144091Y-32838517D01*
X67093796Y-32703669D01*
X67093795Y-32703668D01*
X67093793Y-32703664D01*
X67007547Y-32588455D01*
X67007544Y-32588452D01*
X66892335Y-32502206D01*
X66892328Y-32502202D01*
X66757482Y-32451908D01*
X66757483Y-32451908D01*
X66697883Y-32445501D01*
X66697881Y-32445500D01*
X66697873Y-32445500D01*
X66697864Y-32445500D01*
X64902129Y-32445500D01*
X64902123Y-32445501D01*
X64842516Y-32451908D01*
X64707671Y-32502202D01*
X64707664Y-32502206D01*
X64592455Y-32588452D01*
X64592452Y-32588455D01*
X64506206Y-32703664D01*
X64506202Y-32703671D01*
X64455908Y-32838517D01*
X64449501Y-32898116D01*
X64449501Y-32898123D01*
X64449500Y-32898135D01*
X15500500Y-32898135D01*
X15500500Y-19003051D01*
X15500649Y-18996967D01*
X15503737Y-18934108D01*
X15507399Y-18859568D01*
X21499500Y-18859568D01*
X21499500Y-19140431D01*
X21530942Y-19419494D01*
X21530945Y-19419512D01*
X21593439Y-19693317D01*
X21593443Y-19693329D01*
X21686200Y-19958411D01*
X21808053Y-20211442D01*
X21808055Y-20211445D01*
X21957477Y-20449248D01*
X22132584Y-20668825D01*
X22331175Y-20867416D01*
X22550752Y-21042523D01*
X22788555Y-21191945D01*
X23041592Y-21313801D01*
X23240680Y-21383465D01*
X23306670Y-21406556D01*
X23306682Y-21406560D01*
X23580491Y-21469055D01*
X23580497Y-21469055D01*
X23580505Y-21469057D01*
X23766547Y-21490018D01*
X23859569Y-21500499D01*
X23859572Y-21500500D01*
X23859575Y-21500500D01*
X24140428Y-21500500D01*
X24140429Y-21500499D01*
X24283055Y-21484429D01*
X24419494Y-21469057D01*
X24419499Y-21469056D01*
X24419509Y-21469055D01*
X24693318Y-21406560D01*
X24958408Y-21313801D01*
X25211445Y-21191945D01*
X25389056Y-21080344D01*
X30100000Y-21080344D01*
X30106401Y-21139872D01*
X30106403Y-21139879D01*
X30156645Y-21274586D01*
X30156649Y-21274593D01*
X30242809Y-21389687D01*
X30242812Y-21389690D01*
X30357906Y-21475850D01*
X30357913Y-21475854D01*
X30492620Y-21526096D01*
X30492627Y-21526098D01*
X30552155Y-21532499D01*
X30552172Y-21532500D01*
X31100000Y-21532500D01*
X31600000Y-21532500D01*
X32147828Y-21532500D01*
X32147844Y-21532499D01*
X32207372Y-21526098D01*
X32207379Y-21526096D01*
X32342086Y-21475854D01*
X32342093Y-21475850D01*
X32457187Y-21389690D01*
X32457190Y-21389687D01*
X32543350Y-21274593D01*
X32543354Y-21274586D01*
X32593596Y-21139879D01*
X32593598Y-21139872D01*
X32599999Y-21080344D01*
X38600000Y-21080344D01*
X38606401Y-21139872D01*
X38606403Y-21139879D01*
X38656645Y-21274586D01*
X38656649Y-21274593D01*
X38742809Y-21389687D01*
X38742812Y-21389690D01*
X38857906Y-21475850D01*
X38857913Y-21475854D01*
X38992620Y-21526096D01*
X38992627Y-21526098D01*
X39052155Y-21532499D01*
X39052172Y-21532500D01*
X39600000Y-21532500D01*
X40100000Y-21532500D01*
X40647828Y-21532500D01*
X40647844Y-21532499D01*
X40707372Y-21526098D01*
X40707379Y-21526096D01*
X40842086Y-21475854D01*
X40842093Y-21475850D01*
X40957187Y-21389690D01*
X40957190Y-21389687D01*
X41043350Y-21274593D01*
X41043354Y-21274586D01*
X41093596Y-21139879D01*
X41093598Y-21139872D01*
X41099999Y-21080344D01*
X41100000Y-21080327D01*
X41100000Y-18859568D01*
X54499500Y-18859568D01*
X54499500Y-19140431D01*
X54530942Y-19419494D01*
X54530945Y-19419512D01*
X54593439Y-19693317D01*
X54593443Y-19693329D01*
X54686200Y-19958411D01*
X54808053Y-20211442D01*
X54808055Y-20211445D01*
X54957477Y-20449248D01*
X55132584Y-20668825D01*
X55331175Y-20867416D01*
X55550752Y-21042523D01*
X55788555Y-21191945D01*
X56041592Y-21313801D01*
X56240680Y-21383465D01*
X56306670Y-21406556D01*
X56306682Y-21406560D01*
X56580491Y-21469055D01*
X56580497Y-21469055D01*
X56580505Y-21469057D01*
X56766547Y-21490018D01*
X56859569Y-21500499D01*
X56859572Y-21500500D01*
X56859575Y-21500500D01*
X57140428Y-21500500D01*
X57140429Y-21500499D01*
X57283055Y-21484429D01*
X57419494Y-21469057D01*
X57419499Y-21469056D01*
X57419509Y-21469055D01*
X57693318Y-21406560D01*
X57958408Y-21313801D01*
X58211445Y-21191945D01*
X58449248Y-21042523D01*
X58668825Y-20867416D01*
X58867416Y-20668825D01*
X59042523Y-20449248D01*
X59191945Y-20211445D01*
X59313801Y-19958408D01*
X59406560Y-19693318D01*
X59469055Y-19419509D01*
X59500500Y-19140425D01*
X59500500Y-18859575D01*
X59483086Y-18705021D01*
X59469057Y-18580505D01*
X59469054Y-18580487D01*
X59406560Y-18306682D01*
X59406556Y-18306670D01*
X59383465Y-18240680D01*
X59313801Y-18041592D01*
X59191945Y-17788555D01*
X59042523Y-17550752D01*
X58867416Y-17331175D01*
X58668825Y-17132584D01*
X58637438Y-17107554D01*
X58566388Y-17050893D01*
X58449248Y-16957477D01*
X58211445Y-16808055D01*
X58211442Y-16808053D01*
X57958411Y-16686200D01*
X57693329Y-16593443D01*
X57693317Y-16593439D01*
X57419512Y-16530945D01*
X57419494Y-16530942D01*
X57140431Y-16499500D01*
X57140425Y-16499500D01*
X56859575Y-16499500D01*
X56859568Y-16499500D01*
X56580505Y-16530942D01*
X56580487Y-16530945D01*
X56306682Y-16593439D01*
X56306670Y-16593443D01*
X56041588Y-16686200D01*
X55788557Y-16808053D01*
X55550753Y-16957476D01*
X55331175Y-17132583D01*
X55132583Y-17331175D01*
X54957476Y-17550753D01*
X54808053Y-17788557D01*
X54686200Y-18041588D01*
X54593443Y-18306670D01*
X54593439Y-18306682D01*
X54530945Y-18580487D01*
X54530942Y-18580505D01*
X54499500Y-18859568D01*
X41100000Y-18859568D01*
X41100000Y-18742500D01*
X40100000Y-18742500D01*
X40100000Y-21532500D01*
X39600000Y-21532500D01*
X39600000Y-18742500D01*
X38600000Y-18742500D01*
X38600000Y-21080344D01*
X32599999Y-21080344D01*
X32600000Y-21080327D01*
X32600000Y-18742500D01*
X31600000Y-18742500D01*
X31600000Y-21532500D01*
X31100000Y-21532500D01*
X31100000Y-18742500D01*
X30100000Y-18742500D01*
X30100000Y-21080344D01*
X25389056Y-21080344D01*
X25449248Y-21042523D01*
X25668825Y-20867416D01*
X25867416Y-20668825D01*
X26042523Y-20449248D01*
X26191945Y-20211445D01*
X26313801Y-19958408D01*
X26406560Y-19693318D01*
X26469055Y-19419509D01*
X26500500Y-19140425D01*
X26500500Y-18859575D01*
X26497288Y-18831071D01*
X26483087Y-18705021D01*
X26472895Y-18614573D01*
X26469055Y-18580491D01*
X26406560Y-18306682D01*
X26313801Y-18041592D01*
X26191945Y-17788555D01*
X26042523Y-17550752D01*
X25867416Y-17331175D01*
X25668825Y-17132584D01*
X25637438Y-17107554D01*
X25566388Y-17050893D01*
X25449248Y-16957477D01*
X25211445Y-16808055D01*
X25211442Y-16808053D01*
X24958411Y-16686200D01*
X24693329Y-16593443D01*
X24693317Y-16593439D01*
X24419512Y-16530945D01*
X24419494Y-16530942D01*
X24140431Y-16499500D01*
X24140425Y-16499500D01*
X23859575Y-16499500D01*
X23859568Y-16499500D01*
X23580505Y-16530942D01*
X23580487Y-16530945D01*
X23306682Y-16593439D01*
X23306670Y-16593443D01*
X23041588Y-16686200D01*
X22788557Y-16808053D01*
X22550753Y-16957476D01*
X22331175Y-17132583D01*
X22132583Y-17331175D01*
X21957476Y-17550753D01*
X21808053Y-17788557D01*
X21686200Y-18041588D01*
X21593443Y-18306670D01*
X21593439Y-18306682D01*
X21530945Y-18580487D01*
X21530942Y-18580505D01*
X21499500Y-18859568D01*
X15507399Y-18859568D01*
X15517052Y-18663066D01*
X15518245Y-18650962D01*
X15551590Y-18426166D01*
X15566849Y-18323296D01*
X15569218Y-18311385D01*
X15649710Y-17990043D01*
X15653240Y-17978411D01*
X15721171Y-17788557D01*
X15764835Y-17666525D01*
X15769476Y-17655318D01*
X15911124Y-17355828D01*
X15916840Y-17345136D01*
X16087145Y-17060998D01*
X16093888Y-17050905D01*
X16291232Y-16784818D01*
X16298935Y-16775433D01*
X16521405Y-16529975D01*
X16529975Y-16521405D01*
X16775433Y-16298935D01*
X16784818Y-16291232D01*
X17050905Y-16093888D01*
X17060998Y-16087145D01*
X17345136Y-15916840D01*
X17355828Y-15911124D01*
X17655318Y-15769476D01*
X17666525Y-15764835D01*
X17978412Y-15653239D01*
X17990043Y-15649710D01*
X18311385Y-15569218D01*
X18323296Y-15566849D01*
X18650962Y-15518244D01*
X18663068Y-15517052D01*
X18996967Y-15500648D01*
X19003051Y-15500500D01*
X19065892Y-15500500D01*
X30066064Y-15500500D01*
X30133103Y-15520185D01*
G37*
%TD.AperFunction*%
%TD*%
M02*
