%TF.GenerationSoftware,KiCad,Pcbnew,9.0.4*%
%TF.CreationDate,2025-12-01T13:25:47+09:00*%
%TF.ProjectId,Handy_LoRa,48616e64-795f-44c6-9f52-612e6b696361,rev?*%
%TF.SameCoordinates,Original*%
%TF.FileFunction,Copper,L1,Top*%
%TF.FilePolarity,Positive*%
%FSLAX46Y46*%
G04 Gerber Fmt 4.6, Leading zero omitted, Abs format (unit mm)*
G04 Created by KiCad (PCBNEW 9.0.4) date 2025-12-01 13:25:47*
%MOMM*%
%LPD*%
G01*
G04 APERTURE LIST*
G04 Aperture macros list*
%AMRoundRect*
0 Rectangle with rounded corners*
0 $1 Rounding radius*
0 $2 $3 $4 $5 $6 $7 $8 $9 X,Y pos of 4 corners*
0 Add a 4 corners polygon primitive as box body*
4,1,4,$2,$3,$4,$5,$6,$7,$8,$9,$2,$3,0*
0 Add four circle primitives for the rounded corners*
1,1,$1+$1,$2,$3*
1,1,$1+$1,$4,$5*
1,1,$1+$1,$6,$7*
1,1,$1+$1,$8,$9*
0 Add four rect primitives between the rounded corners*
20,1,$1+$1,$2,$3,$4,$5,0*
20,1,$1+$1,$4,$5,$6,$7,0*
20,1,$1+$1,$6,$7,$8,$9,0*
20,1,$1+$1,$8,$9,$2,$3,0*%
G04 Aperture macros list end*
%TA.AperFunction,ComponentPad*%
%ADD10R,1.700000X1.700000*%
%TD*%
%TA.AperFunction,ComponentPad*%
%ADD11C,1.700000*%
%TD*%
%TA.AperFunction,SMDPad,CuDef*%
%ADD12RoundRect,0.218750X-0.218750X-0.256250X0.218750X-0.256250X0.218750X0.256250X-0.218750X0.256250X0*%
%TD*%
%TA.AperFunction,SMDPad,CuDef*%
%ADD13RoundRect,0.225000X0.225000X0.250000X-0.225000X0.250000X-0.225000X-0.250000X0.225000X-0.250000X0*%
%TD*%
%TA.AperFunction,SMDPad,CuDef*%
%ADD14RoundRect,0.225000X-0.225000X-0.250000X0.225000X-0.250000X0.225000X0.250000X-0.225000X0.250000X0*%
%TD*%
%TA.AperFunction,SMDPad,CuDef*%
%ADD15R,1.500000X1.000000*%
%TD*%
%TA.AperFunction,SMDPad,CuDef*%
%ADD16R,1.500000X5.080000*%
%TD*%
%TA.AperFunction,ViaPad*%
%ADD17C,0.600000*%
%TD*%
%TA.AperFunction,Conductor*%
%ADD18C,0.500000*%
%TD*%
%TA.AperFunction,Conductor*%
%ADD19C,0.200000*%
%TD*%
%TA.AperFunction,Conductor*%
%ADD20C,1.000000*%
%TD*%
G04 APERTURE END LIST*
D10*
%TO.P,J4,1,Pin_1*%
%TO.N,unconnected-(J4-Pin_1-Pad1)*%
X65800000Y-33796000D03*
D11*
%TO.P,J4,2,Pin_2*%
%TO.N,unconnected-(J4-Pin_2-Pad2)*%
X65800000Y-36336000D03*
%TO.P,J4,3,Pin_3*%
%TO.N,unconnected-(J4-Pin_3-Pad3)*%
X65800000Y-38876000D03*
%TO.P,J4,4,Pin_4*%
%TO.N,GND*%
X65800000Y-41416000D03*
%TO.P,J4,5,Pin_5*%
%TO.N,Net-(J4-Pin_5)*%
X65800000Y-43956000D03*
%TO.P,J4,6,Pin_6*%
%TO.N,Net-(J4-Pin_6)*%
X65800000Y-46496000D03*
%TO.P,J4,7,Pin_7*%
%TO.N,Net-(J4-Pin_7)*%
X65800000Y-49036000D03*
%TO.P,J4,8,Pin_8*%
%TO.N,unconnected-(J4-Pin_8-Pad8)*%
X65800000Y-51576000D03*
%TO.P,J4,9,Pin_9*%
%TO.N,unconnected-(J4-Pin_9-Pad9)*%
X65800000Y-54116000D03*
%TO.P,J4,10,Pin_10*%
%TO.N,Net-(J4-Pin_10)*%
X65800000Y-56656000D03*
%TD*%
D12*
%TO.P,L1,1,1*%
%TO.N,Net-(J5-In)*%
X35625000Y-27225000D03*
%TO.P,L1,2,2*%
%TO.N,GND*%
X37200000Y-27225000D03*
%TD*%
D13*
%TO.P,C1,1*%
%TO.N,Net-(C1-Pad1)*%
X37250000Y-24550000D03*
%TO.P,C1,2*%
%TO.N,Net-(J5-In)*%
X35700000Y-24550000D03*
%TD*%
D10*
%TO.P,J2,1,Pin_1*%
%TO.N,unconnected-(J2-Pin_1-Pad1)*%
X17540000Y-60720000D03*
D11*
%TO.P,J2,2,Pin_2*%
%TO.N,GND*%
X17540000Y-58180000D03*
%TO.P,J2,3,Pin_3*%
X17540000Y-55640000D03*
%TO.P,J2,4,Pin_4*%
%TO.N,unconnected-(J2-Pin_4-Pad4)*%
X17540000Y-53100000D03*
%TO.P,J2,5,Pin_5*%
%TO.N,Net-(J2-Pin_5)*%
X17540000Y-50560000D03*
%TO.P,J2,6,Pin_6*%
%TO.N,Net-(J2-Pin_6)*%
X17540000Y-48020000D03*
%TO.P,J2,7,Pin_7*%
%TO.N,unconnected-(J2-Pin_7-Pad7)*%
X17540000Y-45480000D03*
%TO.P,J2,8,Pin_8*%
%TO.N,unconnected-(J2-Pin_8-Pad8)*%
X17540000Y-42940000D03*
%TD*%
D10*
%TO.P,J3,1,Pin_1*%
%TO.N,Net-(J3-Pin_1)*%
X65800000Y-60720000D03*
D11*
%TO.P,J3,2,Pin_2*%
%TO.N,Net-(J3-Pin_2)*%
X65800000Y-63260000D03*
%TO.P,J3,3,Pin_3*%
%TO.N,Net-(J3-Pin_3)*%
X65800000Y-65800000D03*
%TO.P,J3,4,Pin_4*%
%TO.N,Net-(J3-Pin_4)*%
X65800000Y-68340000D03*
%TO.P,J3,5,Pin_5*%
%TO.N,Net-(J3-Pin_5)*%
X65800000Y-70880000D03*
%TO.P,J3,6,Pin_6*%
%TO.N,Net-(J3-Pin_6)*%
X65800000Y-73420000D03*
%TO.P,J3,7,Pin_7*%
%TO.N,unconnected-(J3-Pin_7-Pad7)*%
X65800000Y-75960000D03*
%TO.P,J3,8,Pin_8*%
%TO.N,unconnected-(J3-Pin_8-Pad8)*%
X65800000Y-78500000D03*
%TD*%
D14*
%TO.P,C2,1*%
%TO.N,Net-(C1-Pad1)*%
X40400000Y-24550000D03*
%TO.P,C2,2*%
%TO.N,GND*%
X41950000Y-24550000D03*
%TD*%
D15*
%TO.P,MOD1,1,ANT*%
%TO.N,Net-(J5-In)*%
X35575000Y-50675000D03*
%TO.P,MOD1,2,GND*%
%TO.N,GND*%
X35575000Y-52675000D03*
%TO.P,MOD1,3,3.3V*%
%TO.N,Net-(J2-Pin_5)*%
X35575000Y-54675000D03*
%TO.P,MOD1,4,RESET*%
%TO.N,Net-(J2-Pin_6)*%
X35575000Y-56675000D03*
%TO.P,MOD1,5,DIO0*%
%TO.N,Net-(J3-Pin_6)*%
X35575000Y-58675000D03*
%TO.P,MOD1,6,DIO1*%
%TO.N,Net-(J3-Pin_5)*%
X35575000Y-60675000D03*
%TO.P,MOD1,7,DIO2*%
%TO.N,Net-(J3-Pin_4)*%
X35575000Y-62675000D03*
%TO.P,MOD1,8,DIO3*%
%TO.N,Net-(J3-Pin_3)*%
X35575000Y-64675000D03*
%TO.P,MOD1,9,GND@2*%
%TO.N,GND*%
X51575000Y-64675000D03*
%TO.P,MOD1,10,DIO4*%
%TO.N,Net-(J3-Pin_2)*%
X51575000Y-62675000D03*
%TO.P,MOD1,11,DIO5*%
%TO.N,Net-(J3-Pin_1)*%
X51575000Y-60675000D03*
%TO.P,MOD1,12,SCK*%
%TO.N,Net-(J4-Pin_5)*%
X51575000Y-58675000D03*
%TO.P,MOD1,13,MISO*%
%TO.N,Net-(J4-Pin_6)*%
X51575000Y-56675000D03*
%TO.P,MOD1,14,MOSI*%
%TO.N,Net-(J4-Pin_7)*%
X51575000Y-54675000D03*
%TO.P,MOD1,15,NSS*%
%TO.N,Net-(J4-Pin_10)*%
X51575000Y-52675000D03*
%TO.P,MOD1,16,GND@3*%
%TO.N,GND*%
X51575000Y-50675000D03*
%TD*%
D16*
%TO.P,J5,1,In*%
%TO.N,Net-(J5-In)*%
X35600000Y-18492500D03*
%TO.P,J5,2,Ext*%
%TO.N,GND*%
X31350000Y-18492500D03*
X39850000Y-18492500D03*
%TD*%
D10*
%TO.P,J1,1,Pin_1*%
%TO.N,unconnected-(J1-Pin_1-Pad1)*%
X17540000Y-65800000D03*
D11*
%TO.P,J1,2,Pin_2*%
%TO.N,unconnected-(J1-Pin_2-Pad2)*%
X17540000Y-68340000D03*
%TO.P,J1,3,Pin_3*%
%TO.N,unconnected-(J1-Pin_3-Pad3)*%
X17540000Y-70880000D03*
%TO.P,J1,4,Pin_4*%
%TO.N,unconnected-(J1-Pin_4-Pad4)*%
X17540000Y-73420000D03*
%TO.P,J1,5,Pin_5*%
%TO.N,unconnected-(J1-Pin_5-Pad5)*%
X17540000Y-75960000D03*
%TO.P,J1,6,Pin_6*%
%TO.N,unconnected-(J1-Pin_6-Pad6)*%
X17540000Y-78500000D03*
%TD*%
D17*
%TO.N,GND*%
X66000000Y-32000000D03*
X65000000Y-32000000D03*
X66000000Y-31000000D03*
X65000000Y-31000000D03*
X63000000Y-32000000D03*
X62000000Y-32000000D03*
X61000000Y-32000000D03*
X60000000Y-32000000D03*
X59000000Y-32000000D03*
X58000000Y-32000000D03*
X63000000Y-59000000D03*
X62000000Y-59000000D03*
X61000000Y-59000000D03*
X61000000Y-58000000D03*
X62000000Y-58000000D03*
X63000000Y-58000000D03*
X64000000Y-58000000D03*
X64000000Y-55000000D03*
X64000000Y-52000000D03*
X64000000Y-53000000D03*
X64000000Y-54000000D03*
X63000000Y-54000000D03*
X62000000Y-54000000D03*
X61000000Y-54000000D03*
X61000000Y-55000000D03*
X60000000Y-55000000D03*
X59000000Y-55000000D03*
X60000000Y-54000000D03*
X60000000Y-53000000D03*
X60000000Y-52000000D03*
X64000000Y-51000000D03*
X60000000Y-51000000D03*
X61000000Y-51000000D03*
X62000000Y-51000000D03*
X63000000Y-51000000D03*
X64000000Y-50000000D03*
X63000000Y-50000000D03*
X62000000Y-50000000D03*
X61000000Y-50000000D03*
X60000000Y-50000000D03*
X60000000Y-43000000D03*
X59000000Y-43000000D03*
X58000000Y-43000000D03*
X57000000Y-43000000D03*
X56000000Y-43000000D03*
X55000000Y-43000000D03*
X53000000Y-43000000D03*
X54000000Y-43000000D03*
X52000000Y-43000000D03*
X51000000Y-43000000D03*
X49000000Y-43000000D03*
X50000000Y-43000000D03*
X48000000Y-43000000D03*
X57000000Y-42000000D03*
X56000000Y-42000000D03*
X55000000Y-42000000D03*
X54000000Y-42000000D03*
X53000000Y-42000000D03*
X52000000Y-42000000D03*
X51000000Y-42000000D03*
X50000000Y-42000000D03*
X49000000Y-42000000D03*
X64000000Y-43000000D03*
X64000000Y-42000000D03*
X63000000Y-42000000D03*
X62000000Y-42000000D03*
X61000000Y-42000000D03*
X59120000Y-41960000D03*
X60120000Y-36960000D03*
X58120000Y-39960000D03*
X61120000Y-34960000D03*
X61120000Y-36960000D03*
X58120000Y-40960000D03*
X59120000Y-40960000D03*
X63120000Y-34960000D03*
X58120000Y-36960000D03*
X59120000Y-34960000D03*
X60120000Y-40960000D03*
X60120000Y-34960000D03*
X62120000Y-34960000D03*
X58120000Y-34960000D03*
X59120000Y-36960000D03*
X60120000Y-41960000D03*
X58120000Y-41960000D03*
X63120000Y-36960000D03*
X62120000Y-36960000D03*
X59120000Y-39960000D03*
X60120000Y-39960000D03*
X39000000Y-54000000D03*
X36000000Y-75000000D03*
X41000000Y-64000000D03*
X29000000Y-59000000D03*
X32000000Y-77000000D03*
X64000000Y-18000000D03*
X43000000Y-19000000D03*
X38000000Y-46000000D03*
X46000000Y-80000000D03*
X43000000Y-77000000D03*
X24000000Y-36000000D03*
X55000000Y-23000000D03*
X54000000Y-24000000D03*
X37000000Y-82000000D03*
X67000000Y-28000000D03*
X25000000Y-16000000D03*
X57000000Y-59000000D03*
X22000000Y-22000000D03*
X34000000Y-41000000D03*
X52000000Y-76000000D03*
X43000000Y-24000000D03*
X27000000Y-21000000D03*
X50000000Y-23000000D03*
X38000000Y-31000000D03*
X44000000Y-34000000D03*
X25000000Y-46000000D03*
X53000000Y-21000000D03*
X43000000Y-46000000D03*
X49860000Y-63010000D03*
X28000000Y-50000000D03*
X38000000Y-50000000D03*
X64000000Y-77000000D03*
X41000000Y-37000000D03*
X27000000Y-48000000D03*
X16000000Y-27000000D03*
X32000000Y-73000000D03*
X22000000Y-77000000D03*
X63000000Y-17000000D03*
X49000000Y-36000000D03*
X16000000Y-56000000D03*
X51000000Y-20000000D03*
X27000000Y-19000000D03*
X28000000Y-20000000D03*
X40000000Y-60000000D03*
X34000000Y-28000000D03*
X28000000Y-75000000D03*
X54000000Y-80000000D03*
X16000000Y-51000000D03*
X16000000Y-41000000D03*
X28000000Y-67000000D03*
X41000000Y-51000000D03*
X19000000Y-79000000D03*
X58000000Y-25000000D03*
X63000000Y-19000000D03*
X56000000Y-24000000D03*
X22000000Y-17000000D03*
X39000000Y-79000000D03*
X21000000Y-78000000D03*
X54000000Y-32000000D03*
X64000000Y-41000000D03*
X56000000Y-50000000D03*
X62000000Y-30000000D03*
X18000000Y-30000000D03*
X44000000Y-58000000D03*
X54000000Y-39000000D03*
X42000000Y-39000000D03*
X21000000Y-26000000D03*
X37000000Y-50000000D03*
X43000000Y-21000000D03*
X45000000Y-60000000D03*
X26000000Y-49000000D03*
X41000000Y-34000000D03*
X41000000Y-59000000D03*
X55000000Y-26000000D03*
X44000000Y-44000000D03*
X25000000Y-23000000D03*
X16000000Y-32000000D03*
X38000000Y-21000000D03*
X23000000Y-37000000D03*
X59000000Y-53000000D03*
X27000000Y-42000000D03*
X43000000Y-60000000D03*
X40000000Y-62000000D03*
X28000000Y-24000000D03*
X61000000Y-29000000D03*
X41000000Y-54000000D03*
X17000000Y-64000000D03*
X59000000Y-22000000D03*
X66000000Y-23000000D03*
X48000000Y-62000000D03*
X29000000Y-29000000D03*
X40000000Y-79000000D03*
X45000000Y-16000000D03*
X31000000Y-33000000D03*
X26000000Y-58000000D03*
X17000000Y-30000000D03*
X23000000Y-29000000D03*
X17000000Y-29000000D03*
X21000000Y-62000000D03*
X47000000Y-34000000D03*
X21000000Y-32000000D03*
X53000000Y-30000000D03*
X30000000Y-46000000D03*
X22000000Y-65000000D03*
X24000000Y-67000000D03*
X23000000Y-65000000D03*
X16000000Y-31000000D03*
X28000000Y-66000000D03*
X61000000Y-80000000D03*
X19000000Y-80000000D03*
X56000000Y-28000000D03*
X27000000Y-79000000D03*
X40000000Y-39000000D03*
X29000000Y-37000000D03*
X65000000Y-16000000D03*
X34000000Y-42000000D03*
X45000000Y-40000000D03*
X57000000Y-28000000D03*
X27000000Y-63000000D03*
X16000000Y-49000000D03*
X40000000Y-29000000D03*
X39000000Y-34000000D03*
X42000000Y-34000000D03*
X42000000Y-49000000D03*
X22000000Y-33000000D03*
X29000000Y-51000000D03*
X20000000Y-46000000D03*
X18000000Y-22000000D03*
X17000000Y-38000000D03*
X52000000Y-36000000D03*
X40000000Y-63000000D03*
X25000000Y-67000000D03*
X55000000Y-32000000D03*
X53000000Y-36000000D03*
X51000000Y-26000000D03*
X39000000Y-31000000D03*
X29000000Y-35000000D03*
X53000000Y-16000000D03*
X31000000Y-71000000D03*
X21000000Y-27000000D03*
X58000000Y-58000000D03*
X41000000Y-63000000D03*
X37000000Y-30000000D03*
X29000000Y-28000000D03*
X42000000Y-79000000D03*
X46000000Y-63000000D03*
X58000000Y-29000000D03*
X45000000Y-41000000D03*
X27000000Y-49000000D03*
X66000000Y-27000000D03*
X57000000Y-32000000D03*
X21000000Y-77000000D03*
X26000000Y-31000000D03*
X43000000Y-16000000D03*
X34000000Y-31000000D03*
X42000000Y-26000000D03*
X16000000Y-65000000D03*
X41000000Y-62000000D03*
X18000000Y-82000000D03*
X55000000Y-29000000D03*
X51000000Y-81000000D03*
X24000000Y-35000000D03*
X46000000Y-77000000D03*
X29000000Y-44000000D03*
X26000000Y-73000000D03*
X34000000Y-24000000D03*
X67000000Y-81000000D03*
X52000000Y-41000000D03*
X55000000Y-24000000D03*
X44000000Y-78000000D03*
X30000000Y-24000000D03*
X31000000Y-40000000D03*
X30000000Y-36000000D03*
X59000000Y-29000000D03*
X27000000Y-22000000D03*
X16000000Y-67000000D03*
X56000000Y-38000000D03*
X32000000Y-30000000D03*
X54000000Y-76000000D03*
X32000000Y-37000000D03*
X45000000Y-36000000D03*
X40000000Y-43000000D03*
X46000000Y-43000000D03*
X20000000Y-78000000D03*
X27000000Y-34000000D03*
X52000000Y-80000000D03*
X50000000Y-17000000D03*
X37000000Y-52000000D03*
X37000000Y-75000000D03*
X42000000Y-42000000D03*
X23000000Y-22000000D03*
X44000000Y-27000000D03*
X32000000Y-50000000D03*
X38000000Y-58000000D03*
X32000000Y-38000000D03*
X59000000Y-24000000D03*
X32000000Y-76000000D03*
X30000000Y-44000000D03*
X24000000Y-72000000D03*
X65000000Y-20000000D03*
X21000000Y-21000000D03*
X67000000Y-67000000D03*
X31000000Y-41000000D03*
X56000000Y-35000000D03*
X38000000Y-49000000D03*
X66000000Y-81000000D03*
X30000000Y-30000000D03*
X27000000Y-25000000D03*
X34000000Y-77000000D03*
X44000000Y-61000000D03*
X29000000Y-81000000D03*
X48000000Y-18000000D03*
X67000000Y-59000000D03*
X34000000Y-80000000D03*
X54000000Y-40000000D03*
X56000000Y-36000000D03*
X48000000Y-61000000D03*
X31000000Y-26000000D03*
X45000000Y-33000000D03*
X60000000Y-23000000D03*
X60000000Y-19000000D03*
X29000000Y-30000000D03*
X29000000Y-19000000D03*
X50000000Y-21000000D03*
X25000000Y-64000000D03*
X39000000Y-41000000D03*
X44000000Y-43000000D03*
X57000000Y-75000000D03*
X53000000Y-35000000D03*
X43000000Y-44000000D03*
X31000000Y-77000000D03*
X42000000Y-62000000D03*
X16000000Y-78000000D03*
X56000000Y-75000000D03*
X38000000Y-28000000D03*
X44000000Y-63000000D03*
X45000000Y-58000000D03*
X42000000Y-41000000D03*
X29000000Y-58000000D03*
X31000000Y-23000000D03*
X33000000Y-37000000D03*
X38000000Y-17000000D03*
X23000000Y-59000000D03*
X25000000Y-28000000D03*
X33000000Y-34000000D03*
X42000000Y-46000000D03*
X50000000Y-76000000D03*
X62000000Y-80000000D03*
X19000000Y-33000000D03*
X53000000Y-19000000D03*
X31000000Y-36000000D03*
X20000000Y-39000000D03*
X40000000Y-47000000D03*
X23000000Y-63000000D03*
X19000000Y-34000000D03*
X46000000Y-40000000D03*
X31000000Y-32000000D03*
X43000000Y-26000000D03*
X34000000Y-34000000D03*
X29000000Y-75000000D03*
X64000000Y-22000000D03*
X56000000Y-33000000D03*
X50000000Y-38000000D03*
X27000000Y-39000000D03*
X37000000Y-39000000D03*
X32000000Y-23000000D03*
X22000000Y-78000000D03*
X17000000Y-21000000D03*
X25000000Y-31000000D03*
X16000000Y-62000000D03*
X41000000Y-75000000D03*
X55000000Y-76000000D03*
X46000000Y-36000000D03*
X39000000Y-22000000D03*
X25000000Y-22000000D03*
X23000000Y-67000000D03*
X51000000Y-80000000D03*
X28000000Y-31000000D03*
X56000000Y-23000000D03*
X39000000Y-27000000D03*
X61000000Y-16000000D03*
X24000000Y-71000000D03*
X27000000Y-16000000D03*
X55000000Y-30000000D03*
X22000000Y-29000000D03*
X28000000Y-41000000D03*
X22000000Y-69000000D03*
X55000000Y-78000000D03*
X30000000Y-81000000D03*
X45000000Y-22000000D03*
X55000000Y-82000000D03*
X30000000Y-28000000D03*
X22000000Y-35000000D03*
X47000000Y-21000000D03*
X26000000Y-46000000D03*
X58000000Y-26000000D03*
X47000000Y-25000000D03*
X30000000Y-39000000D03*
X45000000Y-21000000D03*
X27000000Y-33000000D03*
X58000000Y-50000000D03*
X41000000Y-58000000D03*
X50000000Y-41000000D03*
X24000000Y-33000000D03*
X47000000Y-60000000D03*
X26000000Y-78000000D03*
X29000000Y-42000000D03*
X22000000Y-31000000D03*
X28000000Y-63000000D03*
X30000000Y-45000000D03*
X39000000Y-47000000D03*
X49000000Y-25000000D03*
X39000000Y-29000000D03*
X20000000Y-22000000D03*
X35000000Y-80000000D03*
X50000000Y-35000000D03*
X67000000Y-26000000D03*
X28000000Y-82000000D03*
X28000000Y-27000000D03*
X42000000Y-57000000D03*
X26000000Y-38000000D03*
X19000000Y-63000000D03*
X41000000Y-80000000D03*
X39000000Y-35000000D03*
X57500000Y-64500000D03*
X42000000Y-50000000D03*
X17000000Y-33000000D03*
X32000000Y-49000000D03*
X25000000Y-45000000D03*
X41000000Y-82000000D03*
X28000000Y-74000000D03*
X16000000Y-44000000D03*
X24000000Y-66000000D03*
X20000000Y-36000000D03*
X55000000Y-41000000D03*
X16000000Y-50000000D03*
X28000000Y-28000000D03*
X57000000Y-31000000D03*
X24000000Y-70000000D03*
X32000000Y-40000000D03*
X41000000Y-45000000D03*
X53000000Y-23000000D03*
X22000000Y-16000000D03*
X24000000Y-24000000D03*
X56000000Y-30000000D03*
X37000000Y-37000000D03*
X46000000Y-61000000D03*
X59000000Y-31000000D03*
X57000000Y-38000000D03*
X52000000Y-32000000D03*
X61000000Y-24000000D03*
X17000000Y-35000000D03*
X33000000Y-19000000D03*
X58000000Y-75000000D03*
X51000000Y-30000000D03*
X61000000Y-23000000D03*
X45000000Y-42000000D03*
X33000000Y-25000000D03*
X50000000Y-82000000D03*
X36000000Y-82000000D03*
X21000000Y-73000000D03*
X46000000Y-64000000D03*
X46000000Y-23000000D03*
X24000000Y-30000000D03*
X33000000Y-74000000D03*
X67000000Y-19000000D03*
X49000000Y-39000000D03*
X18000000Y-16000000D03*
X16000000Y-80000000D03*
X31000000Y-43000000D03*
X51000000Y-41000000D03*
X42000000Y-52000000D03*
X31000000Y-81000000D03*
X51000000Y-76000000D03*
X24000000Y-58000000D03*
X27000000Y-82000000D03*
X27000000Y-50000000D03*
X58000000Y-28000000D03*
X37000000Y-31000000D03*
X50000000Y-81000000D03*
X45000000Y-27000000D03*
X53000000Y-40000000D03*
X40000000Y-36000000D03*
X21000000Y-67000000D03*
X26000000Y-64000000D03*
X45000000Y-24000000D03*
X45000000Y-45000000D03*
X34000000Y-51000000D03*
X55000000Y-77000000D03*
X39000000Y-61000000D03*
X47000000Y-61000000D03*
X16000000Y-66000000D03*
X37000000Y-62000000D03*
X30000000Y-37000000D03*
X42000000Y-63000000D03*
X33000000Y-52000000D03*
X62000000Y-82000000D03*
X43000000Y-23000000D03*
X38000000Y-45000000D03*
X46000000Y-17000000D03*
X27000000Y-81000000D03*
X48000000Y-40000000D03*
X27000000Y-80000000D03*
X49000000Y-22000000D03*
X37000000Y-35000000D03*
X16000000Y-64000000D03*
X57000000Y-51000000D03*
X42000000Y-33000000D03*
X17000000Y-34000000D03*
X47000000Y-27000000D03*
X36000000Y-81000000D03*
X29000000Y-36000000D03*
X16000000Y-57000000D03*
X22000000Y-72000000D03*
X56000000Y-51000000D03*
X23000000Y-74000000D03*
X49000000Y-40000000D03*
X60000000Y-16000000D03*
X37000000Y-44000000D03*
X66000000Y-26000000D03*
X40000000Y-58000000D03*
X41000000Y-27000000D03*
X39000000Y-58000000D03*
X48000000Y-75000000D03*
X39000000Y-53000000D03*
X42000000Y-59000000D03*
X31000000Y-22000000D03*
X39000000Y-42000000D03*
X36000000Y-76000000D03*
X51000000Y-78000000D03*
X23000000Y-41000000D03*
X51000000Y-18000000D03*
X45000000Y-82000000D03*
X32000000Y-58000000D03*
X66000000Y-82000000D03*
X42000000Y-51000000D03*
X62000000Y-20000000D03*
X24000000Y-69000000D03*
X42000000Y-81000000D03*
X49000000Y-61000000D03*
X58000000Y-31000000D03*
X34000000Y-33000000D03*
X47000000Y-82000000D03*
X20000000Y-55000000D03*
X22000000Y-39000000D03*
X39000000Y-45000000D03*
X67000000Y-23000000D03*
X63000000Y-25000000D03*
X44000000Y-76000000D03*
X39000000Y-82000000D03*
X49000000Y-51000000D03*
X48000000Y-24000000D03*
X47000000Y-18000000D03*
X33000000Y-79000000D03*
X37000000Y-23000000D03*
X54000000Y-78000000D03*
X35000000Y-81000000D03*
X27000000Y-68000000D03*
X44000000Y-32000000D03*
X22000000Y-63000000D03*
X22000000Y-70000000D03*
X54000000Y-81000000D03*
X38000000Y-20000000D03*
X31000000Y-25000000D03*
X51000000Y-24000000D03*
X65000000Y-22000000D03*
X23000000Y-71000000D03*
X33000000Y-35000000D03*
X59000000Y-23000000D03*
X17000000Y-26000000D03*
X42000000Y-16000000D03*
X23000000Y-44000000D03*
X58000000Y-76000000D03*
X59000000Y-50000000D03*
X25000000Y-37000000D03*
X37000000Y-47000000D03*
X36000000Y-78000000D03*
X49000000Y-32000000D03*
X25000000Y-32000000D03*
X57000000Y-34000000D03*
X26000000Y-40000000D03*
X20000000Y-21000000D03*
X22000000Y-21000000D03*
X24000000Y-75000000D03*
X59000000Y-58000000D03*
X53000000Y-82000000D03*
X50000000Y-50000000D03*
X45000000Y-35000000D03*
X28000000Y-62000000D03*
X21000000Y-17000000D03*
X57000000Y-76000000D03*
X52000000Y-22000000D03*
X18000000Y-24000000D03*
X18000000Y-17000000D03*
X19000000Y-62000000D03*
X46000000Y-16000000D03*
X63000000Y-18000000D03*
X41000000Y-81000000D03*
X41000000Y-44000000D03*
X30000000Y-79000000D03*
X48000000Y-21000000D03*
X26000000Y-37000000D03*
X40000000Y-37000000D03*
X43000000Y-50000000D03*
X42000000Y-30000000D03*
X28000000Y-58000000D03*
X50000000Y-24000000D03*
X28000000Y-29000000D03*
X50000000Y-22000000D03*
X37000000Y-59000000D03*
X31000000Y-78000000D03*
X16000000Y-21000000D03*
X26000000Y-72000000D03*
X64000000Y-32000000D03*
X23000000Y-23000000D03*
X39000000Y-76000000D03*
X27000000Y-76000000D03*
X38000000Y-30000000D03*
X32000000Y-53000000D03*
X32000000Y-41000000D03*
X31000000Y-59000000D03*
X55500000Y-64500000D03*
X55000000Y-58000000D03*
X40000000Y-81000000D03*
X20000000Y-69000000D03*
X47000000Y-43000000D03*
X62000000Y-29000000D03*
X28000000Y-19000000D03*
X20000000Y-72000000D03*
X44000000Y-16000000D03*
X27000000Y-58000000D03*
X26000000Y-27000000D03*
X29000000Y-23000000D03*
X29000000Y-48000000D03*
X42000000Y-77000000D03*
X37000000Y-26000000D03*
X41000000Y-36000000D03*
X27000000Y-59000000D03*
X16000000Y-74000000D03*
X18000000Y-26000000D03*
X53000000Y-29000000D03*
X18000000Y-25000000D03*
X25000000Y-26000000D03*
X47000000Y-78000000D03*
X17000000Y-17000000D03*
X25000000Y-54000000D03*
X51000000Y-25000000D03*
X31000000Y-76000000D03*
X44000000Y-23000000D03*
X30000000Y-82000000D03*
X55000000Y-37000000D03*
X25000000Y-70000000D03*
X26000000Y-66000000D03*
X33000000Y-22000000D03*
X17000000Y-82000000D03*
X42000000Y-61000000D03*
X20000000Y-16000000D03*
X26000000Y-34000000D03*
X66000000Y-19000000D03*
X49000000Y-37000000D03*
X44000000Y-33000000D03*
X46000000Y-29000000D03*
X52000000Y-37000000D03*
X18000000Y-36000000D03*
X58000000Y-77000000D03*
X48000000Y-64000000D03*
X50000000Y-19000000D03*
X27000000Y-23000000D03*
X17000000Y-24000000D03*
X24000000Y-44000000D03*
X23000000Y-57000000D03*
X18000000Y-63000000D03*
X24000000Y-47000000D03*
X22000000Y-38000000D03*
X53000000Y-51000000D03*
X24000000Y-68000000D03*
X51000000Y-28000000D03*
X30000000Y-53000000D03*
X52000000Y-79000000D03*
X26000000Y-55000000D03*
X66000000Y-20000000D03*
X48000000Y-17000000D03*
X53000000Y-81000000D03*
X20000000Y-43000000D03*
X22000000Y-30000000D03*
X60000000Y-75000000D03*
X63000000Y-80000000D03*
X43000000Y-80000000D03*
X19000000Y-23000000D03*
X28000000Y-35000000D03*
X29000000Y-24000000D03*
X38000000Y-16000000D03*
X19000000Y-58000000D03*
X24000000Y-34000000D03*
X38000000Y-60000000D03*
X60000000Y-80000000D03*
X52000000Y-28000000D03*
X40000000Y-35000000D03*
X33000000Y-78000000D03*
X65000000Y-29000000D03*
X16000000Y-53000000D03*
X34000000Y-53000000D03*
X26000000Y-74000000D03*
X39000000Y-40000000D03*
X52000000Y-19000000D03*
X32000000Y-42000000D03*
X44000000Y-22000000D03*
X44000000Y-24000000D03*
X44000000Y-75000000D03*
X32000000Y-81000000D03*
X40000000Y-56000000D03*
X21000000Y-36000000D03*
X57000000Y-27000000D03*
X34000000Y-27000000D03*
X39000000Y-64000000D03*
X48000000Y-81000000D03*
X34000000Y-40000000D03*
X49000000Y-52000000D03*
X60000000Y-24000000D03*
X54000000Y-54000000D03*
X57000000Y-24000000D03*
X37000000Y-55000000D03*
X39000000Y-52000000D03*
X27000000Y-71000000D03*
X43000000Y-54000000D03*
X31000000Y-52000000D03*
X21000000Y-57000000D03*
X21000000Y-37000000D03*
X17000000Y-20000000D03*
X47000000Y-22000000D03*
X39000000Y-81000000D03*
X27000000Y-66000000D03*
X66000000Y-28000000D03*
X55000000Y-34000000D03*
X64000000Y-82000000D03*
X17000000Y-19000000D03*
X43000000Y-78000000D03*
X18000000Y-33000000D03*
X20000000Y-25000000D03*
X44000000Y-41000000D03*
X25000000Y-75000000D03*
X47000000Y-77000000D03*
X20000000Y-34000000D03*
X20000000Y-70000000D03*
X66000000Y-18000000D03*
X46000000Y-81000000D03*
X60000000Y-58000000D03*
X30000000Y-31000000D03*
X60000000Y-28000000D03*
X32000000Y-36000000D03*
X42000000Y-36000000D03*
X66000000Y-59000000D03*
X54000000Y-22000000D03*
X40000000Y-76000000D03*
X46000000Y-35000000D03*
X47000000Y-42000000D03*
X33000000Y-33000000D03*
X55000000Y-16000000D03*
X23000000Y-33000000D03*
X65000000Y-24000000D03*
X42000000Y-43000000D03*
X42000000Y-44000000D03*
X22000000Y-25000000D03*
X41000000Y-48000000D03*
X41000000Y-33000000D03*
X22000000Y-62000000D03*
X56000000Y-34000000D03*
X66000000Y-24000000D03*
X31000000Y-47000000D03*
X45000000Y-37000000D03*
X29000000Y-27000000D03*
X29000000Y-33000000D03*
X29000000Y-76000000D03*
X21000000Y-38000000D03*
X20000000Y-71000000D03*
X43000000Y-79000000D03*
X46000000Y-37000000D03*
X28000000Y-16000000D03*
X16000000Y-25000000D03*
X27000000Y-46000000D03*
X54000000Y-58000000D03*
X61000000Y-21000000D03*
X49000000Y-23000000D03*
X24000000Y-63000000D03*
X45000000Y-76000000D03*
X26000000Y-59000000D03*
X25000000Y-68000000D03*
X27000000Y-74000000D03*
X16000000Y-58000000D03*
X24000000Y-39000000D03*
X53000000Y-24000000D03*
X63000000Y-28000000D03*
X18000000Y-38000000D03*
X48000000Y-80000000D03*
X59000000Y-25000000D03*
X53000000Y-31000000D03*
X43000000Y-58000000D03*
X20000000Y-29000000D03*
X56000000Y-59000000D03*
X48000000Y-28000000D03*
X26000000Y-25000000D03*
X59000000Y-21000000D03*
X57000000Y-77000000D03*
X61000000Y-18000000D03*
X56000000Y-76000000D03*
X49870000Y-62130000D03*
X28000000Y-60000000D03*
X47000000Y-79000000D03*
X40000000Y-26000000D03*
X29000000Y-20000000D03*
X44000000Y-77000000D03*
X45000000Y-43000000D03*
X41000000Y-43000000D03*
X33000000Y-76000000D03*
X38000000Y-29000000D03*
X19000000Y-61000000D03*
X67000000Y-69000000D03*
X53000000Y-27000000D03*
X20000000Y-47000000D03*
X22000000Y-68000000D03*
X34000000Y-76000000D03*
X20000000Y-28000000D03*
X28000000Y-70000000D03*
X50000000Y-78000000D03*
X43000000Y-41000000D03*
X17000000Y-23000000D03*
X53000000Y-22000000D03*
X31000000Y-80000000D03*
X42000000Y-54000000D03*
X29000000Y-80000000D03*
X33000000Y-39000000D03*
X52000000Y-17000000D03*
X21000000Y-82000000D03*
X31000000Y-29000000D03*
X66000000Y-29000000D03*
X54000000Y-37000000D03*
X25000000Y-49000000D03*
X25000000Y-38000000D03*
X34000000Y-48000000D03*
X20000000Y-44000000D03*
X42000000Y-56000000D03*
X27000000Y-75000000D03*
X33000000Y-38000000D03*
X38000000Y-39000000D03*
X28000000Y-81000000D03*
X55000000Y-21000000D03*
X29000000Y-25000000D03*
X29000000Y-74000000D03*
X46000000Y-20000000D03*
X23000000Y-39000000D03*
X19000000Y-36000000D03*
X34000000Y-35000000D03*
X65000000Y-21000000D03*
X43000000Y-47000000D03*
X33000000Y-21000000D03*
X57000000Y-16000000D03*
X42000000Y-37000000D03*
X37000000Y-64000000D03*
X33000000Y-42000000D03*
X66000000Y-80000000D03*
X21000000Y-22000000D03*
X67500000Y-37500000D03*
X67500000Y-35000000D03*
X19000000Y-64000000D03*
X16000000Y-26000000D03*
X43000000Y-40000000D03*
X21000000Y-59000000D03*
X60000000Y-22000000D03*
X64000000Y-26000000D03*
X54000000Y-77000000D03*
X40000000Y-78000000D03*
X19000000Y-27000000D03*
X34000000Y-36000000D03*
X26000000Y-23000000D03*
X52000000Y-30000000D03*
X46000000Y-75000000D03*
X55000000Y-40000000D03*
X63000000Y-16000000D03*
X65000000Y-28000000D03*
X38000000Y-43000000D03*
X28000000Y-17000000D03*
X57000000Y-26000000D03*
X49000000Y-60000000D03*
X32000000Y-80000000D03*
X23000000Y-70000000D03*
X23000000Y-76000000D03*
X58500000Y-64500000D03*
X18000000Y-19000000D03*
X25000000Y-73000000D03*
X43000000Y-64000000D03*
X45000000Y-17000000D03*
X33000000Y-82000000D03*
X37000000Y-29000000D03*
X59000000Y-52000000D03*
X42000000Y-22000000D03*
X48000000Y-29000000D03*
X19000000Y-77000000D03*
X39000000Y-80000000D03*
X44000000Y-42000000D03*
X64000000Y-21000000D03*
X46000000Y-42000000D03*
X38000000Y-22000000D03*
X30000000Y-58000000D03*
X54000000Y-79000000D03*
X47000000Y-62000000D03*
X33000000Y-80000000D03*
X30000000Y-27000000D03*
X29000000Y-39000000D03*
X29000000Y-73000000D03*
X64000000Y-40000000D03*
X64000000Y-19000000D03*
X61000000Y-27000000D03*
X16000000Y-39000000D03*
X43000000Y-17000000D03*
X67000000Y-30000000D03*
X50000000Y-52000000D03*
X38000000Y-33000000D03*
X37000000Y-76000000D03*
X51000000Y-21000000D03*
X64000000Y-23000000D03*
X43000000Y-62000000D03*
X54000000Y-21000000D03*
X50000000Y-29000000D03*
X32000000Y-27000000D03*
X43000000Y-45000000D03*
X30000000Y-77000000D03*
X51000000Y-40000000D03*
X20000000Y-57000000D03*
X43000000Y-34000000D03*
X67000000Y-22000000D03*
X55000000Y-28000000D03*
X27000000Y-69000000D03*
X57000000Y-23000000D03*
X20000000Y-60000000D03*
X43000000Y-76000000D03*
X34000000Y-38000000D03*
X57000000Y-37000000D03*
X20000000Y-66000000D03*
X25000000Y-33000000D03*
X45000000Y-81000000D03*
X56000000Y-77000000D03*
X49000000Y-17000000D03*
X21000000Y-75000000D03*
X61000000Y-17000000D03*
X57000000Y-53000000D03*
X22000000Y-27000000D03*
X23000000Y-62000000D03*
X42000000Y-58000000D03*
X47000000Y-81000000D03*
X55000000Y-56000000D03*
X25000000Y-44000000D03*
X28000000Y-34000000D03*
X19000000Y-29000000D03*
X28000000Y-18000000D03*
X33000000Y-73000000D03*
X28000000Y-55000000D03*
X34000000Y-47000000D03*
X47000000Y-20000000D03*
X30000000Y-47000000D03*
X49000000Y-79000000D03*
X57000000Y-33000000D03*
X52000000Y-81000000D03*
X54000000Y-38000000D03*
X26000000Y-21000000D03*
X17000000Y-81000000D03*
X62000000Y-25000000D03*
X55000000Y-51000000D03*
X28000000Y-26000000D03*
X28000000Y-78000000D03*
X17000000Y-80000000D03*
X41000000Y-47000000D03*
X46000000Y-60000000D03*
X24000000Y-62000000D03*
X27000000Y-78000000D03*
X56000000Y-27000000D03*
X40000000Y-22000000D03*
X53000000Y-39000000D03*
X37000000Y-45000000D03*
X24000000Y-65000000D03*
X55000000Y-25000000D03*
X26000000Y-33000000D03*
X65000000Y-30000000D03*
X60000000Y-25000000D03*
X50000000Y-37000000D03*
X63000000Y-26000000D03*
X38000000Y-26000000D03*
X44000000Y-57000000D03*
X46000000Y-38000000D03*
X18000000Y-29000000D03*
X33000000Y-20000000D03*
X43000000Y-57000000D03*
X38000000Y-63000000D03*
X38000000Y-77000000D03*
X65000000Y-80000000D03*
X48000000Y-42000000D03*
X59000000Y-77000000D03*
X44000000Y-25000000D03*
X35000000Y-78000000D03*
X29000000Y-22000000D03*
X31000000Y-34000000D03*
X53000000Y-50000000D03*
X40000000Y-46000000D03*
X27000000Y-60000000D03*
X29000000Y-52000000D03*
X39000000Y-77000000D03*
X67000000Y-72000000D03*
X33000000Y-45000000D03*
X42000000Y-32000000D03*
X41000000Y-26000000D03*
X26000000Y-41000000D03*
X56000000Y-32000000D03*
X28000000Y-30000000D03*
X21000000Y-29000000D03*
X44000000Y-64000000D03*
X42000000Y-20000000D03*
X38000000Y-47000000D03*
X40000000Y-42000000D03*
X52000000Y-82000000D03*
X54000000Y-25000000D03*
X24000000Y-56000000D03*
X37000000Y-60000000D03*
X47000000Y-23000000D03*
X52000000Y-38000000D03*
X43000000Y-31000000D03*
X19000000Y-82000000D03*
X43000000Y-56000000D03*
X20000000Y-38000000D03*
X37000000Y-41000000D03*
X57000000Y-22000000D03*
X28000000Y-69000000D03*
X55000000Y-57000000D03*
X33000000Y-47000000D03*
X58000000Y-16000000D03*
X53000000Y-28000000D03*
X46000000Y-39000000D03*
X41000000Y-53000000D03*
X64000000Y-33000000D03*
X52000000Y-39000000D03*
X50000000Y-77000000D03*
X20000000Y-32000000D03*
X41000000Y-23000000D03*
X39000000Y-46000000D03*
X44000000Y-17000000D03*
X67500000Y-31000000D03*
X20000000Y-30000000D03*
X18000000Y-37000000D03*
X30000000Y-26000000D03*
X60000000Y-77000000D03*
X49000000Y-75000000D03*
X46000000Y-25000000D03*
X48000000Y-32000000D03*
X42000000Y-78000000D03*
X43000000Y-38000000D03*
X23000000Y-58000000D03*
X58000000Y-30000000D03*
X45000000Y-62000000D03*
X48000000Y-34000000D03*
X48000000Y-30000000D03*
X57000000Y-29000000D03*
X48000000Y-22000000D03*
X53000000Y-76000000D03*
X67000000Y-18000000D03*
X27000000Y-61000000D03*
X63000000Y-27000000D03*
X25000000Y-47000000D03*
X46000000Y-21000000D03*
X38000000Y-48000000D03*
X51000000Y-79000000D03*
X25000000Y-72000000D03*
X47000000Y-33000000D03*
X41000000Y-39000000D03*
X23000000Y-66000000D03*
X51000000Y-36000000D03*
X60000000Y-59000000D03*
X26000000Y-44000000D03*
X34000000Y-46000000D03*
X67000000Y-27000000D03*
X40000000Y-82000000D03*
X59000000Y-76000000D03*
X46000000Y-41000000D03*
X39000000Y-33000000D03*
X28000000Y-65000000D03*
X49000000Y-24000000D03*
X43000000Y-39000000D03*
X20000000Y-77000000D03*
X51000000Y-37000000D03*
X29000000Y-32000000D03*
X30000000Y-75000000D03*
X45000000Y-77000000D03*
X22000000Y-73000000D03*
X31000000Y-37000000D03*
X45000000Y-34000000D03*
X48000000Y-26000000D03*
X37000000Y-46000000D03*
X34000000Y-23000000D03*
X16000000Y-40000000D03*
X42000000Y-23000000D03*
X34000000Y-17000000D03*
X44000000Y-26000000D03*
X28000000Y-80000000D03*
X18000000Y-32000000D03*
X39000000Y-56000000D03*
X53000000Y-20000000D03*
X37000000Y-48000000D03*
X28000000Y-76000000D03*
X23000000Y-77000000D03*
X40000000Y-34000000D03*
X31000000Y-49000000D03*
X20000000Y-62000000D03*
X67000000Y-20000000D03*
X64000000Y-16000000D03*
X47000000Y-30000000D03*
X24000000Y-77000000D03*
X20000000Y-76000000D03*
X28000000Y-38000000D03*
X63000000Y-24000000D03*
X51000000Y-34000000D03*
X45000000Y-44000000D03*
X35000000Y-75000000D03*
X20000000Y-19000000D03*
X22000000Y-59000000D03*
X38000000Y-32000000D03*
X45000000Y-19000000D03*
X32000000Y-47000000D03*
X48000000Y-25000000D03*
X37000000Y-22000000D03*
X57000000Y-52000000D03*
X33000000Y-51000000D03*
X18000000Y-40000000D03*
X17000000Y-25000000D03*
X64000000Y-20000000D03*
X21000000Y-19000000D03*
X16000000Y-36000000D03*
X16000000Y-18000000D03*
X27000000Y-36000000D03*
X49000000Y-53000000D03*
X42000000Y-47000000D03*
X53000000Y-75000000D03*
X42000000Y-55000000D03*
X17000000Y-63000000D03*
X59000000Y-78000000D03*
X17000000Y-31000000D03*
X66000000Y-30000000D03*
X63000000Y-22000000D03*
X44000000Y-80000000D03*
X16000000Y-45000000D03*
X26000000Y-16000000D03*
X64000000Y-35000000D03*
X38000000Y-75000000D03*
X51000000Y-82000000D03*
X44000000Y-59000000D03*
X40000000Y-61000000D03*
X60000000Y-76000000D03*
X54000000Y-28000000D03*
X52000000Y-75000000D03*
X20000000Y-37000000D03*
X22000000Y-44000000D03*
X60000000Y-82000000D03*
X44000000Y-37000000D03*
X67000000Y-77000000D03*
X34000000Y-26000000D03*
X34000000Y-44000000D03*
X35000000Y-76000000D03*
X40000000Y-77000000D03*
X64000000Y-29000000D03*
X23000000Y-52000000D03*
X50000000Y-27000000D03*
X48000000Y-63000000D03*
X62000000Y-16000000D03*
X24000000Y-31000000D03*
X16000000Y-42000000D03*
X46000000Y-76000000D03*
X22000000Y-57000000D03*
X31000000Y-79000000D03*
X58000000Y-23000000D03*
X54000000Y-23000000D03*
X55000000Y-27000000D03*
X43000000Y-42000000D03*
X48000000Y-23000000D03*
X38000000Y-35000000D03*
X40000000Y-59000000D03*
X24000000Y-59000000D03*
X31000000Y-42000000D03*
X32000000Y-51000000D03*
X38000000Y-53000000D03*
X62000000Y-81000000D03*
X47000000Y-38000000D03*
X62000000Y-23000000D03*
X29000000Y-41000000D03*
X32000000Y-44000000D03*
X19000000Y-30000000D03*
X26000000Y-32000000D03*
X21000000Y-81000000D03*
X30000000Y-32000000D03*
X38000000Y-19000000D03*
X63000000Y-31000000D03*
X30000000Y-76000000D03*
X41000000Y-30000000D03*
X30000000Y-22000000D03*
X26000000Y-76000000D03*
X38000000Y-81000000D03*
X19000000Y-78000000D03*
X29000000Y-31000000D03*
X28000000Y-49000000D03*
X53000000Y-80000000D03*
X32000000Y-52000000D03*
X21000000Y-69000000D03*
X16000000Y-73000000D03*
X43000000Y-33000000D03*
X50000000Y-28000000D03*
X39000000Y-62000000D03*
X56000000Y-31000000D03*
X43000000Y-27000000D03*
X59000000Y-54000000D03*
X31000000Y-58000000D03*
X28000000Y-45000000D03*
X48000000Y-77000000D03*
X21000000Y-72000000D03*
X44000000Y-19000000D03*
X60000000Y-21000000D03*
X48000000Y-31000000D03*
X28000000Y-64000000D03*
X59000000Y-16000000D03*
X63000000Y-20000000D03*
X30000000Y-40000000D03*
X56000000Y-25000000D03*
X37000000Y-38000000D03*
X56000000Y-41000000D03*
X35000000Y-77000000D03*
X56000000Y-58000000D03*
X29000000Y-21000000D03*
X61000000Y-20000000D03*
X32000000Y-28000000D03*
X53000000Y-41000000D03*
X48000000Y-38000000D03*
X16000000Y-77000000D03*
X40000000Y-50000000D03*
X39000000Y-28000000D03*
X25000000Y-62000000D03*
X19000000Y-17000000D03*
X16000000Y-69000000D03*
X46000000Y-79000000D03*
X24000000Y-32000000D03*
X37000000Y-79000000D03*
X21000000Y-80000000D03*
X43000000Y-59000000D03*
X34000000Y-25000000D03*
X48000000Y-60000000D03*
X52000000Y-35000000D03*
X20000000Y-35000000D03*
X58000000Y-52000000D03*
X39000000Y-37000000D03*
X58000000Y-59000000D03*
X55000000Y-50000000D03*
X26000000Y-26000000D03*
X20000000Y-61000000D03*
X67000000Y-21000000D03*
X48000000Y-79000000D03*
X23000000Y-26000000D03*
X29000000Y-16000000D03*
X24000000Y-73000000D03*
X30000000Y-71000000D03*
X49000000Y-20000000D03*
X54000000Y-51000000D03*
X29000000Y-46000000D03*
X16000000Y-22000000D03*
X41000000Y-79000000D03*
X40000000Y-80000000D03*
X34000000Y-16000000D03*
X30000000Y-73000000D03*
X16000000Y-34000000D03*
X27000000Y-37000000D03*
X37000000Y-32000000D03*
X64000000Y-31000000D03*
X56000000Y-26000000D03*
X67000000Y-24000000D03*
X16000000Y-29000000D03*
X41000000Y-78000000D03*
X48000000Y-35000000D03*
X61000000Y-25000000D03*
X50000000Y-30000000D03*
X21000000Y-41000000D03*
X34000000Y-32000000D03*
X45000000Y-26000000D03*
X46000000Y-19000000D03*
X51000000Y-23000000D03*
X16000000Y-60000000D03*
X22000000Y-28000000D03*
X37000000Y-21000000D03*
X46000000Y-18000000D03*
X40000000Y-55000000D03*
X45000000Y-28000000D03*
X37000000Y-56000000D03*
X48000000Y-82000000D03*
X24000000Y-29000000D03*
X18000000Y-20000000D03*
X22000000Y-64000000D03*
X51000000Y-29000000D03*
X59000000Y-59000000D03*
X40000000Y-57000000D03*
X20000000Y-74000000D03*
X16000000Y-33000000D03*
X32000000Y-33000000D03*
X37000000Y-77000000D03*
X66000000Y-17000000D03*
X54000000Y-59000000D03*
X44000000Y-39000000D03*
X34000000Y-43000000D03*
X55000000Y-22000000D03*
X33000000Y-81000000D03*
X28000000Y-23000000D03*
X64000000Y-59000000D03*
X30000000Y-51000000D03*
X39000000Y-26000000D03*
X24000000Y-74000000D03*
X24000000Y-64000000D03*
X26000000Y-71000000D03*
X45000000Y-32000000D03*
X19000000Y-28000000D03*
X20000000Y-52000000D03*
X44000000Y-29000000D03*
X30000000Y-34000000D03*
X16000000Y-43000000D03*
X33000000Y-75000000D03*
X43000000Y-22000000D03*
X16000000Y-61000000D03*
X65000000Y-26000000D03*
X57000000Y-25000000D03*
X51000000Y-22000000D03*
X41000000Y-60000000D03*
X26000000Y-63000000D03*
X39000000Y-44000000D03*
X33000000Y-27000000D03*
X23000000Y-73000000D03*
X19000000Y-56000000D03*
X44000000Y-60000000D03*
X52000000Y-31000000D03*
X43000000Y-53000000D03*
X63000000Y-29000000D03*
X38000000Y-54000000D03*
X32000000Y-32000000D03*
X59000000Y-26000000D03*
X56500000Y-64500000D03*
X51000000Y-16000000D03*
X33000000Y-41000000D03*
X54000000Y-31000000D03*
X39000000Y-39000000D03*
X16000000Y-19000000D03*
X16000000Y-68000000D03*
X33000000Y-44000000D03*
X34000000Y-37000000D03*
X43000000Y-20000000D03*
X46000000Y-62000000D03*
X34000000Y-29000000D03*
X20000000Y-45000000D03*
X24000000Y-52000000D03*
X64000000Y-38000000D03*
X43000000Y-81000000D03*
X33000000Y-29000000D03*
X40000000Y-30000000D03*
X30000000Y-48000000D03*
X51000000Y-33000000D03*
X58000000Y-22000000D03*
X32000000Y-39000000D03*
X39000000Y-48000000D03*
X40000000Y-44000000D03*
X29000000Y-43000000D03*
X28000000Y-21000000D03*
X50000000Y-36000000D03*
X54500000Y-64500000D03*
X20000000Y-75000000D03*
X28000000Y-25000000D03*
X28000000Y-40000000D03*
X32000000Y-48000000D03*
X40000000Y-64000000D03*
X16000000Y-71000000D03*
X18000000Y-31000000D03*
X64000000Y-75000000D03*
X20000000Y-68000000D03*
X16000000Y-76000000D03*
X18000000Y-23000000D03*
X31000000Y-44000000D03*
X62000000Y-28000000D03*
X63000000Y-23000000D03*
X57000000Y-58000000D03*
X27000000Y-65000000D03*
X20000000Y-59000000D03*
X62000000Y-77000000D03*
X38000000Y-64000000D03*
X19000000Y-21000000D03*
X27000000Y-73000000D03*
X26000000Y-53000000D03*
X54000000Y-16000000D03*
X44000000Y-46000000D03*
X16000000Y-54000000D03*
X64000000Y-36000000D03*
X23000000Y-30000000D03*
X27000000Y-62000000D03*
X60500000Y-64500000D03*
X62000000Y-22000000D03*
X37000000Y-58000000D03*
X54000000Y-19000000D03*
X17000000Y-39000000D03*
X30000000Y-41000000D03*
X62000000Y-19000000D03*
X38000000Y-82000000D03*
X31000000Y-73000000D03*
X48000000Y-41000000D03*
X50000000Y-51000000D03*
X60000000Y-27000000D03*
X54000000Y-34000000D03*
X18000000Y-34000000D03*
X37000000Y-42000000D03*
X33000000Y-26000000D03*
X33000000Y-49000000D03*
X25000000Y-57000000D03*
X65000000Y-23000000D03*
X39000000Y-78000000D03*
X67500000Y-32000000D03*
X23000000Y-34000000D03*
X45000000Y-20000000D03*
X46000000Y-26000000D03*
X44000000Y-30000000D03*
X16000000Y-38000000D03*
X31000000Y-82000000D03*
X34000000Y-30000000D03*
X49000000Y-38000000D03*
X55000000Y-31000000D03*
X26000000Y-39000000D03*
X31000000Y-74000000D03*
X64000000Y-28000000D03*
X44000000Y-20000000D03*
X31000000Y-24000000D03*
X23000000Y-60000000D03*
X16000000Y-63000000D03*
X65000000Y-17000000D03*
X23000000Y-24000000D03*
X23000000Y-75000000D03*
X25000000Y-52000000D03*
X40000000Y-75000000D03*
X23000000Y-38000000D03*
X57000000Y-36000000D03*
X17000000Y-37000000D03*
X48000000Y-76000000D03*
X63500000Y-64500000D03*
X61000000Y-75000000D03*
X56000000Y-57000000D03*
X21000000Y-64000000D03*
X27000000Y-18000000D03*
X19000000Y-16000000D03*
X54000000Y-57000000D03*
X21000000Y-28000000D03*
X54000000Y-30000000D03*
X42000000Y-19000000D03*
X33000000Y-30000000D03*
X22000000Y-75000000D03*
X64000000Y-17000000D03*
X41000000Y-21000000D03*
X43000000Y-28000000D03*
X31000000Y-38000000D03*
X41000000Y-42000000D03*
X54000000Y-33000000D03*
X31000000Y-31000000D03*
X64000000Y-27000000D03*
X25000000Y-71000000D03*
X45000000Y-80000000D03*
X47000000Y-26000000D03*
X38000000Y-41000000D03*
X55000000Y-55000000D03*
X54000000Y-20000000D03*
X54000000Y-27000000D03*
X26000000Y-70000000D03*
X39000000Y-30000000D03*
X56000000Y-22000000D03*
X21000000Y-23000000D03*
X20000000Y-40000000D03*
X17000000Y-32000000D03*
X27000000Y-31000000D03*
X28000000Y-51000000D03*
X49000000Y-41000000D03*
X52000000Y-77000000D03*
X45000000Y-31000000D03*
X25000000Y-41000000D03*
X24000000Y-26000000D03*
X21000000Y-16000000D03*
X47000000Y-36000000D03*
X21000000Y-55000000D03*
X53000000Y-38000000D03*
X19000000Y-55000000D03*
X52000000Y-23000000D03*
X27000000Y-70000000D03*
X49000000Y-21000000D03*
X52000000Y-26000000D03*
X18000000Y-35000000D03*
X26000000Y-65000000D03*
X40000000Y-28000000D03*
X59000000Y-51000000D03*
X19000000Y-52000000D03*
X42000000Y-75000000D03*
X31000000Y-46000000D03*
X53000000Y-17000000D03*
X46000000Y-32000000D03*
X26000000Y-17000000D03*
X42000000Y-35000000D03*
X25000000Y-69000000D03*
X23000000Y-27000000D03*
X22000000Y-82000000D03*
X43000000Y-43000000D03*
X28000000Y-48000000D03*
X25000000Y-36000000D03*
X20000000Y-17000000D03*
X48000000Y-37000000D03*
X22000000Y-24000000D03*
X41000000Y-41000000D03*
X59000000Y-75000000D03*
X66000000Y-22000000D03*
X61000000Y-22000000D03*
X24000000Y-23000000D03*
X49000000Y-63000000D03*
X51000000Y-38000000D03*
X41000000Y-31000000D03*
X18000000Y-28000000D03*
X19000000Y-53000000D03*
X42000000Y-21000000D03*
X20000000Y-33000000D03*
X49000000Y-18000000D03*
X23000000Y-72000000D03*
X53500000Y-64500000D03*
X44000000Y-18000000D03*
X44000000Y-45000000D03*
X33000000Y-48000000D03*
X60000000Y-20000000D03*
X58000000Y-24000000D03*
X26000000Y-82000000D03*
X28000000Y-73000000D03*
X38000000Y-56000000D03*
X24000000Y-40000000D03*
X65000000Y-59000000D03*
X33000000Y-50000000D03*
X23000000Y-49000000D03*
X43000000Y-51000000D03*
X21000000Y-65000000D03*
X27000000Y-55000000D03*
X22000000Y-34000000D03*
X32000000Y-46000000D03*
X52000000Y-34000000D03*
X20000000Y-67000000D03*
X28000000Y-72000000D03*
X29000000Y-26000000D03*
X42000000Y-48000000D03*
X29000000Y-45000000D03*
X27000000Y-28000000D03*
X26000000Y-47000000D03*
X31000000Y-39000000D03*
X26000000Y-60000000D03*
X62000000Y-21000000D03*
X30000000Y-42000000D03*
X59000000Y-30000000D03*
X42000000Y-80000000D03*
X57000000Y-39000000D03*
X44000000Y-40000000D03*
X25000000Y-63000000D03*
X17000000Y-40000000D03*
X39000000Y-32000000D03*
X24000000Y-28000000D03*
X20000000Y-73000000D03*
X40000000Y-48000000D03*
X20000000Y-24000000D03*
X27000000Y-26000000D03*
X53000000Y-77000000D03*
X39000000Y-51000000D03*
X49000000Y-30000000D03*
X34000000Y-22000000D03*
X29000000Y-18000000D03*
X52000000Y-78000000D03*
X49000000Y-64000000D03*
X56000000Y-52000000D03*
X49000000Y-16000000D03*
X56000000Y-29000000D03*
X29000000Y-82000000D03*
X41000000Y-28000000D03*
X26000000Y-29000000D03*
X38000000Y-40000000D03*
X47000000Y-17000000D03*
X42000000Y-18000000D03*
X64000000Y-80000000D03*
X28000000Y-32000000D03*
X24000000Y-22000000D03*
X54000000Y-18000000D03*
X48000000Y-39000000D03*
X23000000Y-25000000D03*
X53000000Y-25000000D03*
X49000000Y-80000000D03*
X39000000Y-23000000D03*
X19000000Y-25000000D03*
X61000000Y-81000000D03*
X33000000Y-32000000D03*
X19000000Y-26000000D03*
X29000000Y-72000000D03*
X39000000Y-60000000D03*
X25000000Y-30000000D03*
X53000000Y-34000000D03*
X37000000Y-33000000D03*
X21000000Y-39000000D03*
X26000000Y-30000000D03*
X31000000Y-53000000D03*
X32000000Y-78000000D03*
X53000000Y-33000000D03*
X67000000Y-75000000D03*
X25000000Y-74000000D03*
X16000000Y-70000000D03*
X20000000Y-64000000D03*
X41000000Y-22000000D03*
X31000000Y-28000000D03*
X50000000Y-40000000D03*
X41000000Y-76000000D03*
X62500000Y-64500000D03*
X47000000Y-76000000D03*
X50000000Y-18000000D03*
X40000000Y-53000000D03*
X25000000Y-35000000D03*
X20000000Y-56000000D03*
X64000000Y-24000000D03*
X25000000Y-27000000D03*
X30000000Y-35000000D03*
X32000000Y-79000000D03*
X37000000Y-54000000D03*
X46000000Y-27000000D03*
X56000000Y-40000000D03*
X41000000Y-46000000D03*
X16000000Y-47000000D03*
X37000000Y-63000000D03*
X19000000Y-37000000D03*
X64000000Y-76000000D03*
X32000000Y-82000000D03*
X25000000Y-66000000D03*
X37000000Y-34000000D03*
X41000000Y-29000000D03*
X26000000Y-48000000D03*
X41000000Y-56000000D03*
X34000000Y-74000000D03*
X26000000Y-22000000D03*
X55000000Y-35000000D03*
X49000000Y-81000000D03*
X18000000Y-18000000D03*
X29000000Y-47000000D03*
X37000000Y-80000000D03*
X51000000Y-32000000D03*
X44000000Y-82000000D03*
X25000000Y-77000000D03*
X28000000Y-44000000D03*
X47000000Y-19000000D03*
X22000000Y-55000000D03*
X21000000Y-60000000D03*
X18000000Y-21000000D03*
X38000000Y-44000000D03*
X42000000Y-45000000D03*
X29000000Y-38000000D03*
X24000000Y-37000000D03*
X32000000Y-26000000D03*
X53000000Y-37000000D03*
X56000000Y-39000000D03*
X33000000Y-28000000D03*
X21000000Y-35000000D03*
X16000000Y-55000000D03*
X25000000Y-59000000D03*
X29000000Y-40000000D03*
X56000000Y-37000000D03*
X16000000Y-35000000D03*
X27000000Y-43000000D03*
X59500000Y-64500000D03*
X18000000Y-80000000D03*
X20000000Y-54000000D03*
X42000000Y-60000000D03*
X67000000Y-25000000D03*
X60000000Y-81000000D03*
X19000000Y-18000000D03*
X23000000Y-31000000D03*
X22000000Y-23000000D03*
X17000000Y-27000000D03*
X43000000Y-25000000D03*
X60000000Y-79000000D03*
X34000000Y-19000000D03*
X61000000Y-82000000D03*
X60000000Y-78000000D03*
X48000000Y-16000000D03*
X34000000Y-21000000D03*
X46000000Y-24000000D03*
X45000000Y-38000000D03*
X18000000Y-81000000D03*
X23000000Y-56000000D03*
X52000000Y-29000000D03*
X49000000Y-35000000D03*
X51000000Y-35000000D03*
X32000000Y-75000000D03*
X29000000Y-60000000D03*
X32000000Y-34000000D03*
X50000000Y-80000000D03*
X33000000Y-16000000D03*
X38000000Y-55000000D03*
X26000000Y-67000000D03*
X42000000Y-29000000D03*
X17000000Y-28000000D03*
X25000000Y-25000000D03*
X34000000Y-20000000D03*
X50000000Y-31000000D03*
X47000000Y-16000000D03*
X30000000Y-25000000D03*
X31000000Y-35000000D03*
X46000000Y-59000000D03*
X60000000Y-17000000D03*
X55000000Y-59000000D03*
X16000000Y-59000000D03*
X21000000Y-40000000D03*
X64000000Y-37000000D03*
X41000000Y-50000000D03*
X38000000Y-18000000D03*
X23000000Y-35000000D03*
X20000000Y-31000000D03*
X61000000Y-28000000D03*
X53000000Y-32000000D03*
X48000000Y-27000000D03*
X50000000Y-79000000D03*
X62000000Y-26000000D03*
X55000000Y-36000000D03*
X27000000Y-44000000D03*
X18000000Y-27000000D03*
X24000000Y-16000000D03*
X33000000Y-24000000D03*
X37000000Y-36000000D03*
X44000000Y-36000000D03*
X33000000Y-36000000D03*
X63000000Y-82000000D03*
X33000000Y-31000000D03*
X45000000Y-39000000D03*
X22000000Y-41000000D03*
X49000000Y-27000000D03*
X28000000Y-39000000D03*
X67000000Y-80000000D03*
X38000000Y-34000000D03*
X42000000Y-64000000D03*
X43000000Y-36000000D03*
X16000000Y-75000000D03*
X45000000Y-78000000D03*
X20000000Y-27000000D03*
X18000000Y-39000000D03*
X33000000Y-43000000D03*
X32000000Y-31000000D03*
X40000000Y-33000000D03*
X20000000Y-49000000D03*
X38000000Y-62000000D03*
X60000000Y-18000000D03*
X51000000Y-31000000D03*
X21000000Y-70000000D03*
X34000000Y-49000000D03*
X38000000Y-23000000D03*
X67000000Y-29000000D03*
X47000000Y-80000000D03*
X37000000Y-78000000D03*
X66000000Y-25000000D03*
X38000000Y-38000000D03*
X20000000Y-42000000D03*
X27000000Y-45000000D03*
X20000000Y-48000000D03*
X54000000Y-75000000D03*
X33000000Y-53000000D03*
X39000000Y-63000000D03*
X28000000Y-43000000D03*
X33000000Y-18000000D03*
X21000000Y-34000000D03*
X55000000Y-38000000D03*
X40000000Y-52000000D03*
X49910000Y-61040000D03*
X66000000Y-21000000D03*
X29000000Y-70000000D03*
X63000000Y-77000000D03*
X50000000Y-34000000D03*
X22000000Y-60000000D03*
X38000000Y-61000000D03*
X37000000Y-81000000D03*
X29000000Y-34000000D03*
X28000000Y-37000000D03*
X27000000Y-72000000D03*
X32000000Y-24000000D03*
X55000000Y-17000000D03*
X48000000Y-78000000D03*
X55000000Y-39000000D03*
X47000000Y-37000000D03*
X64000000Y-34000000D03*
X19000000Y-32000000D03*
X20000000Y-81000000D03*
X49000000Y-77000000D03*
X22000000Y-66000000D03*
X30000000Y-80000000D03*
X62000000Y-75000000D03*
X19000000Y-81000000D03*
X30000000Y-38000000D03*
X57000000Y-35000000D03*
X48000000Y-19000000D03*
X23000000Y-36000000D03*
X28000000Y-46000000D03*
X62000000Y-24000000D03*
X26000000Y-54000000D03*
X19000000Y-54000000D03*
X64000000Y-78000000D03*
X29000000Y-79000000D03*
X16000000Y-30000000D03*
X30000000Y-50000000D03*
X29000000Y-50000000D03*
X27000000Y-38000000D03*
X52000000Y-20000000D03*
X25000000Y-34000000D03*
X67500000Y-39000000D03*
X20000000Y-63000000D03*
X50000000Y-25000000D03*
X45000000Y-18000000D03*
X25000000Y-39000000D03*
X38000000Y-37000000D03*
X28000000Y-68000000D03*
X32000000Y-35000000D03*
X58000000Y-53000000D03*
X22000000Y-32000000D03*
X38000000Y-36000000D03*
X22000000Y-47000000D03*
X27000000Y-77000000D03*
X38000000Y-51000000D03*
X60000000Y-29000000D03*
X25000000Y-58000000D03*
X34000000Y-45000000D03*
X43000000Y-82000000D03*
X34000000Y-39000000D03*
X40000000Y-45000000D03*
X52000000Y-33000000D03*
X20000000Y-26000000D03*
X44000000Y-79000000D03*
X65000000Y-18000000D03*
X32000000Y-43000000D03*
X49000000Y-34000000D03*
X36000000Y-77000000D03*
X31000000Y-72000000D03*
X33000000Y-40000000D03*
X49000000Y-31000000D03*
X48000000Y-20000000D03*
X46000000Y-33000000D03*
X28000000Y-71000000D03*
X54000000Y-50000000D03*
X40000000Y-32000000D03*
X51000000Y-77000000D03*
X30000000Y-60000000D03*
X21000000Y-18000000D03*
X38000000Y-79000000D03*
X58000000Y-51000000D03*
X25000000Y-60000000D03*
X61000000Y-26000000D03*
X31000000Y-75000000D03*
X54000000Y-82000000D03*
X21000000Y-20000000D03*
X19000000Y-39000000D03*
X52000000Y-25000000D03*
X65000000Y-19000000D03*
X20000000Y-65000000D03*
X41000000Y-61000000D03*
X23000000Y-68000000D03*
X64000000Y-39000000D03*
X61500000Y-64500000D03*
X55000000Y-75000000D03*
X32000000Y-22000000D03*
X62000000Y-27000000D03*
X30000000Y-74000000D03*
X41000000Y-52000000D03*
X52000000Y-21000000D03*
X42000000Y-53000000D03*
X30000000Y-70000000D03*
X58000000Y-54000000D03*
X44000000Y-62000000D03*
X26000000Y-75000000D03*
X36000000Y-79000000D03*
X60000000Y-26000000D03*
X24000000Y-27000000D03*
X28000000Y-77000000D03*
X33000000Y-23000000D03*
X20000000Y-41000000D03*
X19000000Y-31000000D03*
X26000000Y-24000000D03*
X35000000Y-79000000D03*
X52000000Y-24000000D03*
X30000000Y-43000000D03*
X29000000Y-69000000D03*
X24000000Y-49000000D03*
X43000000Y-49000000D03*
X41000000Y-40000000D03*
X57000000Y-50000000D03*
X24000000Y-53000000D03*
X29000000Y-78000000D03*
X31000000Y-51000000D03*
X38000000Y-52000000D03*
X16000000Y-79000000D03*
X45000000Y-61000000D03*
X47000000Y-24000000D03*
X47000000Y-35000000D03*
X45000000Y-30000000D03*
X28000000Y-42000000D03*
X17000000Y-22000000D03*
X32000000Y-72000000D03*
X63000000Y-21000000D03*
X21000000Y-44000000D03*
X47000000Y-64000000D03*
X39000000Y-38000000D03*
X43000000Y-63000000D03*
X59000000Y-17000000D03*
X51000000Y-39000000D03*
X23000000Y-16000000D03*
X26000000Y-77000000D03*
X38000000Y-80000000D03*
X28000000Y-33000000D03*
X50000000Y-32000000D03*
X16000000Y-23000000D03*
X30000000Y-59000000D03*
X49000000Y-62000000D03*
X44000000Y-31000000D03*
X56000000Y-56000000D03*
X16000000Y-46000000D03*
X32000000Y-74000000D03*
X37000000Y-40000000D03*
X23000000Y-47000000D03*
X16000000Y-52000000D03*
X29000000Y-61000000D03*
X45000000Y-79000000D03*
X50000000Y-16000000D03*
X64500000Y-64500000D03*
X61000000Y-19000000D03*
X28500000Y-55500000D03*
X19000000Y-59000000D03*
X44000000Y-38000000D03*
X24000000Y-25000000D03*
X16000000Y-28000000D03*
X21000000Y-31000000D03*
X43000000Y-75000000D03*
X45000000Y-63000000D03*
X49820000Y-64010000D03*
X51000000Y-17000000D03*
X27000000Y-40000000D03*
X57000000Y-41000000D03*
X43000000Y-55000000D03*
X44000000Y-81000000D03*
X27000000Y-32000000D03*
X45000000Y-59000000D03*
X27000000Y-17000000D03*
X42000000Y-27000000D03*
X23000000Y-64000000D03*
X23000000Y-40000000D03*
X31000000Y-30000000D03*
X24000000Y-60000000D03*
X16000000Y-81000000D03*
X42000000Y-76000000D03*
X62000000Y-31000000D03*
X45000000Y-64000000D03*
X23000000Y-69000000D03*
X25000000Y-24000000D03*
X40000000Y-38000000D03*
X41000000Y-32000000D03*
X32000000Y-25000000D03*
X26000000Y-35000000D03*
X30000000Y-52000000D03*
X26000000Y-28000000D03*
X26000000Y-36000000D03*
X43000000Y-30000000D03*
X27000000Y-41000000D03*
X47000000Y-40000000D03*
X53000000Y-26000000D03*
X43000000Y-32000000D03*
X59000000Y-82000000D03*
X64000000Y-30000000D03*
X21000000Y-33000000D03*
X40000000Y-49000000D03*
X25000000Y-40000000D03*
X20000000Y-82000000D03*
X47000000Y-32000000D03*
X46000000Y-31000000D03*
X45000000Y-29000000D03*
X16000000Y-48000000D03*
X30000000Y-23000000D03*
X29000000Y-71000000D03*
X52000000Y-27000000D03*
X39000000Y-55000000D03*
X22000000Y-26000000D03*
X38000000Y-57000000D03*
X19000000Y-19000000D03*
X47000000Y-29000000D03*
X16000000Y-72000000D03*
X49000000Y-78000000D03*
X61000000Y-77000000D03*
X43000000Y-29000000D03*
X63000000Y-75000000D03*
X46000000Y-30000000D03*
X38000000Y-42000000D03*
X50000000Y-75000000D03*
X41000000Y-35000000D03*
X45000000Y-25000000D03*
X20000000Y-80000000D03*
X26000000Y-62000000D03*
X40000000Y-31000000D03*
X22000000Y-40000000D03*
X67500000Y-34000000D03*
X54000000Y-41000000D03*
X27000000Y-64000000D03*
X43000000Y-37000000D03*
X20000000Y-20000000D03*
X21000000Y-30000000D03*
X36000000Y-80000000D03*
X55000000Y-33000000D03*
X31000000Y-27000000D03*
X41000000Y-77000000D03*
X60000000Y-30000000D03*
X24000000Y-76000000D03*
X44000000Y-21000000D03*
X19000000Y-20000000D03*
X28000000Y-22000000D03*
X51000000Y-27000000D03*
X54000000Y-35000000D03*
X23000000Y-32000000D03*
X23000000Y-55000000D03*
X40000000Y-40000000D03*
X37000000Y-57000000D03*
X62000000Y-18000000D03*
X34000000Y-78000000D03*
X28000000Y-36000000D03*
X39000000Y-50000000D03*
X37000000Y-49000000D03*
X29000000Y-17000000D03*
X43000000Y-48000000D03*
X25000000Y-48000000D03*
X43000000Y-61000000D03*
X53000000Y-78000000D03*
X21000000Y-49000000D03*
X17000000Y-18000000D03*
X16000000Y-20000000D03*
X27000000Y-29000000D03*
X46000000Y-82000000D03*
X67500000Y-33000000D03*
X28000000Y-61000000D03*
X46000000Y-78000000D03*
X19000000Y-24000000D03*
X45000000Y-75000000D03*
X25000000Y-29000000D03*
X42000000Y-82000000D03*
X50000000Y-39000000D03*
X49000000Y-33000000D03*
X49000000Y-76000000D03*
X58000000Y-27000000D03*
X19000000Y-40000000D03*
X67000000Y-64500000D03*
X21000000Y-54000000D03*
X53000000Y-79000000D03*
X29000000Y-49000000D03*
X54000000Y-17000000D03*
X54000000Y-55000000D03*
X63000000Y-30000000D03*
X31000000Y-48000000D03*
X46000000Y-22000000D03*
X39000000Y-59000000D03*
X65000000Y-27000000D03*
X39000000Y-49000000D03*
X19000000Y-22000000D03*
X19000000Y-38000000D03*
X30000000Y-72000000D03*
X32000000Y-29000000D03*
X67500000Y-36500000D03*
X34000000Y-82000000D03*
X48000000Y-33000000D03*
X52000000Y-18000000D03*
X21000000Y-24000000D03*
X42000000Y-40000000D03*
X51000000Y-75000000D03*
X40000000Y-27000000D03*
X57000000Y-30000000D03*
X21000000Y-47000000D03*
X22000000Y-54000000D03*
X65000000Y-82000000D03*
X16000000Y-24000000D03*
X54000000Y-56000000D03*
X44000000Y-28000000D03*
X43000000Y-18000000D03*
X28000000Y-79000000D03*
X54000000Y-36000000D03*
X39000000Y-43000000D03*
X19000000Y-60000000D03*
X41000000Y-49000000D03*
X41000000Y-57000000D03*
X42000000Y-38000000D03*
X41000000Y-38000000D03*
X22000000Y-67000000D03*
X61000000Y-31000000D03*
X54000000Y-26000000D03*
X25000000Y-76000000D03*
X28000000Y-47000000D03*
X38000000Y-78000000D03*
X54000000Y-29000000D03*
X52000000Y-16000000D03*
X56000000Y-16000000D03*
X46000000Y-28000000D03*
X23000000Y-28000000D03*
X42000000Y-31000000D03*
X59000000Y-27000000D03*
X47000000Y-31000000D03*
X47000000Y-63000000D03*
X40000000Y-41000000D03*
X34000000Y-52000000D03*
X34000000Y-75000000D03*
X26000000Y-69000000D03*
X29000000Y-77000000D03*
X48000000Y-36000000D03*
X30000000Y-33000000D03*
X52000000Y-40000000D03*
X37000000Y-43000000D03*
X46000000Y-44000000D03*
X27000000Y-35000000D03*
X47000000Y-28000000D03*
X31000000Y-50000000D03*
X17000000Y-36000000D03*
X63000000Y-81000000D03*
X33000000Y-77000000D03*
X65000000Y-81000000D03*
X47000000Y-41000000D03*
X38000000Y-76000000D03*
X62000000Y-17000000D03*
X34000000Y-81000000D03*
X40000000Y-54000000D03*
X30000000Y-49000000D03*
X50000000Y-20000000D03*
X21000000Y-25000000D03*
X42000000Y-17000000D03*
X18000000Y-64000000D03*
X40000000Y-51000000D03*
X39000000Y-57000000D03*
X24000000Y-38000000D03*
X26000000Y-45000000D03*
X20000000Y-18000000D03*
X51000000Y-19000000D03*
X42000000Y-28000000D03*
X22000000Y-36000000D03*
X43000000Y-52000000D03*
X57000000Y-40000000D03*
X47000000Y-39000000D03*
X49000000Y-19000000D03*
X49000000Y-28000000D03*
X24000000Y-41000000D03*
X37000000Y-61000000D03*
X41000000Y-55000000D03*
X31000000Y-45000000D03*
X27000000Y-47000000D03*
X30000000Y-78000000D03*
X21000000Y-63000000D03*
X50000000Y-53000000D03*
X28000000Y-59000000D03*
X60000000Y-31000000D03*
X32000000Y-45000000D03*
X22000000Y-49000000D03*
X44000000Y-35000000D03*
X27000000Y-30000000D03*
X47000000Y-75000000D03*
X39000000Y-75000000D03*
X49000000Y-29000000D03*
X33000000Y-46000000D03*
X49890000Y-59980000D03*
X49000000Y-82000000D03*
X19000000Y-35000000D03*
X30000000Y-29000000D03*
X45000000Y-23000000D03*
X39000000Y-36000000D03*
X34000000Y-79000000D03*
X43000000Y-35000000D03*
X27000000Y-20000000D03*
X49000000Y-26000000D03*
X27000000Y-67000000D03*
X59000000Y-28000000D03*
X50000000Y-26000000D03*
X46000000Y-34000000D03*
X24000000Y-57000000D03*
X26000000Y-68000000D03*
X22000000Y-37000000D03*
X16000000Y-37000000D03*
X25000000Y-65000000D03*
X20000000Y-58000000D03*
X38000000Y-59000000D03*
X35000000Y-82000000D03*
X27000000Y-27000000D03*
X40000000Y-23000000D03*
X61000000Y-30000000D03*
X50000000Y-33000000D03*
X27000000Y-24000000D03*
X64000000Y-79000000D03*
X65000000Y-25000000D03*
X53000000Y-18000000D03*
X27000000Y-54000000D03*
X20000000Y-23000000D03*
X64000000Y-25000000D03*
X33000000Y-17000000D03*
X34000000Y-50000000D03*
X64000000Y-81000000D03*
X34000000Y-18000000D03*
%TO.N,Net-(J2-Pin_6)*%
X32800000Y-56675000D03*
%TD*%
D18*
%TO.N,Net-(J4-Pin_5)*%
X48044000Y-43956000D02*
X65800000Y-43956000D01*
X44325000Y-47675000D02*
X48044000Y-43956000D01*
%TO.N,Net-(J4-Pin_6)*%
X48500000Y-46500000D02*
X49500000Y-46500000D01*
X46150000Y-54625000D02*
X46150000Y-48850000D01*
X49504000Y-46496000D02*
X65800000Y-46496000D01*
X48200000Y-56675000D02*
X46150000Y-54625000D01*
X51575000Y-56675000D02*
X48200000Y-56675000D01*
X46150000Y-48850000D02*
X48500000Y-46500000D01*
X49500000Y-46500000D02*
X49504000Y-46496000D01*
%TO.N,Net-(J4-Pin_7)*%
X48864000Y-49036000D02*
X65800000Y-49036000D01*
X47800000Y-50100000D02*
X48864000Y-49036000D01*
X47800000Y-53525000D02*
X47800000Y-50100000D01*
X48950000Y-54675000D02*
X47800000Y-53525000D01*
X51575000Y-54675000D02*
X48950000Y-54675000D01*
%TO.N,Net-(J4-Pin_10)*%
X59156000Y-56656000D02*
X65800000Y-56656000D01*
X58875000Y-56650000D02*
X59150000Y-56650000D01*
X59150000Y-56650000D02*
X59156000Y-56656000D01*
X54900000Y-52675000D02*
X58875000Y-56650000D01*
%TO.N,Net-(J2-Pin_5)*%
X25410000Y-50560000D02*
X29525000Y-54675000D01*
X29525000Y-54675000D02*
X35575000Y-54675000D01*
X17540000Y-50560000D02*
X25410000Y-50560000D01*
D19*
%TO.N,Net-(J3-Pin_4)*%
X65800000Y-68340000D02*
X35415000Y-68340000D01*
X35415000Y-68340000D02*
X33050000Y-65975000D01*
X34175000Y-62675000D02*
X35575000Y-62675000D01*
X33050000Y-63800000D02*
X34175000Y-62675000D01*
X33050000Y-65975000D02*
X33050000Y-63800000D01*
%TO.N,Net-(J3-Pin_5)*%
X33350000Y-60675000D02*
X35575000Y-60675000D01*
X65800000Y-70880000D02*
X35155000Y-70880000D01*
X31325000Y-67050000D02*
X31325000Y-62700000D01*
X35155000Y-70880000D02*
X31325000Y-67050000D01*
X31325000Y-62700000D02*
X33350000Y-60675000D01*
%TO.N,Net-(J3-Pin_3)*%
X35575000Y-64675000D02*
X36700000Y-65800000D01*
X36700000Y-65800000D02*
X65800000Y-65800000D01*
%TO.N,Net-(J3-Pin_6)*%
X34870000Y-73420000D02*
X29450000Y-68000000D01*
X32650000Y-58675000D02*
X35575000Y-58675000D01*
X29450000Y-61875000D02*
X32650000Y-58675000D01*
X65800000Y-73420000D02*
X34870000Y-73420000D01*
X29450000Y-68000000D02*
X29450000Y-61875000D01*
D18*
%TO.N,Net-(J4-Pin_5)*%
X44325000Y-47675000D02*
X44325000Y-55425000D01*
X47575000Y-58675000D02*
X51575000Y-58675000D01*
X44325000Y-55425000D02*
X47575000Y-58675000D01*
D20*
%TO.N,Net-(J5-In)*%
X35600000Y-18492500D02*
X35600000Y-50650000D01*
D19*
X35675000Y-17475000D02*
X35575000Y-17575000D01*
X35600000Y-50650000D02*
X35575000Y-50675000D01*
%TO.N,Net-(J2-Pin_6)*%
X35575000Y-56675000D02*
X32800000Y-56675000D01*
%TO.N,Net-(J3-Pin_2)*%
X52160000Y-63260000D02*
X51575000Y-62675000D01*
X65800000Y-63260000D02*
X52160000Y-63260000D01*
%TO.N,Net-(J3-Pin_1)*%
X51575000Y-60675000D02*
X65755000Y-60675000D01*
X65755000Y-60675000D02*
X65800000Y-60720000D01*
D18*
%TO.N,Net-(J4-Pin_10)*%
X51575000Y-52675000D02*
X54900000Y-52675000D01*
D20*
%TO.N,Net-(C1-Pad1)*%
X37250000Y-24550000D02*
X40400000Y-24550000D01*
%TD*%
%TA.AperFunction,Conductor*%
%TO.N,GND*%
G36*
X50287104Y-49795145D02*
G01*
X50317087Y-49801668D01*
X50320317Y-49804898D01*
X50324700Y-49806185D01*
X50344792Y-49829372D01*
X50366493Y-49851073D01*
X50367464Y-49855537D01*
X50370455Y-49858989D01*
X50374821Y-49889359D01*
X50381345Y-49919345D01*
X50380013Y-49925466D01*
X50380399Y-49928147D01*
X50373843Y-49953833D01*
X50331403Y-50067620D01*
X50331401Y-50067627D01*
X50325000Y-50127155D01*
X50325000Y-50425000D01*
X52825000Y-50425000D01*
X52825000Y-50127172D01*
X52824999Y-50127155D01*
X52818598Y-50067627D01*
X52818596Y-50067620D01*
X52776157Y-49953833D01*
X52771173Y-49884141D01*
X52804658Y-49822818D01*
X52865981Y-49789334D01*
X52892339Y-49786500D01*
X64612779Y-49786500D01*
X64679818Y-49806185D01*
X64713097Y-49837615D01*
X64769892Y-49915788D01*
X64920213Y-50066109D01*
X65092182Y-50191050D01*
X65100946Y-50195516D01*
X65151742Y-50243491D01*
X65168536Y-50311312D01*
X65145998Y-50377447D01*
X65100946Y-50416484D01*
X65092182Y-50420949D01*
X64920213Y-50545890D01*
X64769890Y-50696213D01*
X64644951Y-50868179D01*
X64548444Y-51057585D01*
X64482753Y-51259760D01*
X64457796Y-51417335D01*
X64449500Y-51469713D01*
X64449500Y-51682287D01*
X64455259Y-51718645D01*
X64475816Y-51848443D01*
X64482754Y-51892243D01*
X64547676Y-52092052D01*
X64548444Y-52094414D01*
X64644951Y-52283820D01*
X64769890Y-52455786D01*
X64920213Y-52606109D01*
X65092182Y-52731050D01*
X65100946Y-52735516D01*
X65151742Y-52783491D01*
X65168536Y-52851312D01*
X65145998Y-52917447D01*
X65100946Y-52956484D01*
X65092182Y-52960949D01*
X64920213Y-53085890D01*
X64769890Y-53236213D01*
X64644951Y-53408179D01*
X64548444Y-53597585D01*
X64482753Y-53799760D01*
X64449500Y-54009713D01*
X64449500Y-54222286D01*
X64480378Y-54417246D01*
X64482754Y-54432243D01*
X64512804Y-54524728D01*
X64548444Y-54634414D01*
X64644951Y-54823820D01*
X64769890Y-54995786D01*
X64920213Y-55146109D01*
X65092182Y-55271050D01*
X65100946Y-55275516D01*
X65151742Y-55323491D01*
X65168536Y-55391312D01*
X65145998Y-55457447D01*
X65100946Y-55496484D01*
X65092182Y-55500949D01*
X64920213Y-55625890D01*
X64769892Y-55776211D01*
X64713097Y-55854385D01*
X64657767Y-55897051D01*
X64612779Y-55905500D01*
X59266294Y-55905500D01*
X59243816Y-55903446D01*
X59242987Y-55903293D01*
X59223918Y-55899500D01*
X59222408Y-55899500D01*
X59215540Y-55898234D01*
X59188818Y-55884731D01*
X59161065Y-55873521D01*
X59153758Y-55867015D01*
X59153180Y-55866723D01*
X59152905Y-55866255D01*
X59150337Y-55863969D01*
X55378421Y-52092052D01*
X55378414Y-52092046D01*
X55304729Y-52042812D01*
X55304729Y-52042813D01*
X55255491Y-52009913D01*
X55118917Y-51953343D01*
X55118907Y-51953340D01*
X54973920Y-51924500D01*
X54973918Y-51924500D01*
X52824751Y-51924500D01*
X52757712Y-51904815D01*
X52737136Y-51888247D01*
X52730823Y-51881943D01*
X52682546Y-51817454D01*
X52617380Y-51768670D01*
X52611134Y-51762434D01*
X52598431Y-51739211D01*
X52582567Y-51718019D01*
X52581924Y-51709036D01*
X52577603Y-51701136D01*
X52579471Y-51674733D01*
X52577583Y-51648327D01*
X52581899Y-51640422D01*
X52582535Y-51631441D01*
X52598380Y-51610240D01*
X52611069Y-51587004D01*
X52624344Y-51575501D01*
X52624364Y-51575476D01*
X52624382Y-51575469D01*
X52624439Y-51575420D01*
X52682189Y-51532188D01*
X52682190Y-51532187D01*
X52768350Y-51417093D01*
X52768354Y-51417086D01*
X52818596Y-51282379D01*
X52818598Y-51282372D01*
X52824999Y-51222844D01*
X52825000Y-51222827D01*
X52825000Y-50925000D01*
X50325000Y-50925000D01*
X50325000Y-51222844D01*
X50331401Y-51282372D01*
X50331403Y-51282379D01*
X50381645Y-51417086D01*
X50381649Y-51417093D01*
X50467809Y-51532186D01*
X50525561Y-51575420D01*
X50567432Y-51631354D01*
X50572416Y-51701046D01*
X50538931Y-51762369D01*
X50525563Y-51773952D01*
X50467454Y-51817453D01*
X50467452Y-51817455D01*
X50381206Y-51932664D01*
X50381202Y-51932671D01*
X50330908Y-52067517D01*
X50324501Y-52127116D01*
X50324500Y-52127135D01*
X50324500Y-53222870D01*
X50324501Y-53222876D01*
X50330908Y-53282483D01*
X50381202Y-53417328D01*
X50381206Y-53417335D01*
X50467452Y-53532544D01*
X50467453Y-53532544D01*
X50467454Y-53532546D01*
X50496615Y-53554376D01*
X50525145Y-53575734D01*
X50567015Y-53631668D01*
X50571999Y-53701360D01*
X50538513Y-53762683D01*
X50538485Y-53762711D01*
X50532226Y-53768965D01*
X50467454Y-53817454D01*
X50419189Y-53881926D01*
X50412901Y-53888211D01*
X50389717Y-53900859D01*
X50368581Y-53916682D01*
X50356833Y-53918801D01*
X50351567Y-53921675D01*
X50343943Y-53921127D01*
X50325249Y-53924500D01*
X49312229Y-53924500D01*
X49245190Y-53904815D01*
X49224548Y-53888181D01*
X48586819Y-53250451D01*
X48553334Y-53189128D01*
X48550500Y-53162770D01*
X48550500Y-50462229D01*
X48570185Y-50395190D01*
X48586819Y-50374548D01*
X49138548Y-49822819D01*
X49199871Y-49789334D01*
X49226229Y-49786500D01*
X50257661Y-49786500D01*
X50287104Y-49795145D01*
G37*
%TD.AperFunction*%
%TA.AperFunction,Conductor*%
G36*
X30133103Y-15520185D02*
G01*
X30178858Y-15572989D01*
X30188802Y-15642147D01*
X30165330Y-15698812D01*
X30156647Y-15710410D01*
X30156645Y-15710413D01*
X30106403Y-15845120D01*
X30106401Y-15845127D01*
X30100000Y-15904655D01*
X30100000Y-18242500D01*
X32600000Y-18242500D01*
X32600000Y-15904672D01*
X32599999Y-15904655D01*
X32593598Y-15845127D01*
X32593596Y-15845120D01*
X32543354Y-15710413D01*
X32543352Y-15710410D01*
X32534670Y-15698812D01*
X32510252Y-15633348D01*
X32525103Y-15565074D01*
X32574508Y-15515669D01*
X32633936Y-15500500D01*
X34315440Y-15500500D01*
X34382479Y-15520185D01*
X34428234Y-15572989D01*
X34438178Y-15642147D01*
X34414706Y-15698812D01*
X34406204Y-15710168D01*
X34406202Y-15710171D01*
X34355908Y-15845017D01*
X34349501Y-15904616D01*
X34349501Y-15904623D01*
X34349500Y-15904635D01*
X34349500Y-21080370D01*
X34349501Y-21080376D01*
X34355908Y-21139983D01*
X34406202Y-21274828D01*
X34406203Y-21274829D01*
X34406204Y-21274831D01*
X34492452Y-21390043D01*
X34492455Y-21390047D01*
X34549810Y-21432982D01*
X34591682Y-21488915D01*
X34599500Y-21532249D01*
X34599500Y-49656534D01*
X34579815Y-49723573D01*
X34549812Y-49755800D01*
X34467452Y-49817455D01*
X34381206Y-49932664D01*
X34381202Y-49932671D01*
X34330908Y-50067517D01*
X34324501Y-50127116D01*
X34324501Y-50127123D01*
X34324500Y-50127135D01*
X34324500Y-51222870D01*
X34324501Y-51222876D01*
X34330908Y-51282483D01*
X34381202Y-51417328D01*
X34381206Y-51417335D01*
X34467452Y-51532544D01*
X34467453Y-51532544D01*
X34467454Y-51532546D01*
X34502727Y-51558951D01*
X34525562Y-51576046D01*
X34567432Y-51631980D01*
X34572416Y-51701672D01*
X34538930Y-51762994D01*
X34525562Y-51774578D01*
X34467809Y-51817812D01*
X34381649Y-51932906D01*
X34381645Y-51932913D01*
X34331403Y-52067620D01*
X34331401Y-52067627D01*
X34325000Y-52127155D01*
X34325000Y-52425000D01*
X36825000Y-52425000D01*
X36825000Y-52127172D01*
X36824999Y-52127155D01*
X36818598Y-52067627D01*
X36818596Y-52067620D01*
X36768354Y-51932913D01*
X36768350Y-51932906D01*
X36682190Y-51817812D01*
X36682187Y-51817809D01*
X36624438Y-51774578D01*
X36582567Y-51718645D01*
X36577583Y-51648953D01*
X36611069Y-51587630D01*
X36624432Y-51576049D01*
X36682546Y-51532546D01*
X36768796Y-51417331D01*
X36819091Y-51282483D01*
X36825500Y-51222873D01*
X36825499Y-50127128D01*
X36819091Y-50067517D01*
X36785349Y-49977051D01*
X36768797Y-49932671D01*
X36768793Y-49932664D01*
X36703987Y-49846095D01*
X36682546Y-49817454D01*
X36682544Y-49817452D01*
X36682542Y-49817450D01*
X36650188Y-49793230D01*
X36608318Y-49737296D01*
X36600500Y-49693964D01*
X36600500Y-28283985D01*
X36620185Y-28216946D01*
X36672989Y-28171191D01*
X36742147Y-28161247D01*
X36763504Y-28166279D01*
X36834916Y-28189942D01*
X36933356Y-28199999D01*
X37450000Y-28199999D01*
X37466636Y-28199999D01*
X37466652Y-28199998D01*
X37565083Y-28189943D01*
X37724572Y-28137093D01*
X37724577Y-28137091D01*
X37867580Y-28048885D01*
X37986385Y-27930080D01*
X38074591Y-27787077D01*
X38074593Y-27787072D01*
X38127442Y-27627583D01*
X38137499Y-27529150D01*
X38137500Y-27529137D01*
X38137500Y-27475000D01*
X37450000Y-27475000D01*
X37450000Y-28199999D01*
X36933356Y-28199999D01*
X36950000Y-28199998D01*
X36950000Y-26975000D01*
X37450000Y-26975000D01*
X38137499Y-26975000D01*
X38137499Y-26920864D01*
X38137498Y-26920847D01*
X38127443Y-26822416D01*
X38074593Y-26662927D01*
X38074591Y-26662922D01*
X37986385Y-26519919D01*
X37867580Y-26401114D01*
X37724577Y-26312908D01*
X37724572Y-26312906D01*
X37565083Y-26260057D01*
X37466650Y-26250000D01*
X37450000Y-26250000D01*
X37450000Y-26975000D01*
X36950000Y-26975000D01*
X36950000Y-26249999D01*
X36933356Y-26250000D01*
X36834914Y-26260057D01*
X36763503Y-26283720D01*
X36693675Y-26286121D01*
X36633633Y-26250389D01*
X36602441Y-26187869D01*
X36600500Y-26166014D01*
X36600500Y-25595349D01*
X36620185Y-25528310D01*
X36672989Y-25482555D01*
X36742147Y-25472611D01*
X36763493Y-25477640D01*
X36877292Y-25515349D01*
X36976655Y-25525500D01*
X37013563Y-25525499D01*
X37037754Y-25527881D01*
X37103596Y-25540979D01*
X37151458Y-25550500D01*
X37151459Y-25550500D01*
X40498543Y-25550500D01*
X40612247Y-25527882D01*
X40636439Y-25525499D01*
X40673338Y-25525499D01*
X40673344Y-25525499D01*
X40673352Y-25525498D01*
X40673355Y-25525498D01*
X40727760Y-25519940D01*
X40772708Y-25515349D01*
X40933697Y-25462003D01*
X41078044Y-25372968D01*
X41087668Y-25363343D01*
X41148987Y-25329856D01*
X41218679Y-25334835D01*
X41263034Y-25363339D01*
X41272267Y-25372572D01*
X41272271Y-25372575D01*
X41416507Y-25461542D01*
X41416518Y-25461547D01*
X41577393Y-25514855D01*
X41676683Y-25524999D01*
X42200000Y-25524999D01*
X42223308Y-25524999D01*
X42223322Y-25524998D01*
X42322607Y-25514855D01*
X42483481Y-25461547D01*
X42483492Y-25461542D01*
X42627728Y-25372575D01*
X42627732Y-25372572D01*
X42747572Y-25252732D01*
X42747575Y-25252728D01*
X42836542Y-25108492D01*
X42836547Y-25108481D01*
X42889855Y-24947606D01*
X42899999Y-24848322D01*
X42900000Y-24848309D01*
X42900000Y-24800000D01*
X42200000Y-24800000D01*
X42200000Y-25524999D01*
X41676683Y-25524999D01*
X41700000Y-25524998D01*
X41700000Y-24300000D01*
X42200000Y-24300000D01*
X42899999Y-24300000D01*
X42899999Y-24251692D01*
X42899998Y-24251677D01*
X42889855Y-24152392D01*
X42836547Y-23991518D01*
X42836542Y-23991507D01*
X42747575Y-23847271D01*
X42747572Y-23847267D01*
X42627732Y-23727427D01*
X42627728Y-23727424D01*
X42483492Y-23638457D01*
X42483481Y-23638452D01*
X42322606Y-23585144D01*
X42223322Y-23575000D01*
X42200000Y-23575000D01*
X42200000Y-24300000D01*
X41700000Y-24300000D01*
X41700000Y-23574999D01*
X41676693Y-23575000D01*
X41676674Y-23575001D01*
X41577392Y-23585144D01*
X41416518Y-23638452D01*
X41416507Y-23638457D01*
X41272271Y-23727424D01*
X41272265Y-23727428D01*
X41263031Y-23736663D01*
X41201707Y-23770146D01*
X41132015Y-23765159D01*
X41087672Y-23736660D01*
X41078044Y-23727032D01*
X41078040Y-23727029D01*
X40933705Y-23638001D01*
X40933699Y-23637998D01*
X40933697Y-23637997D01*
X40886495Y-23622356D01*
X40772709Y-23584651D01*
X40673352Y-23574500D01*
X40673345Y-23574500D01*
X40636434Y-23574500D01*
X40612243Y-23572117D01*
X40574551Y-23564619D01*
X40498543Y-23549500D01*
X40498541Y-23549500D01*
X37151459Y-23549500D01*
X37118569Y-23556041D01*
X37037745Y-23572118D01*
X37013558Y-23574500D01*
X36976663Y-23574500D01*
X36976643Y-23574501D01*
X36877292Y-23584650D01*
X36877288Y-23584651D01*
X36763504Y-23622356D01*
X36693675Y-23624758D01*
X36633633Y-23589026D01*
X36602441Y-23526505D01*
X36600500Y-23504650D01*
X36600500Y-21532249D01*
X36620185Y-21465210D01*
X36650190Y-21432982D01*
X36707546Y-21390046D01*
X36793796Y-21274831D01*
X36844091Y-21139983D01*
X36850500Y-21080373D01*
X36850500Y-21080344D01*
X38600000Y-21080344D01*
X38606401Y-21139872D01*
X38606403Y-21139879D01*
X38656645Y-21274586D01*
X38656649Y-21274593D01*
X38742809Y-21389687D01*
X38742812Y-21389690D01*
X38857906Y-21475850D01*
X38857913Y-21475854D01*
X38992620Y-21526096D01*
X38992627Y-21526098D01*
X39052155Y-21532499D01*
X39052172Y-21532500D01*
X39600000Y-21532500D01*
X40100000Y-21532500D01*
X40647828Y-21532500D01*
X40647844Y-21532499D01*
X40707372Y-21526098D01*
X40707379Y-21526096D01*
X40842086Y-21475854D01*
X40842093Y-21475850D01*
X40957187Y-21389690D01*
X40957190Y-21389687D01*
X41043350Y-21274593D01*
X41043354Y-21274586D01*
X41093596Y-21139879D01*
X41093598Y-21139872D01*
X41099999Y-21080344D01*
X41100000Y-21080327D01*
X41100000Y-18859568D01*
X54499500Y-18859568D01*
X54499500Y-19140431D01*
X54530942Y-19419494D01*
X54530945Y-19419512D01*
X54593439Y-19693317D01*
X54593443Y-19693329D01*
X54686200Y-19958411D01*
X54808053Y-20211442D01*
X54808055Y-20211445D01*
X54957477Y-20449248D01*
X55132584Y-20668825D01*
X55331175Y-20867416D01*
X55550752Y-21042523D01*
X55788555Y-21191945D01*
X56041592Y-21313801D01*
X56240680Y-21383465D01*
X56306670Y-21406556D01*
X56306682Y-21406560D01*
X56580491Y-21469055D01*
X56580497Y-21469055D01*
X56580505Y-21469057D01*
X56766547Y-21490018D01*
X56859569Y-21500499D01*
X56859572Y-21500500D01*
X56859575Y-21500500D01*
X57140428Y-21500500D01*
X57140429Y-21500499D01*
X57283055Y-21484429D01*
X57419494Y-21469057D01*
X57419499Y-21469056D01*
X57419509Y-21469055D01*
X57693318Y-21406560D01*
X57958408Y-21313801D01*
X58211445Y-21191945D01*
X58449248Y-21042523D01*
X58668825Y-20867416D01*
X58867416Y-20668825D01*
X59042523Y-20449248D01*
X59191945Y-20211445D01*
X59313801Y-19958408D01*
X59406560Y-19693318D01*
X59469055Y-19419509D01*
X59500500Y-19140425D01*
X59500500Y-18859575D01*
X59481522Y-18691138D01*
X59469057Y-18580505D01*
X59469054Y-18580487D01*
X59406560Y-18306682D01*
X59406556Y-18306670D01*
X59383465Y-18240680D01*
X59313801Y-18041592D01*
X59191945Y-17788555D01*
X59042523Y-17550752D01*
X58867416Y-17331175D01*
X58668825Y-17132584D01*
X58637438Y-17107554D01*
X58566388Y-17050893D01*
X58449248Y-16957477D01*
X58211445Y-16808055D01*
X58211442Y-16808053D01*
X57958411Y-16686200D01*
X57693329Y-16593443D01*
X57693317Y-16593439D01*
X57419512Y-16530945D01*
X57419494Y-16530942D01*
X57140431Y-16499500D01*
X57140425Y-16499500D01*
X56859575Y-16499500D01*
X56859568Y-16499500D01*
X56580505Y-16530942D01*
X56580487Y-16530945D01*
X56306682Y-16593439D01*
X56306670Y-16593443D01*
X56041588Y-16686200D01*
X55788557Y-16808053D01*
X55550753Y-16957476D01*
X55331175Y-17132583D01*
X55132583Y-17331175D01*
X54957476Y-17550753D01*
X54808053Y-17788557D01*
X54686200Y-18041588D01*
X54593443Y-18306670D01*
X54593439Y-18306682D01*
X54530945Y-18580487D01*
X54530942Y-18580505D01*
X54499500Y-18859568D01*
X41100000Y-18859568D01*
X41100000Y-18742500D01*
X40100000Y-18742500D01*
X40100000Y-21532500D01*
X39600000Y-21532500D01*
X39600000Y-18742500D01*
X38600000Y-18742500D01*
X38600000Y-21080344D01*
X36850500Y-21080344D01*
X36850499Y-18426166D01*
X36850499Y-15904629D01*
X36850498Y-15904623D01*
X36850497Y-15904616D01*
X36844091Y-15845017D01*
X36820844Y-15782689D01*
X36793797Y-15710171D01*
X36793795Y-15710168D01*
X36785294Y-15698812D01*
X36760876Y-15633348D01*
X36775727Y-15565075D01*
X36825131Y-15515669D01*
X36884560Y-15500500D01*
X38566064Y-15500500D01*
X38633103Y-15520185D01*
X38678858Y-15572989D01*
X38688802Y-15642147D01*
X38665330Y-15698812D01*
X38656647Y-15710410D01*
X38656645Y-15710413D01*
X38606403Y-15845120D01*
X38606401Y-15845127D01*
X38600000Y-15904655D01*
X38600000Y-18242500D01*
X41100000Y-18242500D01*
X41100000Y-15904672D01*
X41099999Y-15904655D01*
X41093598Y-15845127D01*
X41093596Y-15845120D01*
X41043354Y-15710413D01*
X41043352Y-15710410D01*
X41034670Y-15698812D01*
X41010252Y-15633348D01*
X41025103Y-15565074D01*
X41074508Y-15515669D01*
X41133936Y-15500500D01*
X64484108Y-15500500D01*
X64934108Y-15500500D01*
X64996519Y-15500500D01*
X65003471Y-15500695D01*
X65045000Y-15503027D01*
X65312097Y-15518026D01*
X65325900Y-15519582D01*
X65627214Y-15570777D01*
X65640757Y-15573868D01*
X65904000Y-15649707D01*
X65934438Y-15658476D01*
X65947563Y-15663068D01*
X66229924Y-15780026D01*
X66242438Y-15786052D01*
X66349325Y-15845127D01*
X66509929Y-15933890D01*
X66521703Y-15941288D01*
X66770953Y-16118140D01*
X66781825Y-16126810D01*
X66974443Y-16298944D01*
X67009708Y-16330458D01*
X67019541Y-16340291D01*
X67223189Y-16568174D01*
X67231859Y-16579046D01*
X67408711Y-16828296D01*
X67416109Y-16840070D01*
X67563943Y-17107554D01*
X67569976Y-17120082D01*
X67686930Y-17402435D01*
X67691523Y-17415561D01*
X67776129Y-17709236D01*
X67779223Y-17722792D01*
X67830416Y-18024091D01*
X67831973Y-18037909D01*
X67849305Y-18346527D01*
X67849500Y-18353480D01*
X67849500Y-80246519D01*
X67849305Y-80253472D01*
X67831973Y-80562090D01*
X67830416Y-80575908D01*
X67779223Y-80877207D01*
X67776129Y-80890763D01*
X67691523Y-81184438D01*
X67686930Y-81197564D01*
X67569976Y-81479917D01*
X67563943Y-81492445D01*
X67416109Y-81759929D01*
X67408711Y-81771703D01*
X67231859Y-82020953D01*
X67223189Y-82031825D01*
X67019541Y-82259708D01*
X67009708Y-82269541D01*
X66781825Y-82473189D01*
X66770953Y-82481859D01*
X66521703Y-82658711D01*
X66509929Y-82666109D01*
X66242445Y-82813943D01*
X66229917Y-82819976D01*
X65947564Y-82936930D01*
X65934438Y-82941523D01*
X65640763Y-83026129D01*
X65627207Y-83029223D01*
X65325908Y-83080416D01*
X65312090Y-83081973D01*
X65003472Y-83099305D01*
X64996519Y-83099500D01*
X18153481Y-83099500D01*
X18146528Y-83099305D01*
X17860301Y-83083231D01*
X17846483Y-83081674D01*
X17567298Y-83034238D01*
X17553741Y-83031144D01*
X17281614Y-82952745D01*
X17268490Y-82948152D01*
X17006860Y-82839782D01*
X16994331Y-82833749D01*
X16746476Y-82696764D01*
X16734702Y-82689366D01*
X16503738Y-82525489D01*
X16492866Y-82516818D01*
X16474606Y-82500500D01*
X16439419Y-82469054D01*
X16281713Y-82328118D01*
X16271881Y-82318286D01*
X16083181Y-82107133D01*
X16074510Y-82096261D01*
X16028790Y-82031825D01*
X15934040Y-81898286D01*
X15910633Y-81865297D01*
X15903235Y-81853523D01*
X15858015Y-81771703D01*
X15766246Y-81605661D01*
X15760217Y-81593139D01*
X15651847Y-81331509D01*
X15647254Y-81318385D01*
X15568855Y-81046258D01*
X15565761Y-81032701D01*
X15555761Y-80973847D01*
X15518323Y-80753505D01*
X15516769Y-80739706D01*
X15500695Y-80453471D01*
X15500500Y-80446519D01*
X15500500Y-79859568D01*
X21499500Y-79859568D01*
X21499500Y-80140431D01*
X21530942Y-80419494D01*
X21530945Y-80419512D01*
X21593439Y-80693317D01*
X21593443Y-80693329D01*
X21686200Y-80958411D01*
X21808053Y-81211442D01*
X21808055Y-81211445D01*
X21957477Y-81449248D01*
X22132584Y-81668825D01*
X22331175Y-81867416D01*
X22550752Y-82042523D01*
X22788555Y-82191945D01*
X23041592Y-82313801D01*
X23240680Y-82383465D01*
X23306670Y-82406556D01*
X23306682Y-82406560D01*
X23580491Y-82469055D01*
X23580497Y-82469055D01*
X23580505Y-82469057D01*
X23766547Y-82490018D01*
X23859569Y-82500499D01*
X23859572Y-82500500D01*
X23859575Y-82500500D01*
X24140428Y-82500500D01*
X24140429Y-82500499D01*
X24305870Y-82481859D01*
X24419494Y-82469057D01*
X24419499Y-82469056D01*
X24419509Y-82469055D01*
X24693318Y-82406560D01*
X24958408Y-82313801D01*
X25211445Y-82191945D01*
X25449248Y-82042523D01*
X25668825Y-81867416D01*
X25867416Y-81668825D01*
X26042523Y-81449248D01*
X26191945Y-81211445D01*
X26313801Y-80958408D01*
X26406560Y-80693318D01*
X26469055Y-80419509D01*
X26500500Y-80140425D01*
X26500500Y-79859575D01*
X26500499Y-79859568D01*
X54499500Y-79859568D01*
X54499500Y-80140431D01*
X54530942Y-80419494D01*
X54530945Y-80419512D01*
X54593439Y-80693317D01*
X54593443Y-80693329D01*
X54686200Y-80958411D01*
X54808053Y-81211442D01*
X54808055Y-81211445D01*
X54957477Y-81449248D01*
X55132584Y-81668825D01*
X55331175Y-81867416D01*
X55550752Y-82042523D01*
X55788555Y-82191945D01*
X56041592Y-82313801D01*
X56240680Y-82383465D01*
X56306670Y-82406556D01*
X56306682Y-82406560D01*
X56580491Y-82469055D01*
X56580497Y-82469055D01*
X56580505Y-82469057D01*
X56766547Y-82490018D01*
X56859569Y-82500499D01*
X56859572Y-82500500D01*
X56859575Y-82500500D01*
X57140428Y-82500500D01*
X57140429Y-82500499D01*
X57305870Y-82481859D01*
X57419494Y-82469057D01*
X57419499Y-82469056D01*
X57419509Y-82469055D01*
X57693318Y-82406560D01*
X57958408Y-82313801D01*
X58211445Y-82191945D01*
X58449248Y-82042523D01*
X58668825Y-81867416D01*
X58867416Y-81668825D01*
X59042523Y-81449248D01*
X59191945Y-81211445D01*
X59313801Y-80958408D01*
X59406560Y-80693318D01*
X59469055Y-80419509D01*
X59500500Y-80140425D01*
X59500500Y-79859575D01*
X59477456Y-79655051D01*
X59469057Y-79580505D01*
X59469054Y-79580487D01*
X59457554Y-79530104D01*
X59406560Y-79306682D01*
X59313801Y-79041592D01*
X59191945Y-78788555D01*
X59042523Y-78550752D01*
X58867416Y-78331175D01*
X58668825Y-78132584D01*
X58449248Y-77957477D01*
X58211445Y-77808055D01*
X58211442Y-77808053D01*
X57958411Y-77686200D01*
X57693329Y-77593443D01*
X57693317Y-77593439D01*
X57419512Y-77530945D01*
X57419494Y-77530942D01*
X57140431Y-77499500D01*
X57140425Y-77499500D01*
X56859575Y-77499500D01*
X56859568Y-77499500D01*
X56580505Y-77530942D01*
X56580487Y-77530945D01*
X56306682Y-77593439D01*
X56306670Y-77593443D01*
X56041588Y-77686200D01*
X55788557Y-77808053D01*
X55550753Y-77957476D01*
X55331175Y-78132583D01*
X55132583Y-78331175D01*
X54957476Y-78550753D01*
X54808053Y-78788557D01*
X54686200Y-79041588D01*
X54593443Y-79306670D01*
X54593439Y-79306682D01*
X54530945Y-79580487D01*
X54530942Y-79580505D01*
X54499500Y-79859568D01*
X26500499Y-79859568D01*
X26477456Y-79655051D01*
X26469057Y-79580505D01*
X26469054Y-79580487D01*
X26457554Y-79530104D01*
X26406560Y-79306682D01*
X26313801Y-79041592D01*
X26191945Y-78788555D01*
X26042523Y-78550752D01*
X25867416Y-78331175D01*
X25668825Y-78132584D01*
X25449248Y-77957477D01*
X25211445Y-77808055D01*
X25211442Y-77808053D01*
X24958411Y-77686200D01*
X24693329Y-77593443D01*
X24693317Y-77593439D01*
X24419512Y-77530945D01*
X24419494Y-77530942D01*
X24140431Y-77499500D01*
X24140425Y-77499500D01*
X23859575Y-77499500D01*
X23859568Y-77499500D01*
X23580505Y-77530942D01*
X23580487Y-77530945D01*
X23306682Y-77593439D01*
X23306670Y-77593443D01*
X23041588Y-77686200D01*
X22788557Y-77808053D01*
X22550753Y-77957476D01*
X22331175Y-78132583D01*
X22132583Y-78331175D01*
X21957476Y-78550753D01*
X21808053Y-78788557D01*
X21686200Y-79041588D01*
X21593443Y-79306670D01*
X21593439Y-79306682D01*
X21530945Y-79580487D01*
X21530942Y-79580505D01*
X21499500Y-79859568D01*
X15500500Y-79859568D01*
X15500500Y-64902135D01*
X16189500Y-64902135D01*
X16189500Y-66697870D01*
X16189501Y-66697876D01*
X16195908Y-66757483D01*
X16246202Y-66892328D01*
X16246206Y-66892335D01*
X16332452Y-67007544D01*
X16332455Y-67007547D01*
X16447664Y-67093793D01*
X16447671Y-67093797D01*
X16579082Y-67142810D01*
X16635016Y-67184681D01*
X16659433Y-67250145D01*
X16644582Y-67318418D01*
X16623431Y-67346673D01*
X16509889Y-67460215D01*
X16384951Y-67632179D01*
X16288444Y-67821585D01*
X16222753Y-68023760D01*
X16213995Y-68079057D01*
X16189500Y-68233713D01*
X16189500Y-68446287D01*
X16222754Y-68656243D01*
X16238396Y-68704385D01*
X16288444Y-68858414D01*
X16384951Y-69047820D01*
X16509890Y-69219786D01*
X16660213Y-69370109D01*
X16832182Y-69495050D01*
X16840946Y-69499516D01*
X16891742Y-69547491D01*
X16908536Y-69615312D01*
X16885998Y-69681447D01*
X16840946Y-69720484D01*
X16832182Y-69724949D01*
X16660213Y-69849890D01*
X16509890Y-70000213D01*
X16384951Y-70172179D01*
X16288444Y-70361585D01*
X16222753Y-70563760D01*
X16189500Y-70773713D01*
X16189500Y-70986287D01*
X16222754Y-71196243D01*
X16238396Y-71244385D01*
X16288444Y-71398414D01*
X16384951Y-71587820D01*
X16509890Y-71759786D01*
X16660213Y-71910109D01*
X16832182Y-72035050D01*
X16840946Y-72039516D01*
X16891742Y-72087491D01*
X16908536Y-72155312D01*
X16885998Y-72221447D01*
X16840946Y-72260484D01*
X16832182Y-72264949D01*
X16660213Y-72389890D01*
X16509890Y-72540213D01*
X16384951Y-72712179D01*
X16288444Y-72901585D01*
X16222753Y-73103760D01*
X16189500Y-73313713D01*
X16189500Y-73526287D01*
X16222754Y-73736243D01*
X16276132Y-73900524D01*
X16288444Y-73938414D01*
X16384951Y-74127820D01*
X16509890Y-74299786D01*
X16660213Y-74450109D01*
X16832182Y-74575050D01*
X16840946Y-74579516D01*
X16891742Y-74627491D01*
X16908536Y-74695312D01*
X16885998Y-74761447D01*
X16840946Y-74800484D01*
X16832182Y-74804949D01*
X16660213Y-74929890D01*
X16509890Y-75080213D01*
X16384951Y-75252179D01*
X16288444Y-75441585D01*
X16222753Y-75643760D01*
X16189500Y-75853713D01*
X16189500Y-76066286D01*
X16222753Y-76276239D01*
X16288444Y-76478414D01*
X16384951Y-76667820D01*
X16509890Y-76839786D01*
X16660213Y-76990109D01*
X16832182Y-77115050D01*
X16840946Y-77119516D01*
X16891742Y-77167491D01*
X16908536Y-77235312D01*
X16885998Y-77301447D01*
X16840946Y-77340484D01*
X16832182Y-77344949D01*
X16660213Y-77469890D01*
X16509890Y-77620213D01*
X16384951Y-77792179D01*
X16288444Y-77981585D01*
X16222753Y-78183760D01*
X16199405Y-78331175D01*
X16189500Y-78393713D01*
X16189500Y-78606287D01*
X16199534Y-78669644D01*
X16222753Y-78816239D01*
X16288444Y-79018414D01*
X16384951Y-79207820D01*
X16509890Y-79379786D01*
X16660213Y-79530109D01*
X16832179Y-79655048D01*
X16832181Y-79655049D01*
X16832184Y-79655051D01*
X17021588Y-79751557D01*
X17223757Y-79817246D01*
X17433713Y-79850500D01*
X17433714Y-79850500D01*
X17646286Y-79850500D01*
X17646287Y-79850500D01*
X17856243Y-79817246D01*
X18058412Y-79751557D01*
X18247816Y-79655051D01*
X18269789Y-79639086D01*
X18419786Y-79530109D01*
X18419788Y-79530106D01*
X18419792Y-79530104D01*
X18570104Y-79379792D01*
X18570106Y-79379788D01*
X18570109Y-79379786D01*
X18695048Y-79207820D01*
X18695047Y-79207820D01*
X18695051Y-79207816D01*
X18791557Y-79018412D01*
X18857246Y-78816243D01*
X18890500Y-78606287D01*
X18890500Y-78393713D01*
X18857246Y-78183757D01*
X18791557Y-77981588D01*
X18695051Y-77792184D01*
X18695049Y-77792181D01*
X18695048Y-77792179D01*
X18570109Y-77620213D01*
X18419786Y-77469890D01*
X18247820Y-77344951D01*
X18247115Y-77344591D01*
X18239054Y-77340485D01*
X18188259Y-77292512D01*
X18171463Y-77224692D01*
X18193999Y-77158556D01*
X18239054Y-77119515D01*
X18247816Y-77115051D01*
X18269789Y-77099086D01*
X18419786Y-76990109D01*
X18419788Y-76990106D01*
X18419792Y-76990104D01*
X18570104Y-76839792D01*
X18570106Y-76839788D01*
X18570109Y-76839786D01*
X18695048Y-76667820D01*
X18695047Y-76667820D01*
X18695051Y-76667816D01*
X18791557Y-76478412D01*
X18857246Y-76276243D01*
X18890500Y-76066287D01*
X18890500Y-75853713D01*
X18857246Y-75643757D01*
X18791557Y-75441588D01*
X18695051Y-75252184D01*
X18695049Y-75252181D01*
X18695048Y-75252179D01*
X18570109Y-75080213D01*
X18419786Y-74929890D01*
X18247820Y-74804951D01*
X18247115Y-74804591D01*
X18239054Y-74800485D01*
X18188259Y-74752512D01*
X18171463Y-74684692D01*
X18193999Y-74618556D01*
X18239054Y-74579515D01*
X18247816Y-74575051D01*
X18269789Y-74559086D01*
X18419786Y-74450109D01*
X18419788Y-74450106D01*
X18419792Y-74450104D01*
X18570104Y-74299792D01*
X18570106Y-74299788D01*
X18570109Y-74299786D01*
X18695048Y-74127820D01*
X18695047Y-74127820D01*
X18695051Y-74127816D01*
X18791557Y-73938412D01*
X18857246Y-73736243D01*
X18890500Y-73526287D01*
X18890500Y-73313713D01*
X18857246Y-73103757D01*
X18791557Y-72901588D01*
X18695051Y-72712184D01*
X18695049Y-72712181D01*
X18695048Y-72712179D01*
X18570109Y-72540213D01*
X18419786Y-72389890D01*
X18247820Y-72264951D01*
X18247115Y-72264591D01*
X18239054Y-72260485D01*
X18188259Y-72212512D01*
X18171463Y-72144692D01*
X18193999Y-72078556D01*
X18239054Y-72039515D01*
X18247816Y-72035051D01*
X18269789Y-72019086D01*
X18419786Y-71910109D01*
X18419788Y-71910106D01*
X18419792Y-71910104D01*
X18570104Y-71759792D01*
X18570106Y-71759788D01*
X18570109Y-71759786D01*
X18695048Y-71587820D01*
X18695047Y-71587820D01*
X18695051Y-71587816D01*
X18791557Y-71398412D01*
X18857246Y-71196243D01*
X18890500Y-70986287D01*
X18890500Y-70773713D01*
X18857246Y-70563757D01*
X18791557Y-70361588D01*
X18695051Y-70172184D01*
X18695049Y-70172181D01*
X18695048Y-70172179D01*
X18570109Y-70000213D01*
X18419786Y-69849890D01*
X18247820Y-69724951D01*
X18247115Y-69724591D01*
X18239054Y-69720485D01*
X18188259Y-69672512D01*
X18171463Y-69604692D01*
X18193999Y-69538556D01*
X18239054Y-69499515D01*
X18247816Y-69495051D01*
X18269789Y-69479086D01*
X18419786Y-69370109D01*
X18419788Y-69370106D01*
X18419792Y-69370104D01*
X18570104Y-69219792D01*
X18570106Y-69219788D01*
X18570109Y-69219786D01*
X18695048Y-69047820D01*
X18695047Y-69047820D01*
X18695051Y-69047816D01*
X18791557Y-68858412D01*
X18857246Y-68656243D01*
X18890500Y-68446287D01*
X18890500Y-68233713D01*
X18857246Y-68023757D01*
X18791557Y-67821588D01*
X18695051Y-67632184D01*
X18695049Y-67632181D01*
X18695048Y-67632179D01*
X18570109Y-67460213D01*
X18456569Y-67346673D01*
X18423084Y-67285350D01*
X18428068Y-67215658D01*
X18469940Y-67159725D01*
X18500915Y-67142810D01*
X18632331Y-67093796D01*
X18747546Y-67007546D01*
X18833796Y-66892331D01*
X18884091Y-66757483D01*
X18890500Y-66697873D01*
X18890499Y-64902128D01*
X18884091Y-64842517D01*
X18833796Y-64707669D01*
X18833795Y-64707668D01*
X18833793Y-64707664D01*
X18747547Y-64592455D01*
X18747544Y-64592452D01*
X18632335Y-64506206D01*
X18632328Y-64506202D01*
X18497482Y-64455908D01*
X18497483Y-64455908D01*
X18437883Y-64449501D01*
X18437881Y-64449500D01*
X18437873Y-64449500D01*
X18437864Y-64449500D01*
X16642129Y-64449500D01*
X16642123Y-64449501D01*
X16582516Y-64455908D01*
X16447671Y-64506202D01*
X16447664Y-64506206D01*
X16332455Y-64592452D01*
X16332452Y-64592455D01*
X16246206Y-64707664D01*
X16246202Y-64707671D01*
X16195908Y-64842517D01*
X16189501Y-64902116D01*
X16189501Y-64902123D01*
X16189500Y-64902135D01*
X15500500Y-64902135D01*
X15500500Y-42833713D01*
X16189500Y-42833713D01*
X16189500Y-43046286D01*
X16221477Y-43248184D01*
X16222754Y-43256243D01*
X16260707Y-43373051D01*
X16288444Y-43458414D01*
X16384951Y-43647820D01*
X16509890Y-43819786D01*
X16660213Y-43970109D01*
X16832182Y-44095050D01*
X16840946Y-44099516D01*
X16891742Y-44147491D01*
X16908536Y-44215312D01*
X16885998Y-44281447D01*
X16840946Y-44320484D01*
X16832182Y-44324949D01*
X16660213Y-44449890D01*
X16509890Y-44600213D01*
X16384951Y-44772179D01*
X16288444Y-44961585D01*
X16222753Y-45163760D01*
X16189500Y-45373713D01*
X16189500Y-45586286D01*
X16221477Y-45788184D01*
X16222754Y-45796243D01*
X16262007Y-45917052D01*
X16288444Y-45998414D01*
X16384951Y-46187820D01*
X16509890Y-46359786D01*
X16660213Y-46510109D01*
X16832182Y-46635050D01*
X16840946Y-46639516D01*
X16891742Y-46687491D01*
X16908536Y-46755312D01*
X16885998Y-46821447D01*
X16840946Y-46860484D01*
X16832182Y-46864949D01*
X16660213Y-46989890D01*
X16509890Y-47140213D01*
X16384951Y-47312179D01*
X16288444Y-47501585D01*
X16222753Y-47703760D01*
X16189500Y-47913713D01*
X16189500Y-48126286D01*
X16221477Y-48328184D01*
X16222754Y-48336243D01*
X16260707Y-48453051D01*
X16288444Y-48538414D01*
X16384951Y-48727820D01*
X16509890Y-48899786D01*
X16660213Y-49050109D01*
X16832182Y-49175050D01*
X16840946Y-49179516D01*
X16891742Y-49227491D01*
X16908536Y-49295312D01*
X16885998Y-49361447D01*
X16840946Y-49400484D01*
X16832182Y-49404949D01*
X16660213Y-49529890D01*
X16509890Y-49680213D01*
X16384951Y-49852179D01*
X16288444Y-50041585D01*
X16222753Y-50243760D01*
X16189500Y-50453713D01*
X16189500Y-50666286D01*
X16222753Y-50876239D01*
X16288444Y-51078414D01*
X16384951Y-51267820D01*
X16509890Y-51439786D01*
X16660213Y-51590109D01*
X16832182Y-51715050D01*
X16840946Y-51719516D01*
X16891742Y-51767491D01*
X16908536Y-51835312D01*
X16885998Y-51901447D01*
X16840946Y-51940484D01*
X16832182Y-51944949D01*
X16660213Y-52069890D01*
X16509890Y-52220213D01*
X16384951Y-52392179D01*
X16288444Y-52581585D01*
X16222753Y-52783760D01*
X16195396Y-52956486D01*
X16189500Y-52993713D01*
X16189500Y-53206287D01*
X16194239Y-53236208D01*
X16221477Y-53408184D01*
X16222754Y-53416243D01*
X16278330Y-53587289D01*
X16288444Y-53618414D01*
X16384951Y-53807820D01*
X16509890Y-53979786D01*
X16660213Y-54130109D01*
X16832179Y-54255048D01*
X16832181Y-54255049D01*
X16832184Y-54255051D01*
X16841493Y-54259794D01*
X16892290Y-54307766D01*
X16909087Y-54375587D01*
X16886552Y-54441722D01*
X16841505Y-54480760D01*
X16832446Y-54485376D01*
X16832440Y-54485380D01*
X16778282Y-54524727D01*
X16778282Y-54524728D01*
X17410591Y-55157037D01*
X17347007Y-55174075D01*
X17232993Y-55239901D01*
X17139901Y-55332993D01*
X17074075Y-55447007D01*
X17057037Y-55510591D01*
X16424728Y-54878282D01*
X16424727Y-54878282D01*
X16385380Y-54932439D01*
X16288904Y-55121782D01*
X16223242Y-55323869D01*
X16223242Y-55323872D01*
X16190000Y-55533753D01*
X16190000Y-55746246D01*
X16223242Y-55956127D01*
X16223242Y-55956130D01*
X16288904Y-56158217D01*
X16385375Y-56347550D01*
X16424728Y-56401716D01*
X17057037Y-55769408D01*
X17074075Y-55832993D01*
X17139901Y-55947007D01*
X17232993Y-56040099D01*
X17347007Y-56105925D01*
X17410591Y-56122962D01*
X16809971Y-56723581D01*
X16888711Y-56840895D01*
X16889920Y-56844729D01*
X16892844Y-56847491D01*
X16900343Y-56877778D01*
X16909727Y-56907529D01*
X16908671Y-56911408D01*
X16909638Y-56915312D01*
X16899573Y-56944844D01*
X16891383Y-56974947D01*
X16888397Y-56977640D01*
X16887100Y-56981447D01*
X16842051Y-57020483D01*
X16832440Y-57025380D01*
X16778282Y-57064727D01*
X16778282Y-57064728D01*
X17410591Y-57697037D01*
X17347007Y-57714075D01*
X17232993Y-57779901D01*
X17139901Y-57872993D01*
X17074075Y-57987007D01*
X17057037Y-58050591D01*
X16424728Y-57418282D01*
X16424727Y-57418282D01*
X16385380Y-57472439D01*
X16288904Y-57661782D01*
X16223242Y-57863869D01*
X16223242Y-57863872D01*
X16190000Y-58073753D01*
X16190000Y-58286246D01*
X16223242Y-58496127D01*
X16223242Y-58496130D01*
X16288904Y-58698217D01*
X16385375Y-58887550D01*
X16424728Y-58941716D01*
X17057037Y-58309408D01*
X17074075Y-58372993D01*
X17139901Y-58487007D01*
X17232993Y-58580099D01*
X17347007Y-58645925D01*
X17410590Y-58662962D01*
X16740370Y-59333181D01*
X16679047Y-59366666D01*
X16652698Y-59369500D01*
X16642134Y-59369500D01*
X16642123Y-59369501D01*
X16582516Y-59375908D01*
X16447671Y-59426202D01*
X16447664Y-59426206D01*
X16332455Y-59512452D01*
X16332452Y-59512455D01*
X16246206Y-59627664D01*
X16246202Y-59627671D01*
X16195908Y-59762517D01*
X16190002Y-59817454D01*
X16189501Y-59822123D01*
X16189500Y-59822135D01*
X16189500Y-61617870D01*
X16189501Y-61617876D01*
X16195908Y-61677483D01*
X16246202Y-61812328D01*
X16246206Y-61812335D01*
X16332452Y-61927544D01*
X16332455Y-61927547D01*
X16447664Y-62013793D01*
X16447671Y-62013797D01*
X16582517Y-62064091D01*
X16582516Y-62064091D01*
X16589444Y-62064835D01*
X16642127Y-62070500D01*
X18437872Y-62070499D01*
X18497483Y-62064091D01*
X18632331Y-62013796D01*
X18747546Y-61927546D01*
X18833796Y-61812331D01*
X18884091Y-61677483D01*
X18890500Y-61617873D01*
X18890499Y-59822128D01*
X18884091Y-59762517D01*
X18867611Y-59718333D01*
X18833797Y-59627671D01*
X18833793Y-59627664D01*
X18747547Y-59512455D01*
X18747544Y-59512452D01*
X18632335Y-59426206D01*
X18632328Y-59426202D01*
X18497482Y-59375908D01*
X18497483Y-59375908D01*
X18437883Y-59369501D01*
X18437881Y-59369500D01*
X18437873Y-59369500D01*
X18437865Y-59369500D01*
X18427309Y-59369500D01*
X18360270Y-59349815D01*
X18339628Y-59333181D01*
X17669408Y-58662962D01*
X17732993Y-58645925D01*
X17847007Y-58580099D01*
X17940099Y-58487007D01*
X18005925Y-58372993D01*
X18022962Y-58309408D01*
X18655270Y-58941717D01*
X18655270Y-58941716D01*
X18694622Y-58887554D01*
X18791095Y-58698217D01*
X18856757Y-58496130D01*
X18856757Y-58496127D01*
X18890000Y-58286246D01*
X18890000Y-58073753D01*
X18856757Y-57863872D01*
X18856757Y-57863869D01*
X18791095Y-57661782D01*
X18694624Y-57472449D01*
X18655270Y-57418282D01*
X18655269Y-57418282D01*
X18022962Y-58050590D01*
X18005925Y-57987007D01*
X17940099Y-57872993D01*
X17847007Y-57779901D01*
X17732993Y-57714075D01*
X17669409Y-57697037D01*
X18301716Y-57064728D01*
X18247550Y-57025375D01*
X18237954Y-57020486D01*
X18187157Y-56972512D01*
X18170361Y-56904692D01*
X18192897Y-56838556D01*
X18237954Y-56799514D01*
X18247554Y-56794622D01*
X18301716Y-56755270D01*
X18301717Y-56755270D01*
X17669408Y-56122962D01*
X17732993Y-56105925D01*
X17847007Y-56040099D01*
X17940099Y-55947007D01*
X18005925Y-55832993D01*
X18022962Y-55769408D01*
X18655270Y-56401717D01*
X18655270Y-56401716D01*
X18694622Y-56347554D01*
X18791095Y-56158217D01*
X18856757Y-55956130D01*
X18856757Y-55956127D01*
X18890000Y-55746246D01*
X18890000Y-55533753D01*
X18856757Y-55323872D01*
X18856757Y-55323869D01*
X18791095Y-55121782D01*
X18694624Y-54932449D01*
X18655270Y-54878282D01*
X18655269Y-54878282D01*
X18022962Y-55510590D01*
X18005925Y-55447007D01*
X17940099Y-55332993D01*
X17847007Y-55239901D01*
X17732993Y-55174075D01*
X17669409Y-55157037D01*
X18301716Y-54524728D01*
X18247547Y-54485373D01*
X18247547Y-54485372D01*
X18238500Y-54480763D01*
X18187706Y-54432788D01*
X18170912Y-54364966D01*
X18193451Y-54298832D01*
X18238508Y-54259793D01*
X18247816Y-54255051D01*
X18327007Y-54197515D01*
X18419786Y-54130109D01*
X18419788Y-54130106D01*
X18419792Y-54130104D01*
X18570104Y-53979792D01*
X18570106Y-53979788D01*
X18570109Y-53979786D01*
X18695048Y-53807820D01*
X18695047Y-53807820D01*
X18695051Y-53807816D01*
X18791557Y-53618412D01*
X18857246Y-53416243D01*
X18890500Y-53206287D01*
X18890500Y-52993713D01*
X18857246Y-52783757D01*
X18791557Y-52581588D01*
X18695051Y-52392184D01*
X18695049Y-52392181D01*
X18695048Y-52392179D01*
X18570109Y-52220213D01*
X18419786Y-52069890D01*
X18247820Y-51944951D01*
X18247115Y-51944591D01*
X18239054Y-51940485D01*
X18188259Y-51892512D01*
X18171463Y-51824692D01*
X18193999Y-51758556D01*
X18239054Y-51719515D01*
X18247816Y-51715051D01*
X18292912Y-51682287D01*
X18419786Y-51590109D01*
X18419788Y-51590106D01*
X18419792Y-51590104D01*
X18570104Y-51439792D01*
X18586601Y-51417086D01*
X18626903Y-51361615D01*
X18682233Y-51318949D01*
X18727221Y-51310500D01*
X25047770Y-51310500D01*
X25114809Y-51330185D01*
X25135451Y-51346819D01*
X29046578Y-55257947D01*
X29046585Y-55257953D01*
X29117741Y-55305497D01*
X29117743Y-55305498D01*
X29117746Y-55305500D01*
X29169505Y-55340084D01*
X29169506Y-55340084D01*
X29169507Y-55340085D01*
X29306082Y-55396656D01*
X29306087Y-55396658D01*
X29306091Y-55396658D01*
X29306092Y-55396659D01*
X29451079Y-55425500D01*
X29451082Y-55425500D01*
X29451083Y-55425500D01*
X29598918Y-55425500D01*
X34325249Y-55425500D01*
X34392288Y-55445185D01*
X34412901Y-55461789D01*
X34419189Y-55468073D01*
X34467454Y-55532546D01*
X34532226Y-55581034D01*
X34538485Y-55587289D01*
X34551167Y-55610497D01*
X34567015Y-55631668D01*
X34567659Y-55640675D01*
X34571990Y-55648601D01*
X34570112Y-55674978D01*
X34571999Y-55701360D01*
X34567670Y-55709287D01*
X34567029Y-55718295D01*
X34551188Y-55739470D01*
X34538513Y-55762683D01*
X34525184Y-55774231D01*
X34525177Y-55774242D01*
X34525169Y-55774244D01*
X34525145Y-55774266D01*
X34467454Y-55817454D01*
X34381206Y-55932664D01*
X34381202Y-55932671D01*
X34358391Y-55993833D01*
X34316520Y-56049767D01*
X34251056Y-56074184D01*
X34242209Y-56074500D01*
X33379766Y-56074500D01*
X33312727Y-56054815D01*
X33310875Y-56053602D01*
X33179185Y-55965609D01*
X33179172Y-55965602D01*
X33033501Y-55905264D01*
X33033489Y-55905261D01*
X32878845Y-55874500D01*
X32878842Y-55874500D01*
X32721158Y-55874500D01*
X32721155Y-55874500D01*
X32566510Y-55905261D01*
X32566498Y-55905264D01*
X32420827Y-55965602D01*
X32420814Y-55965609D01*
X32289711Y-56053210D01*
X32289707Y-56053213D01*
X32178213Y-56164707D01*
X32178210Y-56164711D01*
X32090609Y-56295814D01*
X32090602Y-56295827D01*
X32030264Y-56441498D01*
X32030261Y-56441510D01*
X31999500Y-56596153D01*
X31999500Y-56753846D01*
X32030261Y-56908489D01*
X32030264Y-56908501D01*
X32090602Y-57054172D01*
X32090609Y-57054185D01*
X32178210Y-57185288D01*
X32178213Y-57185292D01*
X32289707Y-57296786D01*
X32289711Y-57296789D01*
X32420814Y-57384390D01*
X32420827Y-57384397D01*
X32500348Y-57417335D01*
X32566503Y-57444737D01*
X32705820Y-57472449D01*
X32721153Y-57475499D01*
X32721156Y-57475500D01*
X32721158Y-57475500D01*
X32878844Y-57475500D01*
X32878845Y-57475499D01*
X33033497Y-57444737D01*
X33179179Y-57384394D01*
X33245500Y-57340080D01*
X33310875Y-57296398D01*
X33377553Y-57275520D01*
X33379766Y-57275500D01*
X34242209Y-57275500D01*
X34309248Y-57295185D01*
X34355003Y-57347989D01*
X34358391Y-57356167D01*
X34381202Y-57417328D01*
X34381206Y-57417335D01*
X34467452Y-57532544D01*
X34467453Y-57532544D01*
X34467454Y-57532546D01*
X34496615Y-57554376D01*
X34525145Y-57575734D01*
X34567015Y-57631668D01*
X34571999Y-57701360D01*
X34538513Y-57762683D01*
X34525145Y-57774266D01*
X34467452Y-57817455D01*
X34381206Y-57932664D01*
X34381202Y-57932671D01*
X34358391Y-57993833D01*
X34316520Y-58049767D01*
X34251056Y-58074184D01*
X34242209Y-58074500D01*
X32570940Y-58074500D01*
X32530019Y-58085464D01*
X32530019Y-58085465D01*
X32492751Y-58095451D01*
X32418214Y-58115423D01*
X32418209Y-58115426D01*
X32281290Y-58194475D01*
X32281282Y-58194481D01*
X28969481Y-61506282D01*
X28969477Y-61506287D01*
X28954320Y-61532543D01*
X28954318Y-61532546D01*
X28890423Y-61643215D01*
X28849499Y-61795943D01*
X28849499Y-61795945D01*
X28849499Y-61964046D01*
X28849500Y-61964059D01*
X28849500Y-67913330D01*
X28849499Y-67913348D01*
X28849499Y-68079054D01*
X28849498Y-68079054D01*
X28849499Y-68079057D01*
X28890423Y-68231785D01*
X28890424Y-68231787D01*
X28890423Y-68231787D01*
X28907255Y-68260939D01*
X28907257Y-68260941D01*
X28907258Y-68260943D01*
X28948739Y-68332791D01*
X28969479Y-68368715D01*
X29088349Y-68487585D01*
X29088354Y-68487589D01*
X34501284Y-73900520D01*
X34501286Y-73900521D01*
X34501290Y-73900524D01*
X34638209Y-73979573D01*
X34638216Y-73979577D01*
X34790943Y-74020501D01*
X34790945Y-74020501D01*
X34956654Y-74020501D01*
X34956670Y-74020500D01*
X64514281Y-74020500D01*
X64581320Y-74040185D01*
X64624765Y-74088205D01*
X64644947Y-74127814D01*
X64644948Y-74127815D01*
X64769890Y-74299786D01*
X64920213Y-74450109D01*
X65092182Y-74575050D01*
X65100946Y-74579516D01*
X65151742Y-74627491D01*
X65168536Y-74695312D01*
X65145998Y-74761447D01*
X65100946Y-74800484D01*
X65092182Y-74804949D01*
X64920213Y-74929890D01*
X64769890Y-75080213D01*
X64644951Y-75252179D01*
X64548444Y-75441585D01*
X64482753Y-75643760D01*
X64449500Y-75853713D01*
X64449500Y-76066286D01*
X64482753Y-76276239D01*
X64548444Y-76478414D01*
X64644951Y-76667820D01*
X64769890Y-76839786D01*
X64920213Y-76990109D01*
X65092182Y-77115050D01*
X65100946Y-77119516D01*
X65151742Y-77167491D01*
X65168536Y-77235312D01*
X65145998Y-77301447D01*
X65100946Y-77340484D01*
X65092182Y-77344949D01*
X64920213Y-77469890D01*
X64769890Y-77620213D01*
X64644951Y-77792179D01*
X64548444Y-77981585D01*
X64482753Y-78183760D01*
X64459405Y-78331175D01*
X64449500Y-78393713D01*
X64449500Y-78606287D01*
X64459534Y-78669644D01*
X64482753Y-78816239D01*
X64548444Y-79018414D01*
X64644951Y-79207820D01*
X64769890Y-79379786D01*
X64920213Y-79530109D01*
X65092179Y-79655048D01*
X65092181Y-79655049D01*
X65092184Y-79655051D01*
X65281588Y-79751557D01*
X65483757Y-79817246D01*
X65693713Y-79850500D01*
X65693714Y-79850500D01*
X65906286Y-79850500D01*
X65906287Y-79850500D01*
X66116243Y-79817246D01*
X66318412Y-79751557D01*
X66507816Y-79655051D01*
X66529789Y-79639086D01*
X66679786Y-79530109D01*
X66679788Y-79530106D01*
X66679792Y-79530104D01*
X66830104Y-79379792D01*
X66830106Y-79379788D01*
X66830109Y-79379786D01*
X66955048Y-79207820D01*
X66955047Y-79207820D01*
X66955051Y-79207816D01*
X67051557Y-79018412D01*
X67117246Y-78816243D01*
X67150500Y-78606287D01*
X67150500Y-78393713D01*
X67117246Y-78183757D01*
X67051557Y-77981588D01*
X66955051Y-77792184D01*
X66955049Y-77792181D01*
X66955048Y-77792179D01*
X66830109Y-77620213D01*
X66679786Y-77469890D01*
X66507820Y-77344951D01*
X66507115Y-77344591D01*
X66499054Y-77340485D01*
X66448259Y-77292512D01*
X66431463Y-77224692D01*
X66453999Y-77158556D01*
X66499054Y-77119515D01*
X66507816Y-77115051D01*
X66529789Y-77099086D01*
X66679786Y-76990109D01*
X66679788Y-76990106D01*
X66679792Y-76990104D01*
X66830104Y-76839792D01*
X66830106Y-76839788D01*
X66830109Y-76839786D01*
X66955048Y-76667820D01*
X66955047Y-76667820D01*
X66955051Y-76667816D01*
X67051557Y-76478412D01*
X67117246Y-76276243D01*
X67150500Y-76066287D01*
X67150500Y-75853713D01*
X67117246Y-75643757D01*
X67051557Y-75441588D01*
X66955051Y-75252184D01*
X66955049Y-75252181D01*
X66955048Y-75252179D01*
X66830109Y-75080213D01*
X66679786Y-74929890D01*
X66507820Y-74804951D01*
X66507115Y-74804591D01*
X66499054Y-74800485D01*
X66448259Y-74752512D01*
X66431463Y-74684692D01*
X66453999Y-74618556D01*
X66499054Y-74579515D01*
X66507816Y-74575051D01*
X66529789Y-74559086D01*
X66679786Y-74450109D01*
X66679788Y-74450106D01*
X66679792Y-74450104D01*
X66830104Y-74299792D01*
X66830106Y-74299788D01*
X66830109Y-74299786D01*
X66955048Y-74127820D01*
X66955047Y-74127820D01*
X66955051Y-74127816D01*
X67051557Y-73938412D01*
X67117246Y-73736243D01*
X67150500Y-73526287D01*
X67150500Y-73313713D01*
X67117246Y-73103757D01*
X67051557Y-72901588D01*
X66955051Y-72712184D01*
X66955049Y-72712181D01*
X66955048Y-72712179D01*
X66830109Y-72540213D01*
X66679786Y-72389890D01*
X66507820Y-72264951D01*
X66507115Y-72264591D01*
X66499054Y-72260485D01*
X66448259Y-72212512D01*
X66431463Y-72144692D01*
X66453999Y-72078556D01*
X66499054Y-72039515D01*
X66507816Y-72035051D01*
X66529789Y-72019086D01*
X66679786Y-71910109D01*
X66679788Y-71910106D01*
X66679792Y-71910104D01*
X66830104Y-71759792D01*
X66830106Y-71759788D01*
X66830109Y-71759786D01*
X66955048Y-71587820D01*
X66955047Y-71587820D01*
X66955051Y-71587816D01*
X67051557Y-71398412D01*
X67117246Y-71196243D01*
X67150500Y-70986287D01*
X67150500Y-70773713D01*
X67117246Y-70563757D01*
X67051557Y-70361588D01*
X66955051Y-70172184D01*
X66955049Y-70172181D01*
X66955048Y-70172179D01*
X66830109Y-70000213D01*
X66679786Y-69849890D01*
X66507820Y-69724951D01*
X66507115Y-69724591D01*
X66499054Y-69720485D01*
X66448259Y-69672512D01*
X66431463Y-69604692D01*
X66453999Y-69538556D01*
X66499054Y-69499515D01*
X66507816Y-69495051D01*
X66529789Y-69479086D01*
X66679786Y-69370109D01*
X66679788Y-69370106D01*
X66679792Y-69370104D01*
X66830104Y-69219792D01*
X66830106Y-69219788D01*
X66830109Y-69219786D01*
X66955048Y-69047820D01*
X66955047Y-69047820D01*
X66955051Y-69047816D01*
X67051557Y-68858412D01*
X67117246Y-68656243D01*
X67150500Y-68446287D01*
X67150500Y-68233713D01*
X67117246Y-68023757D01*
X67051557Y-67821588D01*
X66955051Y-67632184D01*
X66955049Y-67632181D01*
X66955048Y-67632179D01*
X66830109Y-67460213D01*
X66679786Y-67309890D01*
X66507820Y-67184951D01*
X66507115Y-67184591D01*
X66499054Y-67180485D01*
X66448259Y-67132512D01*
X66431463Y-67064692D01*
X66453999Y-66998556D01*
X66499054Y-66959515D01*
X66507816Y-66955051D01*
X66594138Y-66892335D01*
X66679786Y-66830109D01*
X66679788Y-66830106D01*
X66679792Y-66830104D01*
X66830104Y-66679792D01*
X66830106Y-66679788D01*
X66830109Y-66679786D01*
X66955048Y-66507820D01*
X66955047Y-66507820D01*
X66955051Y-66507816D01*
X67051557Y-66318412D01*
X67117246Y-66116243D01*
X67150500Y-65906287D01*
X67150500Y-65693713D01*
X67117246Y-65483757D01*
X67051557Y-65281588D01*
X66955051Y-65092184D01*
X66955049Y-65092181D01*
X66955048Y-65092179D01*
X66830109Y-64920213D01*
X66679786Y-64769890D01*
X66507820Y-64644951D01*
X66507115Y-64644591D01*
X66499054Y-64640485D01*
X66448259Y-64592512D01*
X66431463Y-64524692D01*
X66453999Y-64458556D01*
X66499054Y-64419515D01*
X66507816Y-64415051D01*
X66529789Y-64399086D01*
X66679786Y-64290109D01*
X66679788Y-64290106D01*
X66679792Y-64290104D01*
X66830104Y-64139792D01*
X66830106Y-64139788D01*
X66830109Y-64139786D01*
X66955048Y-63967820D01*
X66955047Y-63967820D01*
X66955051Y-63967816D01*
X67051557Y-63778412D01*
X67117246Y-63576243D01*
X67150500Y-63366287D01*
X67150500Y-63153713D01*
X67117246Y-62943757D01*
X67051557Y-62741588D01*
X66955051Y-62552184D01*
X66955049Y-62552181D01*
X66955048Y-62552179D01*
X66830109Y-62380213D01*
X66716569Y-62266673D01*
X66683084Y-62205350D01*
X66688068Y-62135658D01*
X66729940Y-62079725D01*
X66760915Y-62062810D01*
X66892331Y-62013796D01*
X67007546Y-61927546D01*
X67093796Y-61812331D01*
X67144091Y-61677483D01*
X67150500Y-61617873D01*
X67150499Y-59822128D01*
X67144091Y-59762517D01*
X67127611Y-59718333D01*
X67093797Y-59627671D01*
X67093793Y-59627664D01*
X67007547Y-59512455D01*
X67007544Y-59512452D01*
X66892335Y-59426206D01*
X66892328Y-59426202D01*
X66757482Y-59375908D01*
X66757483Y-59375908D01*
X66697883Y-59369501D01*
X66697881Y-59369500D01*
X66697873Y-59369500D01*
X66697864Y-59369500D01*
X64902129Y-59369500D01*
X64902123Y-59369501D01*
X64842516Y-59375908D01*
X64707671Y-59426202D01*
X64707664Y-59426206D01*
X64592455Y-59512452D01*
X64592452Y-59512455D01*
X64506206Y-59627664D01*
X64506202Y-59627671D01*
X64455908Y-59762517D01*
X64450002Y-59817454D01*
X64449501Y-59822123D01*
X64449500Y-59822135D01*
X64449500Y-59950500D01*
X64429815Y-60017539D01*
X64377011Y-60063294D01*
X64325500Y-60074500D01*
X52907791Y-60074500D01*
X52840752Y-60054815D01*
X52794997Y-60002011D01*
X52791609Y-59993833D01*
X52768797Y-59932671D01*
X52768793Y-59932664D01*
X52686050Y-59822135D01*
X52682546Y-59817454D01*
X52624854Y-59774265D01*
X52582984Y-59718333D01*
X52578000Y-59648641D01*
X52611485Y-59587318D01*
X52624854Y-59575734D01*
X52682546Y-59532546D01*
X52768796Y-59417331D01*
X52819091Y-59282483D01*
X52825500Y-59222873D01*
X52825499Y-58127128D01*
X52819091Y-58067517D01*
X52783930Y-57973246D01*
X52768797Y-57932671D01*
X52768793Y-57932664D01*
X52682547Y-57817456D01*
X52682548Y-57817456D01*
X52682546Y-57817454D01*
X52624854Y-57774265D01*
X52582984Y-57718333D01*
X52578000Y-57648641D01*
X52611485Y-57587318D01*
X52624854Y-57575734D01*
X52682546Y-57532546D01*
X52768796Y-57417331D01*
X52819091Y-57282483D01*
X52825500Y-57222873D01*
X52825499Y-56127128D01*
X52819091Y-56067517D01*
X52814353Y-56054815D01*
X52768797Y-55932671D01*
X52768793Y-55932664D01*
X52717123Y-55863643D01*
X52682546Y-55817454D01*
X52624854Y-55774265D01*
X52582984Y-55718333D01*
X52578000Y-55648641D01*
X52611485Y-55587318D01*
X52624850Y-55575736D01*
X52682546Y-55532546D01*
X52768796Y-55417331D01*
X52819091Y-55282483D01*
X52825500Y-55222873D01*
X52825499Y-54127128D01*
X52819091Y-54067517D01*
X52795184Y-54003420D01*
X52768797Y-53932671D01*
X52768793Y-53932664D01*
X52682547Y-53817456D01*
X52682548Y-53817456D01*
X52682546Y-53817454D01*
X52624854Y-53774265D01*
X52582984Y-53718333D01*
X52578000Y-53648641D01*
X52611485Y-53587318D01*
X52611514Y-53587289D01*
X52617769Y-53581037D01*
X52682546Y-53532546D01*
X52730810Y-53468073D01*
X52737099Y-53461789D01*
X52760281Y-53449140D01*
X52781419Y-53433318D01*
X52793167Y-53431198D01*
X52798434Y-53428325D01*
X52806056Y-53428872D01*
X52824751Y-53425500D01*
X54537770Y-53425500D01*
X54604809Y-53445185D01*
X54625451Y-53461819D01*
X58396578Y-57232947D01*
X58396585Y-57232953D01*
X58460258Y-57275497D01*
X58460260Y-57275498D01*
X58460263Y-57275500D01*
X58519505Y-57315084D01*
X58519506Y-57315084D01*
X58519507Y-57315085D01*
X58637164Y-57363820D01*
X58656087Y-57371658D01*
X58656091Y-57371658D01*
X58656092Y-57371659D01*
X58801079Y-57400500D01*
X58801082Y-57400500D01*
X58801083Y-57400500D01*
X58948917Y-57400500D01*
X59039706Y-57400500D01*
X59063897Y-57402882D01*
X59082082Y-57406500D01*
X59229917Y-57406500D01*
X64612779Y-57406500D01*
X64679818Y-57426185D01*
X64713097Y-57457615D01*
X64769892Y-57535788D01*
X64920213Y-57686109D01*
X65092179Y-57811048D01*
X65092181Y-57811049D01*
X65092184Y-57811051D01*
X65281588Y-57907557D01*
X65483757Y-57973246D01*
X65693713Y-58006500D01*
X65693714Y-58006500D01*
X65906286Y-58006500D01*
X65906287Y-58006500D01*
X66116243Y-57973246D01*
X66318412Y-57907557D01*
X66507816Y-57811051D01*
X66558495Y-57774231D01*
X66679786Y-57686109D01*
X66679788Y-57686106D01*
X66679792Y-57686104D01*
X66830104Y-57535792D01*
X66830106Y-57535788D01*
X66830109Y-57535786D01*
X66955048Y-57363820D01*
X66955047Y-57363820D01*
X66955051Y-57363816D01*
X67051557Y-57174412D01*
X67117246Y-56972243D01*
X67150500Y-56762287D01*
X67150500Y-56549713D01*
X67117246Y-56339757D01*
X67051557Y-56137588D01*
X66955051Y-55948184D01*
X66955049Y-55948181D01*
X66955048Y-55948179D01*
X66830109Y-55776213D01*
X66679786Y-55625890D01*
X66507820Y-55500951D01*
X66503830Y-55498918D01*
X66499054Y-55496485D01*
X66448259Y-55448512D01*
X66431463Y-55380692D01*
X66453999Y-55314556D01*
X66499054Y-55275515D01*
X66507816Y-55271051D01*
X66574140Y-55222864D01*
X66679786Y-55146109D01*
X66679788Y-55146106D01*
X66679792Y-55146104D01*
X66830104Y-54995792D01*
X66830106Y-54995788D01*
X66830109Y-54995786D01*
X66955048Y-54823820D01*
X66955047Y-54823820D01*
X66955051Y-54823816D01*
X67051557Y-54634412D01*
X67117246Y-54432243D01*
X67150500Y-54222287D01*
X67150500Y-54009713D01*
X67117246Y-53799757D01*
X67051557Y-53597588D01*
X66955051Y-53408184D01*
X66955049Y-53408181D01*
X66955048Y-53408179D01*
X66830109Y-53236213D01*
X66679786Y-53085890D01*
X66507820Y-52960951D01*
X66507115Y-52960591D01*
X66499054Y-52956485D01*
X66448259Y-52908512D01*
X66431463Y-52840692D01*
X66453999Y-52774556D01*
X66499054Y-52735515D01*
X66507816Y-52731051D01*
X66529789Y-52715086D01*
X66679786Y-52606109D01*
X66679788Y-52606106D01*
X66679792Y-52606104D01*
X66830104Y-52455792D01*
X66830106Y-52455788D01*
X66830109Y-52455786D01*
X66955048Y-52283820D01*
X66955047Y-52283820D01*
X66955051Y-52283816D01*
X67051557Y-52094412D01*
X67117246Y-51892243D01*
X67150500Y-51682287D01*
X67150500Y-51469713D01*
X67117246Y-51259757D01*
X67051557Y-51057588D01*
X66955051Y-50868184D01*
X66955049Y-50868181D01*
X66955048Y-50868179D01*
X66830109Y-50696213D01*
X66679786Y-50545890D01*
X66507820Y-50420951D01*
X66507115Y-50420591D01*
X66499054Y-50416485D01*
X66448259Y-50368512D01*
X66431463Y-50300692D01*
X66453999Y-50234556D01*
X66499054Y-50195515D01*
X66507816Y-50191051D01*
X66595762Y-50127155D01*
X66679786Y-50066109D01*
X66679788Y-50066106D01*
X66679792Y-50066104D01*
X66830104Y-49915792D01*
X66830106Y-49915788D01*
X66830109Y-49915786D01*
X66955048Y-49743820D01*
X66955047Y-49743820D01*
X66955051Y-49743816D01*
X67051557Y-49554412D01*
X67117246Y-49352243D01*
X67150500Y-49142287D01*
X67150500Y-48929713D01*
X67117246Y-48719757D01*
X67051557Y-48517588D01*
X66955051Y-48328184D01*
X66955049Y-48328181D01*
X66955048Y-48328179D01*
X66830109Y-48156213D01*
X66679786Y-48005890D01*
X66507820Y-47880951D01*
X66507115Y-47880591D01*
X66499054Y-47876485D01*
X66448259Y-47828512D01*
X66431463Y-47760692D01*
X66453999Y-47694556D01*
X66499054Y-47655515D01*
X66507816Y-47651051D01*
X66576597Y-47601079D01*
X66679786Y-47526109D01*
X66679788Y-47526106D01*
X66679792Y-47526104D01*
X66830104Y-47375792D01*
X66830106Y-47375788D01*
X66830109Y-47375786D01*
X66955048Y-47203820D01*
X66955047Y-47203820D01*
X66955051Y-47203816D01*
X67051557Y-47014412D01*
X67117246Y-46812243D01*
X67150500Y-46602287D01*
X67150500Y-46389713D01*
X67117246Y-46179757D01*
X67051557Y-45977588D01*
X66955051Y-45788184D01*
X66955049Y-45788181D01*
X66955048Y-45788179D01*
X66830109Y-45616213D01*
X66679786Y-45465890D01*
X66507820Y-45340951D01*
X66507115Y-45340591D01*
X66499054Y-45336485D01*
X66448259Y-45288512D01*
X66431463Y-45220692D01*
X66453999Y-45154556D01*
X66499054Y-45115515D01*
X66507816Y-45111051D01*
X66529789Y-45095086D01*
X66679786Y-44986109D01*
X66679788Y-44986106D01*
X66679792Y-44986104D01*
X66830104Y-44835792D01*
X66830106Y-44835788D01*
X66830109Y-44835786D01*
X66955048Y-44663820D01*
X66955047Y-44663820D01*
X66955051Y-44663816D01*
X67051557Y-44474412D01*
X67117246Y-44272243D01*
X67150500Y-44062287D01*
X67150500Y-43849713D01*
X67117246Y-43639757D01*
X67051557Y-43437588D01*
X66955051Y-43248184D01*
X66955049Y-43248181D01*
X66955048Y-43248179D01*
X66830109Y-43076213D01*
X66679786Y-42925890D01*
X66507817Y-42800949D01*
X66498504Y-42796204D01*
X66447707Y-42748230D01*
X66430912Y-42680409D01*
X66453449Y-42614274D01*
X66498507Y-42575232D01*
X66507555Y-42570622D01*
X66561716Y-42531270D01*
X66561717Y-42531270D01*
X65929408Y-41898962D01*
X65992993Y-41881925D01*
X66107007Y-41816099D01*
X66200099Y-41723007D01*
X66265925Y-41608993D01*
X66282962Y-41545408D01*
X66915270Y-42177717D01*
X66915270Y-42177716D01*
X66954622Y-42123554D01*
X67051095Y-41934217D01*
X67116757Y-41732130D01*
X67116757Y-41732127D01*
X67150000Y-41522246D01*
X67150000Y-41309753D01*
X67116757Y-41099872D01*
X67116757Y-41099869D01*
X67051095Y-40897782D01*
X66954624Y-40708449D01*
X66915270Y-40654282D01*
X66915269Y-40654282D01*
X66282962Y-41286590D01*
X66265925Y-41223007D01*
X66200099Y-41108993D01*
X66107007Y-41015901D01*
X65992993Y-40950075D01*
X65929409Y-40933037D01*
X66561716Y-40300728D01*
X66507547Y-40261373D01*
X66507547Y-40261372D01*
X66498500Y-40256763D01*
X66447706Y-40208788D01*
X66430912Y-40140966D01*
X66453451Y-40074832D01*
X66498508Y-40035793D01*
X66507816Y-40031051D01*
X66587007Y-39973515D01*
X66679786Y-39906109D01*
X66679788Y-39906106D01*
X66679792Y-39906104D01*
X66830104Y-39755792D01*
X66830106Y-39755788D01*
X66830109Y-39755786D01*
X66955048Y-39583820D01*
X66955047Y-39583820D01*
X66955051Y-39583816D01*
X67051557Y-39394412D01*
X67117246Y-39192243D01*
X67150500Y-38982287D01*
X67150500Y-38769713D01*
X67117246Y-38559757D01*
X67051557Y-38357588D01*
X66955051Y-38168184D01*
X66955049Y-38168181D01*
X66955048Y-38168179D01*
X66830109Y-37996213D01*
X66679786Y-37845890D01*
X66507820Y-37720951D01*
X66507115Y-37720591D01*
X66499054Y-37716485D01*
X66448259Y-37668512D01*
X66431463Y-37600692D01*
X66453999Y-37534556D01*
X66499054Y-37495515D01*
X66507816Y-37491051D01*
X66529789Y-37475086D01*
X66679786Y-37366109D01*
X66679788Y-37366106D01*
X66679792Y-37366104D01*
X66830104Y-37215792D01*
X66830106Y-37215788D01*
X66830109Y-37215786D01*
X66955048Y-37043820D01*
X66955047Y-37043820D01*
X66955051Y-37043816D01*
X67051557Y-36854412D01*
X67117246Y-36652243D01*
X67150500Y-36442287D01*
X67150500Y-36229713D01*
X67117246Y-36019757D01*
X67051557Y-35817588D01*
X66955051Y-35628184D01*
X66955049Y-35628181D01*
X66955048Y-35628179D01*
X66830109Y-35456213D01*
X66716569Y-35342673D01*
X66683084Y-35281350D01*
X66688068Y-35211658D01*
X66729940Y-35155725D01*
X66760915Y-35138810D01*
X66892331Y-35089796D01*
X67007546Y-35003546D01*
X67093796Y-34888331D01*
X67144091Y-34753483D01*
X67150500Y-34693873D01*
X67150499Y-32898128D01*
X67144091Y-32838517D01*
X67093796Y-32703669D01*
X67093795Y-32703668D01*
X67093793Y-32703664D01*
X67007547Y-32588455D01*
X67007544Y-32588452D01*
X66892335Y-32502206D01*
X66892328Y-32502202D01*
X66757482Y-32451908D01*
X66757483Y-32451908D01*
X66697883Y-32445501D01*
X66697881Y-32445500D01*
X66697873Y-32445500D01*
X66697864Y-32445500D01*
X64902129Y-32445500D01*
X64902123Y-32445501D01*
X64842516Y-32451908D01*
X64707671Y-32502202D01*
X64707664Y-32502206D01*
X64592455Y-32588452D01*
X64592452Y-32588455D01*
X64506206Y-32703664D01*
X64506202Y-32703671D01*
X64455908Y-32838517D01*
X64449501Y-32898116D01*
X64449501Y-32898123D01*
X64449500Y-32898135D01*
X64449500Y-34693870D01*
X64449501Y-34693876D01*
X64455908Y-34753483D01*
X64506202Y-34888328D01*
X64506206Y-34888335D01*
X64592452Y-35003544D01*
X64592455Y-35003547D01*
X64707664Y-35089793D01*
X64707671Y-35089797D01*
X64839082Y-35138810D01*
X64895016Y-35180681D01*
X64919433Y-35246145D01*
X64904582Y-35314418D01*
X64883431Y-35342673D01*
X64769889Y-35456215D01*
X64644951Y-35628179D01*
X64548444Y-35817585D01*
X64482753Y-36019760D01*
X64449500Y-36229713D01*
X64449500Y-36442286D01*
X64482753Y-36652239D01*
X64548444Y-36854414D01*
X64644951Y-37043820D01*
X64769890Y-37215786D01*
X64920213Y-37366109D01*
X65092182Y-37491050D01*
X65100946Y-37495516D01*
X65151742Y-37543491D01*
X65168536Y-37611312D01*
X65145998Y-37677447D01*
X65100946Y-37716484D01*
X65092182Y-37720949D01*
X64920213Y-37845890D01*
X64769890Y-37996213D01*
X64644951Y-38168179D01*
X64548444Y-38357585D01*
X64482753Y-38559760D01*
X64449500Y-38769713D01*
X64449500Y-38982286D01*
X64482753Y-39192239D01*
X64548444Y-39394414D01*
X64644951Y-39583820D01*
X64769890Y-39755786D01*
X64920213Y-39906109D01*
X65092179Y-40031048D01*
X65092181Y-40031049D01*
X65092184Y-40031051D01*
X65101493Y-40035794D01*
X65152290Y-40083766D01*
X65169087Y-40151587D01*
X65146552Y-40217722D01*
X65101505Y-40256760D01*
X65092446Y-40261376D01*
X65092440Y-40261380D01*
X65038282Y-40300727D01*
X65038282Y-40300728D01*
X65670591Y-40933037D01*
X65607007Y-40950075D01*
X65492993Y-41015901D01*
X65399901Y-41108993D01*
X65334075Y-41223007D01*
X65317037Y-41286591D01*
X64684728Y-40654282D01*
X64684727Y-40654282D01*
X64645380Y-40708439D01*
X64548904Y-40897782D01*
X64483242Y-41099869D01*
X64483242Y-41099872D01*
X64450000Y-41309753D01*
X64450000Y-41522246D01*
X64483242Y-41732127D01*
X64483242Y-41732130D01*
X64548904Y-41934217D01*
X64645375Y-42123550D01*
X64684728Y-42177716D01*
X65317037Y-41545408D01*
X65334075Y-41608993D01*
X65399901Y-41723007D01*
X65492993Y-41816099D01*
X65607007Y-41881925D01*
X65670590Y-41898962D01*
X65038282Y-42531269D01*
X65038282Y-42531270D01*
X65092452Y-42570626D01*
X65092451Y-42570626D01*
X65101495Y-42575234D01*
X65152292Y-42623208D01*
X65169087Y-42691029D01*
X65146550Y-42757164D01*
X65101499Y-42796202D01*
X65092182Y-42800949D01*
X64920213Y-42925890D01*
X64769892Y-43076211D01*
X64713097Y-43154385D01*
X64657767Y-43197051D01*
X64612779Y-43205500D01*
X47970080Y-43205500D01*
X47825092Y-43234340D01*
X47825082Y-43234343D01*
X47688511Y-43290912D01*
X47688498Y-43290919D01*
X47565584Y-43373048D01*
X47565580Y-43373051D01*
X43742050Y-47196580D01*
X43742044Y-47196588D01*
X43692812Y-47270268D01*
X43692813Y-47270269D01*
X43659921Y-47319496D01*
X43659914Y-47319508D01*
X43603342Y-47456086D01*
X43603340Y-47456092D01*
X43574500Y-47601079D01*
X43574500Y-47601082D01*
X43574500Y-55498918D01*
X43574500Y-55498920D01*
X43574499Y-55498920D01*
X43603340Y-55643907D01*
X43603343Y-55643917D01*
X43658142Y-55776213D01*
X43659916Y-55780495D01*
X43684611Y-55817454D01*
X43684610Y-55817454D01*
X43742046Y-55903414D01*
X43742052Y-55903421D01*
X47096584Y-59257952D01*
X47096586Y-59257954D01*
X47122847Y-59275500D01*
X47170270Y-59307186D01*
X47219505Y-59340084D01*
X47219506Y-59340084D01*
X47219507Y-59340085D01*
X47219509Y-59340086D01*
X47290524Y-59369501D01*
X47356087Y-59396658D01*
X47356091Y-59396658D01*
X47356092Y-59396659D01*
X47501079Y-59425500D01*
X47501082Y-59425500D01*
X47501083Y-59425500D01*
X47648917Y-59425500D01*
X50325249Y-59425500D01*
X50392288Y-59445185D01*
X50412901Y-59461789D01*
X50419189Y-59468073D01*
X50467454Y-59532546D01*
X50532226Y-59581034D01*
X50538485Y-59587289D01*
X50551167Y-59610497D01*
X50567015Y-59631668D01*
X50567659Y-59640675D01*
X50571990Y-59648601D01*
X50570112Y-59674978D01*
X50571999Y-59701360D01*
X50567670Y-59709287D01*
X50567029Y-59718295D01*
X50551188Y-59739470D01*
X50538513Y-59762683D01*
X50525184Y-59774231D01*
X50525177Y-59774242D01*
X50525169Y-59774244D01*
X50525145Y-59774266D01*
X50467452Y-59817455D01*
X50381206Y-59932664D01*
X50381202Y-59932671D01*
X50330908Y-60067517D01*
X50329328Y-60082218D01*
X50324501Y-60127123D01*
X50324500Y-60127135D01*
X50324500Y-61222870D01*
X50324501Y-61222876D01*
X50330908Y-61282483D01*
X50381202Y-61417328D01*
X50381206Y-61417335D01*
X50467452Y-61532544D01*
X50467453Y-61532544D01*
X50467454Y-61532546D01*
X50496615Y-61554376D01*
X50525145Y-61575734D01*
X50567015Y-61631668D01*
X50571999Y-61701360D01*
X50538513Y-61762683D01*
X50525145Y-61774266D01*
X50467452Y-61817455D01*
X50381206Y-61932664D01*
X50381202Y-61932671D01*
X50330908Y-62067517D01*
X50324501Y-62127116D01*
X50324500Y-62127127D01*
X50324500Y-63222870D01*
X50324501Y-63222876D01*
X50330908Y-63282483D01*
X50381202Y-63417328D01*
X50381206Y-63417335D01*
X50467452Y-63532544D01*
X50467453Y-63532544D01*
X50467454Y-63532546D01*
X50502727Y-63558951D01*
X50525562Y-63576046D01*
X50567432Y-63631980D01*
X50572416Y-63701672D01*
X50538930Y-63762994D01*
X50525562Y-63774578D01*
X50467809Y-63817812D01*
X50381649Y-63932906D01*
X50381645Y-63932913D01*
X50331403Y-64067620D01*
X50331401Y-64067627D01*
X50325000Y-64127155D01*
X50325000Y-64425000D01*
X52825000Y-64425000D01*
X52825000Y-64127172D01*
X52824999Y-64127155D01*
X52818598Y-64067627D01*
X52818596Y-64067620D01*
X52803757Y-64027833D01*
X52798773Y-63958142D01*
X52832258Y-63896819D01*
X52893581Y-63863334D01*
X52919939Y-63860500D01*
X64514281Y-63860500D01*
X64581320Y-63880185D01*
X64624765Y-63928205D01*
X64644947Y-63967814D01*
X64644948Y-63967815D01*
X64769890Y-64139786D01*
X64920213Y-64290109D01*
X65092182Y-64415050D01*
X65100946Y-64419516D01*
X65151742Y-64467491D01*
X65168536Y-64535312D01*
X65145998Y-64601447D01*
X65100946Y-64640484D01*
X65092182Y-64644949D01*
X64920213Y-64769890D01*
X64769890Y-64920213D01*
X64644948Y-65092184D01*
X64644947Y-65092185D01*
X64624765Y-65131795D01*
X64576791Y-65182591D01*
X64514281Y-65199500D01*
X52949000Y-65199500D01*
X52881961Y-65179815D01*
X52836206Y-65127011D01*
X52825000Y-65075500D01*
X52825000Y-64925000D01*
X50325000Y-64925000D01*
X50325000Y-65075500D01*
X50305315Y-65142539D01*
X50252511Y-65188294D01*
X50201000Y-65199500D01*
X37000097Y-65199500D01*
X36970656Y-65190855D01*
X36940670Y-65184332D01*
X36935654Y-65180577D01*
X36933058Y-65179815D01*
X36912416Y-65163181D01*
X36861818Y-65112583D01*
X36828333Y-65051260D01*
X36825499Y-65024902D01*
X36825499Y-64127129D01*
X36825498Y-64127123D01*
X36825497Y-64127116D01*
X36819091Y-64067517D01*
X36806238Y-64033057D01*
X36768797Y-63932671D01*
X36768793Y-63932664D01*
X36682547Y-63817456D01*
X36682548Y-63817456D01*
X36682546Y-63817454D01*
X36624854Y-63774265D01*
X36582984Y-63718333D01*
X36578000Y-63648641D01*
X36611485Y-63587318D01*
X36624850Y-63575736D01*
X36682546Y-63532546D01*
X36768796Y-63417331D01*
X36819091Y-63282483D01*
X36825500Y-63222873D01*
X36825499Y-62127128D01*
X36819412Y-62070499D01*
X36819091Y-62067516D01*
X36768797Y-61932671D01*
X36768793Y-61932664D01*
X36682547Y-61817456D01*
X36682548Y-61817456D01*
X36682546Y-61817454D01*
X36624854Y-61774265D01*
X36582984Y-61718333D01*
X36578000Y-61648641D01*
X36611485Y-61587318D01*
X36624854Y-61575734D01*
X36682546Y-61532546D01*
X36768796Y-61417331D01*
X36819091Y-61282483D01*
X36825500Y-61222873D01*
X36825499Y-60127128D01*
X36819091Y-60067517D01*
X36814353Y-60054815D01*
X36768797Y-59932671D01*
X36768793Y-59932664D01*
X36686050Y-59822135D01*
X36682546Y-59817454D01*
X36624854Y-59774265D01*
X36582984Y-59718333D01*
X36578000Y-59648641D01*
X36611485Y-59587318D01*
X36624854Y-59575734D01*
X36682546Y-59532546D01*
X36768796Y-59417331D01*
X36819091Y-59282483D01*
X36825500Y-59222873D01*
X36825499Y-58127128D01*
X36819091Y-58067517D01*
X36783930Y-57973246D01*
X36768797Y-57932671D01*
X36768793Y-57932664D01*
X36682547Y-57817456D01*
X36682548Y-57817456D01*
X36682546Y-57817454D01*
X36624854Y-57774265D01*
X36582984Y-57718333D01*
X36578000Y-57648641D01*
X36611485Y-57587318D01*
X36624854Y-57575734D01*
X36682546Y-57532546D01*
X36768796Y-57417331D01*
X36819091Y-57282483D01*
X36825500Y-57222873D01*
X36825499Y-56127128D01*
X36819091Y-56067517D01*
X36814353Y-56054815D01*
X36768797Y-55932671D01*
X36768793Y-55932664D01*
X36717123Y-55863643D01*
X36682546Y-55817454D01*
X36624854Y-55774265D01*
X36582984Y-55718333D01*
X36578000Y-55648641D01*
X36611485Y-55587318D01*
X36624850Y-55575736D01*
X36682546Y-55532546D01*
X36768796Y-55417331D01*
X36819091Y-55282483D01*
X36825500Y-55222873D01*
X36825499Y-54127128D01*
X36819091Y-54067517D01*
X36795184Y-54003420D01*
X36768797Y-53932671D01*
X36768793Y-53932664D01*
X36682547Y-53817455D01*
X36678240Y-53814231D01*
X36624856Y-53774267D01*
X36624437Y-53773953D01*
X36582567Y-53718019D01*
X36577583Y-53648327D01*
X36611069Y-53587004D01*
X36624439Y-53575420D01*
X36682189Y-53532188D01*
X36682190Y-53532187D01*
X36768350Y-53417093D01*
X36768354Y-53417086D01*
X36818596Y-53282379D01*
X36818598Y-53282372D01*
X36824999Y-53222844D01*
X36825000Y-53222827D01*
X36825000Y-52925000D01*
X34325000Y-52925000D01*
X34325000Y-53222844D01*
X34331401Y-53282372D01*
X34331403Y-53282379D01*
X34381645Y-53417086D01*
X34381649Y-53417093D01*
X34467809Y-53532186D01*
X34525561Y-53575420D01*
X34567432Y-53631354D01*
X34572416Y-53701046D01*
X34538931Y-53762369D01*
X34538866Y-53762434D01*
X34532619Y-53768670D01*
X34467454Y-53817454D01*
X34419174Y-53881947D01*
X34412865Y-53888247D01*
X34389697Y-53900874D01*
X34368581Y-53916682D01*
X34356796Y-53918808D01*
X34351517Y-53921686D01*
X34343898Y-53921135D01*
X34325249Y-53924500D01*
X29887230Y-53924500D01*
X29820191Y-53904815D01*
X29799549Y-53888181D01*
X25888421Y-49977052D01*
X25888420Y-49977051D01*
X25853671Y-49953833D01*
X25796738Y-49915792D01*
X25765495Y-49894916D01*
X25765488Y-49894912D01*
X25628917Y-49838343D01*
X25628907Y-49838340D01*
X25483920Y-49809500D01*
X25483918Y-49809500D01*
X18727221Y-49809500D01*
X18660182Y-49789815D01*
X18626903Y-49758385D01*
X18570107Y-49680211D01*
X18419786Y-49529890D01*
X18247820Y-49404951D01*
X18247115Y-49404591D01*
X18239054Y-49400485D01*
X18188259Y-49352512D01*
X18171463Y-49284692D01*
X18193999Y-49218556D01*
X18239054Y-49179515D01*
X18247816Y-49175051D01*
X18292912Y-49142287D01*
X18419786Y-49050109D01*
X18419788Y-49050106D01*
X18419792Y-49050104D01*
X18570104Y-48899792D01*
X18570106Y-48899788D01*
X18570109Y-48899786D01*
X18695048Y-48727820D01*
X18695047Y-48727820D01*
X18695051Y-48727816D01*
X18791557Y-48538412D01*
X18857246Y-48336243D01*
X18890500Y-48126287D01*
X18890500Y-47913713D01*
X18857246Y-47703757D01*
X18791557Y-47501588D01*
X18695051Y-47312184D01*
X18695049Y-47312181D01*
X18695048Y-47312179D01*
X18570109Y-47140213D01*
X18419786Y-46989890D01*
X18247820Y-46864951D01*
X18247115Y-46864591D01*
X18239054Y-46860485D01*
X18188259Y-46812512D01*
X18171463Y-46744692D01*
X18193999Y-46678556D01*
X18239054Y-46639515D01*
X18247816Y-46635051D01*
X18292912Y-46602287D01*
X18419786Y-46510109D01*
X18419788Y-46510106D01*
X18419792Y-46510104D01*
X18570104Y-46359792D01*
X18570106Y-46359788D01*
X18570109Y-46359786D01*
X18695048Y-46187820D01*
X18695047Y-46187820D01*
X18695051Y-46187816D01*
X18791557Y-45998412D01*
X18857246Y-45796243D01*
X18890500Y-45586287D01*
X18890500Y-45373713D01*
X18857246Y-45163757D01*
X18791557Y-44961588D01*
X18695051Y-44772184D01*
X18695049Y-44772181D01*
X18695048Y-44772179D01*
X18570109Y-44600213D01*
X18419786Y-44449890D01*
X18247820Y-44324951D01*
X18247115Y-44324591D01*
X18239054Y-44320485D01*
X18188259Y-44272512D01*
X18171463Y-44204692D01*
X18193999Y-44138556D01*
X18239054Y-44099515D01*
X18247816Y-44095051D01*
X18292912Y-44062287D01*
X18419786Y-43970109D01*
X18419788Y-43970106D01*
X18419792Y-43970104D01*
X18570104Y-43819792D01*
X18570106Y-43819788D01*
X18570109Y-43819786D01*
X18695048Y-43647820D01*
X18695047Y-43647820D01*
X18695051Y-43647816D01*
X18791557Y-43458412D01*
X18857246Y-43256243D01*
X18890500Y-43046287D01*
X18890500Y-42833713D01*
X18857246Y-42623757D01*
X18791557Y-42421588D01*
X18695051Y-42232184D01*
X18695049Y-42232181D01*
X18695048Y-42232179D01*
X18570109Y-42060213D01*
X18419786Y-41909890D01*
X18247820Y-41784951D01*
X18058414Y-41688444D01*
X18058413Y-41688443D01*
X18058412Y-41688443D01*
X17856243Y-41622754D01*
X17856241Y-41622753D01*
X17856240Y-41622753D01*
X17694957Y-41597208D01*
X17646287Y-41589500D01*
X17433713Y-41589500D01*
X17385042Y-41597208D01*
X17223760Y-41622753D01*
X17021585Y-41688444D01*
X16832179Y-41784951D01*
X16660213Y-41909890D01*
X16509890Y-42060213D01*
X16384951Y-42232179D01*
X16288444Y-42421585D01*
X16222753Y-42623760D01*
X16189500Y-42833713D01*
X15500500Y-42833713D01*
X15500500Y-19003051D01*
X15500649Y-18996967D01*
X15503737Y-18934108D01*
X15507399Y-18859568D01*
X21499500Y-18859568D01*
X21499500Y-19140431D01*
X21530942Y-19419494D01*
X21530945Y-19419512D01*
X21593439Y-19693317D01*
X21593443Y-19693329D01*
X21686200Y-19958411D01*
X21808053Y-20211442D01*
X21808055Y-20211445D01*
X21957477Y-20449248D01*
X22132584Y-20668825D01*
X22331175Y-20867416D01*
X22550752Y-21042523D01*
X22788555Y-21191945D01*
X23041592Y-21313801D01*
X23240680Y-21383465D01*
X23306670Y-21406556D01*
X23306682Y-21406560D01*
X23580491Y-21469055D01*
X23580497Y-21469055D01*
X23580505Y-21469057D01*
X23766547Y-21490018D01*
X23859569Y-21500499D01*
X23859572Y-21500500D01*
X23859575Y-21500500D01*
X24140428Y-21500500D01*
X24140429Y-21500499D01*
X24283055Y-21484429D01*
X24419494Y-21469057D01*
X24419499Y-21469056D01*
X24419509Y-21469055D01*
X24693318Y-21406560D01*
X24958408Y-21313801D01*
X25211445Y-21191945D01*
X25389056Y-21080344D01*
X30100000Y-21080344D01*
X30106401Y-21139872D01*
X30106403Y-21139879D01*
X30156645Y-21274586D01*
X30156649Y-21274593D01*
X30242809Y-21389687D01*
X30242812Y-21389690D01*
X30357906Y-21475850D01*
X30357913Y-21475854D01*
X30492620Y-21526096D01*
X30492627Y-21526098D01*
X30552155Y-21532499D01*
X30552172Y-21532500D01*
X31100000Y-21532500D01*
X31600000Y-21532500D01*
X32147828Y-21532500D01*
X32147844Y-21532499D01*
X32207372Y-21526098D01*
X32207379Y-21526096D01*
X32342086Y-21475854D01*
X32342093Y-21475850D01*
X32457187Y-21389690D01*
X32457190Y-21389687D01*
X32543350Y-21274593D01*
X32543354Y-21274586D01*
X32593596Y-21139879D01*
X32593598Y-21139872D01*
X32599999Y-21080344D01*
X32600000Y-21080327D01*
X32600000Y-18742500D01*
X31600000Y-18742500D01*
X31600000Y-21532500D01*
X31100000Y-21532500D01*
X31100000Y-18742500D01*
X30100000Y-18742500D01*
X30100000Y-21080344D01*
X25389056Y-21080344D01*
X25449248Y-21042523D01*
X25668825Y-20867416D01*
X25867416Y-20668825D01*
X26042523Y-20449248D01*
X26191945Y-20211445D01*
X26313801Y-19958408D01*
X26406560Y-19693318D01*
X26469055Y-19419509D01*
X26500500Y-19140425D01*
X26500500Y-18859575D01*
X26497288Y-18831071D01*
X26483087Y-18705021D01*
X26472895Y-18614573D01*
X26469055Y-18580491D01*
X26406560Y-18306682D01*
X26313801Y-18041592D01*
X26191945Y-17788555D01*
X26042523Y-17550752D01*
X25867416Y-17331175D01*
X25668825Y-17132584D01*
X25637438Y-17107554D01*
X25566388Y-17050893D01*
X25449248Y-16957477D01*
X25211445Y-16808055D01*
X25211442Y-16808053D01*
X24958411Y-16686200D01*
X24693329Y-16593443D01*
X24693317Y-16593439D01*
X24419512Y-16530945D01*
X24419494Y-16530942D01*
X24140431Y-16499500D01*
X24140425Y-16499500D01*
X23859575Y-16499500D01*
X23859568Y-16499500D01*
X23580505Y-16530942D01*
X23580487Y-16530945D01*
X23306682Y-16593439D01*
X23306670Y-16593443D01*
X23041588Y-16686200D01*
X22788557Y-16808053D01*
X22550753Y-16957476D01*
X22331175Y-17132583D01*
X22132583Y-17331175D01*
X21957476Y-17550753D01*
X21808053Y-17788557D01*
X21686200Y-18041588D01*
X21593443Y-18306670D01*
X21593439Y-18306682D01*
X21530945Y-18580487D01*
X21530942Y-18580505D01*
X21499500Y-18859568D01*
X15507399Y-18859568D01*
X15517052Y-18663066D01*
X15518245Y-18650962D01*
X15551590Y-18426166D01*
X15566849Y-18323296D01*
X15569218Y-18311385D01*
X15649710Y-17990043D01*
X15653240Y-17978411D01*
X15721171Y-17788557D01*
X15764835Y-17666525D01*
X15769476Y-17655318D01*
X15911124Y-17355828D01*
X15916840Y-17345136D01*
X16087145Y-17060998D01*
X16093888Y-17050905D01*
X16291232Y-16784818D01*
X16298935Y-16775433D01*
X16521405Y-16529975D01*
X16529975Y-16521405D01*
X16775433Y-16298935D01*
X16784818Y-16291232D01*
X17050905Y-16093888D01*
X17060998Y-16087145D01*
X17345136Y-15916840D01*
X17355828Y-15911124D01*
X17655318Y-15769476D01*
X17666525Y-15764835D01*
X17978412Y-15653239D01*
X17990043Y-15649710D01*
X18311385Y-15569218D01*
X18323296Y-15566849D01*
X18650962Y-15518244D01*
X18663068Y-15517052D01*
X18996967Y-15500648D01*
X19003051Y-15500500D01*
X19065892Y-15500500D01*
X30066064Y-15500500D01*
X30133103Y-15520185D01*
G37*
%TD.AperFunction*%
%TD*%
M02*
