%TF.GenerationSoftware,KiCad,Pcbnew,9.0.4*%
%TF.CreationDate,2025-12-01T13:26:06+09:00*%
%TF.ProjectId,Handy_LoRa,48616e64-795f-44c6-9f52-612e6b696361,rev?*%
%TF.SameCoordinates,Original*%
%TF.FileFunction,Drillmap*%
%TF.FilePolarity,Positive*%
%FSLAX45Y45*%
G04 Gerber Fmt 4.5, Leading zero omitted, Abs format (unit mm)*
G04 Created by KiCad (PCBNEW 9.0.4) date 2025-12-01 13:26:06*
%MOMM*%
%LPD*%
G01*
G04 APERTURE LIST*
%ADD10C,0.050000*%
%ADD11C,0.200000*%
G04 APERTURE END LIST*
D10*
X2600000Y-8000000D02*
G75*
G02*
X2200000Y-8000000I-200000J0D01*
G01*
X2200000Y-8000000D02*
G75*
G02*
X2600000Y-8000000I200000J0D01*
G01*
X6500000Y-1500000D02*
X6455000Y-1500000D01*
X6455000Y-1500000D02*
X1900000Y-1500000D01*
X1815000Y-8360000D02*
X6500000Y-8360000D01*
X5900000Y-8000000D02*
G75*
G02*
X5500000Y-8000000I-200000J0D01*
G01*
X5500000Y-8000000D02*
G75*
G02*
X5900000Y-8000000I200000J0D01*
G01*
X6835000Y-8025000D02*
G75*
G02*
X6500000Y-8360000I-335000J0D01*
G01*
X5900000Y-1900000D02*
G75*
G02*
X5500000Y-1900000I-200000J0D01*
G01*
X5500000Y-1900000D02*
G75*
G02*
X5900000Y-1900000I200000J0D01*
G01*
X6500000Y-1500000D02*
G75*
G02*
X6835000Y-1835000I0J-335000D01*
G01*
X2600000Y-1900000D02*
G75*
G02*
X2200000Y-1900000I-200000J0D01*
G01*
X2200000Y-1900000D02*
G75*
G02*
X2600000Y-1900000I200000J0D01*
G01*
X1815000Y-8360000D02*
G75*
G02*
X1500000Y-8045000I0J315000D01*
G01*
X6835000Y-8025000D02*
X6835000Y-1835000D01*
X1500000Y-1900000D02*
X1500000Y-8045000D01*
X1500000Y-1900000D02*
G75*
G02*
X1900000Y-1500000I400000J0D01*
G01*
D11*
X1758277Y-8673984D02*
X1758277Y-8473984D01*
X1758277Y-8473984D02*
X1805896Y-8473984D01*
X1805896Y-8473984D02*
X1834467Y-8483508D01*
X1834467Y-8483508D02*
X1853515Y-8502555D01*
X1853515Y-8502555D02*
X1863039Y-8521603D01*
X1863039Y-8521603D02*
X1872562Y-8559698D01*
X1872562Y-8559698D02*
X1872562Y-8588270D01*
X1872562Y-8588270D02*
X1863039Y-8626365D01*
X1863039Y-8626365D02*
X1853515Y-8645412D01*
X1853515Y-8645412D02*
X1834467Y-8664460D01*
X1834467Y-8664460D02*
X1805896Y-8673984D01*
X1805896Y-8673984D02*
X1758277Y-8673984D01*
X1958277Y-8673984D02*
X1958277Y-8540650D01*
X1958277Y-8578746D02*
X1967801Y-8559698D01*
X1967801Y-8559698D02*
X1977324Y-8550174D01*
X1977324Y-8550174D02*
X1996372Y-8540650D01*
X1996372Y-8540650D02*
X2015420Y-8540650D01*
X2082086Y-8673984D02*
X2082086Y-8540650D01*
X2082086Y-8473984D02*
X2072562Y-8483508D01*
X2072562Y-8483508D02*
X2082086Y-8493031D01*
X2082086Y-8493031D02*
X2091610Y-8483508D01*
X2091610Y-8483508D02*
X2082086Y-8473984D01*
X2082086Y-8473984D02*
X2082086Y-8493031D01*
X2205896Y-8673984D02*
X2186848Y-8664460D01*
X2186848Y-8664460D02*
X2177324Y-8645412D01*
X2177324Y-8645412D02*
X2177324Y-8473984D01*
X2310658Y-8673984D02*
X2291610Y-8664460D01*
X2291610Y-8664460D02*
X2282086Y-8645412D01*
X2282086Y-8645412D02*
X2282086Y-8473984D01*
X2539229Y-8673984D02*
X2539229Y-8473984D01*
X2539229Y-8473984D02*
X2605896Y-8616841D01*
X2605896Y-8616841D02*
X2672563Y-8473984D01*
X2672563Y-8473984D02*
X2672563Y-8673984D01*
X2853515Y-8673984D02*
X2853515Y-8569222D01*
X2853515Y-8569222D02*
X2843991Y-8550174D01*
X2843991Y-8550174D02*
X2824943Y-8540650D01*
X2824943Y-8540650D02*
X2786848Y-8540650D01*
X2786848Y-8540650D02*
X2767801Y-8550174D01*
X2853515Y-8664460D02*
X2834467Y-8673984D01*
X2834467Y-8673984D02*
X2786848Y-8673984D01*
X2786848Y-8673984D02*
X2767801Y-8664460D01*
X2767801Y-8664460D02*
X2758277Y-8645412D01*
X2758277Y-8645412D02*
X2758277Y-8626365D01*
X2758277Y-8626365D02*
X2767801Y-8607317D01*
X2767801Y-8607317D02*
X2786848Y-8597793D01*
X2786848Y-8597793D02*
X2834467Y-8597793D01*
X2834467Y-8597793D02*
X2853515Y-8588270D01*
X2948753Y-8540650D02*
X2948753Y-8740650D01*
X2948753Y-8550174D02*
X2967801Y-8540650D01*
X2967801Y-8540650D02*
X3005896Y-8540650D01*
X3005896Y-8540650D02*
X3024943Y-8550174D01*
X3024943Y-8550174D02*
X3034467Y-8559698D01*
X3034467Y-8559698D02*
X3043991Y-8578746D01*
X3043991Y-8578746D02*
X3043991Y-8635889D01*
X3043991Y-8635889D02*
X3034467Y-8654936D01*
X3034467Y-8654936D02*
X3024943Y-8664460D01*
X3024943Y-8664460D02*
X3005896Y-8673984D01*
X3005896Y-8673984D02*
X2967801Y-8673984D01*
X2967801Y-8673984D02*
X2948753Y-8664460D01*
X3129705Y-8654936D02*
X3139229Y-8664460D01*
X3139229Y-8664460D02*
X3129705Y-8673984D01*
X3129705Y-8673984D02*
X3120182Y-8664460D01*
X3120182Y-8664460D02*
X3129705Y-8654936D01*
X3129705Y-8654936D02*
X3129705Y-8673984D01*
X3129705Y-8550174D02*
X3139229Y-8559698D01*
X3139229Y-8559698D02*
X3129705Y-8569222D01*
X3129705Y-8569222D02*
X3120182Y-8559698D01*
X3120182Y-8559698D02*
X3129705Y-8550174D01*
X3129705Y-8550174D02*
X3129705Y-8569222D01*
M02*
